%TF.GenerationSoftware,KiCad,Pcbnew,(5.1.6)-1*%
%TF.CreationDate,2021-05-23T01:52:29+08:00*%
%TF.ProjectId,HKIA_Tracker,484b4941-5f54-4726-9163-6b65722e6b69,rev?*%
%TF.SameCoordinates,Original*%
%TF.FileFunction,Copper,L3,Inr*%
%TF.FilePolarity,Positive*%
%FSLAX46Y46*%
G04 Gerber Fmt 4.6, Leading zero omitted, Abs format (unit mm)*
G04 Created by KiCad (PCBNEW (5.1.6)-1) date 2021-05-23 01:52:29*
%MOMM*%
%LPD*%
G01*
G04 APERTURE LIST*
%TA.AperFunction,ViaPad*%
%ADD10O,1.700000X1.700000*%
%TD*%
%TA.AperFunction,ViaPad*%
%ADD11R,1.700000X1.700000*%
%TD*%
%TA.AperFunction,ViaPad*%
%ADD12C,6.400000*%
%TD*%
%TA.AperFunction,ViaPad*%
%ADD13C,0.400000*%
%TD*%
%TA.AperFunction,ViaPad*%
%ADD14C,0.800000*%
%TD*%
%TA.AperFunction,Conductor*%
%ADD15C,0.254000*%
%TD*%
G04 APERTURE END LIST*
D10*
%TO.N,/ESP_TX*%
%TO.C,J5*%
X144741900Y-78473300D03*
%TO.N,GND*%
X142201900Y-78473300D03*
%TO.N,/ESP_RX*%
X139661900Y-78473300D03*
D11*
%TO.N,+3.3VP*%
X137121900Y-78473300D03*
%TD*%
D10*
%TO.N,Net-(J3-Pad2)*%
%TO.C,J3*%
X123952000Y-107188000D03*
D11*
%TO.N,Net-(J3-Pad1)*%
X121412000Y-107188000D03*
%TD*%
D12*
%TO.N,N/C*%
%TO.C,H2*%
X105000000Y-80000000D03*
%TD*%
%TO.N,N/C*%
%TO.C,H1*%
X145000000Y-120000000D03*
%TD*%
D10*
%TO.N,Net-(D1-Pad2)*%
%TO.C,J1*%
X102514400Y-116255800D03*
%TO.N,Net-(D3-Pad2)*%
X102514400Y-118795800D03*
D11*
%TO.N,Net-(D5-Pad2)*%
X102514400Y-121335800D03*
%TD*%
D13*
%TO.N,GND*%
X110744000Y-121666000D03*
X109601000Y-121666000D03*
X109601000Y-122555000D03*
X110744000Y-122555000D03*
X110744000Y-120777000D03*
X109601000Y-120777000D03*
X105791000Y-121666000D03*
X106934000Y-121666000D03*
X106934000Y-120777000D03*
X106934000Y-122555000D03*
X105791000Y-122555000D03*
X105791000Y-120777000D03*
X129413000Y-117094000D03*
X130683000Y-117094000D03*
X130683000Y-118364000D03*
X129413000Y-118364000D03*
X130048000Y-118364000D03*
X130048000Y-117094000D03*
X130683000Y-117729000D03*
X129413000Y-117729000D03*
X130048000Y-117729000D03*
D14*
X101854000Y-94742000D03*
X108458000Y-95123000D03*
X107188000Y-91186000D03*
X104648000Y-89789000D03*
X103809935Y-92625658D03*
X106553000Y-85471000D03*
X111633000Y-85725000D03*
X111633000Y-83185000D03*
X111633000Y-81915000D03*
X125476000Y-81915000D03*
X127508000Y-84201000D03*
X125476000Y-83185000D03*
X129032000Y-78232000D03*
X130175000Y-77216000D03*
X131826000Y-78740000D03*
X132461000Y-88138000D03*
X133604000Y-89789000D03*
X133604000Y-91059000D03*
X133604000Y-93599000D03*
X130937000Y-93218000D03*
X124714000Y-98806000D03*
X123571000Y-101092000D03*
X123571000Y-102108000D03*
X129045802Y-101092000D03*
X134112000Y-102362000D03*
X134112000Y-103505000D03*
D13*
X132207000Y-104140000D03*
X132207000Y-104648000D03*
X132207000Y-105156000D03*
X132207000Y-105664000D03*
X132207000Y-106172000D03*
X130048000Y-106172000D03*
D14*
X128803400Y-110134400D03*
X128803398Y-108483398D03*
X128524000Y-111506000D03*
X130175000Y-111506000D03*
X131826000Y-111506000D03*
X135636000Y-111252000D03*
X136652000Y-111252000D03*
X137668000Y-111252000D03*
X138684000Y-111252000D03*
X140208000Y-106426000D03*
X141224000Y-106426000D03*
X142240000Y-106426000D03*
X143256000Y-106426000D03*
X143256000Y-105283000D03*
X142240000Y-105283000D03*
X141224000Y-105283000D03*
X140208000Y-105283000D03*
X107569000Y-105156000D03*
X108204000Y-106426000D03*
X108966000Y-102997000D03*
X111887000Y-108204000D03*
X115316000Y-108585000D03*
X118999000Y-109347000D03*
X118364000Y-108585000D03*
X117094000Y-108585000D03*
X112141000Y-116459000D03*
X112141000Y-117602000D03*
X113411000Y-118745000D03*
X119126000Y-116332000D03*
X119126000Y-117983000D03*
X119634000Y-117094000D03*
X143510000Y-101727000D03*
X136398000Y-119380000D03*
X138303000Y-119634000D03*
X136017000Y-122047000D03*
X139192000Y-121031000D03*
X138303000Y-120522986D03*
X138303000Y-121411994D03*
X140589000Y-121920000D03*
X136398000Y-113919000D03*
X136906000Y-115951000D03*
X136906000Y-117094000D03*
X128270000Y-120269000D03*
X128016000Y-122301000D03*
X130937000Y-122301000D03*
X119126000Y-118872000D03*
%TO.N,+3V3*%
X101600000Y-91567000D03*
X101600000Y-97028000D03*
X105791000Y-96647000D03*
X137922000Y-114300000D03*
X138938000Y-114300000D03*
X139954000Y-114300000D03*
X140970000Y-114300000D03*
X141986000Y-114300000D03*
X141986000Y-115316000D03*
X140970000Y-115316000D03*
X140970000Y-116332000D03*
X141986000Y-116332000D03*
X141986000Y-117348000D03*
X140970000Y-117348000D03*
X140970000Y-118364000D03*
X139954000Y-118364000D03*
X139954000Y-117348000D03*
X133604000Y-88519000D03*
X132461000Y-90424000D03*
X110617000Y-103632000D03*
X110617000Y-104648000D03*
X110617000Y-105664000D03*
D13*
X134493000Y-95123000D03*
X135721898Y-97821800D03*
D14*
%TO.N,Net-(C7-Pad1)*%
X115697000Y-118618000D03*
X115697000Y-119634000D03*
X115697000Y-120650000D03*
X115697000Y-121666000D03*
X121285000Y-114935000D03*
X119507000Y-114935000D03*
X120396000Y-114935000D03*
%TO.N,VBUS*%
X125984000Y-107696000D03*
X125984000Y-108712000D03*
X125984000Y-109728000D03*
X125984000Y-110744000D03*
X127635000Y-110744000D03*
X127635000Y-109728000D03*
X127635000Y-108712000D03*
D13*
X133731000Y-114300000D03*
X133731000Y-114808000D03*
X133731000Y-115316000D03*
X133731000Y-115824000D03*
X134239000Y-115824000D03*
X134747000Y-115824000D03*
X135255000Y-115824000D03*
X135255000Y-115316000D03*
X135255000Y-114808000D03*
X135255000Y-114300000D03*
X135001000Y-116332000D03*
X135001000Y-116840000D03*
X135001000Y-117348000D03*
D14*
%TO.N,+3.3VP*%
X135763000Y-79883000D03*
X130175000Y-99949000D03*
X130175000Y-100965000D03*
X132842000Y-99949000D03*
X137795000Y-100584000D03*
X136779000Y-104902000D03*
X136779000Y-105791000D03*
X136779000Y-106680000D03*
X136779000Y-107569000D03*
X130175000Y-78486000D03*
%TO.N,Net-(D5-Pad2)*%
X115697000Y-113665000D03*
X115697000Y-115062000D03*
X112268000Y-115062000D03*
X112268000Y-113665000D03*
%TO.N,+BATT*%
X117410228Y-107636315D03*
X131953000Y-114935000D03*
D13*
%TO.N,Net-(R10-Pad2)*%
X124968000Y-116332000D03*
X124968000Y-121285000D03*
X124968000Y-119634000D03*
D14*
%TO.N,/NRF_RX*%
X123062984Y-86106016D03*
%TO.N,/SDA*%
X102819200Y-96901000D03*
X108432600Y-91313000D03*
%TO.N,/SCL*%
X104394000Y-96824800D03*
X108432600Y-92811600D03*
%TO.N,/NRF_TX*%
X120142000Y-97409000D03*
%TO.N,/ESP_EN*%
X117602000Y-105664000D03*
X130538038Y-107442000D03*
%TO.N,/DRDY*%
X104521000Y-93345000D03*
X108585000Y-89535000D03*
%TD*%
D15*
%TO.N,+3V3*%
G36*
X109855000Y-80772000D02*
G01*
X109857440Y-80796776D01*
X109864667Y-80820601D01*
X109876403Y-80842557D01*
X109892197Y-80861803D01*
X109911443Y-80877597D01*
X109933399Y-80889333D01*
X109957224Y-80896560D01*
X109982000Y-80899000D01*
X127635000Y-80899000D01*
X127659776Y-80896560D01*
X127683601Y-80889333D01*
X127705557Y-80877597D01*
X127724803Y-80861803D01*
X127740597Y-80842557D01*
X127752333Y-80820601D01*
X127759560Y-80796776D01*
X127762000Y-80772000D01*
X127762000Y-76127000D01*
X145996440Y-76127000D01*
X146321646Y-76145263D01*
X146639266Y-76199228D01*
X146948818Y-76288409D01*
X147246468Y-76411700D01*
X147528421Y-76567529D01*
X147791156Y-76753951D01*
X148031376Y-76968624D01*
X148246049Y-77208844D01*
X148432471Y-77471579D01*
X148588300Y-77753532D01*
X148711591Y-78051182D01*
X148800772Y-78360734D01*
X148854737Y-78678354D01*
X148873000Y-79003560D01*
X148873000Y-81407000D01*
X141859000Y-81407000D01*
X141834224Y-81409440D01*
X141810399Y-81416667D01*
X141788443Y-81428403D01*
X141769197Y-81444197D01*
X141753403Y-81463443D01*
X141741667Y-81485399D01*
X141734440Y-81509224D01*
X141732000Y-81534000D01*
X141732000Y-97917000D01*
X141734440Y-97941776D01*
X141741667Y-97965601D01*
X141753403Y-97987557D01*
X141769197Y-98006803D01*
X141788443Y-98022597D01*
X141810399Y-98034333D01*
X141834224Y-98041560D01*
X141859000Y-98044000D01*
X148873000Y-98044000D01*
X148873000Y-120996440D01*
X148854737Y-121321646D01*
X148800772Y-121639266D01*
X148711591Y-121948818D01*
X148588300Y-122246468D01*
X148432471Y-122528421D01*
X148246049Y-122791156D01*
X148031376Y-123031376D01*
X147791156Y-123246049D01*
X147528421Y-123432471D01*
X147246468Y-123588300D01*
X146948818Y-123711591D01*
X146639266Y-123800772D01*
X146321646Y-123854737D01*
X145996440Y-123873000D01*
X104003560Y-123873000D01*
X103678354Y-123854737D01*
X103360734Y-123800772D01*
X103051182Y-123711591D01*
X102753532Y-123588300D01*
X102471579Y-123432471D01*
X102208844Y-123246049D01*
X101968624Y-123031376D01*
X101753951Y-122791156D01*
X101567529Y-122528421D01*
X101547415Y-122492027D01*
X101600297Y-122508068D01*
X101664400Y-122514382D01*
X103364400Y-122514382D01*
X103428503Y-122508068D01*
X103490143Y-122489370D01*
X103546950Y-122459006D01*
X103596743Y-122418143D01*
X103637606Y-122368350D01*
X103667970Y-122311543D01*
X103686668Y-122249903D01*
X103692982Y-122185800D01*
X103692982Y-120725095D01*
X105264000Y-120725095D01*
X105264000Y-120828905D01*
X105284252Y-120930720D01*
X105323979Y-121026628D01*
X105381652Y-121112943D01*
X105455057Y-121186348D01*
X105507666Y-121221500D01*
X105455057Y-121256652D01*
X105381652Y-121330057D01*
X105323979Y-121416372D01*
X105284252Y-121512280D01*
X105264000Y-121614095D01*
X105264000Y-121717905D01*
X105284252Y-121819720D01*
X105323979Y-121915628D01*
X105381652Y-122001943D01*
X105455057Y-122075348D01*
X105507666Y-122110500D01*
X105455057Y-122145652D01*
X105381652Y-122219057D01*
X105323979Y-122305372D01*
X105284252Y-122401280D01*
X105264000Y-122503095D01*
X105264000Y-122606905D01*
X105284252Y-122708720D01*
X105323979Y-122804628D01*
X105381652Y-122890943D01*
X105455057Y-122964348D01*
X105541372Y-123022021D01*
X105637280Y-123061748D01*
X105739095Y-123082000D01*
X105842905Y-123082000D01*
X105944720Y-123061748D01*
X106040628Y-123022021D01*
X106126943Y-122964348D01*
X106200348Y-122890943D01*
X106258021Y-122804628D01*
X106297748Y-122708720D01*
X106318000Y-122606905D01*
X106318000Y-122503095D01*
X106297748Y-122401280D01*
X106258021Y-122305372D01*
X106200348Y-122219057D01*
X106126943Y-122145652D01*
X106074334Y-122110500D01*
X106126943Y-122075348D01*
X106200348Y-122001943D01*
X106258021Y-121915628D01*
X106297748Y-121819720D01*
X106318000Y-121717905D01*
X106318000Y-121614095D01*
X106297748Y-121512280D01*
X106258021Y-121416372D01*
X106200348Y-121330057D01*
X106126943Y-121256652D01*
X106074334Y-121221500D01*
X106126943Y-121186348D01*
X106200348Y-121112943D01*
X106258021Y-121026628D01*
X106297748Y-120930720D01*
X106318000Y-120828905D01*
X106318000Y-120725095D01*
X106407000Y-120725095D01*
X106407000Y-120828905D01*
X106427252Y-120930720D01*
X106466979Y-121026628D01*
X106524652Y-121112943D01*
X106598057Y-121186348D01*
X106650666Y-121221500D01*
X106598057Y-121256652D01*
X106524652Y-121330057D01*
X106466979Y-121416372D01*
X106427252Y-121512280D01*
X106407000Y-121614095D01*
X106407000Y-121717905D01*
X106427252Y-121819720D01*
X106466979Y-121915628D01*
X106524652Y-122001943D01*
X106598057Y-122075348D01*
X106650666Y-122110500D01*
X106598057Y-122145652D01*
X106524652Y-122219057D01*
X106466979Y-122305372D01*
X106427252Y-122401280D01*
X106407000Y-122503095D01*
X106407000Y-122606905D01*
X106427252Y-122708720D01*
X106466979Y-122804628D01*
X106524652Y-122890943D01*
X106598057Y-122964348D01*
X106684372Y-123022021D01*
X106780280Y-123061748D01*
X106882095Y-123082000D01*
X106985905Y-123082000D01*
X107087720Y-123061748D01*
X107183628Y-123022021D01*
X107269943Y-122964348D01*
X107343348Y-122890943D01*
X107401021Y-122804628D01*
X107440748Y-122708720D01*
X107461000Y-122606905D01*
X107461000Y-122503095D01*
X107440748Y-122401280D01*
X107401021Y-122305372D01*
X107343348Y-122219057D01*
X107269943Y-122145652D01*
X107217334Y-122110500D01*
X107269943Y-122075348D01*
X107343348Y-122001943D01*
X107401021Y-121915628D01*
X107440748Y-121819720D01*
X107461000Y-121717905D01*
X107461000Y-121614095D01*
X107440748Y-121512280D01*
X107401021Y-121416372D01*
X107343348Y-121330057D01*
X107269943Y-121256652D01*
X107217334Y-121221500D01*
X107269943Y-121186348D01*
X107343348Y-121112943D01*
X107401021Y-121026628D01*
X107440748Y-120930720D01*
X107461000Y-120828905D01*
X107461000Y-120725095D01*
X109074000Y-120725095D01*
X109074000Y-120828905D01*
X109094252Y-120930720D01*
X109133979Y-121026628D01*
X109191652Y-121112943D01*
X109265057Y-121186348D01*
X109317666Y-121221500D01*
X109265057Y-121256652D01*
X109191652Y-121330057D01*
X109133979Y-121416372D01*
X109094252Y-121512280D01*
X109074000Y-121614095D01*
X109074000Y-121717905D01*
X109094252Y-121819720D01*
X109133979Y-121915628D01*
X109191652Y-122001943D01*
X109265057Y-122075348D01*
X109317666Y-122110500D01*
X109265057Y-122145652D01*
X109191652Y-122219057D01*
X109133979Y-122305372D01*
X109094252Y-122401280D01*
X109074000Y-122503095D01*
X109074000Y-122606905D01*
X109094252Y-122708720D01*
X109133979Y-122804628D01*
X109191652Y-122890943D01*
X109265057Y-122964348D01*
X109351372Y-123022021D01*
X109447280Y-123061748D01*
X109549095Y-123082000D01*
X109652905Y-123082000D01*
X109754720Y-123061748D01*
X109850628Y-123022021D01*
X109936943Y-122964348D01*
X110010348Y-122890943D01*
X110068021Y-122804628D01*
X110107748Y-122708720D01*
X110128000Y-122606905D01*
X110128000Y-122503095D01*
X110107748Y-122401280D01*
X110068021Y-122305372D01*
X110010348Y-122219057D01*
X109936943Y-122145652D01*
X109884334Y-122110500D01*
X109936943Y-122075348D01*
X110010348Y-122001943D01*
X110068021Y-121915628D01*
X110107748Y-121819720D01*
X110128000Y-121717905D01*
X110128000Y-121614095D01*
X110107748Y-121512280D01*
X110068021Y-121416372D01*
X110010348Y-121330057D01*
X109936943Y-121256652D01*
X109884334Y-121221500D01*
X109936943Y-121186348D01*
X110010348Y-121112943D01*
X110068021Y-121026628D01*
X110107748Y-120930720D01*
X110128000Y-120828905D01*
X110128000Y-120725095D01*
X110217000Y-120725095D01*
X110217000Y-120828905D01*
X110237252Y-120930720D01*
X110276979Y-121026628D01*
X110334652Y-121112943D01*
X110408057Y-121186348D01*
X110460666Y-121221500D01*
X110408057Y-121256652D01*
X110334652Y-121330057D01*
X110276979Y-121416372D01*
X110237252Y-121512280D01*
X110217000Y-121614095D01*
X110217000Y-121717905D01*
X110237252Y-121819720D01*
X110276979Y-121915628D01*
X110334652Y-122001943D01*
X110408057Y-122075348D01*
X110460666Y-122110500D01*
X110408057Y-122145652D01*
X110334652Y-122219057D01*
X110276979Y-122305372D01*
X110237252Y-122401280D01*
X110217000Y-122503095D01*
X110217000Y-122606905D01*
X110237252Y-122708720D01*
X110276979Y-122804628D01*
X110334652Y-122890943D01*
X110408057Y-122964348D01*
X110494372Y-123022021D01*
X110590280Y-123061748D01*
X110692095Y-123082000D01*
X110795905Y-123082000D01*
X110897720Y-123061748D01*
X110993628Y-123022021D01*
X111079943Y-122964348D01*
X111153348Y-122890943D01*
X111211021Y-122804628D01*
X111250748Y-122708720D01*
X111271000Y-122606905D01*
X111271000Y-122503095D01*
X111250748Y-122401280D01*
X111211021Y-122305372D01*
X111153348Y-122219057D01*
X111079943Y-122145652D01*
X111027334Y-122110500D01*
X111079943Y-122075348D01*
X111153348Y-122001943D01*
X111211021Y-121915628D01*
X111250748Y-121819720D01*
X111271000Y-121717905D01*
X111271000Y-121614095D01*
X111250748Y-121512280D01*
X111211021Y-121416372D01*
X111153348Y-121330057D01*
X111079943Y-121256652D01*
X111027334Y-121221500D01*
X111079943Y-121186348D01*
X111153348Y-121112943D01*
X111211021Y-121026628D01*
X111250748Y-120930720D01*
X111271000Y-120828905D01*
X111271000Y-120725095D01*
X111250748Y-120623280D01*
X111211021Y-120527372D01*
X111153348Y-120441057D01*
X111079943Y-120367652D01*
X110993628Y-120309979D01*
X110897720Y-120270252D01*
X110795905Y-120250000D01*
X110692095Y-120250000D01*
X110590280Y-120270252D01*
X110494372Y-120309979D01*
X110408057Y-120367652D01*
X110334652Y-120441057D01*
X110276979Y-120527372D01*
X110237252Y-120623280D01*
X110217000Y-120725095D01*
X110128000Y-120725095D01*
X110107748Y-120623280D01*
X110068021Y-120527372D01*
X110010348Y-120441057D01*
X109936943Y-120367652D01*
X109850628Y-120309979D01*
X109754720Y-120270252D01*
X109652905Y-120250000D01*
X109549095Y-120250000D01*
X109447280Y-120270252D01*
X109351372Y-120309979D01*
X109265057Y-120367652D01*
X109191652Y-120441057D01*
X109133979Y-120527372D01*
X109094252Y-120623280D01*
X109074000Y-120725095D01*
X107461000Y-120725095D01*
X107440748Y-120623280D01*
X107401021Y-120527372D01*
X107343348Y-120441057D01*
X107269943Y-120367652D01*
X107183628Y-120309979D01*
X107087720Y-120270252D01*
X106985905Y-120250000D01*
X106882095Y-120250000D01*
X106780280Y-120270252D01*
X106684372Y-120309979D01*
X106598057Y-120367652D01*
X106524652Y-120441057D01*
X106466979Y-120527372D01*
X106427252Y-120623280D01*
X106407000Y-120725095D01*
X106318000Y-120725095D01*
X106297748Y-120623280D01*
X106258021Y-120527372D01*
X106200348Y-120441057D01*
X106126943Y-120367652D01*
X106040628Y-120309979D01*
X105944720Y-120270252D01*
X105842905Y-120250000D01*
X105739095Y-120250000D01*
X105637280Y-120270252D01*
X105541372Y-120309979D01*
X105455057Y-120367652D01*
X105381652Y-120441057D01*
X105323979Y-120527372D01*
X105284252Y-120623280D01*
X105264000Y-120725095D01*
X103692982Y-120725095D01*
X103692982Y-120485800D01*
X103686668Y-120421697D01*
X103667970Y-120360057D01*
X103637606Y-120303250D01*
X103596743Y-120253457D01*
X103546950Y-120212594D01*
X103490143Y-120182230D01*
X103428503Y-120163532D01*
X103364400Y-120157218D01*
X101664400Y-120157218D01*
X101600297Y-120163532D01*
X101538657Y-120182230D01*
X101481850Y-120212594D01*
X101432057Y-120253457D01*
X101391194Y-120303250D01*
X101360830Y-120360057D01*
X101342132Y-120421697D01*
X101335818Y-120485800D01*
X101335818Y-122063273D01*
X101288409Y-121948818D01*
X101199228Y-121639266D01*
X101145263Y-121321646D01*
X101127000Y-120996440D01*
X101127000Y-118679876D01*
X101337400Y-118679876D01*
X101337400Y-118911724D01*
X101382631Y-119139118D01*
X101471356Y-119353319D01*
X101600164Y-119546094D01*
X101764106Y-119710036D01*
X101956881Y-119838844D01*
X102171082Y-119927569D01*
X102398476Y-119972800D01*
X102630324Y-119972800D01*
X102857718Y-119927569D01*
X103071919Y-119838844D01*
X103264694Y-119710036D01*
X103428636Y-119546094D01*
X103557444Y-119353319D01*
X103646169Y-119139118D01*
X103691400Y-118911724D01*
X103691400Y-118679876D01*
X103690112Y-118673397D01*
X112684000Y-118673397D01*
X112684000Y-118816603D01*
X112711938Y-118957058D01*
X112766741Y-119089364D01*
X112846302Y-119208436D01*
X112947564Y-119309698D01*
X113066636Y-119389259D01*
X113198942Y-119444062D01*
X113339397Y-119472000D01*
X113482603Y-119472000D01*
X113623058Y-119444062D01*
X113755364Y-119389259D01*
X113874436Y-119309698D01*
X113975698Y-119208436D01*
X114055259Y-119089364D01*
X114110062Y-118957058D01*
X114138000Y-118816603D01*
X114138000Y-118673397D01*
X114112739Y-118546397D01*
X114970000Y-118546397D01*
X114970000Y-118689603D01*
X114997938Y-118830058D01*
X115052741Y-118962364D01*
X115132302Y-119081436D01*
X115176866Y-119126000D01*
X115132302Y-119170564D01*
X115052741Y-119289636D01*
X114997938Y-119421942D01*
X114970000Y-119562397D01*
X114970000Y-119705603D01*
X114997938Y-119846058D01*
X115052741Y-119978364D01*
X115132302Y-120097436D01*
X115176866Y-120142000D01*
X115132302Y-120186564D01*
X115052741Y-120305636D01*
X114997938Y-120437942D01*
X114970000Y-120578397D01*
X114970000Y-120721603D01*
X114997938Y-120862058D01*
X115052741Y-120994364D01*
X115132302Y-121113436D01*
X115176866Y-121158000D01*
X115132302Y-121202564D01*
X115052741Y-121321636D01*
X114997938Y-121453942D01*
X114970000Y-121594397D01*
X114970000Y-121737603D01*
X114997938Y-121878058D01*
X115052741Y-122010364D01*
X115132302Y-122129436D01*
X115233564Y-122230698D01*
X115352636Y-122310259D01*
X115484942Y-122365062D01*
X115625397Y-122393000D01*
X115768603Y-122393000D01*
X115909058Y-122365062D01*
X116041364Y-122310259D01*
X116160436Y-122230698D01*
X116261698Y-122129436D01*
X116341259Y-122010364D01*
X116396062Y-121878058D01*
X116424000Y-121737603D01*
X116424000Y-121594397D01*
X116396062Y-121453942D01*
X116341259Y-121321636D01*
X116261698Y-121202564D01*
X116217134Y-121158000D01*
X116261698Y-121113436D01*
X116341259Y-120994364D01*
X116396062Y-120862058D01*
X116424000Y-120721603D01*
X116424000Y-120578397D01*
X116396062Y-120437942D01*
X116341259Y-120305636D01*
X116261698Y-120186564D01*
X116217134Y-120142000D01*
X116261698Y-120097436D01*
X116341259Y-119978364D01*
X116396062Y-119846058D01*
X116424000Y-119705603D01*
X116424000Y-119562397D01*
X116396062Y-119421942D01*
X116341259Y-119289636D01*
X116261698Y-119170564D01*
X116217134Y-119126000D01*
X116261698Y-119081436D01*
X116341259Y-118962364D01*
X116396062Y-118830058D01*
X116424000Y-118689603D01*
X116424000Y-118546397D01*
X116396062Y-118405942D01*
X116341259Y-118273636D01*
X116261698Y-118154564D01*
X116160436Y-118053302D01*
X116041364Y-117973741D01*
X115909058Y-117918938D01*
X115768603Y-117891000D01*
X115625397Y-117891000D01*
X115484942Y-117918938D01*
X115352636Y-117973741D01*
X115233564Y-118053302D01*
X115132302Y-118154564D01*
X115052741Y-118273636D01*
X114997938Y-118405942D01*
X114970000Y-118546397D01*
X114112739Y-118546397D01*
X114110062Y-118532942D01*
X114055259Y-118400636D01*
X113975698Y-118281564D01*
X113874436Y-118180302D01*
X113755364Y-118100741D01*
X113623058Y-118045938D01*
X113482603Y-118018000D01*
X113339397Y-118018000D01*
X113198942Y-118045938D01*
X113066636Y-118100741D01*
X112947564Y-118180302D01*
X112846302Y-118281564D01*
X112766741Y-118400636D01*
X112711938Y-118532942D01*
X112684000Y-118673397D01*
X103690112Y-118673397D01*
X103646169Y-118452482D01*
X103557444Y-118238281D01*
X103428636Y-118045506D01*
X103264694Y-117881564D01*
X103071919Y-117752756D01*
X102857718Y-117664031D01*
X102630324Y-117618800D01*
X102398476Y-117618800D01*
X102171082Y-117664031D01*
X101956881Y-117752756D01*
X101764106Y-117881564D01*
X101600164Y-118045506D01*
X101471356Y-118238281D01*
X101382631Y-118452482D01*
X101337400Y-118679876D01*
X101127000Y-118679876D01*
X101127000Y-116139876D01*
X101337400Y-116139876D01*
X101337400Y-116371724D01*
X101382631Y-116599118D01*
X101471356Y-116813319D01*
X101600164Y-117006094D01*
X101764106Y-117170036D01*
X101956881Y-117298844D01*
X102171082Y-117387569D01*
X102398476Y-117432800D01*
X102630324Y-117432800D01*
X102857718Y-117387569D01*
X103071919Y-117298844D01*
X103264694Y-117170036D01*
X103428636Y-117006094D01*
X103557444Y-116813319D01*
X103646169Y-116599118D01*
X103688282Y-116387397D01*
X111414000Y-116387397D01*
X111414000Y-116530603D01*
X111441938Y-116671058D01*
X111496741Y-116803364D01*
X111576302Y-116922436D01*
X111677564Y-117023698D01*
X111687744Y-117030500D01*
X111677564Y-117037302D01*
X111576302Y-117138564D01*
X111496741Y-117257636D01*
X111441938Y-117389942D01*
X111414000Y-117530397D01*
X111414000Y-117673603D01*
X111441938Y-117814058D01*
X111496741Y-117946364D01*
X111576302Y-118065436D01*
X111677564Y-118166698D01*
X111796636Y-118246259D01*
X111928942Y-118301062D01*
X112069397Y-118329000D01*
X112212603Y-118329000D01*
X112353058Y-118301062D01*
X112485364Y-118246259D01*
X112604436Y-118166698D01*
X112705698Y-118065436D01*
X112785259Y-117946364D01*
X112840062Y-117814058D01*
X112868000Y-117673603D01*
X112868000Y-117530397D01*
X112840062Y-117389942D01*
X112785259Y-117257636D01*
X112705698Y-117138564D01*
X112604436Y-117037302D01*
X112594256Y-117030500D01*
X112604436Y-117023698D01*
X112705698Y-116922436D01*
X112785259Y-116803364D01*
X112840062Y-116671058D01*
X112868000Y-116530603D01*
X112868000Y-116387397D01*
X112842739Y-116260397D01*
X118399000Y-116260397D01*
X118399000Y-116403603D01*
X118426938Y-116544058D01*
X118481741Y-116676364D01*
X118561302Y-116795436D01*
X118662564Y-116896698D01*
X118781636Y-116976259D01*
X118907000Y-117028187D01*
X118907000Y-117165603D01*
X118929906Y-117280762D01*
X118913942Y-117283938D01*
X118781636Y-117338741D01*
X118662564Y-117418302D01*
X118561302Y-117519564D01*
X118481741Y-117638636D01*
X118426938Y-117770942D01*
X118399000Y-117911397D01*
X118399000Y-118054603D01*
X118426938Y-118195058D01*
X118481741Y-118327364D01*
X118548649Y-118427500D01*
X118481741Y-118527636D01*
X118426938Y-118659942D01*
X118399000Y-118800397D01*
X118399000Y-118943603D01*
X118426938Y-119084058D01*
X118481741Y-119216364D01*
X118561302Y-119335436D01*
X118662564Y-119436698D01*
X118781636Y-119516259D01*
X118913942Y-119571062D01*
X119054397Y-119599000D01*
X119197603Y-119599000D01*
X119338058Y-119571062D01*
X119380000Y-119553689D01*
X119380000Y-119682000D01*
X119380200Y-119689121D01*
X119399063Y-120025014D01*
X119400657Y-120039166D01*
X119457010Y-120370836D01*
X119460180Y-120384721D01*
X119553314Y-120707995D01*
X119558017Y-120721438D01*
X119686760Y-121032252D01*
X119692940Y-121045083D01*
X119855674Y-121339528D01*
X119863251Y-121351587D01*
X120057930Y-121625960D01*
X120066809Y-121637095D01*
X120290983Y-121887946D01*
X120301054Y-121898017D01*
X120551905Y-122122191D01*
X120563040Y-122131070D01*
X120837413Y-122325749D01*
X120849472Y-122333326D01*
X121143917Y-122496060D01*
X121156748Y-122502240D01*
X121467562Y-122630983D01*
X121481005Y-122635686D01*
X121804279Y-122728820D01*
X121818164Y-122731990D01*
X122149834Y-122788343D01*
X122163986Y-122789937D01*
X122499879Y-122808800D01*
X122507000Y-122809000D01*
X126047500Y-122809000D01*
X126057464Y-122808608D01*
X126305804Y-122789063D01*
X126325488Y-122785946D01*
X126567712Y-122727793D01*
X126586665Y-122721635D01*
X126816811Y-122626306D01*
X126834568Y-122617258D01*
X127046967Y-122487099D01*
X127063089Y-122475386D01*
X127252512Y-122313604D01*
X127266604Y-122299512D01*
X127289000Y-122273290D01*
X127289000Y-122372603D01*
X127316938Y-122513058D01*
X127371741Y-122645364D01*
X127451302Y-122764436D01*
X127552564Y-122865698D01*
X127671636Y-122945259D01*
X127803942Y-123000062D01*
X127944397Y-123028000D01*
X128087603Y-123028000D01*
X128228058Y-123000062D01*
X128360364Y-122945259D01*
X128479436Y-122865698D01*
X128580698Y-122764436D01*
X128660259Y-122645364D01*
X128715062Y-122513058D01*
X128743000Y-122372603D01*
X128743000Y-122229397D01*
X130210000Y-122229397D01*
X130210000Y-122372603D01*
X130237938Y-122513058D01*
X130292741Y-122645364D01*
X130372302Y-122764436D01*
X130473564Y-122865698D01*
X130592636Y-122945259D01*
X130724942Y-123000062D01*
X130865397Y-123028000D01*
X131008603Y-123028000D01*
X131149058Y-123000062D01*
X131281364Y-122945259D01*
X131400436Y-122865698D01*
X131501698Y-122764436D01*
X131581259Y-122645364D01*
X131636062Y-122513058D01*
X131664000Y-122372603D01*
X131664000Y-122229397D01*
X131636062Y-122088942D01*
X131589031Y-121975397D01*
X135290000Y-121975397D01*
X135290000Y-122118603D01*
X135317938Y-122259058D01*
X135372741Y-122391364D01*
X135452302Y-122510436D01*
X135553564Y-122611698D01*
X135672636Y-122691259D01*
X135804942Y-122746062D01*
X135945397Y-122774000D01*
X136088603Y-122774000D01*
X136229058Y-122746062D01*
X136361364Y-122691259D01*
X136480436Y-122611698D01*
X136581698Y-122510436D01*
X136661259Y-122391364D01*
X136716062Y-122259058D01*
X136744000Y-122118603D01*
X136744000Y-121975397D01*
X136716062Y-121834942D01*
X136661259Y-121702636D01*
X136581698Y-121583564D01*
X136480436Y-121482302D01*
X136361364Y-121402741D01*
X136229058Y-121347938D01*
X136088603Y-121320000D01*
X135945397Y-121320000D01*
X135804942Y-121347938D01*
X135672636Y-121402741D01*
X135553564Y-121482302D01*
X135452302Y-121583564D01*
X135372741Y-121702636D01*
X135317938Y-121834942D01*
X135290000Y-121975397D01*
X131589031Y-121975397D01*
X131581259Y-121956636D01*
X131501698Y-121837564D01*
X131400436Y-121736302D01*
X131281364Y-121656741D01*
X131149058Y-121601938D01*
X131008603Y-121574000D01*
X130865397Y-121574000D01*
X130724942Y-121601938D01*
X130592636Y-121656741D01*
X130473564Y-121736302D01*
X130372302Y-121837564D01*
X130292741Y-121956636D01*
X130237938Y-122088942D01*
X130210000Y-122229397D01*
X128743000Y-122229397D01*
X128715062Y-122088942D01*
X128660259Y-121956636D01*
X128580698Y-121837564D01*
X128479436Y-121736302D01*
X128360364Y-121656741D01*
X128228058Y-121601938D01*
X128087603Y-121574000D01*
X127944397Y-121574000D01*
X127803942Y-121601938D01*
X127671636Y-121656741D01*
X127662567Y-121662801D01*
X127674635Y-121633665D01*
X127680793Y-121614712D01*
X127738946Y-121372488D01*
X127742063Y-121352804D01*
X127761608Y-121104464D01*
X127762000Y-121094500D01*
X127762000Y-120789134D01*
X127806564Y-120833698D01*
X127925636Y-120913259D01*
X128057942Y-120968062D01*
X128198397Y-120996000D01*
X128341603Y-120996000D01*
X128482058Y-120968062D01*
X128614364Y-120913259D01*
X128733436Y-120833698D01*
X128834698Y-120732436D01*
X128914259Y-120613364D01*
X128969062Y-120481058D01*
X128997000Y-120340603D01*
X128997000Y-120197397D01*
X128969062Y-120056942D01*
X128914259Y-119924636D01*
X128834698Y-119805564D01*
X128733436Y-119704302D01*
X128614364Y-119624741D01*
X128484692Y-119571029D01*
X128540851Y-119547767D01*
X128569563Y-119531190D01*
X128687925Y-119440368D01*
X128711368Y-119416925D01*
X128794644Y-119308397D01*
X135671000Y-119308397D01*
X135671000Y-119451603D01*
X135698938Y-119592058D01*
X135753741Y-119724364D01*
X135833302Y-119843436D01*
X135934564Y-119944698D01*
X136053636Y-120024259D01*
X136185942Y-120079062D01*
X136326397Y-120107000D01*
X136469603Y-120107000D01*
X136610058Y-120079062D01*
X136742364Y-120024259D01*
X136861436Y-119944698D01*
X136962698Y-119843436D01*
X137042259Y-119724364D01*
X137097062Y-119592058D01*
X137102961Y-119562397D01*
X137576000Y-119562397D01*
X137576000Y-119705603D01*
X137603938Y-119846058D01*
X137658741Y-119978364D01*
X137725645Y-120078493D01*
X137658741Y-120178622D01*
X137603938Y-120310928D01*
X137576000Y-120451383D01*
X137576000Y-120594589D01*
X137603938Y-120735044D01*
X137658741Y-120867350D01*
X137725652Y-120967490D01*
X137658741Y-121067630D01*
X137603938Y-121199936D01*
X137576000Y-121340391D01*
X137576000Y-121483597D01*
X137603938Y-121624052D01*
X137658741Y-121756358D01*
X137738302Y-121875430D01*
X137839564Y-121976692D01*
X137958636Y-122056253D01*
X138090942Y-122111056D01*
X138231397Y-122138994D01*
X138374603Y-122138994D01*
X138515058Y-122111056D01*
X138647364Y-122056253D01*
X138766436Y-121976692D01*
X138867698Y-121875430D01*
X138885760Y-121848397D01*
X139862000Y-121848397D01*
X139862000Y-121991603D01*
X139889938Y-122132058D01*
X139944741Y-122264364D01*
X140024302Y-122383436D01*
X140125564Y-122484698D01*
X140244636Y-122564259D01*
X140376942Y-122619062D01*
X140517397Y-122647000D01*
X140660603Y-122647000D01*
X140801058Y-122619062D01*
X140933364Y-122564259D01*
X141052436Y-122484698D01*
X141153698Y-122383436D01*
X141233259Y-122264364D01*
X141288062Y-122132058D01*
X141316000Y-121991603D01*
X141316000Y-121848397D01*
X141288062Y-121707942D01*
X141233259Y-121575636D01*
X141153698Y-121456564D01*
X141052436Y-121355302D01*
X140933364Y-121275741D01*
X140801058Y-121220938D01*
X140660603Y-121193000D01*
X140517397Y-121193000D01*
X140376942Y-121220938D01*
X140244636Y-121275741D01*
X140125564Y-121355302D01*
X140024302Y-121456564D01*
X139944741Y-121575636D01*
X139889938Y-121707942D01*
X139862000Y-121848397D01*
X138885760Y-121848397D01*
X138947259Y-121756358D01*
X138961342Y-121722358D01*
X138979942Y-121730062D01*
X139120397Y-121758000D01*
X139263603Y-121758000D01*
X139404058Y-121730062D01*
X139536364Y-121675259D01*
X139655436Y-121595698D01*
X139756698Y-121494436D01*
X139836259Y-121375364D01*
X139891062Y-121243058D01*
X139919000Y-121102603D01*
X139919000Y-120959397D01*
X139891062Y-120818942D01*
X139836259Y-120686636D01*
X139756698Y-120567564D01*
X139655436Y-120466302D01*
X139536364Y-120386741D01*
X139404058Y-120331938D01*
X139263603Y-120304000D01*
X139120397Y-120304000D01*
X139005240Y-120326906D01*
X139002062Y-120310928D01*
X138947259Y-120178622D01*
X138880355Y-120078493D01*
X138947259Y-119978364D01*
X139002062Y-119846058D01*
X139030000Y-119705603D01*
X139030000Y-119652621D01*
X141473000Y-119652621D01*
X141473000Y-120347379D01*
X141608540Y-121028788D01*
X141874413Y-121670661D01*
X142260400Y-122248332D01*
X142751668Y-122739600D01*
X143329339Y-123125587D01*
X143971212Y-123391460D01*
X144652621Y-123527000D01*
X145347379Y-123527000D01*
X146028788Y-123391460D01*
X146670661Y-123125587D01*
X147248332Y-122739600D01*
X147739600Y-122248332D01*
X148125587Y-121670661D01*
X148391460Y-121028788D01*
X148527000Y-120347379D01*
X148527000Y-119652621D01*
X148391460Y-118971212D01*
X148125587Y-118329339D01*
X147739600Y-117751668D01*
X147248332Y-117260400D01*
X146670661Y-116874413D01*
X146028788Y-116608540D01*
X145347379Y-116473000D01*
X144652621Y-116473000D01*
X143971212Y-116608540D01*
X143329339Y-116874413D01*
X142751668Y-117260400D01*
X142260400Y-117751668D01*
X141874413Y-118329339D01*
X141608540Y-118971212D01*
X141473000Y-119652621D01*
X139030000Y-119652621D01*
X139030000Y-119562397D01*
X139002062Y-119421942D01*
X138947259Y-119289636D01*
X138867698Y-119170564D01*
X138766436Y-119069302D01*
X138647364Y-118989741D01*
X138515058Y-118934938D01*
X138374603Y-118907000D01*
X138231397Y-118907000D01*
X138090942Y-118934938D01*
X137958636Y-118989741D01*
X137839564Y-119069302D01*
X137738302Y-119170564D01*
X137658741Y-119289636D01*
X137603938Y-119421942D01*
X137576000Y-119562397D01*
X137102961Y-119562397D01*
X137125000Y-119451603D01*
X137125000Y-119308397D01*
X137097062Y-119167942D01*
X137042259Y-119035636D01*
X136962698Y-118916564D01*
X136861436Y-118815302D01*
X136742364Y-118735741D01*
X136610058Y-118680938D01*
X136469603Y-118653000D01*
X136326397Y-118653000D01*
X136185942Y-118680938D01*
X136053636Y-118735741D01*
X135934564Y-118815302D01*
X135833302Y-118916564D01*
X135753741Y-119035636D01*
X135698938Y-119167942D01*
X135671000Y-119308397D01*
X128794644Y-119308397D01*
X128802190Y-119298563D01*
X128818767Y-119269851D01*
X128875860Y-119132016D01*
X128884441Y-119099992D01*
X128903914Y-118952077D01*
X128905000Y-118935500D01*
X128905000Y-118511426D01*
X128906252Y-118517720D01*
X128945979Y-118613628D01*
X129003652Y-118699943D01*
X129077057Y-118773348D01*
X129163372Y-118831021D01*
X129259280Y-118870748D01*
X129361095Y-118891000D01*
X129464905Y-118891000D01*
X129566720Y-118870748D01*
X129662628Y-118831021D01*
X129730500Y-118785671D01*
X129798372Y-118831021D01*
X129894280Y-118870748D01*
X129996095Y-118891000D01*
X130099905Y-118891000D01*
X130201720Y-118870748D01*
X130297628Y-118831021D01*
X130365500Y-118785671D01*
X130433372Y-118831021D01*
X130529280Y-118870748D01*
X130631095Y-118891000D01*
X130734905Y-118891000D01*
X130836720Y-118870748D01*
X130932628Y-118831021D01*
X131018943Y-118773348D01*
X131092348Y-118699943D01*
X131150021Y-118613628D01*
X131189748Y-118517720D01*
X131210000Y-118415905D01*
X131210000Y-118312095D01*
X131189748Y-118210280D01*
X131178448Y-118183000D01*
X135509000Y-118183000D01*
X135572795Y-118176717D01*
X135634137Y-118158109D01*
X135690671Y-118127891D01*
X135740224Y-118087224D01*
X135780891Y-118037671D01*
X135811109Y-117981137D01*
X135829717Y-117919795D01*
X135836000Y-117856000D01*
X135836000Y-115879397D01*
X136179000Y-115879397D01*
X136179000Y-116022603D01*
X136206938Y-116163058D01*
X136261741Y-116295364D01*
X136341302Y-116414436D01*
X136442564Y-116515698D01*
X136452744Y-116522500D01*
X136442564Y-116529302D01*
X136341302Y-116630564D01*
X136261741Y-116749636D01*
X136206938Y-116881942D01*
X136179000Y-117022397D01*
X136179000Y-117165603D01*
X136206938Y-117306058D01*
X136261741Y-117438364D01*
X136341302Y-117557436D01*
X136442564Y-117658698D01*
X136561636Y-117738259D01*
X136693942Y-117793062D01*
X136834397Y-117821000D01*
X136977603Y-117821000D01*
X137118058Y-117793062D01*
X137250364Y-117738259D01*
X137369436Y-117658698D01*
X137470698Y-117557436D01*
X137550259Y-117438364D01*
X137605062Y-117306058D01*
X137633000Y-117165603D01*
X137633000Y-117022397D01*
X137605062Y-116881942D01*
X137550259Y-116749636D01*
X137470698Y-116630564D01*
X137369436Y-116529302D01*
X137359256Y-116522500D01*
X137369436Y-116515698D01*
X137470698Y-116414436D01*
X137550259Y-116295364D01*
X137605062Y-116163058D01*
X137633000Y-116022603D01*
X137633000Y-115879397D01*
X137605062Y-115738942D01*
X137550259Y-115606636D01*
X137470698Y-115487564D01*
X137369436Y-115386302D01*
X137250364Y-115306741D01*
X137118058Y-115251938D01*
X136977603Y-115224000D01*
X136834397Y-115224000D01*
X136693942Y-115251938D01*
X136561636Y-115306741D01*
X136442564Y-115386302D01*
X136341302Y-115487564D01*
X136261741Y-115606636D01*
X136206938Y-115738942D01*
X136179000Y-115879397D01*
X135836000Y-115879397D01*
X135836000Y-114385134D01*
X135934564Y-114483698D01*
X136053636Y-114563259D01*
X136185942Y-114618062D01*
X136326397Y-114646000D01*
X136469603Y-114646000D01*
X136610058Y-114618062D01*
X136742364Y-114563259D01*
X136861436Y-114483698D01*
X136962698Y-114382436D01*
X137042259Y-114263364D01*
X137097062Y-114131058D01*
X137125000Y-113990603D01*
X137125000Y-113847397D01*
X137097062Y-113706942D01*
X137042259Y-113574636D01*
X136962698Y-113455564D01*
X136861436Y-113354302D01*
X136742364Y-113274741D01*
X136610058Y-113219938D01*
X136469603Y-113192000D01*
X136326397Y-113192000D01*
X136185942Y-113219938D01*
X136053636Y-113274741D01*
X135934564Y-113354302D01*
X135833302Y-113455564D01*
X135753741Y-113574636D01*
X135698938Y-113706942D01*
X135686067Y-113771648D01*
X135634137Y-113743891D01*
X135572795Y-113725283D01*
X135509000Y-113719000D01*
X128597000Y-113719000D01*
X128597000Y-112232722D01*
X128736058Y-112205062D01*
X128868364Y-112150259D01*
X128987436Y-112070698D01*
X129088698Y-111969436D01*
X129168259Y-111850364D01*
X129223062Y-111718058D01*
X129251000Y-111577603D01*
X129251000Y-111434397D01*
X129448000Y-111434397D01*
X129448000Y-111577603D01*
X129475938Y-111718058D01*
X129530741Y-111850364D01*
X129610302Y-111969436D01*
X129711564Y-112070698D01*
X129830636Y-112150259D01*
X129962942Y-112205062D01*
X130103397Y-112233000D01*
X130246603Y-112233000D01*
X130387058Y-112205062D01*
X130519364Y-112150259D01*
X130638436Y-112070698D01*
X130739698Y-111969436D01*
X130819259Y-111850364D01*
X130874062Y-111718058D01*
X130902000Y-111577603D01*
X130902000Y-111434397D01*
X131099000Y-111434397D01*
X131099000Y-111577603D01*
X131126938Y-111718058D01*
X131181741Y-111850364D01*
X131261302Y-111969436D01*
X131362564Y-112070698D01*
X131481636Y-112150259D01*
X131613942Y-112205062D01*
X131754397Y-112233000D01*
X131897603Y-112233000D01*
X132038058Y-112205062D01*
X132170364Y-112150259D01*
X132289436Y-112070698D01*
X132390698Y-111969436D01*
X132470259Y-111850364D01*
X132525062Y-111718058D01*
X132553000Y-111577603D01*
X132553000Y-111434397D01*
X132525062Y-111293942D01*
X132478031Y-111180397D01*
X134909000Y-111180397D01*
X134909000Y-111323603D01*
X134936938Y-111464058D01*
X134991741Y-111596364D01*
X135071302Y-111715436D01*
X135172564Y-111816698D01*
X135291636Y-111896259D01*
X135423942Y-111951062D01*
X135564397Y-111979000D01*
X135707603Y-111979000D01*
X135848058Y-111951062D01*
X135980364Y-111896259D01*
X136099436Y-111816698D01*
X136144000Y-111772134D01*
X136188564Y-111816698D01*
X136307636Y-111896259D01*
X136439942Y-111951062D01*
X136580397Y-111979000D01*
X136723603Y-111979000D01*
X136864058Y-111951062D01*
X136996364Y-111896259D01*
X137115436Y-111816698D01*
X137160000Y-111772134D01*
X137204564Y-111816698D01*
X137323636Y-111896259D01*
X137455942Y-111951062D01*
X137596397Y-111979000D01*
X137739603Y-111979000D01*
X137880058Y-111951062D01*
X138012364Y-111896259D01*
X138131436Y-111816698D01*
X138176000Y-111772134D01*
X138220564Y-111816698D01*
X138339636Y-111896259D01*
X138471942Y-111951062D01*
X138612397Y-111979000D01*
X138755603Y-111979000D01*
X138896058Y-111951062D01*
X139028364Y-111896259D01*
X139147436Y-111816698D01*
X139248698Y-111715436D01*
X139328259Y-111596364D01*
X139383062Y-111464058D01*
X139411000Y-111323603D01*
X139411000Y-111180397D01*
X139383062Y-111039942D01*
X139328259Y-110907636D01*
X139248698Y-110788564D01*
X139147436Y-110687302D01*
X139028364Y-110607741D01*
X138896058Y-110552938D01*
X138755603Y-110525000D01*
X138612397Y-110525000D01*
X138471942Y-110552938D01*
X138339636Y-110607741D01*
X138220564Y-110687302D01*
X138176000Y-110731866D01*
X138131436Y-110687302D01*
X138012364Y-110607741D01*
X137880058Y-110552938D01*
X137739603Y-110525000D01*
X137596397Y-110525000D01*
X137455942Y-110552938D01*
X137323636Y-110607741D01*
X137204564Y-110687302D01*
X137160000Y-110731866D01*
X137115436Y-110687302D01*
X136996364Y-110607741D01*
X136864058Y-110552938D01*
X136723603Y-110525000D01*
X136580397Y-110525000D01*
X136439942Y-110552938D01*
X136307636Y-110607741D01*
X136188564Y-110687302D01*
X136144000Y-110731866D01*
X136099436Y-110687302D01*
X135980364Y-110607741D01*
X135848058Y-110552938D01*
X135707603Y-110525000D01*
X135564397Y-110525000D01*
X135423942Y-110552938D01*
X135291636Y-110607741D01*
X135172564Y-110687302D01*
X135071302Y-110788564D01*
X134991741Y-110907636D01*
X134936938Y-111039942D01*
X134909000Y-111180397D01*
X132478031Y-111180397D01*
X132470259Y-111161636D01*
X132390698Y-111042564D01*
X132289436Y-110941302D01*
X132170364Y-110861741D01*
X132038058Y-110806938D01*
X131897603Y-110779000D01*
X131754397Y-110779000D01*
X131613942Y-110806938D01*
X131481636Y-110861741D01*
X131362564Y-110941302D01*
X131261302Y-111042564D01*
X131181741Y-111161636D01*
X131126938Y-111293942D01*
X131099000Y-111434397D01*
X130902000Y-111434397D01*
X130874062Y-111293942D01*
X130819259Y-111161636D01*
X130739698Y-111042564D01*
X130638436Y-110941302D01*
X130519364Y-110861741D01*
X130387058Y-110806938D01*
X130246603Y-110779000D01*
X130103397Y-110779000D01*
X129962942Y-110806938D01*
X129830636Y-110861741D01*
X129711564Y-110941302D01*
X129610302Y-111042564D01*
X129530741Y-111161636D01*
X129475938Y-111293942D01*
X129448000Y-111434397D01*
X129251000Y-111434397D01*
X129223062Y-111293942D01*
X129168259Y-111161636D01*
X129088698Y-111042564D01*
X128987436Y-110941302D01*
X128868364Y-110861741D01*
X128867541Y-110861400D01*
X128875003Y-110861400D01*
X129015458Y-110833462D01*
X129147764Y-110778659D01*
X129266836Y-110699098D01*
X129368098Y-110597836D01*
X129447659Y-110478764D01*
X129502462Y-110346458D01*
X129530400Y-110206003D01*
X129530400Y-110062797D01*
X129502462Y-109922342D01*
X129447659Y-109790036D01*
X129368098Y-109670964D01*
X129266836Y-109569702D01*
X129232860Y-109547000D01*
X138303000Y-109547000D01*
X138366795Y-109540717D01*
X138428137Y-109522109D01*
X138484671Y-109491891D01*
X138534224Y-109451224D01*
X138574891Y-109401671D01*
X138605109Y-109345137D01*
X138623717Y-109283795D01*
X138630000Y-109220000D01*
X138630000Y-105211397D01*
X139481000Y-105211397D01*
X139481000Y-105354603D01*
X139508938Y-105495058D01*
X139563741Y-105627364D01*
X139643302Y-105746436D01*
X139744564Y-105847698D01*
X139754744Y-105854500D01*
X139744564Y-105861302D01*
X139643302Y-105962564D01*
X139563741Y-106081636D01*
X139508938Y-106213942D01*
X139481000Y-106354397D01*
X139481000Y-106497603D01*
X139508938Y-106638058D01*
X139563741Y-106770364D01*
X139643302Y-106889436D01*
X139744564Y-106990698D01*
X139863636Y-107070259D01*
X139995942Y-107125062D01*
X140136397Y-107153000D01*
X140279603Y-107153000D01*
X140420058Y-107125062D01*
X140552364Y-107070259D01*
X140671436Y-106990698D01*
X140716000Y-106946134D01*
X140760564Y-106990698D01*
X140879636Y-107070259D01*
X141011942Y-107125062D01*
X141152397Y-107153000D01*
X141295603Y-107153000D01*
X141436058Y-107125062D01*
X141568364Y-107070259D01*
X141687436Y-106990698D01*
X141732000Y-106946134D01*
X141776564Y-106990698D01*
X141895636Y-107070259D01*
X142027942Y-107125062D01*
X142168397Y-107153000D01*
X142311603Y-107153000D01*
X142452058Y-107125062D01*
X142584364Y-107070259D01*
X142703436Y-106990698D01*
X142748000Y-106946134D01*
X142792564Y-106990698D01*
X142911636Y-107070259D01*
X143043942Y-107125062D01*
X143184397Y-107153000D01*
X143327603Y-107153000D01*
X143468058Y-107125062D01*
X143600364Y-107070259D01*
X143719436Y-106990698D01*
X143820698Y-106889436D01*
X143900259Y-106770364D01*
X143955062Y-106638058D01*
X143983000Y-106497603D01*
X143983000Y-106354397D01*
X143955062Y-106213942D01*
X143900259Y-106081636D01*
X143820698Y-105962564D01*
X143719436Y-105861302D01*
X143709256Y-105854500D01*
X143719436Y-105847698D01*
X143820698Y-105746436D01*
X143900259Y-105627364D01*
X143955062Y-105495058D01*
X143983000Y-105354603D01*
X143983000Y-105211397D01*
X143955062Y-105070942D01*
X143900259Y-104938636D01*
X143820698Y-104819564D01*
X143719436Y-104718302D01*
X143600364Y-104638741D01*
X143468058Y-104583938D01*
X143327603Y-104556000D01*
X143184397Y-104556000D01*
X143043942Y-104583938D01*
X142911636Y-104638741D01*
X142792564Y-104718302D01*
X142748000Y-104762866D01*
X142703436Y-104718302D01*
X142584364Y-104638741D01*
X142452058Y-104583938D01*
X142311603Y-104556000D01*
X142168397Y-104556000D01*
X142027942Y-104583938D01*
X141895636Y-104638741D01*
X141776564Y-104718302D01*
X141732000Y-104762866D01*
X141687436Y-104718302D01*
X141568364Y-104638741D01*
X141436058Y-104583938D01*
X141295603Y-104556000D01*
X141152397Y-104556000D01*
X141011942Y-104583938D01*
X140879636Y-104638741D01*
X140760564Y-104718302D01*
X140716000Y-104762866D01*
X140671436Y-104718302D01*
X140552364Y-104638741D01*
X140420058Y-104583938D01*
X140279603Y-104556000D01*
X140136397Y-104556000D01*
X139995942Y-104583938D01*
X139863636Y-104638741D01*
X139744564Y-104718302D01*
X139643302Y-104819564D01*
X139563741Y-104938636D01*
X139508938Y-105070942D01*
X139481000Y-105211397D01*
X138630000Y-105211397D01*
X138630000Y-101655397D01*
X142783000Y-101655397D01*
X142783000Y-101798603D01*
X142810938Y-101939058D01*
X142865741Y-102071364D01*
X142945302Y-102190436D01*
X143046564Y-102291698D01*
X143165636Y-102371259D01*
X143297942Y-102426062D01*
X143438397Y-102454000D01*
X143581603Y-102454000D01*
X143722058Y-102426062D01*
X143854364Y-102371259D01*
X143973436Y-102291698D01*
X144074698Y-102190436D01*
X144154259Y-102071364D01*
X144209062Y-101939058D01*
X144237000Y-101798603D01*
X144237000Y-101655397D01*
X144209062Y-101514942D01*
X144154259Y-101382636D01*
X144074698Y-101263564D01*
X143973436Y-101162302D01*
X143854364Y-101082741D01*
X143722058Y-101027938D01*
X143581603Y-101000000D01*
X143438397Y-101000000D01*
X143297942Y-101027938D01*
X143165636Y-101082741D01*
X143046564Y-101162302D01*
X142945302Y-101263564D01*
X142865741Y-101382636D01*
X142810938Y-101514942D01*
X142783000Y-101655397D01*
X138630000Y-101655397D01*
X138630000Y-99314000D01*
X138623717Y-99250205D01*
X138605109Y-99188863D01*
X138574891Y-99132329D01*
X138534224Y-99082776D01*
X138484671Y-99042109D01*
X138428137Y-99011891D01*
X138366795Y-98993283D01*
X138303000Y-98987000D01*
X132026000Y-98987000D01*
X132026000Y-93527397D01*
X132877000Y-93527397D01*
X132877000Y-93670603D01*
X132904938Y-93811058D01*
X132959741Y-93943364D01*
X133039302Y-94062436D01*
X133140564Y-94163698D01*
X133259636Y-94243259D01*
X133391942Y-94298062D01*
X133532397Y-94326000D01*
X133675603Y-94326000D01*
X133816058Y-94298062D01*
X133948364Y-94243259D01*
X134067436Y-94163698D01*
X134168698Y-94062436D01*
X134248259Y-93943364D01*
X134303062Y-93811058D01*
X134331000Y-93670603D01*
X134331000Y-93527397D01*
X134303062Y-93386942D01*
X134248259Y-93254636D01*
X134168698Y-93135564D01*
X134067436Y-93034302D01*
X133948364Y-92954741D01*
X133816058Y-92899938D01*
X133675603Y-92872000D01*
X133532397Y-92872000D01*
X133391942Y-92899938D01*
X133259636Y-92954741D01*
X133140564Y-93034302D01*
X133039302Y-93135564D01*
X132959741Y-93254636D01*
X132904938Y-93386942D01*
X132877000Y-93527397D01*
X132026000Y-93527397D01*
X132026000Y-89717397D01*
X132877000Y-89717397D01*
X132877000Y-89860603D01*
X132904938Y-90001058D01*
X132959741Y-90133364D01*
X133039302Y-90252436D01*
X133140564Y-90353698D01*
X133245779Y-90424000D01*
X133140564Y-90494302D01*
X133039302Y-90595564D01*
X132959741Y-90714636D01*
X132904938Y-90846942D01*
X132877000Y-90987397D01*
X132877000Y-91130603D01*
X132904938Y-91271058D01*
X132959741Y-91403364D01*
X133039302Y-91522436D01*
X133140564Y-91623698D01*
X133259636Y-91703259D01*
X133391942Y-91758062D01*
X133532397Y-91786000D01*
X133675603Y-91786000D01*
X133816058Y-91758062D01*
X133948364Y-91703259D01*
X134067436Y-91623698D01*
X134168698Y-91522436D01*
X134248259Y-91403364D01*
X134303062Y-91271058D01*
X134331000Y-91130603D01*
X134331000Y-90987397D01*
X134303062Y-90846942D01*
X134248259Y-90714636D01*
X134168698Y-90595564D01*
X134067436Y-90494302D01*
X133962221Y-90424000D01*
X134067436Y-90353698D01*
X134168698Y-90252436D01*
X134248259Y-90133364D01*
X134303062Y-90001058D01*
X134331000Y-89860603D01*
X134331000Y-89717397D01*
X134303062Y-89576942D01*
X134248259Y-89444636D01*
X134168698Y-89325564D01*
X134067436Y-89224302D01*
X133948364Y-89144741D01*
X133816058Y-89089938D01*
X133675603Y-89062000D01*
X133532397Y-89062000D01*
X133391942Y-89089938D01*
X133259636Y-89144741D01*
X133140564Y-89224302D01*
X133039302Y-89325564D01*
X132959741Y-89444636D01*
X132904938Y-89576942D01*
X132877000Y-89717397D01*
X132026000Y-89717397D01*
X132026000Y-88721698D01*
X132116636Y-88782259D01*
X132248942Y-88837062D01*
X132389397Y-88865000D01*
X132532603Y-88865000D01*
X132673058Y-88837062D01*
X132805364Y-88782259D01*
X132924436Y-88702698D01*
X133025698Y-88601436D01*
X133105259Y-88482364D01*
X133160062Y-88350058D01*
X133188000Y-88209603D01*
X133188000Y-88066397D01*
X133160062Y-87925942D01*
X133105259Y-87793636D01*
X133025698Y-87674564D01*
X132924436Y-87573302D01*
X132805364Y-87493741D01*
X132673058Y-87438938D01*
X132532603Y-87411000D01*
X132389397Y-87411000D01*
X132248942Y-87438938D01*
X132116636Y-87493741D01*
X132026000Y-87554302D01*
X132026000Y-80972000D01*
X138049000Y-80972000D01*
X138112795Y-80965717D01*
X138174137Y-80947109D01*
X138230671Y-80916891D01*
X138280224Y-80876224D01*
X138320891Y-80826671D01*
X138351109Y-80770137D01*
X138369717Y-80708795D01*
X138376000Y-80645000D01*
X138376000Y-78357376D01*
X138484900Y-78357376D01*
X138484900Y-78589224D01*
X138530131Y-78816618D01*
X138618856Y-79030819D01*
X138747664Y-79223594D01*
X138911606Y-79387536D01*
X139104381Y-79516344D01*
X139318582Y-79605069D01*
X139545976Y-79650300D01*
X139777824Y-79650300D01*
X140005218Y-79605069D01*
X140219419Y-79516344D01*
X140412194Y-79387536D01*
X140576136Y-79223594D01*
X140704944Y-79030819D01*
X140793669Y-78816618D01*
X140838900Y-78589224D01*
X140838900Y-78357376D01*
X141024900Y-78357376D01*
X141024900Y-78589224D01*
X141070131Y-78816618D01*
X141158856Y-79030819D01*
X141287664Y-79223594D01*
X141451606Y-79387536D01*
X141644381Y-79516344D01*
X141858582Y-79605069D01*
X142085976Y-79650300D01*
X142317824Y-79650300D01*
X142545218Y-79605069D01*
X142759419Y-79516344D01*
X142952194Y-79387536D01*
X143116136Y-79223594D01*
X143244944Y-79030819D01*
X143333669Y-78816618D01*
X143378900Y-78589224D01*
X143378900Y-78357376D01*
X143564900Y-78357376D01*
X143564900Y-78589224D01*
X143610131Y-78816618D01*
X143698856Y-79030819D01*
X143827664Y-79223594D01*
X143991606Y-79387536D01*
X144184381Y-79516344D01*
X144398582Y-79605069D01*
X144625976Y-79650300D01*
X144857824Y-79650300D01*
X145085218Y-79605069D01*
X145299419Y-79516344D01*
X145492194Y-79387536D01*
X145656136Y-79223594D01*
X145784944Y-79030819D01*
X145873669Y-78816618D01*
X145918900Y-78589224D01*
X145918900Y-78357376D01*
X145873669Y-78129982D01*
X145784944Y-77915781D01*
X145656136Y-77723006D01*
X145492194Y-77559064D01*
X145299419Y-77430256D01*
X145085218Y-77341531D01*
X144857824Y-77296300D01*
X144625976Y-77296300D01*
X144398582Y-77341531D01*
X144184381Y-77430256D01*
X143991606Y-77559064D01*
X143827664Y-77723006D01*
X143698856Y-77915781D01*
X143610131Y-78129982D01*
X143564900Y-78357376D01*
X143378900Y-78357376D01*
X143333669Y-78129982D01*
X143244944Y-77915781D01*
X143116136Y-77723006D01*
X142952194Y-77559064D01*
X142759419Y-77430256D01*
X142545218Y-77341531D01*
X142317824Y-77296300D01*
X142085976Y-77296300D01*
X141858582Y-77341531D01*
X141644381Y-77430256D01*
X141451606Y-77559064D01*
X141287664Y-77723006D01*
X141158856Y-77915781D01*
X141070131Y-78129982D01*
X141024900Y-78357376D01*
X140838900Y-78357376D01*
X140793669Y-78129982D01*
X140704944Y-77915781D01*
X140576136Y-77723006D01*
X140412194Y-77559064D01*
X140219419Y-77430256D01*
X140005218Y-77341531D01*
X139777824Y-77296300D01*
X139545976Y-77296300D01*
X139318582Y-77341531D01*
X139104381Y-77430256D01*
X138911606Y-77559064D01*
X138747664Y-77723006D01*
X138618856Y-77915781D01*
X138530131Y-78129982D01*
X138484900Y-78357376D01*
X138376000Y-78357376D01*
X138376000Y-77597000D01*
X138369717Y-77533205D01*
X138351109Y-77471863D01*
X138320891Y-77415329D01*
X138280224Y-77365776D01*
X138230671Y-77325109D01*
X138174137Y-77294891D01*
X138112795Y-77276283D01*
X138049000Y-77270000D01*
X130902000Y-77270000D01*
X130902000Y-77144397D01*
X130874062Y-77003942D01*
X130819259Y-76871636D01*
X130739698Y-76752564D01*
X130638436Y-76651302D01*
X130519364Y-76571741D01*
X130387058Y-76516938D01*
X130246603Y-76489000D01*
X130103397Y-76489000D01*
X129962942Y-76516938D01*
X129830636Y-76571741D01*
X129711564Y-76651302D01*
X129610302Y-76752564D01*
X129530741Y-76871636D01*
X129475938Y-77003942D01*
X129448000Y-77144397D01*
X129448000Y-77270000D01*
X129032000Y-77270000D01*
X128968205Y-77276283D01*
X128906863Y-77294891D01*
X128850329Y-77325109D01*
X128800776Y-77365776D01*
X128760109Y-77415329D01*
X128729891Y-77471863D01*
X128711283Y-77533205D01*
X128706689Y-77579849D01*
X128687636Y-77587741D01*
X128568564Y-77667302D01*
X128467302Y-77768564D01*
X128387741Y-77887636D01*
X128332938Y-78019942D01*
X128305000Y-78160397D01*
X128305000Y-78303603D01*
X128332938Y-78444058D01*
X128387741Y-78576364D01*
X128467302Y-78695436D01*
X128568564Y-78796698D01*
X128687636Y-78876259D01*
X128705000Y-78883451D01*
X128705000Y-100446266D01*
X128701438Y-100447741D01*
X128582366Y-100527302D01*
X128481104Y-100628564D01*
X128401543Y-100747636D01*
X128346740Y-100879942D01*
X128318802Y-101020397D01*
X128318802Y-101163603D01*
X128346740Y-101304058D01*
X128401543Y-101436364D01*
X128481104Y-101555436D01*
X128582366Y-101656698D01*
X128701438Y-101736259D01*
X128705000Y-101737734D01*
X128705000Y-106235075D01*
X128652863Y-106250891D01*
X128596329Y-106281109D01*
X128546776Y-106321776D01*
X128506109Y-106371329D01*
X128475891Y-106427863D01*
X128457283Y-106489205D01*
X128451000Y-106553000D01*
X128451000Y-106788750D01*
X128395137Y-106758891D01*
X128333795Y-106740283D01*
X128270000Y-106734000D01*
X125349000Y-106734000D01*
X125285205Y-106740283D01*
X125223863Y-106758891D01*
X125167329Y-106789109D01*
X125117776Y-106829776D01*
X125088017Y-106866038D01*
X125083769Y-106844682D01*
X124995044Y-106630481D01*
X124866236Y-106437706D01*
X124702294Y-106273764D01*
X124509519Y-106144956D01*
X124295318Y-106056231D01*
X124067924Y-106011000D01*
X123836076Y-106011000D01*
X123608682Y-106056231D01*
X123394481Y-106144956D01*
X123201706Y-106273764D01*
X123037764Y-106437706D01*
X122908956Y-106630481D01*
X122820231Y-106844682D01*
X122775000Y-107072076D01*
X122775000Y-107303924D01*
X122820231Y-107531318D01*
X122908956Y-107745519D01*
X123037764Y-107938294D01*
X123201706Y-108102236D01*
X123394481Y-108231044D01*
X123608682Y-108319769D01*
X123836076Y-108365000D01*
X124067924Y-108365000D01*
X124295318Y-108319769D01*
X124509519Y-108231044D01*
X124702294Y-108102236D01*
X124866236Y-107938294D01*
X124995044Y-107745519D01*
X125022000Y-107680441D01*
X125022000Y-115570000D01*
X122507000Y-115570000D01*
X122499879Y-115570200D01*
X122163986Y-115589063D01*
X122149834Y-115590657D01*
X121818164Y-115647010D01*
X121804279Y-115650180D01*
X121481005Y-115743314D01*
X121467562Y-115748017D01*
X121156748Y-115876760D01*
X121143917Y-115882940D01*
X120849472Y-116045674D01*
X120837413Y-116053251D01*
X120563040Y-116247930D01*
X120551905Y-116256809D01*
X120301054Y-116480983D01*
X120290983Y-116491054D01*
X120181594Y-116613460D01*
X120097436Y-116529302D01*
X119978364Y-116449741D01*
X119853000Y-116397813D01*
X119853000Y-116260397D01*
X119825062Y-116119942D01*
X119770259Y-115987636D01*
X119690698Y-115868564D01*
X119589436Y-115767302D01*
X119470364Y-115687741D01*
X119383112Y-115651600D01*
X119435397Y-115662000D01*
X119578603Y-115662000D01*
X119719058Y-115634062D01*
X119851364Y-115579259D01*
X119951500Y-115512351D01*
X120051636Y-115579259D01*
X120183942Y-115634062D01*
X120324397Y-115662000D01*
X120467603Y-115662000D01*
X120608058Y-115634062D01*
X120740364Y-115579259D01*
X120840500Y-115512351D01*
X120940636Y-115579259D01*
X121072942Y-115634062D01*
X121213397Y-115662000D01*
X121356603Y-115662000D01*
X121497058Y-115634062D01*
X121629364Y-115579259D01*
X121748436Y-115499698D01*
X121849698Y-115398436D01*
X121929259Y-115279364D01*
X121984062Y-115147058D01*
X122012000Y-115006603D01*
X122012000Y-114863397D01*
X121984062Y-114722942D01*
X121929259Y-114590636D01*
X121849698Y-114471564D01*
X121748436Y-114370302D01*
X121629364Y-114290741D01*
X121497058Y-114235938D01*
X121356603Y-114208000D01*
X121213397Y-114208000D01*
X121072942Y-114235938D01*
X120940636Y-114290741D01*
X120840500Y-114357649D01*
X120740364Y-114290741D01*
X120608058Y-114235938D01*
X120467603Y-114208000D01*
X120324397Y-114208000D01*
X120183942Y-114235938D01*
X120051636Y-114290741D01*
X119951500Y-114357649D01*
X119851364Y-114290741D01*
X119719058Y-114235938D01*
X119578603Y-114208000D01*
X119435397Y-114208000D01*
X119294942Y-114235938D01*
X119162636Y-114290741D01*
X119043564Y-114370302D01*
X118942302Y-114471564D01*
X118862741Y-114590636D01*
X118807938Y-114722942D01*
X118780000Y-114863397D01*
X118780000Y-115006603D01*
X118807938Y-115147058D01*
X118862741Y-115279364D01*
X118942302Y-115398436D01*
X119043564Y-115499698D01*
X119162636Y-115579259D01*
X119249888Y-115615400D01*
X119197603Y-115605000D01*
X119054397Y-115605000D01*
X118913942Y-115632938D01*
X118781636Y-115687741D01*
X118662564Y-115767302D01*
X118561302Y-115868564D01*
X118481741Y-115987636D01*
X118426938Y-116119942D01*
X118399000Y-116260397D01*
X112842739Y-116260397D01*
X112840062Y-116246942D01*
X112785259Y-116114636D01*
X112705698Y-115995564D01*
X112604436Y-115894302D01*
X112485364Y-115814741D01*
X112396093Y-115777764D01*
X112480058Y-115761062D01*
X112612364Y-115706259D01*
X112731436Y-115626698D01*
X112832698Y-115525436D01*
X112912259Y-115406364D01*
X112967062Y-115274058D01*
X112995000Y-115133603D01*
X112995000Y-114990397D01*
X112967062Y-114849942D01*
X112912259Y-114717636D01*
X112832698Y-114598564D01*
X112731436Y-114497302D01*
X112612364Y-114417741D01*
X112481415Y-114363500D01*
X112612364Y-114309259D01*
X112731436Y-114229698D01*
X112832698Y-114128436D01*
X112912259Y-114009364D01*
X112967062Y-113877058D01*
X112995000Y-113736603D01*
X112995000Y-113593397D01*
X114970000Y-113593397D01*
X114970000Y-113736603D01*
X114997938Y-113877058D01*
X115052741Y-114009364D01*
X115132302Y-114128436D01*
X115233564Y-114229698D01*
X115352636Y-114309259D01*
X115483585Y-114363500D01*
X115352636Y-114417741D01*
X115233564Y-114497302D01*
X115132302Y-114598564D01*
X115052741Y-114717636D01*
X114997938Y-114849942D01*
X114970000Y-114990397D01*
X114970000Y-115133603D01*
X114997938Y-115274058D01*
X115052741Y-115406364D01*
X115132302Y-115525436D01*
X115233564Y-115626698D01*
X115352636Y-115706259D01*
X115484942Y-115761062D01*
X115625397Y-115789000D01*
X115768603Y-115789000D01*
X115909058Y-115761062D01*
X116041364Y-115706259D01*
X116160436Y-115626698D01*
X116261698Y-115525436D01*
X116341259Y-115406364D01*
X116396062Y-115274058D01*
X116424000Y-115133603D01*
X116424000Y-114990397D01*
X116396062Y-114849942D01*
X116341259Y-114717636D01*
X116261698Y-114598564D01*
X116160436Y-114497302D01*
X116041364Y-114417741D01*
X115910415Y-114363500D01*
X116041364Y-114309259D01*
X116160436Y-114229698D01*
X116261698Y-114128436D01*
X116341259Y-114009364D01*
X116396062Y-113877058D01*
X116424000Y-113736603D01*
X116424000Y-113593397D01*
X116396062Y-113452942D01*
X116341259Y-113320636D01*
X116261698Y-113201564D01*
X116160436Y-113100302D01*
X116041364Y-113020741D01*
X115909058Y-112965938D01*
X115768603Y-112938000D01*
X115625397Y-112938000D01*
X115484942Y-112965938D01*
X115352636Y-113020741D01*
X115233564Y-113100302D01*
X115132302Y-113201564D01*
X115052741Y-113320636D01*
X114997938Y-113452942D01*
X114970000Y-113593397D01*
X112995000Y-113593397D01*
X112967062Y-113452942D01*
X112912259Y-113320636D01*
X112832698Y-113201564D01*
X112731436Y-113100302D01*
X112612364Y-113020741D01*
X112480058Y-112965938D01*
X112339603Y-112938000D01*
X112196397Y-112938000D01*
X112055942Y-112965938D01*
X111923636Y-113020741D01*
X111804564Y-113100302D01*
X111703302Y-113201564D01*
X111623741Y-113320636D01*
X111568938Y-113452942D01*
X111541000Y-113593397D01*
X111541000Y-113736603D01*
X111568938Y-113877058D01*
X111623741Y-114009364D01*
X111703302Y-114128436D01*
X111804564Y-114229698D01*
X111923636Y-114309259D01*
X112054585Y-114363500D01*
X111923636Y-114417741D01*
X111804564Y-114497302D01*
X111703302Y-114598564D01*
X111623741Y-114717636D01*
X111568938Y-114849942D01*
X111541000Y-114990397D01*
X111541000Y-115133603D01*
X111568938Y-115274058D01*
X111623741Y-115406364D01*
X111703302Y-115525436D01*
X111804564Y-115626698D01*
X111923636Y-115706259D01*
X112012907Y-115743236D01*
X111928942Y-115759938D01*
X111796636Y-115814741D01*
X111677564Y-115894302D01*
X111576302Y-115995564D01*
X111496741Y-116114636D01*
X111441938Y-116246942D01*
X111414000Y-116387397D01*
X103688282Y-116387397D01*
X103691400Y-116371724D01*
X103691400Y-116139876D01*
X103646169Y-115912482D01*
X103557444Y-115698281D01*
X103428636Y-115505506D01*
X103264694Y-115341564D01*
X103071919Y-115212756D01*
X102857718Y-115124031D01*
X102630324Y-115078800D01*
X102398476Y-115078800D01*
X102171082Y-115124031D01*
X101956881Y-115212756D01*
X101764106Y-115341564D01*
X101600164Y-115505506D01*
X101471356Y-115698281D01*
X101382631Y-115912482D01*
X101337400Y-116139876D01*
X101127000Y-116139876D01*
X101127000Y-108132397D01*
X111160000Y-108132397D01*
X111160000Y-108275603D01*
X111187938Y-108416058D01*
X111242741Y-108548364D01*
X111322302Y-108667436D01*
X111423564Y-108768698D01*
X111542636Y-108848259D01*
X111674942Y-108903062D01*
X111815397Y-108931000D01*
X111958603Y-108931000D01*
X112099058Y-108903062D01*
X112231364Y-108848259D01*
X112350436Y-108768698D01*
X112451698Y-108667436D01*
X112531259Y-108548364D01*
X112545742Y-108513397D01*
X114589000Y-108513397D01*
X114589000Y-108656603D01*
X114616938Y-108797058D01*
X114671741Y-108929364D01*
X114751302Y-109048436D01*
X114852564Y-109149698D01*
X114971636Y-109229259D01*
X115103942Y-109284062D01*
X115244397Y-109312000D01*
X115387603Y-109312000D01*
X115528058Y-109284062D01*
X115660364Y-109229259D01*
X115779436Y-109149698D01*
X115880698Y-109048436D01*
X115960259Y-108929364D01*
X116015062Y-108797058D01*
X116043000Y-108656603D01*
X116043000Y-108513397D01*
X116367000Y-108513397D01*
X116367000Y-108656603D01*
X116394938Y-108797058D01*
X116449741Y-108929364D01*
X116529302Y-109048436D01*
X116630564Y-109149698D01*
X116749636Y-109229259D01*
X116881942Y-109284062D01*
X117022397Y-109312000D01*
X117165603Y-109312000D01*
X117306058Y-109284062D01*
X117438364Y-109229259D01*
X117557436Y-109149698D01*
X117658698Y-109048436D01*
X117729000Y-108943221D01*
X117799302Y-109048436D01*
X117900564Y-109149698D01*
X118019636Y-109229259D01*
X118151942Y-109284062D01*
X118272000Y-109307943D01*
X118272000Y-109418603D01*
X118299938Y-109559058D01*
X118354741Y-109691364D01*
X118434302Y-109810436D01*
X118535564Y-109911698D01*
X118654636Y-109991259D01*
X118786942Y-110046062D01*
X118927397Y-110074000D01*
X119070603Y-110074000D01*
X119211058Y-110046062D01*
X119343364Y-109991259D01*
X119462436Y-109911698D01*
X119563698Y-109810436D01*
X119643259Y-109691364D01*
X119698062Y-109559058D01*
X119726000Y-109418603D01*
X119726000Y-109275397D01*
X119698062Y-109134942D01*
X119643259Y-109002636D01*
X119563698Y-108883564D01*
X119462436Y-108782302D01*
X119343364Y-108702741D01*
X119211058Y-108647938D01*
X119091000Y-108624057D01*
X119091000Y-108513397D01*
X119063062Y-108372942D01*
X119008259Y-108240636D01*
X118928698Y-108121564D01*
X118827436Y-108020302D01*
X118708364Y-107940741D01*
X118576058Y-107885938D01*
X118435603Y-107858000D01*
X118292397Y-107858000D01*
X118151942Y-107885938D01*
X118081674Y-107915044D01*
X118109290Y-107848373D01*
X118137228Y-107707918D01*
X118137228Y-107564712D01*
X118109290Y-107424257D01*
X118054487Y-107291951D01*
X117974926Y-107172879D01*
X117873664Y-107071617D01*
X117754592Y-106992056D01*
X117622286Y-106937253D01*
X117481831Y-106909315D01*
X117338625Y-106909315D01*
X117198170Y-106937253D01*
X117065864Y-106992056D01*
X116946792Y-107071617D01*
X116845530Y-107172879D01*
X116765969Y-107291951D01*
X116711166Y-107424257D01*
X116683228Y-107564712D01*
X116683228Y-107707918D01*
X116711166Y-107848373D01*
X116749472Y-107940851D01*
X116630564Y-108020302D01*
X116529302Y-108121564D01*
X116449741Y-108240636D01*
X116394938Y-108372942D01*
X116367000Y-108513397D01*
X116043000Y-108513397D01*
X116015062Y-108372942D01*
X115960259Y-108240636D01*
X115880698Y-108121564D01*
X115779436Y-108020302D01*
X115660364Y-107940741D01*
X115528058Y-107885938D01*
X115387603Y-107858000D01*
X115244397Y-107858000D01*
X115103942Y-107885938D01*
X114971636Y-107940741D01*
X114852564Y-108020302D01*
X114751302Y-108121564D01*
X114671741Y-108240636D01*
X114616938Y-108372942D01*
X114589000Y-108513397D01*
X112545742Y-108513397D01*
X112586062Y-108416058D01*
X112614000Y-108275603D01*
X112614000Y-108132397D01*
X112586062Y-107991942D01*
X112531259Y-107859636D01*
X112451698Y-107740564D01*
X112350436Y-107639302D01*
X112231364Y-107559741D01*
X112099058Y-107504938D01*
X111958603Y-107477000D01*
X111815397Y-107477000D01*
X111674942Y-107504938D01*
X111542636Y-107559741D01*
X111423564Y-107639302D01*
X111322302Y-107740564D01*
X111242741Y-107859636D01*
X111187938Y-107991942D01*
X111160000Y-108132397D01*
X101127000Y-108132397D01*
X101127000Y-105084397D01*
X106842000Y-105084397D01*
X106842000Y-105227603D01*
X106869938Y-105368058D01*
X106924741Y-105500364D01*
X107004302Y-105619436D01*
X107105564Y-105720698D01*
X107224636Y-105800259D01*
X107356942Y-105855062D01*
X107497397Y-105883000D01*
X107640603Y-105883000D01*
X107738299Y-105863567D01*
X107639302Y-105962564D01*
X107559741Y-106081636D01*
X107504938Y-106213942D01*
X107477000Y-106354397D01*
X107477000Y-106497603D01*
X107504938Y-106638058D01*
X107559741Y-106770364D01*
X107639302Y-106889436D01*
X107740564Y-106990698D01*
X107859636Y-107070259D01*
X107991942Y-107125062D01*
X108132397Y-107153000D01*
X108275603Y-107153000D01*
X108416058Y-107125062D01*
X108548364Y-107070259D01*
X108667436Y-106990698D01*
X108768698Y-106889436D01*
X108848259Y-106770364D01*
X108903062Y-106638058D01*
X108931000Y-106497603D01*
X108931000Y-106354397D01*
X108903062Y-106213942D01*
X108848259Y-106081636D01*
X108768698Y-105962564D01*
X108667436Y-105861302D01*
X108548364Y-105781741D01*
X108416058Y-105726938D01*
X108275603Y-105699000D01*
X108132397Y-105699000D01*
X108034701Y-105718433D01*
X108133698Y-105619436D01*
X108151764Y-105592397D01*
X116875000Y-105592397D01*
X116875000Y-105735603D01*
X116902938Y-105876058D01*
X116957741Y-106008364D01*
X117037302Y-106127436D01*
X117138564Y-106228698D01*
X117257636Y-106308259D01*
X117389942Y-106363062D01*
X117530397Y-106391000D01*
X117673603Y-106391000D01*
X117814058Y-106363062D01*
X117874562Y-106338000D01*
X120233418Y-106338000D01*
X120233418Y-108038000D01*
X120239732Y-108102103D01*
X120258430Y-108163743D01*
X120288794Y-108220550D01*
X120329657Y-108270343D01*
X120379450Y-108311206D01*
X120436257Y-108341570D01*
X120497897Y-108360268D01*
X120562000Y-108366582D01*
X122262000Y-108366582D01*
X122326103Y-108360268D01*
X122387743Y-108341570D01*
X122444550Y-108311206D01*
X122494343Y-108270343D01*
X122535206Y-108220550D01*
X122565570Y-108163743D01*
X122584268Y-108102103D01*
X122590582Y-108038000D01*
X122590582Y-106338000D01*
X122584268Y-106273897D01*
X122565570Y-106212257D01*
X122535206Y-106155450D01*
X122494343Y-106105657D01*
X122444550Y-106064794D01*
X122387743Y-106034430D01*
X122326103Y-106015732D01*
X122262000Y-106009418D01*
X120562000Y-106009418D01*
X120497897Y-106015732D01*
X120436257Y-106034430D01*
X120379450Y-106064794D01*
X120329657Y-106105657D01*
X120288794Y-106155450D01*
X120258430Y-106212257D01*
X120239732Y-106273897D01*
X120233418Y-106338000D01*
X117874562Y-106338000D01*
X117946364Y-106308259D01*
X118065436Y-106228698D01*
X118166698Y-106127436D01*
X118246259Y-106008364D01*
X118301062Y-105876058D01*
X118329000Y-105735603D01*
X118329000Y-105592397D01*
X118301062Y-105451942D01*
X118246259Y-105319636D01*
X118166698Y-105200564D01*
X118065436Y-105099302D01*
X117946364Y-105019741D01*
X117814058Y-104964938D01*
X117673603Y-104937000D01*
X117530397Y-104937000D01*
X117389942Y-104964938D01*
X117257636Y-105019741D01*
X117138564Y-105099302D01*
X117037302Y-105200564D01*
X116957741Y-105319636D01*
X116902938Y-105451942D01*
X116875000Y-105592397D01*
X108151764Y-105592397D01*
X108213259Y-105500364D01*
X108268062Y-105368058D01*
X108296000Y-105227603D01*
X108296000Y-105084397D01*
X108268062Y-104943942D01*
X108213259Y-104811636D01*
X108133698Y-104692564D01*
X108032436Y-104591302D01*
X107913364Y-104511741D01*
X107781058Y-104456938D01*
X107640603Y-104429000D01*
X107497397Y-104429000D01*
X107356942Y-104456938D01*
X107224636Y-104511741D01*
X107105564Y-104591302D01*
X107004302Y-104692564D01*
X106924741Y-104811636D01*
X106869938Y-104943942D01*
X106842000Y-105084397D01*
X101127000Y-105084397D01*
X101127000Y-102925397D01*
X108239000Y-102925397D01*
X108239000Y-103068603D01*
X108266938Y-103209058D01*
X108321741Y-103341364D01*
X108401302Y-103460436D01*
X108502564Y-103561698D01*
X108621636Y-103641259D01*
X108753942Y-103696062D01*
X108894397Y-103724000D01*
X109037603Y-103724000D01*
X109178058Y-103696062D01*
X109310364Y-103641259D01*
X109429436Y-103561698D01*
X109530698Y-103460436D01*
X109610259Y-103341364D01*
X109665062Y-103209058D01*
X109693000Y-103068603D01*
X109693000Y-102925397D01*
X109665062Y-102784942D01*
X109610259Y-102652636D01*
X109530698Y-102533564D01*
X109429436Y-102432302D01*
X109310364Y-102352741D01*
X109178058Y-102297938D01*
X109037603Y-102270000D01*
X108894397Y-102270000D01*
X108753942Y-102297938D01*
X108621636Y-102352741D01*
X108502564Y-102432302D01*
X108401302Y-102533564D01*
X108321741Y-102652636D01*
X108266938Y-102784942D01*
X108239000Y-102925397D01*
X101127000Y-102925397D01*
X101127000Y-101020397D01*
X122844000Y-101020397D01*
X122844000Y-101163603D01*
X122871938Y-101304058D01*
X122926741Y-101436364D01*
X123006302Y-101555436D01*
X123050866Y-101600000D01*
X123006302Y-101644564D01*
X122926741Y-101763636D01*
X122871938Y-101895942D01*
X122844000Y-102036397D01*
X122844000Y-102179603D01*
X122871938Y-102320058D01*
X122926741Y-102452364D01*
X123006302Y-102571436D01*
X123107564Y-102672698D01*
X123226636Y-102752259D01*
X123358942Y-102807062D01*
X123499397Y-102835000D01*
X123642603Y-102835000D01*
X123783058Y-102807062D01*
X123915364Y-102752259D01*
X124034436Y-102672698D01*
X124135698Y-102571436D01*
X124215259Y-102452364D01*
X124270062Y-102320058D01*
X124298000Y-102179603D01*
X124298000Y-102036397D01*
X124270062Y-101895942D01*
X124215259Y-101763636D01*
X124135698Y-101644564D01*
X124091134Y-101600000D01*
X124135698Y-101555436D01*
X124215259Y-101436364D01*
X124270062Y-101304058D01*
X124298000Y-101163603D01*
X124298000Y-101020397D01*
X124270062Y-100879942D01*
X124215259Y-100747636D01*
X124135698Y-100628564D01*
X124034436Y-100527302D01*
X123915364Y-100447741D01*
X123783058Y-100392938D01*
X123642603Y-100365000D01*
X123499397Y-100365000D01*
X123358942Y-100392938D01*
X123226636Y-100447741D01*
X123107564Y-100527302D01*
X123006302Y-100628564D01*
X122926741Y-100747636D01*
X122871938Y-100879942D01*
X122844000Y-101020397D01*
X101127000Y-101020397D01*
X101127000Y-98734397D01*
X123987000Y-98734397D01*
X123987000Y-98877603D01*
X124014938Y-99018058D01*
X124069741Y-99150364D01*
X124149302Y-99269436D01*
X124250564Y-99370698D01*
X124369636Y-99450259D01*
X124501942Y-99505062D01*
X124642397Y-99533000D01*
X124785603Y-99533000D01*
X124926058Y-99505062D01*
X125058364Y-99450259D01*
X125177436Y-99370698D01*
X125278698Y-99269436D01*
X125358259Y-99150364D01*
X125413062Y-99018058D01*
X125441000Y-98877603D01*
X125441000Y-98734397D01*
X125413062Y-98593942D01*
X125358259Y-98461636D01*
X125278698Y-98342564D01*
X125177436Y-98241302D01*
X125058364Y-98161741D01*
X124926058Y-98106938D01*
X124785603Y-98079000D01*
X124642397Y-98079000D01*
X124501942Y-98106938D01*
X124369636Y-98161741D01*
X124250564Y-98241302D01*
X124149302Y-98342564D01*
X124069741Y-98461636D01*
X124014938Y-98593942D01*
X123987000Y-98734397D01*
X101127000Y-98734397D01*
X101127000Y-96829397D01*
X102092200Y-96829397D01*
X102092200Y-96972603D01*
X102120138Y-97113058D01*
X102174941Y-97245364D01*
X102254502Y-97364436D01*
X102355764Y-97465698D01*
X102474836Y-97545259D01*
X102607142Y-97600062D01*
X102747597Y-97628000D01*
X102890803Y-97628000D01*
X103031258Y-97600062D01*
X103163564Y-97545259D01*
X103282636Y-97465698D01*
X103383898Y-97364436D01*
X103463459Y-97245364D01*
X103518262Y-97113058D01*
X103546200Y-96972603D01*
X103546200Y-96829397D01*
X103531044Y-96753197D01*
X103667000Y-96753197D01*
X103667000Y-96896403D01*
X103694938Y-97036858D01*
X103749741Y-97169164D01*
X103829302Y-97288236D01*
X103930564Y-97389498D01*
X104049636Y-97469059D01*
X104181942Y-97523862D01*
X104322397Y-97551800D01*
X104465603Y-97551800D01*
X104606058Y-97523862D01*
X104738364Y-97469059D01*
X104857436Y-97389498D01*
X104909537Y-97337397D01*
X119415000Y-97337397D01*
X119415000Y-97480603D01*
X119442938Y-97621058D01*
X119497741Y-97753364D01*
X119577302Y-97872436D01*
X119678564Y-97973698D01*
X119797636Y-98053259D01*
X119929942Y-98108062D01*
X120070397Y-98136000D01*
X120213603Y-98136000D01*
X120354058Y-98108062D01*
X120486364Y-98053259D01*
X120605436Y-97973698D01*
X120706698Y-97872436D01*
X120786259Y-97753364D01*
X120841062Y-97621058D01*
X120869000Y-97480603D01*
X120869000Y-97337397D01*
X120841062Y-97196942D01*
X120786259Y-97064636D01*
X120706698Y-96945564D01*
X120605436Y-96844302D01*
X120486364Y-96764741D01*
X120354058Y-96709938D01*
X120213603Y-96682000D01*
X120070397Y-96682000D01*
X119929942Y-96709938D01*
X119797636Y-96764741D01*
X119678564Y-96844302D01*
X119577302Y-96945564D01*
X119497741Y-97064636D01*
X119442938Y-97196942D01*
X119415000Y-97337397D01*
X104909537Y-97337397D01*
X104958698Y-97288236D01*
X105038259Y-97169164D01*
X105093062Y-97036858D01*
X105121000Y-96896403D01*
X105121000Y-96753197D01*
X105093062Y-96612742D01*
X105038259Y-96480436D01*
X104958698Y-96361364D01*
X104857436Y-96260102D01*
X104738364Y-96180541D01*
X104606058Y-96125738D01*
X104465603Y-96097800D01*
X104322397Y-96097800D01*
X104181942Y-96125738D01*
X104049636Y-96180541D01*
X103930564Y-96260102D01*
X103829302Y-96361364D01*
X103749741Y-96480436D01*
X103694938Y-96612742D01*
X103667000Y-96753197D01*
X103531044Y-96753197D01*
X103518262Y-96688942D01*
X103463459Y-96556636D01*
X103383898Y-96437564D01*
X103282636Y-96336302D01*
X103163564Y-96256741D01*
X103031258Y-96201938D01*
X102890803Y-96174000D01*
X102747597Y-96174000D01*
X102607142Y-96201938D01*
X102474836Y-96256741D01*
X102355764Y-96336302D01*
X102254502Y-96437564D01*
X102174941Y-96556636D01*
X102120138Y-96688942D01*
X102092200Y-96829397D01*
X101127000Y-96829397D01*
X101127000Y-94813603D01*
X101154938Y-94954058D01*
X101209741Y-95086364D01*
X101289302Y-95205436D01*
X101390564Y-95306698D01*
X101509636Y-95386259D01*
X101641942Y-95441062D01*
X101782397Y-95469000D01*
X101925603Y-95469000D01*
X102066058Y-95441062D01*
X102198364Y-95386259D01*
X102317436Y-95306698D01*
X102418698Y-95205436D01*
X102498259Y-95086364D01*
X102512742Y-95051397D01*
X107731000Y-95051397D01*
X107731000Y-95194603D01*
X107758938Y-95335058D01*
X107813741Y-95467364D01*
X107893302Y-95586436D01*
X107994564Y-95687698D01*
X108113636Y-95767259D01*
X108245942Y-95822062D01*
X108386397Y-95850000D01*
X108529603Y-95850000D01*
X108670058Y-95822062D01*
X108802364Y-95767259D01*
X108921436Y-95687698D01*
X109022698Y-95586436D01*
X109102259Y-95467364D01*
X109157062Y-95335058D01*
X109185000Y-95194603D01*
X109185000Y-95051397D01*
X109157062Y-94910942D01*
X109102259Y-94778636D01*
X109022698Y-94659564D01*
X108921436Y-94558302D01*
X108802364Y-94478741D01*
X108670058Y-94423938D01*
X108529603Y-94396000D01*
X108386397Y-94396000D01*
X108245942Y-94423938D01*
X108113636Y-94478741D01*
X107994564Y-94558302D01*
X107893302Y-94659564D01*
X107813741Y-94778636D01*
X107758938Y-94910942D01*
X107731000Y-95051397D01*
X102512742Y-95051397D01*
X102553062Y-94954058D01*
X102581000Y-94813603D01*
X102581000Y-94670397D01*
X102553062Y-94529942D01*
X102498259Y-94397636D01*
X102418698Y-94278564D01*
X102317436Y-94177302D01*
X102198364Y-94097741D01*
X102066058Y-94042938D01*
X101925603Y-94015000D01*
X101782397Y-94015000D01*
X101641942Y-94042938D01*
X101509636Y-94097741D01*
X101390564Y-94177302D01*
X101289302Y-94278564D01*
X101209741Y-94397636D01*
X101154938Y-94529942D01*
X101127000Y-94670397D01*
X101127000Y-92554055D01*
X103082935Y-92554055D01*
X103082935Y-92697261D01*
X103110873Y-92837716D01*
X103165676Y-92970022D01*
X103245237Y-93089094D01*
X103346499Y-93190356D01*
X103465571Y-93269917D01*
X103597877Y-93324720D01*
X103738332Y-93352658D01*
X103794000Y-93352658D01*
X103794000Y-93416603D01*
X103821938Y-93557058D01*
X103876741Y-93689364D01*
X103956302Y-93808436D01*
X104057564Y-93909698D01*
X104176636Y-93989259D01*
X104308942Y-94044062D01*
X104449397Y-94072000D01*
X104592603Y-94072000D01*
X104733058Y-94044062D01*
X104865364Y-93989259D01*
X104984436Y-93909698D01*
X105085698Y-93808436D01*
X105165259Y-93689364D01*
X105220062Y-93557058D01*
X105248000Y-93416603D01*
X105248000Y-93273397D01*
X105220062Y-93132942D01*
X105165259Y-93000636D01*
X105085698Y-92881564D01*
X104984436Y-92780302D01*
X104924116Y-92739997D01*
X107705600Y-92739997D01*
X107705600Y-92883203D01*
X107733538Y-93023658D01*
X107788341Y-93155964D01*
X107867902Y-93275036D01*
X107969164Y-93376298D01*
X108088236Y-93455859D01*
X108220542Y-93510662D01*
X108360997Y-93538600D01*
X108504203Y-93538600D01*
X108644658Y-93510662D01*
X108776964Y-93455859D01*
X108896036Y-93376298D01*
X108997298Y-93275036D01*
X109076859Y-93155964D01*
X109131662Y-93023658D01*
X109159600Y-92883203D01*
X109159600Y-92739997D01*
X109131662Y-92599542D01*
X109076859Y-92467236D01*
X108997298Y-92348164D01*
X108896036Y-92246902D01*
X108776964Y-92167341D01*
X108644658Y-92112538D01*
X108504203Y-92084600D01*
X108360997Y-92084600D01*
X108220542Y-92112538D01*
X108088236Y-92167341D01*
X107969164Y-92246902D01*
X107867902Y-92348164D01*
X107788341Y-92467236D01*
X107733538Y-92599542D01*
X107705600Y-92739997D01*
X104924116Y-92739997D01*
X104865364Y-92700741D01*
X104733058Y-92645938D01*
X104592603Y-92618000D01*
X104536935Y-92618000D01*
X104536935Y-92554055D01*
X104508997Y-92413600D01*
X104454194Y-92281294D01*
X104374633Y-92162222D01*
X104273371Y-92060960D01*
X104154299Y-91981399D01*
X104021993Y-91926596D01*
X103881538Y-91898658D01*
X103738332Y-91898658D01*
X103597877Y-91926596D01*
X103465571Y-91981399D01*
X103346499Y-92060960D01*
X103245237Y-92162222D01*
X103165676Y-92281294D01*
X103110873Y-92413600D01*
X103082935Y-92554055D01*
X101127000Y-92554055D01*
X101127000Y-91114397D01*
X106461000Y-91114397D01*
X106461000Y-91257603D01*
X106488938Y-91398058D01*
X106543741Y-91530364D01*
X106623302Y-91649436D01*
X106724564Y-91750698D01*
X106843636Y-91830259D01*
X106975942Y-91885062D01*
X107116397Y-91913000D01*
X107259603Y-91913000D01*
X107400058Y-91885062D01*
X107532364Y-91830259D01*
X107651436Y-91750698D01*
X107752698Y-91649436D01*
X107772674Y-91619540D01*
X107788341Y-91657364D01*
X107867902Y-91776436D01*
X107969164Y-91877698D01*
X108088236Y-91957259D01*
X108220542Y-92012062D01*
X108360997Y-92040000D01*
X108504203Y-92040000D01*
X108644658Y-92012062D01*
X108776964Y-91957259D01*
X108896036Y-91877698D01*
X108997298Y-91776436D01*
X109076859Y-91657364D01*
X109131662Y-91525058D01*
X109159600Y-91384603D01*
X109159600Y-91241397D01*
X109131662Y-91100942D01*
X109076859Y-90968636D01*
X108997298Y-90849564D01*
X108896036Y-90748302D01*
X108776964Y-90668741D01*
X108644658Y-90613938D01*
X108504203Y-90586000D01*
X108360997Y-90586000D01*
X108220542Y-90613938D01*
X108088236Y-90668741D01*
X107969164Y-90748302D01*
X107867902Y-90849564D01*
X107847926Y-90879460D01*
X107832259Y-90841636D01*
X107752698Y-90722564D01*
X107651436Y-90621302D01*
X107532364Y-90541741D01*
X107400058Y-90486938D01*
X107259603Y-90459000D01*
X107116397Y-90459000D01*
X106975942Y-90486938D01*
X106843636Y-90541741D01*
X106724564Y-90621302D01*
X106623302Y-90722564D01*
X106543741Y-90841636D01*
X106488938Y-90973942D01*
X106461000Y-91114397D01*
X101127000Y-91114397D01*
X101127000Y-89717397D01*
X103921000Y-89717397D01*
X103921000Y-89860603D01*
X103948938Y-90001058D01*
X104003741Y-90133364D01*
X104083302Y-90252436D01*
X104184564Y-90353698D01*
X104303636Y-90433259D01*
X104435942Y-90488062D01*
X104576397Y-90516000D01*
X104719603Y-90516000D01*
X104860058Y-90488062D01*
X104992364Y-90433259D01*
X105111436Y-90353698D01*
X105212698Y-90252436D01*
X105292259Y-90133364D01*
X105347062Y-90001058D01*
X105375000Y-89860603D01*
X105375000Y-89717397D01*
X105347062Y-89576942D01*
X105300031Y-89463397D01*
X107858000Y-89463397D01*
X107858000Y-89606603D01*
X107885938Y-89747058D01*
X107940741Y-89879364D01*
X108020302Y-89998436D01*
X108121564Y-90099698D01*
X108240636Y-90179259D01*
X108372942Y-90234062D01*
X108513397Y-90262000D01*
X108656603Y-90262000D01*
X108797058Y-90234062D01*
X108929364Y-90179259D01*
X109048436Y-90099698D01*
X109149698Y-89998436D01*
X109229259Y-89879364D01*
X109284062Y-89747058D01*
X109312000Y-89606603D01*
X109312000Y-89463397D01*
X109284062Y-89322942D01*
X109229259Y-89190636D01*
X109149698Y-89071564D01*
X109048436Y-88970302D01*
X108929364Y-88890741D01*
X108797058Y-88835938D01*
X108656603Y-88808000D01*
X108513397Y-88808000D01*
X108372942Y-88835938D01*
X108240636Y-88890741D01*
X108121564Y-88970302D01*
X108020302Y-89071564D01*
X107940741Y-89190636D01*
X107885938Y-89322942D01*
X107858000Y-89463397D01*
X105300031Y-89463397D01*
X105292259Y-89444636D01*
X105212698Y-89325564D01*
X105111436Y-89224302D01*
X104992364Y-89144741D01*
X104860058Y-89089938D01*
X104719603Y-89062000D01*
X104576397Y-89062000D01*
X104435942Y-89089938D01*
X104303636Y-89144741D01*
X104184564Y-89224302D01*
X104083302Y-89325564D01*
X104003741Y-89444636D01*
X103948938Y-89576942D01*
X103921000Y-89717397D01*
X101127000Y-89717397D01*
X101127000Y-85399397D01*
X105826000Y-85399397D01*
X105826000Y-85542603D01*
X105853938Y-85683058D01*
X105908741Y-85815364D01*
X105988302Y-85934436D01*
X106089564Y-86035698D01*
X106208636Y-86115259D01*
X106340942Y-86170062D01*
X106481397Y-86198000D01*
X106624603Y-86198000D01*
X106765058Y-86170062D01*
X106897364Y-86115259D01*
X107016436Y-86035698D01*
X107117698Y-85934436D01*
X107197259Y-85815364D01*
X107252062Y-85683058D01*
X107257961Y-85653397D01*
X110906000Y-85653397D01*
X110906000Y-85796603D01*
X110933938Y-85937058D01*
X110988741Y-86069364D01*
X111068302Y-86188436D01*
X111169564Y-86289698D01*
X111288636Y-86369259D01*
X111420942Y-86424062D01*
X111561397Y-86452000D01*
X111704603Y-86452000D01*
X111845058Y-86424062D01*
X111977364Y-86369259D01*
X112096436Y-86289698D01*
X112197698Y-86188436D01*
X112277259Y-86069364D01*
X112291736Y-86034413D01*
X122335984Y-86034413D01*
X122335984Y-86177619D01*
X122363922Y-86318074D01*
X122418725Y-86450380D01*
X122498286Y-86569452D01*
X122599548Y-86670714D01*
X122718620Y-86750275D01*
X122850926Y-86805078D01*
X122991381Y-86833016D01*
X123134587Y-86833016D01*
X123275042Y-86805078D01*
X123407348Y-86750275D01*
X123526420Y-86670714D01*
X123627682Y-86569452D01*
X123707243Y-86450380D01*
X123762046Y-86318074D01*
X123789984Y-86177619D01*
X123789984Y-86034413D01*
X123762046Y-85893958D01*
X123707243Y-85761652D01*
X123627682Y-85642580D01*
X123526420Y-85541318D01*
X123407348Y-85461757D01*
X123275042Y-85406954D01*
X123134587Y-85379016D01*
X122991381Y-85379016D01*
X122850926Y-85406954D01*
X122718620Y-85461757D01*
X122599548Y-85541318D01*
X122498286Y-85642580D01*
X122418725Y-85761652D01*
X122363922Y-85893958D01*
X122335984Y-86034413D01*
X112291736Y-86034413D01*
X112332062Y-85937058D01*
X112360000Y-85796603D01*
X112360000Y-85653397D01*
X112332062Y-85512942D01*
X112277259Y-85380636D01*
X112197698Y-85261564D01*
X112096436Y-85160302D01*
X111977364Y-85080741D01*
X111845058Y-85025938D01*
X111704603Y-84998000D01*
X111561397Y-84998000D01*
X111420942Y-85025938D01*
X111288636Y-85080741D01*
X111169564Y-85160302D01*
X111068302Y-85261564D01*
X110988741Y-85380636D01*
X110933938Y-85512942D01*
X110906000Y-85653397D01*
X107257961Y-85653397D01*
X107280000Y-85542603D01*
X107280000Y-85399397D01*
X107252062Y-85258942D01*
X107197259Y-85126636D01*
X107117698Y-85007564D01*
X107016436Y-84906302D01*
X106897364Y-84826741D01*
X106765058Y-84771938D01*
X106624603Y-84744000D01*
X106481397Y-84744000D01*
X106340942Y-84771938D01*
X106208636Y-84826741D01*
X106089564Y-84906302D01*
X105988302Y-85007564D01*
X105908741Y-85126636D01*
X105853938Y-85258942D01*
X105826000Y-85399397D01*
X101127000Y-85399397D01*
X101127000Y-84129397D01*
X126781000Y-84129397D01*
X126781000Y-84272603D01*
X126808938Y-84413058D01*
X126863741Y-84545364D01*
X126943302Y-84664436D01*
X127044564Y-84765698D01*
X127163636Y-84845259D01*
X127295942Y-84900062D01*
X127436397Y-84928000D01*
X127579603Y-84928000D01*
X127720058Y-84900062D01*
X127852364Y-84845259D01*
X127971436Y-84765698D01*
X128072698Y-84664436D01*
X128152259Y-84545364D01*
X128207062Y-84413058D01*
X128235000Y-84272603D01*
X128235000Y-84129397D01*
X128207062Y-83988942D01*
X128152259Y-83856636D01*
X128072698Y-83737564D01*
X127971436Y-83636302D01*
X127852364Y-83556741D01*
X127720058Y-83501938D01*
X127579603Y-83474000D01*
X127436397Y-83474000D01*
X127295942Y-83501938D01*
X127163636Y-83556741D01*
X127044564Y-83636302D01*
X126943302Y-83737564D01*
X126863741Y-83856636D01*
X126808938Y-83988942D01*
X126781000Y-84129397D01*
X101127000Y-84129397D01*
X101127000Y-79652621D01*
X101473000Y-79652621D01*
X101473000Y-80347379D01*
X101608540Y-81028788D01*
X101874413Y-81670661D01*
X102260400Y-82248332D01*
X102751668Y-82739600D01*
X103329339Y-83125587D01*
X103971212Y-83391460D01*
X104652621Y-83527000D01*
X105347379Y-83527000D01*
X106028788Y-83391460D01*
X106670661Y-83125587D01*
X107248332Y-82739600D01*
X107739600Y-82248332D01*
X108010168Y-81843397D01*
X110906000Y-81843397D01*
X110906000Y-81986603D01*
X110933938Y-82127058D01*
X110988741Y-82259364D01*
X111068302Y-82378436D01*
X111169564Y-82479698D01*
X111274779Y-82550000D01*
X111169564Y-82620302D01*
X111068302Y-82721564D01*
X110988741Y-82840636D01*
X110933938Y-82972942D01*
X110906000Y-83113397D01*
X110906000Y-83256603D01*
X110933938Y-83397058D01*
X110988741Y-83529364D01*
X111068302Y-83648436D01*
X111169564Y-83749698D01*
X111288636Y-83829259D01*
X111420942Y-83884062D01*
X111561397Y-83912000D01*
X111704603Y-83912000D01*
X111845058Y-83884062D01*
X111977364Y-83829259D01*
X112096436Y-83749698D01*
X112197698Y-83648436D01*
X112277259Y-83529364D01*
X112332062Y-83397058D01*
X112360000Y-83256603D01*
X112360000Y-83113397D01*
X112332062Y-82972942D01*
X112277259Y-82840636D01*
X112197698Y-82721564D01*
X112096436Y-82620302D01*
X111991221Y-82550000D01*
X112096436Y-82479698D01*
X112197698Y-82378436D01*
X112277259Y-82259364D01*
X112332062Y-82127058D01*
X112360000Y-81986603D01*
X112360000Y-81843397D01*
X124749000Y-81843397D01*
X124749000Y-81986603D01*
X124776938Y-82127058D01*
X124831741Y-82259364D01*
X124911302Y-82378436D01*
X125012564Y-82479698D01*
X125117779Y-82550000D01*
X125012564Y-82620302D01*
X124911302Y-82721564D01*
X124831741Y-82840636D01*
X124776938Y-82972942D01*
X124749000Y-83113397D01*
X124749000Y-83256603D01*
X124776938Y-83397058D01*
X124831741Y-83529364D01*
X124911302Y-83648436D01*
X125012564Y-83749698D01*
X125131636Y-83829259D01*
X125263942Y-83884062D01*
X125404397Y-83912000D01*
X125547603Y-83912000D01*
X125688058Y-83884062D01*
X125820364Y-83829259D01*
X125939436Y-83749698D01*
X126040698Y-83648436D01*
X126120259Y-83529364D01*
X126175062Y-83397058D01*
X126203000Y-83256603D01*
X126203000Y-83113397D01*
X126175062Y-82972942D01*
X126120259Y-82840636D01*
X126040698Y-82721564D01*
X125939436Y-82620302D01*
X125834221Y-82550000D01*
X125939436Y-82479698D01*
X126040698Y-82378436D01*
X126120259Y-82259364D01*
X126175062Y-82127058D01*
X126203000Y-81986603D01*
X126203000Y-81843397D01*
X126175062Y-81702942D01*
X126120259Y-81570636D01*
X126040698Y-81451564D01*
X125939436Y-81350302D01*
X125820364Y-81270741D01*
X125688058Y-81215938D01*
X125547603Y-81188000D01*
X125404397Y-81188000D01*
X125263942Y-81215938D01*
X125131636Y-81270741D01*
X125012564Y-81350302D01*
X124911302Y-81451564D01*
X124831741Y-81570636D01*
X124776938Y-81702942D01*
X124749000Y-81843397D01*
X112360000Y-81843397D01*
X112332062Y-81702942D01*
X112277259Y-81570636D01*
X112197698Y-81451564D01*
X112096436Y-81350302D01*
X111977364Y-81270741D01*
X111845058Y-81215938D01*
X111704603Y-81188000D01*
X111561397Y-81188000D01*
X111420942Y-81215938D01*
X111288636Y-81270741D01*
X111169564Y-81350302D01*
X111068302Y-81451564D01*
X110988741Y-81570636D01*
X110933938Y-81702942D01*
X110906000Y-81843397D01*
X108010168Y-81843397D01*
X108125587Y-81670661D01*
X108391460Y-81028788D01*
X108527000Y-80347379D01*
X108527000Y-79652621D01*
X108391460Y-78971212D01*
X108125587Y-78329339D01*
X107739600Y-77751668D01*
X107248332Y-77260400D01*
X106670661Y-76874413D01*
X106028788Y-76608540D01*
X105347379Y-76473000D01*
X104652621Y-76473000D01*
X103971212Y-76608540D01*
X103329339Y-76874413D01*
X102751668Y-77260400D01*
X102260400Y-77751668D01*
X101874413Y-78329339D01*
X101608540Y-78971212D01*
X101473000Y-79652621D01*
X101127000Y-79652621D01*
X101127000Y-79003560D01*
X101145263Y-78678354D01*
X101199228Y-78360734D01*
X101288409Y-78051182D01*
X101411700Y-77753532D01*
X101567529Y-77471579D01*
X101753951Y-77208844D01*
X101968624Y-76968624D01*
X102208844Y-76753951D01*
X102471579Y-76567529D01*
X102753532Y-76411700D01*
X103051182Y-76288409D01*
X103360734Y-76199228D01*
X103678354Y-76145263D01*
X104003560Y-76127000D01*
X109855000Y-76127000D01*
X109855000Y-80772000D01*
G37*
X109855000Y-80772000D02*
X109857440Y-80796776D01*
X109864667Y-80820601D01*
X109876403Y-80842557D01*
X109892197Y-80861803D01*
X109911443Y-80877597D01*
X109933399Y-80889333D01*
X109957224Y-80896560D01*
X109982000Y-80899000D01*
X127635000Y-80899000D01*
X127659776Y-80896560D01*
X127683601Y-80889333D01*
X127705557Y-80877597D01*
X127724803Y-80861803D01*
X127740597Y-80842557D01*
X127752333Y-80820601D01*
X127759560Y-80796776D01*
X127762000Y-80772000D01*
X127762000Y-76127000D01*
X145996440Y-76127000D01*
X146321646Y-76145263D01*
X146639266Y-76199228D01*
X146948818Y-76288409D01*
X147246468Y-76411700D01*
X147528421Y-76567529D01*
X147791156Y-76753951D01*
X148031376Y-76968624D01*
X148246049Y-77208844D01*
X148432471Y-77471579D01*
X148588300Y-77753532D01*
X148711591Y-78051182D01*
X148800772Y-78360734D01*
X148854737Y-78678354D01*
X148873000Y-79003560D01*
X148873000Y-81407000D01*
X141859000Y-81407000D01*
X141834224Y-81409440D01*
X141810399Y-81416667D01*
X141788443Y-81428403D01*
X141769197Y-81444197D01*
X141753403Y-81463443D01*
X141741667Y-81485399D01*
X141734440Y-81509224D01*
X141732000Y-81534000D01*
X141732000Y-97917000D01*
X141734440Y-97941776D01*
X141741667Y-97965601D01*
X141753403Y-97987557D01*
X141769197Y-98006803D01*
X141788443Y-98022597D01*
X141810399Y-98034333D01*
X141834224Y-98041560D01*
X141859000Y-98044000D01*
X148873000Y-98044000D01*
X148873000Y-120996440D01*
X148854737Y-121321646D01*
X148800772Y-121639266D01*
X148711591Y-121948818D01*
X148588300Y-122246468D01*
X148432471Y-122528421D01*
X148246049Y-122791156D01*
X148031376Y-123031376D01*
X147791156Y-123246049D01*
X147528421Y-123432471D01*
X147246468Y-123588300D01*
X146948818Y-123711591D01*
X146639266Y-123800772D01*
X146321646Y-123854737D01*
X145996440Y-123873000D01*
X104003560Y-123873000D01*
X103678354Y-123854737D01*
X103360734Y-123800772D01*
X103051182Y-123711591D01*
X102753532Y-123588300D01*
X102471579Y-123432471D01*
X102208844Y-123246049D01*
X101968624Y-123031376D01*
X101753951Y-122791156D01*
X101567529Y-122528421D01*
X101547415Y-122492027D01*
X101600297Y-122508068D01*
X101664400Y-122514382D01*
X103364400Y-122514382D01*
X103428503Y-122508068D01*
X103490143Y-122489370D01*
X103546950Y-122459006D01*
X103596743Y-122418143D01*
X103637606Y-122368350D01*
X103667970Y-122311543D01*
X103686668Y-122249903D01*
X103692982Y-122185800D01*
X103692982Y-120725095D01*
X105264000Y-120725095D01*
X105264000Y-120828905D01*
X105284252Y-120930720D01*
X105323979Y-121026628D01*
X105381652Y-121112943D01*
X105455057Y-121186348D01*
X105507666Y-121221500D01*
X105455057Y-121256652D01*
X105381652Y-121330057D01*
X105323979Y-121416372D01*
X105284252Y-121512280D01*
X105264000Y-121614095D01*
X105264000Y-121717905D01*
X105284252Y-121819720D01*
X105323979Y-121915628D01*
X105381652Y-122001943D01*
X105455057Y-122075348D01*
X105507666Y-122110500D01*
X105455057Y-122145652D01*
X105381652Y-122219057D01*
X105323979Y-122305372D01*
X105284252Y-122401280D01*
X105264000Y-122503095D01*
X105264000Y-122606905D01*
X105284252Y-122708720D01*
X105323979Y-122804628D01*
X105381652Y-122890943D01*
X105455057Y-122964348D01*
X105541372Y-123022021D01*
X105637280Y-123061748D01*
X105739095Y-123082000D01*
X105842905Y-123082000D01*
X105944720Y-123061748D01*
X106040628Y-123022021D01*
X106126943Y-122964348D01*
X106200348Y-122890943D01*
X106258021Y-122804628D01*
X106297748Y-122708720D01*
X106318000Y-122606905D01*
X106318000Y-122503095D01*
X106297748Y-122401280D01*
X106258021Y-122305372D01*
X106200348Y-122219057D01*
X106126943Y-122145652D01*
X106074334Y-122110500D01*
X106126943Y-122075348D01*
X106200348Y-122001943D01*
X106258021Y-121915628D01*
X106297748Y-121819720D01*
X106318000Y-121717905D01*
X106318000Y-121614095D01*
X106297748Y-121512280D01*
X106258021Y-121416372D01*
X106200348Y-121330057D01*
X106126943Y-121256652D01*
X106074334Y-121221500D01*
X106126943Y-121186348D01*
X106200348Y-121112943D01*
X106258021Y-121026628D01*
X106297748Y-120930720D01*
X106318000Y-120828905D01*
X106318000Y-120725095D01*
X106407000Y-120725095D01*
X106407000Y-120828905D01*
X106427252Y-120930720D01*
X106466979Y-121026628D01*
X106524652Y-121112943D01*
X106598057Y-121186348D01*
X106650666Y-121221500D01*
X106598057Y-121256652D01*
X106524652Y-121330057D01*
X106466979Y-121416372D01*
X106427252Y-121512280D01*
X106407000Y-121614095D01*
X106407000Y-121717905D01*
X106427252Y-121819720D01*
X106466979Y-121915628D01*
X106524652Y-122001943D01*
X106598057Y-122075348D01*
X106650666Y-122110500D01*
X106598057Y-122145652D01*
X106524652Y-122219057D01*
X106466979Y-122305372D01*
X106427252Y-122401280D01*
X106407000Y-122503095D01*
X106407000Y-122606905D01*
X106427252Y-122708720D01*
X106466979Y-122804628D01*
X106524652Y-122890943D01*
X106598057Y-122964348D01*
X106684372Y-123022021D01*
X106780280Y-123061748D01*
X106882095Y-123082000D01*
X106985905Y-123082000D01*
X107087720Y-123061748D01*
X107183628Y-123022021D01*
X107269943Y-122964348D01*
X107343348Y-122890943D01*
X107401021Y-122804628D01*
X107440748Y-122708720D01*
X107461000Y-122606905D01*
X107461000Y-122503095D01*
X107440748Y-122401280D01*
X107401021Y-122305372D01*
X107343348Y-122219057D01*
X107269943Y-122145652D01*
X107217334Y-122110500D01*
X107269943Y-122075348D01*
X107343348Y-122001943D01*
X107401021Y-121915628D01*
X107440748Y-121819720D01*
X107461000Y-121717905D01*
X107461000Y-121614095D01*
X107440748Y-121512280D01*
X107401021Y-121416372D01*
X107343348Y-121330057D01*
X107269943Y-121256652D01*
X107217334Y-121221500D01*
X107269943Y-121186348D01*
X107343348Y-121112943D01*
X107401021Y-121026628D01*
X107440748Y-120930720D01*
X107461000Y-120828905D01*
X107461000Y-120725095D01*
X109074000Y-120725095D01*
X109074000Y-120828905D01*
X109094252Y-120930720D01*
X109133979Y-121026628D01*
X109191652Y-121112943D01*
X109265057Y-121186348D01*
X109317666Y-121221500D01*
X109265057Y-121256652D01*
X109191652Y-121330057D01*
X109133979Y-121416372D01*
X109094252Y-121512280D01*
X109074000Y-121614095D01*
X109074000Y-121717905D01*
X109094252Y-121819720D01*
X109133979Y-121915628D01*
X109191652Y-122001943D01*
X109265057Y-122075348D01*
X109317666Y-122110500D01*
X109265057Y-122145652D01*
X109191652Y-122219057D01*
X109133979Y-122305372D01*
X109094252Y-122401280D01*
X109074000Y-122503095D01*
X109074000Y-122606905D01*
X109094252Y-122708720D01*
X109133979Y-122804628D01*
X109191652Y-122890943D01*
X109265057Y-122964348D01*
X109351372Y-123022021D01*
X109447280Y-123061748D01*
X109549095Y-123082000D01*
X109652905Y-123082000D01*
X109754720Y-123061748D01*
X109850628Y-123022021D01*
X109936943Y-122964348D01*
X110010348Y-122890943D01*
X110068021Y-122804628D01*
X110107748Y-122708720D01*
X110128000Y-122606905D01*
X110128000Y-122503095D01*
X110107748Y-122401280D01*
X110068021Y-122305372D01*
X110010348Y-122219057D01*
X109936943Y-122145652D01*
X109884334Y-122110500D01*
X109936943Y-122075348D01*
X110010348Y-122001943D01*
X110068021Y-121915628D01*
X110107748Y-121819720D01*
X110128000Y-121717905D01*
X110128000Y-121614095D01*
X110107748Y-121512280D01*
X110068021Y-121416372D01*
X110010348Y-121330057D01*
X109936943Y-121256652D01*
X109884334Y-121221500D01*
X109936943Y-121186348D01*
X110010348Y-121112943D01*
X110068021Y-121026628D01*
X110107748Y-120930720D01*
X110128000Y-120828905D01*
X110128000Y-120725095D01*
X110217000Y-120725095D01*
X110217000Y-120828905D01*
X110237252Y-120930720D01*
X110276979Y-121026628D01*
X110334652Y-121112943D01*
X110408057Y-121186348D01*
X110460666Y-121221500D01*
X110408057Y-121256652D01*
X110334652Y-121330057D01*
X110276979Y-121416372D01*
X110237252Y-121512280D01*
X110217000Y-121614095D01*
X110217000Y-121717905D01*
X110237252Y-121819720D01*
X110276979Y-121915628D01*
X110334652Y-122001943D01*
X110408057Y-122075348D01*
X110460666Y-122110500D01*
X110408057Y-122145652D01*
X110334652Y-122219057D01*
X110276979Y-122305372D01*
X110237252Y-122401280D01*
X110217000Y-122503095D01*
X110217000Y-122606905D01*
X110237252Y-122708720D01*
X110276979Y-122804628D01*
X110334652Y-122890943D01*
X110408057Y-122964348D01*
X110494372Y-123022021D01*
X110590280Y-123061748D01*
X110692095Y-123082000D01*
X110795905Y-123082000D01*
X110897720Y-123061748D01*
X110993628Y-123022021D01*
X111079943Y-122964348D01*
X111153348Y-122890943D01*
X111211021Y-122804628D01*
X111250748Y-122708720D01*
X111271000Y-122606905D01*
X111271000Y-122503095D01*
X111250748Y-122401280D01*
X111211021Y-122305372D01*
X111153348Y-122219057D01*
X111079943Y-122145652D01*
X111027334Y-122110500D01*
X111079943Y-122075348D01*
X111153348Y-122001943D01*
X111211021Y-121915628D01*
X111250748Y-121819720D01*
X111271000Y-121717905D01*
X111271000Y-121614095D01*
X111250748Y-121512280D01*
X111211021Y-121416372D01*
X111153348Y-121330057D01*
X111079943Y-121256652D01*
X111027334Y-121221500D01*
X111079943Y-121186348D01*
X111153348Y-121112943D01*
X111211021Y-121026628D01*
X111250748Y-120930720D01*
X111271000Y-120828905D01*
X111271000Y-120725095D01*
X111250748Y-120623280D01*
X111211021Y-120527372D01*
X111153348Y-120441057D01*
X111079943Y-120367652D01*
X110993628Y-120309979D01*
X110897720Y-120270252D01*
X110795905Y-120250000D01*
X110692095Y-120250000D01*
X110590280Y-120270252D01*
X110494372Y-120309979D01*
X110408057Y-120367652D01*
X110334652Y-120441057D01*
X110276979Y-120527372D01*
X110237252Y-120623280D01*
X110217000Y-120725095D01*
X110128000Y-120725095D01*
X110107748Y-120623280D01*
X110068021Y-120527372D01*
X110010348Y-120441057D01*
X109936943Y-120367652D01*
X109850628Y-120309979D01*
X109754720Y-120270252D01*
X109652905Y-120250000D01*
X109549095Y-120250000D01*
X109447280Y-120270252D01*
X109351372Y-120309979D01*
X109265057Y-120367652D01*
X109191652Y-120441057D01*
X109133979Y-120527372D01*
X109094252Y-120623280D01*
X109074000Y-120725095D01*
X107461000Y-120725095D01*
X107440748Y-120623280D01*
X107401021Y-120527372D01*
X107343348Y-120441057D01*
X107269943Y-120367652D01*
X107183628Y-120309979D01*
X107087720Y-120270252D01*
X106985905Y-120250000D01*
X106882095Y-120250000D01*
X106780280Y-120270252D01*
X106684372Y-120309979D01*
X106598057Y-120367652D01*
X106524652Y-120441057D01*
X106466979Y-120527372D01*
X106427252Y-120623280D01*
X106407000Y-120725095D01*
X106318000Y-120725095D01*
X106297748Y-120623280D01*
X106258021Y-120527372D01*
X106200348Y-120441057D01*
X106126943Y-120367652D01*
X106040628Y-120309979D01*
X105944720Y-120270252D01*
X105842905Y-120250000D01*
X105739095Y-120250000D01*
X105637280Y-120270252D01*
X105541372Y-120309979D01*
X105455057Y-120367652D01*
X105381652Y-120441057D01*
X105323979Y-120527372D01*
X105284252Y-120623280D01*
X105264000Y-120725095D01*
X103692982Y-120725095D01*
X103692982Y-120485800D01*
X103686668Y-120421697D01*
X103667970Y-120360057D01*
X103637606Y-120303250D01*
X103596743Y-120253457D01*
X103546950Y-120212594D01*
X103490143Y-120182230D01*
X103428503Y-120163532D01*
X103364400Y-120157218D01*
X101664400Y-120157218D01*
X101600297Y-120163532D01*
X101538657Y-120182230D01*
X101481850Y-120212594D01*
X101432057Y-120253457D01*
X101391194Y-120303250D01*
X101360830Y-120360057D01*
X101342132Y-120421697D01*
X101335818Y-120485800D01*
X101335818Y-122063273D01*
X101288409Y-121948818D01*
X101199228Y-121639266D01*
X101145263Y-121321646D01*
X101127000Y-120996440D01*
X101127000Y-118679876D01*
X101337400Y-118679876D01*
X101337400Y-118911724D01*
X101382631Y-119139118D01*
X101471356Y-119353319D01*
X101600164Y-119546094D01*
X101764106Y-119710036D01*
X101956881Y-119838844D01*
X102171082Y-119927569D01*
X102398476Y-119972800D01*
X102630324Y-119972800D01*
X102857718Y-119927569D01*
X103071919Y-119838844D01*
X103264694Y-119710036D01*
X103428636Y-119546094D01*
X103557444Y-119353319D01*
X103646169Y-119139118D01*
X103691400Y-118911724D01*
X103691400Y-118679876D01*
X103690112Y-118673397D01*
X112684000Y-118673397D01*
X112684000Y-118816603D01*
X112711938Y-118957058D01*
X112766741Y-119089364D01*
X112846302Y-119208436D01*
X112947564Y-119309698D01*
X113066636Y-119389259D01*
X113198942Y-119444062D01*
X113339397Y-119472000D01*
X113482603Y-119472000D01*
X113623058Y-119444062D01*
X113755364Y-119389259D01*
X113874436Y-119309698D01*
X113975698Y-119208436D01*
X114055259Y-119089364D01*
X114110062Y-118957058D01*
X114138000Y-118816603D01*
X114138000Y-118673397D01*
X114112739Y-118546397D01*
X114970000Y-118546397D01*
X114970000Y-118689603D01*
X114997938Y-118830058D01*
X115052741Y-118962364D01*
X115132302Y-119081436D01*
X115176866Y-119126000D01*
X115132302Y-119170564D01*
X115052741Y-119289636D01*
X114997938Y-119421942D01*
X114970000Y-119562397D01*
X114970000Y-119705603D01*
X114997938Y-119846058D01*
X115052741Y-119978364D01*
X115132302Y-120097436D01*
X115176866Y-120142000D01*
X115132302Y-120186564D01*
X115052741Y-120305636D01*
X114997938Y-120437942D01*
X114970000Y-120578397D01*
X114970000Y-120721603D01*
X114997938Y-120862058D01*
X115052741Y-120994364D01*
X115132302Y-121113436D01*
X115176866Y-121158000D01*
X115132302Y-121202564D01*
X115052741Y-121321636D01*
X114997938Y-121453942D01*
X114970000Y-121594397D01*
X114970000Y-121737603D01*
X114997938Y-121878058D01*
X115052741Y-122010364D01*
X115132302Y-122129436D01*
X115233564Y-122230698D01*
X115352636Y-122310259D01*
X115484942Y-122365062D01*
X115625397Y-122393000D01*
X115768603Y-122393000D01*
X115909058Y-122365062D01*
X116041364Y-122310259D01*
X116160436Y-122230698D01*
X116261698Y-122129436D01*
X116341259Y-122010364D01*
X116396062Y-121878058D01*
X116424000Y-121737603D01*
X116424000Y-121594397D01*
X116396062Y-121453942D01*
X116341259Y-121321636D01*
X116261698Y-121202564D01*
X116217134Y-121158000D01*
X116261698Y-121113436D01*
X116341259Y-120994364D01*
X116396062Y-120862058D01*
X116424000Y-120721603D01*
X116424000Y-120578397D01*
X116396062Y-120437942D01*
X116341259Y-120305636D01*
X116261698Y-120186564D01*
X116217134Y-120142000D01*
X116261698Y-120097436D01*
X116341259Y-119978364D01*
X116396062Y-119846058D01*
X116424000Y-119705603D01*
X116424000Y-119562397D01*
X116396062Y-119421942D01*
X116341259Y-119289636D01*
X116261698Y-119170564D01*
X116217134Y-119126000D01*
X116261698Y-119081436D01*
X116341259Y-118962364D01*
X116396062Y-118830058D01*
X116424000Y-118689603D01*
X116424000Y-118546397D01*
X116396062Y-118405942D01*
X116341259Y-118273636D01*
X116261698Y-118154564D01*
X116160436Y-118053302D01*
X116041364Y-117973741D01*
X115909058Y-117918938D01*
X115768603Y-117891000D01*
X115625397Y-117891000D01*
X115484942Y-117918938D01*
X115352636Y-117973741D01*
X115233564Y-118053302D01*
X115132302Y-118154564D01*
X115052741Y-118273636D01*
X114997938Y-118405942D01*
X114970000Y-118546397D01*
X114112739Y-118546397D01*
X114110062Y-118532942D01*
X114055259Y-118400636D01*
X113975698Y-118281564D01*
X113874436Y-118180302D01*
X113755364Y-118100741D01*
X113623058Y-118045938D01*
X113482603Y-118018000D01*
X113339397Y-118018000D01*
X113198942Y-118045938D01*
X113066636Y-118100741D01*
X112947564Y-118180302D01*
X112846302Y-118281564D01*
X112766741Y-118400636D01*
X112711938Y-118532942D01*
X112684000Y-118673397D01*
X103690112Y-118673397D01*
X103646169Y-118452482D01*
X103557444Y-118238281D01*
X103428636Y-118045506D01*
X103264694Y-117881564D01*
X103071919Y-117752756D01*
X102857718Y-117664031D01*
X102630324Y-117618800D01*
X102398476Y-117618800D01*
X102171082Y-117664031D01*
X101956881Y-117752756D01*
X101764106Y-117881564D01*
X101600164Y-118045506D01*
X101471356Y-118238281D01*
X101382631Y-118452482D01*
X101337400Y-118679876D01*
X101127000Y-118679876D01*
X101127000Y-116139876D01*
X101337400Y-116139876D01*
X101337400Y-116371724D01*
X101382631Y-116599118D01*
X101471356Y-116813319D01*
X101600164Y-117006094D01*
X101764106Y-117170036D01*
X101956881Y-117298844D01*
X102171082Y-117387569D01*
X102398476Y-117432800D01*
X102630324Y-117432800D01*
X102857718Y-117387569D01*
X103071919Y-117298844D01*
X103264694Y-117170036D01*
X103428636Y-117006094D01*
X103557444Y-116813319D01*
X103646169Y-116599118D01*
X103688282Y-116387397D01*
X111414000Y-116387397D01*
X111414000Y-116530603D01*
X111441938Y-116671058D01*
X111496741Y-116803364D01*
X111576302Y-116922436D01*
X111677564Y-117023698D01*
X111687744Y-117030500D01*
X111677564Y-117037302D01*
X111576302Y-117138564D01*
X111496741Y-117257636D01*
X111441938Y-117389942D01*
X111414000Y-117530397D01*
X111414000Y-117673603D01*
X111441938Y-117814058D01*
X111496741Y-117946364D01*
X111576302Y-118065436D01*
X111677564Y-118166698D01*
X111796636Y-118246259D01*
X111928942Y-118301062D01*
X112069397Y-118329000D01*
X112212603Y-118329000D01*
X112353058Y-118301062D01*
X112485364Y-118246259D01*
X112604436Y-118166698D01*
X112705698Y-118065436D01*
X112785259Y-117946364D01*
X112840062Y-117814058D01*
X112868000Y-117673603D01*
X112868000Y-117530397D01*
X112840062Y-117389942D01*
X112785259Y-117257636D01*
X112705698Y-117138564D01*
X112604436Y-117037302D01*
X112594256Y-117030500D01*
X112604436Y-117023698D01*
X112705698Y-116922436D01*
X112785259Y-116803364D01*
X112840062Y-116671058D01*
X112868000Y-116530603D01*
X112868000Y-116387397D01*
X112842739Y-116260397D01*
X118399000Y-116260397D01*
X118399000Y-116403603D01*
X118426938Y-116544058D01*
X118481741Y-116676364D01*
X118561302Y-116795436D01*
X118662564Y-116896698D01*
X118781636Y-116976259D01*
X118907000Y-117028187D01*
X118907000Y-117165603D01*
X118929906Y-117280762D01*
X118913942Y-117283938D01*
X118781636Y-117338741D01*
X118662564Y-117418302D01*
X118561302Y-117519564D01*
X118481741Y-117638636D01*
X118426938Y-117770942D01*
X118399000Y-117911397D01*
X118399000Y-118054603D01*
X118426938Y-118195058D01*
X118481741Y-118327364D01*
X118548649Y-118427500D01*
X118481741Y-118527636D01*
X118426938Y-118659942D01*
X118399000Y-118800397D01*
X118399000Y-118943603D01*
X118426938Y-119084058D01*
X118481741Y-119216364D01*
X118561302Y-119335436D01*
X118662564Y-119436698D01*
X118781636Y-119516259D01*
X118913942Y-119571062D01*
X119054397Y-119599000D01*
X119197603Y-119599000D01*
X119338058Y-119571062D01*
X119380000Y-119553689D01*
X119380000Y-119682000D01*
X119380200Y-119689121D01*
X119399063Y-120025014D01*
X119400657Y-120039166D01*
X119457010Y-120370836D01*
X119460180Y-120384721D01*
X119553314Y-120707995D01*
X119558017Y-120721438D01*
X119686760Y-121032252D01*
X119692940Y-121045083D01*
X119855674Y-121339528D01*
X119863251Y-121351587D01*
X120057930Y-121625960D01*
X120066809Y-121637095D01*
X120290983Y-121887946D01*
X120301054Y-121898017D01*
X120551905Y-122122191D01*
X120563040Y-122131070D01*
X120837413Y-122325749D01*
X120849472Y-122333326D01*
X121143917Y-122496060D01*
X121156748Y-122502240D01*
X121467562Y-122630983D01*
X121481005Y-122635686D01*
X121804279Y-122728820D01*
X121818164Y-122731990D01*
X122149834Y-122788343D01*
X122163986Y-122789937D01*
X122499879Y-122808800D01*
X122507000Y-122809000D01*
X126047500Y-122809000D01*
X126057464Y-122808608D01*
X126305804Y-122789063D01*
X126325488Y-122785946D01*
X126567712Y-122727793D01*
X126586665Y-122721635D01*
X126816811Y-122626306D01*
X126834568Y-122617258D01*
X127046967Y-122487099D01*
X127063089Y-122475386D01*
X127252512Y-122313604D01*
X127266604Y-122299512D01*
X127289000Y-122273290D01*
X127289000Y-122372603D01*
X127316938Y-122513058D01*
X127371741Y-122645364D01*
X127451302Y-122764436D01*
X127552564Y-122865698D01*
X127671636Y-122945259D01*
X127803942Y-123000062D01*
X127944397Y-123028000D01*
X128087603Y-123028000D01*
X128228058Y-123000062D01*
X128360364Y-122945259D01*
X128479436Y-122865698D01*
X128580698Y-122764436D01*
X128660259Y-122645364D01*
X128715062Y-122513058D01*
X128743000Y-122372603D01*
X128743000Y-122229397D01*
X130210000Y-122229397D01*
X130210000Y-122372603D01*
X130237938Y-122513058D01*
X130292741Y-122645364D01*
X130372302Y-122764436D01*
X130473564Y-122865698D01*
X130592636Y-122945259D01*
X130724942Y-123000062D01*
X130865397Y-123028000D01*
X131008603Y-123028000D01*
X131149058Y-123000062D01*
X131281364Y-122945259D01*
X131400436Y-122865698D01*
X131501698Y-122764436D01*
X131581259Y-122645364D01*
X131636062Y-122513058D01*
X131664000Y-122372603D01*
X131664000Y-122229397D01*
X131636062Y-122088942D01*
X131589031Y-121975397D01*
X135290000Y-121975397D01*
X135290000Y-122118603D01*
X135317938Y-122259058D01*
X135372741Y-122391364D01*
X135452302Y-122510436D01*
X135553564Y-122611698D01*
X135672636Y-122691259D01*
X135804942Y-122746062D01*
X135945397Y-122774000D01*
X136088603Y-122774000D01*
X136229058Y-122746062D01*
X136361364Y-122691259D01*
X136480436Y-122611698D01*
X136581698Y-122510436D01*
X136661259Y-122391364D01*
X136716062Y-122259058D01*
X136744000Y-122118603D01*
X136744000Y-121975397D01*
X136716062Y-121834942D01*
X136661259Y-121702636D01*
X136581698Y-121583564D01*
X136480436Y-121482302D01*
X136361364Y-121402741D01*
X136229058Y-121347938D01*
X136088603Y-121320000D01*
X135945397Y-121320000D01*
X135804942Y-121347938D01*
X135672636Y-121402741D01*
X135553564Y-121482302D01*
X135452302Y-121583564D01*
X135372741Y-121702636D01*
X135317938Y-121834942D01*
X135290000Y-121975397D01*
X131589031Y-121975397D01*
X131581259Y-121956636D01*
X131501698Y-121837564D01*
X131400436Y-121736302D01*
X131281364Y-121656741D01*
X131149058Y-121601938D01*
X131008603Y-121574000D01*
X130865397Y-121574000D01*
X130724942Y-121601938D01*
X130592636Y-121656741D01*
X130473564Y-121736302D01*
X130372302Y-121837564D01*
X130292741Y-121956636D01*
X130237938Y-122088942D01*
X130210000Y-122229397D01*
X128743000Y-122229397D01*
X128715062Y-122088942D01*
X128660259Y-121956636D01*
X128580698Y-121837564D01*
X128479436Y-121736302D01*
X128360364Y-121656741D01*
X128228058Y-121601938D01*
X128087603Y-121574000D01*
X127944397Y-121574000D01*
X127803942Y-121601938D01*
X127671636Y-121656741D01*
X127662567Y-121662801D01*
X127674635Y-121633665D01*
X127680793Y-121614712D01*
X127738946Y-121372488D01*
X127742063Y-121352804D01*
X127761608Y-121104464D01*
X127762000Y-121094500D01*
X127762000Y-120789134D01*
X127806564Y-120833698D01*
X127925636Y-120913259D01*
X128057942Y-120968062D01*
X128198397Y-120996000D01*
X128341603Y-120996000D01*
X128482058Y-120968062D01*
X128614364Y-120913259D01*
X128733436Y-120833698D01*
X128834698Y-120732436D01*
X128914259Y-120613364D01*
X128969062Y-120481058D01*
X128997000Y-120340603D01*
X128997000Y-120197397D01*
X128969062Y-120056942D01*
X128914259Y-119924636D01*
X128834698Y-119805564D01*
X128733436Y-119704302D01*
X128614364Y-119624741D01*
X128484692Y-119571029D01*
X128540851Y-119547767D01*
X128569563Y-119531190D01*
X128687925Y-119440368D01*
X128711368Y-119416925D01*
X128794644Y-119308397D01*
X135671000Y-119308397D01*
X135671000Y-119451603D01*
X135698938Y-119592058D01*
X135753741Y-119724364D01*
X135833302Y-119843436D01*
X135934564Y-119944698D01*
X136053636Y-120024259D01*
X136185942Y-120079062D01*
X136326397Y-120107000D01*
X136469603Y-120107000D01*
X136610058Y-120079062D01*
X136742364Y-120024259D01*
X136861436Y-119944698D01*
X136962698Y-119843436D01*
X137042259Y-119724364D01*
X137097062Y-119592058D01*
X137102961Y-119562397D01*
X137576000Y-119562397D01*
X137576000Y-119705603D01*
X137603938Y-119846058D01*
X137658741Y-119978364D01*
X137725645Y-120078493D01*
X137658741Y-120178622D01*
X137603938Y-120310928D01*
X137576000Y-120451383D01*
X137576000Y-120594589D01*
X137603938Y-120735044D01*
X137658741Y-120867350D01*
X137725652Y-120967490D01*
X137658741Y-121067630D01*
X137603938Y-121199936D01*
X137576000Y-121340391D01*
X137576000Y-121483597D01*
X137603938Y-121624052D01*
X137658741Y-121756358D01*
X137738302Y-121875430D01*
X137839564Y-121976692D01*
X137958636Y-122056253D01*
X138090942Y-122111056D01*
X138231397Y-122138994D01*
X138374603Y-122138994D01*
X138515058Y-122111056D01*
X138647364Y-122056253D01*
X138766436Y-121976692D01*
X138867698Y-121875430D01*
X138885760Y-121848397D01*
X139862000Y-121848397D01*
X139862000Y-121991603D01*
X139889938Y-122132058D01*
X139944741Y-122264364D01*
X140024302Y-122383436D01*
X140125564Y-122484698D01*
X140244636Y-122564259D01*
X140376942Y-122619062D01*
X140517397Y-122647000D01*
X140660603Y-122647000D01*
X140801058Y-122619062D01*
X140933364Y-122564259D01*
X141052436Y-122484698D01*
X141153698Y-122383436D01*
X141233259Y-122264364D01*
X141288062Y-122132058D01*
X141316000Y-121991603D01*
X141316000Y-121848397D01*
X141288062Y-121707942D01*
X141233259Y-121575636D01*
X141153698Y-121456564D01*
X141052436Y-121355302D01*
X140933364Y-121275741D01*
X140801058Y-121220938D01*
X140660603Y-121193000D01*
X140517397Y-121193000D01*
X140376942Y-121220938D01*
X140244636Y-121275741D01*
X140125564Y-121355302D01*
X140024302Y-121456564D01*
X139944741Y-121575636D01*
X139889938Y-121707942D01*
X139862000Y-121848397D01*
X138885760Y-121848397D01*
X138947259Y-121756358D01*
X138961342Y-121722358D01*
X138979942Y-121730062D01*
X139120397Y-121758000D01*
X139263603Y-121758000D01*
X139404058Y-121730062D01*
X139536364Y-121675259D01*
X139655436Y-121595698D01*
X139756698Y-121494436D01*
X139836259Y-121375364D01*
X139891062Y-121243058D01*
X139919000Y-121102603D01*
X139919000Y-120959397D01*
X139891062Y-120818942D01*
X139836259Y-120686636D01*
X139756698Y-120567564D01*
X139655436Y-120466302D01*
X139536364Y-120386741D01*
X139404058Y-120331938D01*
X139263603Y-120304000D01*
X139120397Y-120304000D01*
X139005240Y-120326906D01*
X139002062Y-120310928D01*
X138947259Y-120178622D01*
X138880355Y-120078493D01*
X138947259Y-119978364D01*
X139002062Y-119846058D01*
X139030000Y-119705603D01*
X139030000Y-119652621D01*
X141473000Y-119652621D01*
X141473000Y-120347379D01*
X141608540Y-121028788D01*
X141874413Y-121670661D01*
X142260400Y-122248332D01*
X142751668Y-122739600D01*
X143329339Y-123125587D01*
X143971212Y-123391460D01*
X144652621Y-123527000D01*
X145347379Y-123527000D01*
X146028788Y-123391460D01*
X146670661Y-123125587D01*
X147248332Y-122739600D01*
X147739600Y-122248332D01*
X148125587Y-121670661D01*
X148391460Y-121028788D01*
X148527000Y-120347379D01*
X148527000Y-119652621D01*
X148391460Y-118971212D01*
X148125587Y-118329339D01*
X147739600Y-117751668D01*
X147248332Y-117260400D01*
X146670661Y-116874413D01*
X146028788Y-116608540D01*
X145347379Y-116473000D01*
X144652621Y-116473000D01*
X143971212Y-116608540D01*
X143329339Y-116874413D01*
X142751668Y-117260400D01*
X142260400Y-117751668D01*
X141874413Y-118329339D01*
X141608540Y-118971212D01*
X141473000Y-119652621D01*
X139030000Y-119652621D01*
X139030000Y-119562397D01*
X139002062Y-119421942D01*
X138947259Y-119289636D01*
X138867698Y-119170564D01*
X138766436Y-119069302D01*
X138647364Y-118989741D01*
X138515058Y-118934938D01*
X138374603Y-118907000D01*
X138231397Y-118907000D01*
X138090942Y-118934938D01*
X137958636Y-118989741D01*
X137839564Y-119069302D01*
X137738302Y-119170564D01*
X137658741Y-119289636D01*
X137603938Y-119421942D01*
X137576000Y-119562397D01*
X137102961Y-119562397D01*
X137125000Y-119451603D01*
X137125000Y-119308397D01*
X137097062Y-119167942D01*
X137042259Y-119035636D01*
X136962698Y-118916564D01*
X136861436Y-118815302D01*
X136742364Y-118735741D01*
X136610058Y-118680938D01*
X136469603Y-118653000D01*
X136326397Y-118653000D01*
X136185942Y-118680938D01*
X136053636Y-118735741D01*
X135934564Y-118815302D01*
X135833302Y-118916564D01*
X135753741Y-119035636D01*
X135698938Y-119167942D01*
X135671000Y-119308397D01*
X128794644Y-119308397D01*
X128802190Y-119298563D01*
X128818767Y-119269851D01*
X128875860Y-119132016D01*
X128884441Y-119099992D01*
X128903914Y-118952077D01*
X128905000Y-118935500D01*
X128905000Y-118511426D01*
X128906252Y-118517720D01*
X128945979Y-118613628D01*
X129003652Y-118699943D01*
X129077057Y-118773348D01*
X129163372Y-118831021D01*
X129259280Y-118870748D01*
X129361095Y-118891000D01*
X129464905Y-118891000D01*
X129566720Y-118870748D01*
X129662628Y-118831021D01*
X129730500Y-118785671D01*
X129798372Y-118831021D01*
X129894280Y-118870748D01*
X129996095Y-118891000D01*
X130099905Y-118891000D01*
X130201720Y-118870748D01*
X130297628Y-118831021D01*
X130365500Y-118785671D01*
X130433372Y-118831021D01*
X130529280Y-118870748D01*
X130631095Y-118891000D01*
X130734905Y-118891000D01*
X130836720Y-118870748D01*
X130932628Y-118831021D01*
X131018943Y-118773348D01*
X131092348Y-118699943D01*
X131150021Y-118613628D01*
X131189748Y-118517720D01*
X131210000Y-118415905D01*
X131210000Y-118312095D01*
X131189748Y-118210280D01*
X131178448Y-118183000D01*
X135509000Y-118183000D01*
X135572795Y-118176717D01*
X135634137Y-118158109D01*
X135690671Y-118127891D01*
X135740224Y-118087224D01*
X135780891Y-118037671D01*
X135811109Y-117981137D01*
X135829717Y-117919795D01*
X135836000Y-117856000D01*
X135836000Y-115879397D01*
X136179000Y-115879397D01*
X136179000Y-116022603D01*
X136206938Y-116163058D01*
X136261741Y-116295364D01*
X136341302Y-116414436D01*
X136442564Y-116515698D01*
X136452744Y-116522500D01*
X136442564Y-116529302D01*
X136341302Y-116630564D01*
X136261741Y-116749636D01*
X136206938Y-116881942D01*
X136179000Y-117022397D01*
X136179000Y-117165603D01*
X136206938Y-117306058D01*
X136261741Y-117438364D01*
X136341302Y-117557436D01*
X136442564Y-117658698D01*
X136561636Y-117738259D01*
X136693942Y-117793062D01*
X136834397Y-117821000D01*
X136977603Y-117821000D01*
X137118058Y-117793062D01*
X137250364Y-117738259D01*
X137369436Y-117658698D01*
X137470698Y-117557436D01*
X137550259Y-117438364D01*
X137605062Y-117306058D01*
X137633000Y-117165603D01*
X137633000Y-117022397D01*
X137605062Y-116881942D01*
X137550259Y-116749636D01*
X137470698Y-116630564D01*
X137369436Y-116529302D01*
X137359256Y-116522500D01*
X137369436Y-116515698D01*
X137470698Y-116414436D01*
X137550259Y-116295364D01*
X137605062Y-116163058D01*
X137633000Y-116022603D01*
X137633000Y-115879397D01*
X137605062Y-115738942D01*
X137550259Y-115606636D01*
X137470698Y-115487564D01*
X137369436Y-115386302D01*
X137250364Y-115306741D01*
X137118058Y-115251938D01*
X136977603Y-115224000D01*
X136834397Y-115224000D01*
X136693942Y-115251938D01*
X136561636Y-115306741D01*
X136442564Y-115386302D01*
X136341302Y-115487564D01*
X136261741Y-115606636D01*
X136206938Y-115738942D01*
X136179000Y-115879397D01*
X135836000Y-115879397D01*
X135836000Y-114385134D01*
X135934564Y-114483698D01*
X136053636Y-114563259D01*
X136185942Y-114618062D01*
X136326397Y-114646000D01*
X136469603Y-114646000D01*
X136610058Y-114618062D01*
X136742364Y-114563259D01*
X136861436Y-114483698D01*
X136962698Y-114382436D01*
X137042259Y-114263364D01*
X137097062Y-114131058D01*
X137125000Y-113990603D01*
X137125000Y-113847397D01*
X137097062Y-113706942D01*
X137042259Y-113574636D01*
X136962698Y-113455564D01*
X136861436Y-113354302D01*
X136742364Y-113274741D01*
X136610058Y-113219938D01*
X136469603Y-113192000D01*
X136326397Y-113192000D01*
X136185942Y-113219938D01*
X136053636Y-113274741D01*
X135934564Y-113354302D01*
X135833302Y-113455564D01*
X135753741Y-113574636D01*
X135698938Y-113706942D01*
X135686067Y-113771648D01*
X135634137Y-113743891D01*
X135572795Y-113725283D01*
X135509000Y-113719000D01*
X128597000Y-113719000D01*
X128597000Y-112232722D01*
X128736058Y-112205062D01*
X128868364Y-112150259D01*
X128987436Y-112070698D01*
X129088698Y-111969436D01*
X129168259Y-111850364D01*
X129223062Y-111718058D01*
X129251000Y-111577603D01*
X129251000Y-111434397D01*
X129448000Y-111434397D01*
X129448000Y-111577603D01*
X129475938Y-111718058D01*
X129530741Y-111850364D01*
X129610302Y-111969436D01*
X129711564Y-112070698D01*
X129830636Y-112150259D01*
X129962942Y-112205062D01*
X130103397Y-112233000D01*
X130246603Y-112233000D01*
X130387058Y-112205062D01*
X130519364Y-112150259D01*
X130638436Y-112070698D01*
X130739698Y-111969436D01*
X130819259Y-111850364D01*
X130874062Y-111718058D01*
X130902000Y-111577603D01*
X130902000Y-111434397D01*
X131099000Y-111434397D01*
X131099000Y-111577603D01*
X131126938Y-111718058D01*
X131181741Y-111850364D01*
X131261302Y-111969436D01*
X131362564Y-112070698D01*
X131481636Y-112150259D01*
X131613942Y-112205062D01*
X131754397Y-112233000D01*
X131897603Y-112233000D01*
X132038058Y-112205062D01*
X132170364Y-112150259D01*
X132289436Y-112070698D01*
X132390698Y-111969436D01*
X132470259Y-111850364D01*
X132525062Y-111718058D01*
X132553000Y-111577603D01*
X132553000Y-111434397D01*
X132525062Y-111293942D01*
X132478031Y-111180397D01*
X134909000Y-111180397D01*
X134909000Y-111323603D01*
X134936938Y-111464058D01*
X134991741Y-111596364D01*
X135071302Y-111715436D01*
X135172564Y-111816698D01*
X135291636Y-111896259D01*
X135423942Y-111951062D01*
X135564397Y-111979000D01*
X135707603Y-111979000D01*
X135848058Y-111951062D01*
X135980364Y-111896259D01*
X136099436Y-111816698D01*
X136144000Y-111772134D01*
X136188564Y-111816698D01*
X136307636Y-111896259D01*
X136439942Y-111951062D01*
X136580397Y-111979000D01*
X136723603Y-111979000D01*
X136864058Y-111951062D01*
X136996364Y-111896259D01*
X137115436Y-111816698D01*
X137160000Y-111772134D01*
X137204564Y-111816698D01*
X137323636Y-111896259D01*
X137455942Y-111951062D01*
X137596397Y-111979000D01*
X137739603Y-111979000D01*
X137880058Y-111951062D01*
X138012364Y-111896259D01*
X138131436Y-111816698D01*
X138176000Y-111772134D01*
X138220564Y-111816698D01*
X138339636Y-111896259D01*
X138471942Y-111951062D01*
X138612397Y-111979000D01*
X138755603Y-111979000D01*
X138896058Y-111951062D01*
X139028364Y-111896259D01*
X139147436Y-111816698D01*
X139248698Y-111715436D01*
X139328259Y-111596364D01*
X139383062Y-111464058D01*
X139411000Y-111323603D01*
X139411000Y-111180397D01*
X139383062Y-111039942D01*
X139328259Y-110907636D01*
X139248698Y-110788564D01*
X139147436Y-110687302D01*
X139028364Y-110607741D01*
X138896058Y-110552938D01*
X138755603Y-110525000D01*
X138612397Y-110525000D01*
X138471942Y-110552938D01*
X138339636Y-110607741D01*
X138220564Y-110687302D01*
X138176000Y-110731866D01*
X138131436Y-110687302D01*
X138012364Y-110607741D01*
X137880058Y-110552938D01*
X137739603Y-110525000D01*
X137596397Y-110525000D01*
X137455942Y-110552938D01*
X137323636Y-110607741D01*
X137204564Y-110687302D01*
X137160000Y-110731866D01*
X137115436Y-110687302D01*
X136996364Y-110607741D01*
X136864058Y-110552938D01*
X136723603Y-110525000D01*
X136580397Y-110525000D01*
X136439942Y-110552938D01*
X136307636Y-110607741D01*
X136188564Y-110687302D01*
X136144000Y-110731866D01*
X136099436Y-110687302D01*
X135980364Y-110607741D01*
X135848058Y-110552938D01*
X135707603Y-110525000D01*
X135564397Y-110525000D01*
X135423942Y-110552938D01*
X135291636Y-110607741D01*
X135172564Y-110687302D01*
X135071302Y-110788564D01*
X134991741Y-110907636D01*
X134936938Y-111039942D01*
X134909000Y-111180397D01*
X132478031Y-111180397D01*
X132470259Y-111161636D01*
X132390698Y-111042564D01*
X132289436Y-110941302D01*
X132170364Y-110861741D01*
X132038058Y-110806938D01*
X131897603Y-110779000D01*
X131754397Y-110779000D01*
X131613942Y-110806938D01*
X131481636Y-110861741D01*
X131362564Y-110941302D01*
X131261302Y-111042564D01*
X131181741Y-111161636D01*
X131126938Y-111293942D01*
X131099000Y-111434397D01*
X130902000Y-111434397D01*
X130874062Y-111293942D01*
X130819259Y-111161636D01*
X130739698Y-111042564D01*
X130638436Y-110941302D01*
X130519364Y-110861741D01*
X130387058Y-110806938D01*
X130246603Y-110779000D01*
X130103397Y-110779000D01*
X129962942Y-110806938D01*
X129830636Y-110861741D01*
X129711564Y-110941302D01*
X129610302Y-111042564D01*
X129530741Y-111161636D01*
X129475938Y-111293942D01*
X129448000Y-111434397D01*
X129251000Y-111434397D01*
X129223062Y-111293942D01*
X129168259Y-111161636D01*
X129088698Y-111042564D01*
X128987436Y-110941302D01*
X128868364Y-110861741D01*
X128867541Y-110861400D01*
X128875003Y-110861400D01*
X129015458Y-110833462D01*
X129147764Y-110778659D01*
X129266836Y-110699098D01*
X129368098Y-110597836D01*
X129447659Y-110478764D01*
X129502462Y-110346458D01*
X129530400Y-110206003D01*
X129530400Y-110062797D01*
X129502462Y-109922342D01*
X129447659Y-109790036D01*
X129368098Y-109670964D01*
X129266836Y-109569702D01*
X129232860Y-109547000D01*
X138303000Y-109547000D01*
X138366795Y-109540717D01*
X138428137Y-109522109D01*
X138484671Y-109491891D01*
X138534224Y-109451224D01*
X138574891Y-109401671D01*
X138605109Y-109345137D01*
X138623717Y-109283795D01*
X138630000Y-109220000D01*
X138630000Y-105211397D01*
X139481000Y-105211397D01*
X139481000Y-105354603D01*
X139508938Y-105495058D01*
X139563741Y-105627364D01*
X139643302Y-105746436D01*
X139744564Y-105847698D01*
X139754744Y-105854500D01*
X139744564Y-105861302D01*
X139643302Y-105962564D01*
X139563741Y-106081636D01*
X139508938Y-106213942D01*
X139481000Y-106354397D01*
X139481000Y-106497603D01*
X139508938Y-106638058D01*
X139563741Y-106770364D01*
X139643302Y-106889436D01*
X139744564Y-106990698D01*
X139863636Y-107070259D01*
X139995942Y-107125062D01*
X140136397Y-107153000D01*
X140279603Y-107153000D01*
X140420058Y-107125062D01*
X140552364Y-107070259D01*
X140671436Y-106990698D01*
X140716000Y-106946134D01*
X140760564Y-106990698D01*
X140879636Y-107070259D01*
X141011942Y-107125062D01*
X141152397Y-107153000D01*
X141295603Y-107153000D01*
X141436058Y-107125062D01*
X141568364Y-107070259D01*
X141687436Y-106990698D01*
X141732000Y-106946134D01*
X141776564Y-106990698D01*
X141895636Y-107070259D01*
X142027942Y-107125062D01*
X142168397Y-107153000D01*
X142311603Y-107153000D01*
X142452058Y-107125062D01*
X142584364Y-107070259D01*
X142703436Y-106990698D01*
X142748000Y-106946134D01*
X142792564Y-106990698D01*
X142911636Y-107070259D01*
X143043942Y-107125062D01*
X143184397Y-107153000D01*
X143327603Y-107153000D01*
X143468058Y-107125062D01*
X143600364Y-107070259D01*
X143719436Y-106990698D01*
X143820698Y-106889436D01*
X143900259Y-106770364D01*
X143955062Y-106638058D01*
X143983000Y-106497603D01*
X143983000Y-106354397D01*
X143955062Y-106213942D01*
X143900259Y-106081636D01*
X143820698Y-105962564D01*
X143719436Y-105861302D01*
X143709256Y-105854500D01*
X143719436Y-105847698D01*
X143820698Y-105746436D01*
X143900259Y-105627364D01*
X143955062Y-105495058D01*
X143983000Y-105354603D01*
X143983000Y-105211397D01*
X143955062Y-105070942D01*
X143900259Y-104938636D01*
X143820698Y-104819564D01*
X143719436Y-104718302D01*
X143600364Y-104638741D01*
X143468058Y-104583938D01*
X143327603Y-104556000D01*
X143184397Y-104556000D01*
X143043942Y-104583938D01*
X142911636Y-104638741D01*
X142792564Y-104718302D01*
X142748000Y-104762866D01*
X142703436Y-104718302D01*
X142584364Y-104638741D01*
X142452058Y-104583938D01*
X142311603Y-104556000D01*
X142168397Y-104556000D01*
X142027942Y-104583938D01*
X141895636Y-104638741D01*
X141776564Y-104718302D01*
X141732000Y-104762866D01*
X141687436Y-104718302D01*
X141568364Y-104638741D01*
X141436058Y-104583938D01*
X141295603Y-104556000D01*
X141152397Y-104556000D01*
X141011942Y-104583938D01*
X140879636Y-104638741D01*
X140760564Y-104718302D01*
X140716000Y-104762866D01*
X140671436Y-104718302D01*
X140552364Y-104638741D01*
X140420058Y-104583938D01*
X140279603Y-104556000D01*
X140136397Y-104556000D01*
X139995942Y-104583938D01*
X139863636Y-104638741D01*
X139744564Y-104718302D01*
X139643302Y-104819564D01*
X139563741Y-104938636D01*
X139508938Y-105070942D01*
X139481000Y-105211397D01*
X138630000Y-105211397D01*
X138630000Y-101655397D01*
X142783000Y-101655397D01*
X142783000Y-101798603D01*
X142810938Y-101939058D01*
X142865741Y-102071364D01*
X142945302Y-102190436D01*
X143046564Y-102291698D01*
X143165636Y-102371259D01*
X143297942Y-102426062D01*
X143438397Y-102454000D01*
X143581603Y-102454000D01*
X143722058Y-102426062D01*
X143854364Y-102371259D01*
X143973436Y-102291698D01*
X144074698Y-102190436D01*
X144154259Y-102071364D01*
X144209062Y-101939058D01*
X144237000Y-101798603D01*
X144237000Y-101655397D01*
X144209062Y-101514942D01*
X144154259Y-101382636D01*
X144074698Y-101263564D01*
X143973436Y-101162302D01*
X143854364Y-101082741D01*
X143722058Y-101027938D01*
X143581603Y-101000000D01*
X143438397Y-101000000D01*
X143297942Y-101027938D01*
X143165636Y-101082741D01*
X143046564Y-101162302D01*
X142945302Y-101263564D01*
X142865741Y-101382636D01*
X142810938Y-101514942D01*
X142783000Y-101655397D01*
X138630000Y-101655397D01*
X138630000Y-99314000D01*
X138623717Y-99250205D01*
X138605109Y-99188863D01*
X138574891Y-99132329D01*
X138534224Y-99082776D01*
X138484671Y-99042109D01*
X138428137Y-99011891D01*
X138366795Y-98993283D01*
X138303000Y-98987000D01*
X132026000Y-98987000D01*
X132026000Y-93527397D01*
X132877000Y-93527397D01*
X132877000Y-93670603D01*
X132904938Y-93811058D01*
X132959741Y-93943364D01*
X133039302Y-94062436D01*
X133140564Y-94163698D01*
X133259636Y-94243259D01*
X133391942Y-94298062D01*
X133532397Y-94326000D01*
X133675603Y-94326000D01*
X133816058Y-94298062D01*
X133948364Y-94243259D01*
X134067436Y-94163698D01*
X134168698Y-94062436D01*
X134248259Y-93943364D01*
X134303062Y-93811058D01*
X134331000Y-93670603D01*
X134331000Y-93527397D01*
X134303062Y-93386942D01*
X134248259Y-93254636D01*
X134168698Y-93135564D01*
X134067436Y-93034302D01*
X133948364Y-92954741D01*
X133816058Y-92899938D01*
X133675603Y-92872000D01*
X133532397Y-92872000D01*
X133391942Y-92899938D01*
X133259636Y-92954741D01*
X133140564Y-93034302D01*
X133039302Y-93135564D01*
X132959741Y-93254636D01*
X132904938Y-93386942D01*
X132877000Y-93527397D01*
X132026000Y-93527397D01*
X132026000Y-89717397D01*
X132877000Y-89717397D01*
X132877000Y-89860603D01*
X132904938Y-90001058D01*
X132959741Y-90133364D01*
X133039302Y-90252436D01*
X133140564Y-90353698D01*
X133245779Y-90424000D01*
X133140564Y-90494302D01*
X133039302Y-90595564D01*
X132959741Y-90714636D01*
X132904938Y-90846942D01*
X132877000Y-90987397D01*
X132877000Y-91130603D01*
X132904938Y-91271058D01*
X132959741Y-91403364D01*
X133039302Y-91522436D01*
X133140564Y-91623698D01*
X133259636Y-91703259D01*
X133391942Y-91758062D01*
X133532397Y-91786000D01*
X133675603Y-91786000D01*
X133816058Y-91758062D01*
X133948364Y-91703259D01*
X134067436Y-91623698D01*
X134168698Y-91522436D01*
X134248259Y-91403364D01*
X134303062Y-91271058D01*
X134331000Y-91130603D01*
X134331000Y-90987397D01*
X134303062Y-90846942D01*
X134248259Y-90714636D01*
X134168698Y-90595564D01*
X134067436Y-90494302D01*
X133962221Y-90424000D01*
X134067436Y-90353698D01*
X134168698Y-90252436D01*
X134248259Y-90133364D01*
X134303062Y-90001058D01*
X134331000Y-89860603D01*
X134331000Y-89717397D01*
X134303062Y-89576942D01*
X134248259Y-89444636D01*
X134168698Y-89325564D01*
X134067436Y-89224302D01*
X133948364Y-89144741D01*
X133816058Y-89089938D01*
X133675603Y-89062000D01*
X133532397Y-89062000D01*
X133391942Y-89089938D01*
X133259636Y-89144741D01*
X133140564Y-89224302D01*
X133039302Y-89325564D01*
X132959741Y-89444636D01*
X132904938Y-89576942D01*
X132877000Y-89717397D01*
X132026000Y-89717397D01*
X132026000Y-88721698D01*
X132116636Y-88782259D01*
X132248942Y-88837062D01*
X132389397Y-88865000D01*
X132532603Y-88865000D01*
X132673058Y-88837062D01*
X132805364Y-88782259D01*
X132924436Y-88702698D01*
X133025698Y-88601436D01*
X133105259Y-88482364D01*
X133160062Y-88350058D01*
X133188000Y-88209603D01*
X133188000Y-88066397D01*
X133160062Y-87925942D01*
X133105259Y-87793636D01*
X133025698Y-87674564D01*
X132924436Y-87573302D01*
X132805364Y-87493741D01*
X132673058Y-87438938D01*
X132532603Y-87411000D01*
X132389397Y-87411000D01*
X132248942Y-87438938D01*
X132116636Y-87493741D01*
X132026000Y-87554302D01*
X132026000Y-80972000D01*
X138049000Y-80972000D01*
X138112795Y-80965717D01*
X138174137Y-80947109D01*
X138230671Y-80916891D01*
X138280224Y-80876224D01*
X138320891Y-80826671D01*
X138351109Y-80770137D01*
X138369717Y-80708795D01*
X138376000Y-80645000D01*
X138376000Y-78357376D01*
X138484900Y-78357376D01*
X138484900Y-78589224D01*
X138530131Y-78816618D01*
X138618856Y-79030819D01*
X138747664Y-79223594D01*
X138911606Y-79387536D01*
X139104381Y-79516344D01*
X139318582Y-79605069D01*
X139545976Y-79650300D01*
X139777824Y-79650300D01*
X140005218Y-79605069D01*
X140219419Y-79516344D01*
X140412194Y-79387536D01*
X140576136Y-79223594D01*
X140704944Y-79030819D01*
X140793669Y-78816618D01*
X140838900Y-78589224D01*
X140838900Y-78357376D01*
X141024900Y-78357376D01*
X141024900Y-78589224D01*
X141070131Y-78816618D01*
X141158856Y-79030819D01*
X141287664Y-79223594D01*
X141451606Y-79387536D01*
X141644381Y-79516344D01*
X141858582Y-79605069D01*
X142085976Y-79650300D01*
X142317824Y-79650300D01*
X142545218Y-79605069D01*
X142759419Y-79516344D01*
X142952194Y-79387536D01*
X143116136Y-79223594D01*
X143244944Y-79030819D01*
X143333669Y-78816618D01*
X143378900Y-78589224D01*
X143378900Y-78357376D01*
X143564900Y-78357376D01*
X143564900Y-78589224D01*
X143610131Y-78816618D01*
X143698856Y-79030819D01*
X143827664Y-79223594D01*
X143991606Y-79387536D01*
X144184381Y-79516344D01*
X144398582Y-79605069D01*
X144625976Y-79650300D01*
X144857824Y-79650300D01*
X145085218Y-79605069D01*
X145299419Y-79516344D01*
X145492194Y-79387536D01*
X145656136Y-79223594D01*
X145784944Y-79030819D01*
X145873669Y-78816618D01*
X145918900Y-78589224D01*
X145918900Y-78357376D01*
X145873669Y-78129982D01*
X145784944Y-77915781D01*
X145656136Y-77723006D01*
X145492194Y-77559064D01*
X145299419Y-77430256D01*
X145085218Y-77341531D01*
X144857824Y-77296300D01*
X144625976Y-77296300D01*
X144398582Y-77341531D01*
X144184381Y-77430256D01*
X143991606Y-77559064D01*
X143827664Y-77723006D01*
X143698856Y-77915781D01*
X143610131Y-78129982D01*
X143564900Y-78357376D01*
X143378900Y-78357376D01*
X143333669Y-78129982D01*
X143244944Y-77915781D01*
X143116136Y-77723006D01*
X142952194Y-77559064D01*
X142759419Y-77430256D01*
X142545218Y-77341531D01*
X142317824Y-77296300D01*
X142085976Y-77296300D01*
X141858582Y-77341531D01*
X141644381Y-77430256D01*
X141451606Y-77559064D01*
X141287664Y-77723006D01*
X141158856Y-77915781D01*
X141070131Y-78129982D01*
X141024900Y-78357376D01*
X140838900Y-78357376D01*
X140793669Y-78129982D01*
X140704944Y-77915781D01*
X140576136Y-77723006D01*
X140412194Y-77559064D01*
X140219419Y-77430256D01*
X140005218Y-77341531D01*
X139777824Y-77296300D01*
X139545976Y-77296300D01*
X139318582Y-77341531D01*
X139104381Y-77430256D01*
X138911606Y-77559064D01*
X138747664Y-77723006D01*
X138618856Y-77915781D01*
X138530131Y-78129982D01*
X138484900Y-78357376D01*
X138376000Y-78357376D01*
X138376000Y-77597000D01*
X138369717Y-77533205D01*
X138351109Y-77471863D01*
X138320891Y-77415329D01*
X138280224Y-77365776D01*
X138230671Y-77325109D01*
X138174137Y-77294891D01*
X138112795Y-77276283D01*
X138049000Y-77270000D01*
X130902000Y-77270000D01*
X130902000Y-77144397D01*
X130874062Y-77003942D01*
X130819259Y-76871636D01*
X130739698Y-76752564D01*
X130638436Y-76651302D01*
X130519364Y-76571741D01*
X130387058Y-76516938D01*
X130246603Y-76489000D01*
X130103397Y-76489000D01*
X129962942Y-76516938D01*
X129830636Y-76571741D01*
X129711564Y-76651302D01*
X129610302Y-76752564D01*
X129530741Y-76871636D01*
X129475938Y-77003942D01*
X129448000Y-77144397D01*
X129448000Y-77270000D01*
X129032000Y-77270000D01*
X128968205Y-77276283D01*
X128906863Y-77294891D01*
X128850329Y-77325109D01*
X128800776Y-77365776D01*
X128760109Y-77415329D01*
X128729891Y-77471863D01*
X128711283Y-77533205D01*
X128706689Y-77579849D01*
X128687636Y-77587741D01*
X128568564Y-77667302D01*
X128467302Y-77768564D01*
X128387741Y-77887636D01*
X128332938Y-78019942D01*
X128305000Y-78160397D01*
X128305000Y-78303603D01*
X128332938Y-78444058D01*
X128387741Y-78576364D01*
X128467302Y-78695436D01*
X128568564Y-78796698D01*
X128687636Y-78876259D01*
X128705000Y-78883451D01*
X128705000Y-100446266D01*
X128701438Y-100447741D01*
X128582366Y-100527302D01*
X128481104Y-100628564D01*
X128401543Y-100747636D01*
X128346740Y-100879942D01*
X128318802Y-101020397D01*
X128318802Y-101163603D01*
X128346740Y-101304058D01*
X128401543Y-101436364D01*
X128481104Y-101555436D01*
X128582366Y-101656698D01*
X128701438Y-101736259D01*
X128705000Y-101737734D01*
X128705000Y-106235075D01*
X128652863Y-106250891D01*
X128596329Y-106281109D01*
X128546776Y-106321776D01*
X128506109Y-106371329D01*
X128475891Y-106427863D01*
X128457283Y-106489205D01*
X128451000Y-106553000D01*
X128451000Y-106788750D01*
X128395137Y-106758891D01*
X128333795Y-106740283D01*
X128270000Y-106734000D01*
X125349000Y-106734000D01*
X125285205Y-106740283D01*
X125223863Y-106758891D01*
X125167329Y-106789109D01*
X125117776Y-106829776D01*
X125088017Y-106866038D01*
X125083769Y-106844682D01*
X124995044Y-106630481D01*
X124866236Y-106437706D01*
X124702294Y-106273764D01*
X124509519Y-106144956D01*
X124295318Y-106056231D01*
X124067924Y-106011000D01*
X123836076Y-106011000D01*
X123608682Y-106056231D01*
X123394481Y-106144956D01*
X123201706Y-106273764D01*
X123037764Y-106437706D01*
X122908956Y-106630481D01*
X122820231Y-106844682D01*
X122775000Y-107072076D01*
X122775000Y-107303924D01*
X122820231Y-107531318D01*
X122908956Y-107745519D01*
X123037764Y-107938294D01*
X123201706Y-108102236D01*
X123394481Y-108231044D01*
X123608682Y-108319769D01*
X123836076Y-108365000D01*
X124067924Y-108365000D01*
X124295318Y-108319769D01*
X124509519Y-108231044D01*
X124702294Y-108102236D01*
X124866236Y-107938294D01*
X124995044Y-107745519D01*
X125022000Y-107680441D01*
X125022000Y-115570000D01*
X122507000Y-115570000D01*
X122499879Y-115570200D01*
X122163986Y-115589063D01*
X122149834Y-115590657D01*
X121818164Y-115647010D01*
X121804279Y-115650180D01*
X121481005Y-115743314D01*
X121467562Y-115748017D01*
X121156748Y-115876760D01*
X121143917Y-115882940D01*
X120849472Y-116045674D01*
X120837413Y-116053251D01*
X120563040Y-116247930D01*
X120551905Y-116256809D01*
X120301054Y-116480983D01*
X120290983Y-116491054D01*
X120181594Y-116613460D01*
X120097436Y-116529302D01*
X119978364Y-116449741D01*
X119853000Y-116397813D01*
X119853000Y-116260397D01*
X119825062Y-116119942D01*
X119770259Y-115987636D01*
X119690698Y-115868564D01*
X119589436Y-115767302D01*
X119470364Y-115687741D01*
X119383112Y-115651600D01*
X119435397Y-115662000D01*
X119578603Y-115662000D01*
X119719058Y-115634062D01*
X119851364Y-115579259D01*
X119951500Y-115512351D01*
X120051636Y-115579259D01*
X120183942Y-115634062D01*
X120324397Y-115662000D01*
X120467603Y-115662000D01*
X120608058Y-115634062D01*
X120740364Y-115579259D01*
X120840500Y-115512351D01*
X120940636Y-115579259D01*
X121072942Y-115634062D01*
X121213397Y-115662000D01*
X121356603Y-115662000D01*
X121497058Y-115634062D01*
X121629364Y-115579259D01*
X121748436Y-115499698D01*
X121849698Y-115398436D01*
X121929259Y-115279364D01*
X121984062Y-115147058D01*
X122012000Y-115006603D01*
X122012000Y-114863397D01*
X121984062Y-114722942D01*
X121929259Y-114590636D01*
X121849698Y-114471564D01*
X121748436Y-114370302D01*
X121629364Y-114290741D01*
X121497058Y-114235938D01*
X121356603Y-114208000D01*
X121213397Y-114208000D01*
X121072942Y-114235938D01*
X120940636Y-114290741D01*
X120840500Y-114357649D01*
X120740364Y-114290741D01*
X120608058Y-114235938D01*
X120467603Y-114208000D01*
X120324397Y-114208000D01*
X120183942Y-114235938D01*
X120051636Y-114290741D01*
X119951500Y-114357649D01*
X119851364Y-114290741D01*
X119719058Y-114235938D01*
X119578603Y-114208000D01*
X119435397Y-114208000D01*
X119294942Y-114235938D01*
X119162636Y-114290741D01*
X119043564Y-114370302D01*
X118942302Y-114471564D01*
X118862741Y-114590636D01*
X118807938Y-114722942D01*
X118780000Y-114863397D01*
X118780000Y-115006603D01*
X118807938Y-115147058D01*
X118862741Y-115279364D01*
X118942302Y-115398436D01*
X119043564Y-115499698D01*
X119162636Y-115579259D01*
X119249888Y-115615400D01*
X119197603Y-115605000D01*
X119054397Y-115605000D01*
X118913942Y-115632938D01*
X118781636Y-115687741D01*
X118662564Y-115767302D01*
X118561302Y-115868564D01*
X118481741Y-115987636D01*
X118426938Y-116119942D01*
X118399000Y-116260397D01*
X112842739Y-116260397D01*
X112840062Y-116246942D01*
X112785259Y-116114636D01*
X112705698Y-115995564D01*
X112604436Y-115894302D01*
X112485364Y-115814741D01*
X112396093Y-115777764D01*
X112480058Y-115761062D01*
X112612364Y-115706259D01*
X112731436Y-115626698D01*
X112832698Y-115525436D01*
X112912259Y-115406364D01*
X112967062Y-115274058D01*
X112995000Y-115133603D01*
X112995000Y-114990397D01*
X112967062Y-114849942D01*
X112912259Y-114717636D01*
X112832698Y-114598564D01*
X112731436Y-114497302D01*
X112612364Y-114417741D01*
X112481415Y-114363500D01*
X112612364Y-114309259D01*
X112731436Y-114229698D01*
X112832698Y-114128436D01*
X112912259Y-114009364D01*
X112967062Y-113877058D01*
X112995000Y-113736603D01*
X112995000Y-113593397D01*
X114970000Y-113593397D01*
X114970000Y-113736603D01*
X114997938Y-113877058D01*
X115052741Y-114009364D01*
X115132302Y-114128436D01*
X115233564Y-114229698D01*
X115352636Y-114309259D01*
X115483585Y-114363500D01*
X115352636Y-114417741D01*
X115233564Y-114497302D01*
X115132302Y-114598564D01*
X115052741Y-114717636D01*
X114997938Y-114849942D01*
X114970000Y-114990397D01*
X114970000Y-115133603D01*
X114997938Y-115274058D01*
X115052741Y-115406364D01*
X115132302Y-115525436D01*
X115233564Y-115626698D01*
X115352636Y-115706259D01*
X115484942Y-115761062D01*
X115625397Y-115789000D01*
X115768603Y-115789000D01*
X115909058Y-115761062D01*
X116041364Y-115706259D01*
X116160436Y-115626698D01*
X116261698Y-115525436D01*
X116341259Y-115406364D01*
X116396062Y-115274058D01*
X116424000Y-115133603D01*
X116424000Y-114990397D01*
X116396062Y-114849942D01*
X116341259Y-114717636D01*
X116261698Y-114598564D01*
X116160436Y-114497302D01*
X116041364Y-114417741D01*
X115910415Y-114363500D01*
X116041364Y-114309259D01*
X116160436Y-114229698D01*
X116261698Y-114128436D01*
X116341259Y-114009364D01*
X116396062Y-113877058D01*
X116424000Y-113736603D01*
X116424000Y-113593397D01*
X116396062Y-113452942D01*
X116341259Y-113320636D01*
X116261698Y-113201564D01*
X116160436Y-113100302D01*
X116041364Y-113020741D01*
X115909058Y-112965938D01*
X115768603Y-112938000D01*
X115625397Y-112938000D01*
X115484942Y-112965938D01*
X115352636Y-113020741D01*
X115233564Y-113100302D01*
X115132302Y-113201564D01*
X115052741Y-113320636D01*
X114997938Y-113452942D01*
X114970000Y-113593397D01*
X112995000Y-113593397D01*
X112967062Y-113452942D01*
X112912259Y-113320636D01*
X112832698Y-113201564D01*
X112731436Y-113100302D01*
X112612364Y-113020741D01*
X112480058Y-112965938D01*
X112339603Y-112938000D01*
X112196397Y-112938000D01*
X112055942Y-112965938D01*
X111923636Y-113020741D01*
X111804564Y-113100302D01*
X111703302Y-113201564D01*
X111623741Y-113320636D01*
X111568938Y-113452942D01*
X111541000Y-113593397D01*
X111541000Y-113736603D01*
X111568938Y-113877058D01*
X111623741Y-114009364D01*
X111703302Y-114128436D01*
X111804564Y-114229698D01*
X111923636Y-114309259D01*
X112054585Y-114363500D01*
X111923636Y-114417741D01*
X111804564Y-114497302D01*
X111703302Y-114598564D01*
X111623741Y-114717636D01*
X111568938Y-114849942D01*
X111541000Y-114990397D01*
X111541000Y-115133603D01*
X111568938Y-115274058D01*
X111623741Y-115406364D01*
X111703302Y-115525436D01*
X111804564Y-115626698D01*
X111923636Y-115706259D01*
X112012907Y-115743236D01*
X111928942Y-115759938D01*
X111796636Y-115814741D01*
X111677564Y-115894302D01*
X111576302Y-115995564D01*
X111496741Y-116114636D01*
X111441938Y-116246942D01*
X111414000Y-116387397D01*
X103688282Y-116387397D01*
X103691400Y-116371724D01*
X103691400Y-116139876D01*
X103646169Y-115912482D01*
X103557444Y-115698281D01*
X103428636Y-115505506D01*
X103264694Y-115341564D01*
X103071919Y-115212756D01*
X102857718Y-115124031D01*
X102630324Y-115078800D01*
X102398476Y-115078800D01*
X102171082Y-115124031D01*
X101956881Y-115212756D01*
X101764106Y-115341564D01*
X101600164Y-115505506D01*
X101471356Y-115698281D01*
X101382631Y-115912482D01*
X101337400Y-116139876D01*
X101127000Y-116139876D01*
X101127000Y-108132397D01*
X111160000Y-108132397D01*
X111160000Y-108275603D01*
X111187938Y-108416058D01*
X111242741Y-108548364D01*
X111322302Y-108667436D01*
X111423564Y-108768698D01*
X111542636Y-108848259D01*
X111674942Y-108903062D01*
X111815397Y-108931000D01*
X111958603Y-108931000D01*
X112099058Y-108903062D01*
X112231364Y-108848259D01*
X112350436Y-108768698D01*
X112451698Y-108667436D01*
X112531259Y-108548364D01*
X112545742Y-108513397D01*
X114589000Y-108513397D01*
X114589000Y-108656603D01*
X114616938Y-108797058D01*
X114671741Y-108929364D01*
X114751302Y-109048436D01*
X114852564Y-109149698D01*
X114971636Y-109229259D01*
X115103942Y-109284062D01*
X115244397Y-109312000D01*
X115387603Y-109312000D01*
X115528058Y-109284062D01*
X115660364Y-109229259D01*
X115779436Y-109149698D01*
X115880698Y-109048436D01*
X115960259Y-108929364D01*
X116015062Y-108797058D01*
X116043000Y-108656603D01*
X116043000Y-108513397D01*
X116367000Y-108513397D01*
X116367000Y-108656603D01*
X116394938Y-108797058D01*
X116449741Y-108929364D01*
X116529302Y-109048436D01*
X116630564Y-109149698D01*
X116749636Y-109229259D01*
X116881942Y-109284062D01*
X117022397Y-109312000D01*
X117165603Y-109312000D01*
X117306058Y-109284062D01*
X117438364Y-109229259D01*
X117557436Y-109149698D01*
X117658698Y-109048436D01*
X117729000Y-108943221D01*
X117799302Y-109048436D01*
X117900564Y-109149698D01*
X118019636Y-109229259D01*
X118151942Y-109284062D01*
X118272000Y-109307943D01*
X118272000Y-109418603D01*
X118299938Y-109559058D01*
X118354741Y-109691364D01*
X118434302Y-109810436D01*
X118535564Y-109911698D01*
X118654636Y-109991259D01*
X118786942Y-110046062D01*
X118927397Y-110074000D01*
X119070603Y-110074000D01*
X119211058Y-110046062D01*
X119343364Y-109991259D01*
X119462436Y-109911698D01*
X119563698Y-109810436D01*
X119643259Y-109691364D01*
X119698062Y-109559058D01*
X119726000Y-109418603D01*
X119726000Y-109275397D01*
X119698062Y-109134942D01*
X119643259Y-109002636D01*
X119563698Y-108883564D01*
X119462436Y-108782302D01*
X119343364Y-108702741D01*
X119211058Y-108647938D01*
X119091000Y-108624057D01*
X119091000Y-108513397D01*
X119063062Y-108372942D01*
X119008259Y-108240636D01*
X118928698Y-108121564D01*
X118827436Y-108020302D01*
X118708364Y-107940741D01*
X118576058Y-107885938D01*
X118435603Y-107858000D01*
X118292397Y-107858000D01*
X118151942Y-107885938D01*
X118081674Y-107915044D01*
X118109290Y-107848373D01*
X118137228Y-107707918D01*
X118137228Y-107564712D01*
X118109290Y-107424257D01*
X118054487Y-107291951D01*
X117974926Y-107172879D01*
X117873664Y-107071617D01*
X117754592Y-106992056D01*
X117622286Y-106937253D01*
X117481831Y-106909315D01*
X117338625Y-106909315D01*
X117198170Y-106937253D01*
X117065864Y-106992056D01*
X116946792Y-107071617D01*
X116845530Y-107172879D01*
X116765969Y-107291951D01*
X116711166Y-107424257D01*
X116683228Y-107564712D01*
X116683228Y-107707918D01*
X116711166Y-107848373D01*
X116749472Y-107940851D01*
X116630564Y-108020302D01*
X116529302Y-108121564D01*
X116449741Y-108240636D01*
X116394938Y-108372942D01*
X116367000Y-108513397D01*
X116043000Y-108513397D01*
X116015062Y-108372942D01*
X115960259Y-108240636D01*
X115880698Y-108121564D01*
X115779436Y-108020302D01*
X115660364Y-107940741D01*
X115528058Y-107885938D01*
X115387603Y-107858000D01*
X115244397Y-107858000D01*
X115103942Y-107885938D01*
X114971636Y-107940741D01*
X114852564Y-108020302D01*
X114751302Y-108121564D01*
X114671741Y-108240636D01*
X114616938Y-108372942D01*
X114589000Y-108513397D01*
X112545742Y-108513397D01*
X112586062Y-108416058D01*
X112614000Y-108275603D01*
X112614000Y-108132397D01*
X112586062Y-107991942D01*
X112531259Y-107859636D01*
X112451698Y-107740564D01*
X112350436Y-107639302D01*
X112231364Y-107559741D01*
X112099058Y-107504938D01*
X111958603Y-107477000D01*
X111815397Y-107477000D01*
X111674942Y-107504938D01*
X111542636Y-107559741D01*
X111423564Y-107639302D01*
X111322302Y-107740564D01*
X111242741Y-107859636D01*
X111187938Y-107991942D01*
X111160000Y-108132397D01*
X101127000Y-108132397D01*
X101127000Y-105084397D01*
X106842000Y-105084397D01*
X106842000Y-105227603D01*
X106869938Y-105368058D01*
X106924741Y-105500364D01*
X107004302Y-105619436D01*
X107105564Y-105720698D01*
X107224636Y-105800259D01*
X107356942Y-105855062D01*
X107497397Y-105883000D01*
X107640603Y-105883000D01*
X107738299Y-105863567D01*
X107639302Y-105962564D01*
X107559741Y-106081636D01*
X107504938Y-106213942D01*
X107477000Y-106354397D01*
X107477000Y-106497603D01*
X107504938Y-106638058D01*
X107559741Y-106770364D01*
X107639302Y-106889436D01*
X107740564Y-106990698D01*
X107859636Y-107070259D01*
X107991942Y-107125062D01*
X108132397Y-107153000D01*
X108275603Y-107153000D01*
X108416058Y-107125062D01*
X108548364Y-107070259D01*
X108667436Y-106990698D01*
X108768698Y-106889436D01*
X108848259Y-106770364D01*
X108903062Y-106638058D01*
X108931000Y-106497603D01*
X108931000Y-106354397D01*
X108903062Y-106213942D01*
X108848259Y-106081636D01*
X108768698Y-105962564D01*
X108667436Y-105861302D01*
X108548364Y-105781741D01*
X108416058Y-105726938D01*
X108275603Y-105699000D01*
X108132397Y-105699000D01*
X108034701Y-105718433D01*
X108133698Y-105619436D01*
X108151764Y-105592397D01*
X116875000Y-105592397D01*
X116875000Y-105735603D01*
X116902938Y-105876058D01*
X116957741Y-106008364D01*
X117037302Y-106127436D01*
X117138564Y-106228698D01*
X117257636Y-106308259D01*
X117389942Y-106363062D01*
X117530397Y-106391000D01*
X117673603Y-106391000D01*
X117814058Y-106363062D01*
X117874562Y-106338000D01*
X120233418Y-106338000D01*
X120233418Y-108038000D01*
X120239732Y-108102103D01*
X120258430Y-108163743D01*
X120288794Y-108220550D01*
X120329657Y-108270343D01*
X120379450Y-108311206D01*
X120436257Y-108341570D01*
X120497897Y-108360268D01*
X120562000Y-108366582D01*
X122262000Y-108366582D01*
X122326103Y-108360268D01*
X122387743Y-108341570D01*
X122444550Y-108311206D01*
X122494343Y-108270343D01*
X122535206Y-108220550D01*
X122565570Y-108163743D01*
X122584268Y-108102103D01*
X122590582Y-108038000D01*
X122590582Y-106338000D01*
X122584268Y-106273897D01*
X122565570Y-106212257D01*
X122535206Y-106155450D01*
X122494343Y-106105657D01*
X122444550Y-106064794D01*
X122387743Y-106034430D01*
X122326103Y-106015732D01*
X122262000Y-106009418D01*
X120562000Y-106009418D01*
X120497897Y-106015732D01*
X120436257Y-106034430D01*
X120379450Y-106064794D01*
X120329657Y-106105657D01*
X120288794Y-106155450D01*
X120258430Y-106212257D01*
X120239732Y-106273897D01*
X120233418Y-106338000D01*
X117874562Y-106338000D01*
X117946364Y-106308259D01*
X118065436Y-106228698D01*
X118166698Y-106127436D01*
X118246259Y-106008364D01*
X118301062Y-105876058D01*
X118329000Y-105735603D01*
X118329000Y-105592397D01*
X118301062Y-105451942D01*
X118246259Y-105319636D01*
X118166698Y-105200564D01*
X118065436Y-105099302D01*
X117946364Y-105019741D01*
X117814058Y-104964938D01*
X117673603Y-104937000D01*
X117530397Y-104937000D01*
X117389942Y-104964938D01*
X117257636Y-105019741D01*
X117138564Y-105099302D01*
X117037302Y-105200564D01*
X116957741Y-105319636D01*
X116902938Y-105451942D01*
X116875000Y-105592397D01*
X108151764Y-105592397D01*
X108213259Y-105500364D01*
X108268062Y-105368058D01*
X108296000Y-105227603D01*
X108296000Y-105084397D01*
X108268062Y-104943942D01*
X108213259Y-104811636D01*
X108133698Y-104692564D01*
X108032436Y-104591302D01*
X107913364Y-104511741D01*
X107781058Y-104456938D01*
X107640603Y-104429000D01*
X107497397Y-104429000D01*
X107356942Y-104456938D01*
X107224636Y-104511741D01*
X107105564Y-104591302D01*
X107004302Y-104692564D01*
X106924741Y-104811636D01*
X106869938Y-104943942D01*
X106842000Y-105084397D01*
X101127000Y-105084397D01*
X101127000Y-102925397D01*
X108239000Y-102925397D01*
X108239000Y-103068603D01*
X108266938Y-103209058D01*
X108321741Y-103341364D01*
X108401302Y-103460436D01*
X108502564Y-103561698D01*
X108621636Y-103641259D01*
X108753942Y-103696062D01*
X108894397Y-103724000D01*
X109037603Y-103724000D01*
X109178058Y-103696062D01*
X109310364Y-103641259D01*
X109429436Y-103561698D01*
X109530698Y-103460436D01*
X109610259Y-103341364D01*
X109665062Y-103209058D01*
X109693000Y-103068603D01*
X109693000Y-102925397D01*
X109665062Y-102784942D01*
X109610259Y-102652636D01*
X109530698Y-102533564D01*
X109429436Y-102432302D01*
X109310364Y-102352741D01*
X109178058Y-102297938D01*
X109037603Y-102270000D01*
X108894397Y-102270000D01*
X108753942Y-102297938D01*
X108621636Y-102352741D01*
X108502564Y-102432302D01*
X108401302Y-102533564D01*
X108321741Y-102652636D01*
X108266938Y-102784942D01*
X108239000Y-102925397D01*
X101127000Y-102925397D01*
X101127000Y-101020397D01*
X122844000Y-101020397D01*
X122844000Y-101163603D01*
X122871938Y-101304058D01*
X122926741Y-101436364D01*
X123006302Y-101555436D01*
X123050866Y-101600000D01*
X123006302Y-101644564D01*
X122926741Y-101763636D01*
X122871938Y-101895942D01*
X122844000Y-102036397D01*
X122844000Y-102179603D01*
X122871938Y-102320058D01*
X122926741Y-102452364D01*
X123006302Y-102571436D01*
X123107564Y-102672698D01*
X123226636Y-102752259D01*
X123358942Y-102807062D01*
X123499397Y-102835000D01*
X123642603Y-102835000D01*
X123783058Y-102807062D01*
X123915364Y-102752259D01*
X124034436Y-102672698D01*
X124135698Y-102571436D01*
X124215259Y-102452364D01*
X124270062Y-102320058D01*
X124298000Y-102179603D01*
X124298000Y-102036397D01*
X124270062Y-101895942D01*
X124215259Y-101763636D01*
X124135698Y-101644564D01*
X124091134Y-101600000D01*
X124135698Y-101555436D01*
X124215259Y-101436364D01*
X124270062Y-101304058D01*
X124298000Y-101163603D01*
X124298000Y-101020397D01*
X124270062Y-100879942D01*
X124215259Y-100747636D01*
X124135698Y-100628564D01*
X124034436Y-100527302D01*
X123915364Y-100447741D01*
X123783058Y-100392938D01*
X123642603Y-100365000D01*
X123499397Y-100365000D01*
X123358942Y-100392938D01*
X123226636Y-100447741D01*
X123107564Y-100527302D01*
X123006302Y-100628564D01*
X122926741Y-100747636D01*
X122871938Y-100879942D01*
X122844000Y-101020397D01*
X101127000Y-101020397D01*
X101127000Y-98734397D01*
X123987000Y-98734397D01*
X123987000Y-98877603D01*
X124014938Y-99018058D01*
X124069741Y-99150364D01*
X124149302Y-99269436D01*
X124250564Y-99370698D01*
X124369636Y-99450259D01*
X124501942Y-99505062D01*
X124642397Y-99533000D01*
X124785603Y-99533000D01*
X124926058Y-99505062D01*
X125058364Y-99450259D01*
X125177436Y-99370698D01*
X125278698Y-99269436D01*
X125358259Y-99150364D01*
X125413062Y-99018058D01*
X125441000Y-98877603D01*
X125441000Y-98734397D01*
X125413062Y-98593942D01*
X125358259Y-98461636D01*
X125278698Y-98342564D01*
X125177436Y-98241302D01*
X125058364Y-98161741D01*
X124926058Y-98106938D01*
X124785603Y-98079000D01*
X124642397Y-98079000D01*
X124501942Y-98106938D01*
X124369636Y-98161741D01*
X124250564Y-98241302D01*
X124149302Y-98342564D01*
X124069741Y-98461636D01*
X124014938Y-98593942D01*
X123987000Y-98734397D01*
X101127000Y-98734397D01*
X101127000Y-96829397D01*
X102092200Y-96829397D01*
X102092200Y-96972603D01*
X102120138Y-97113058D01*
X102174941Y-97245364D01*
X102254502Y-97364436D01*
X102355764Y-97465698D01*
X102474836Y-97545259D01*
X102607142Y-97600062D01*
X102747597Y-97628000D01*
X102890803Y-97628000D01*
X103031258Y-97600062D01*
X103163564Y-97545259D01*
X103282636Y-97465698D01*
X103383898Y-97364436D01*
X103463459Y-97245364D01*
X103518262Y-97113058D01*
X103546200Y-96972603D01*
X103546200Y-96829397D01*
X103531044Y-96753197D01*
X103667000Y-96753197D01*
X103667000Y-96896403D01*
X103694938Y-97036858D01*
X103749741Y-97169164D01*
X103829302Y-97288236D01*
X103930564Y-97389498D01*
X104049636Y-97469059D01*
X104181942Y-97523862D01*
X104322397Y-97551800D01*
X104465603Y-97551800D01*
X104606058Y-97523862D01*
X104738364Y-97469059D01*
X104857436Y-97389498D01*
X104909537Y-97337397D01*
X119415000Y-97337397D01*
X119415000Y-97480603D01*
X119442938Y-97621058D01*
X119497741Y-97753364D01*
X119577302Y-97872436D01*
X119678564Y-97973698D01*
X119797636Y-98053259D01*
X119929942Y-98108062D01*
X120070397Y-98136000D01*
X120213603Y-98136000D01*
X120354058Y-98108062D01*
X120486364Y-98053259D01*
X120605436Y-97973698D01*
X120706698Y-97872436D01*
X120786259Y-97753364D01*
X120841062Y-97621058D01*
X120869000Y-97480603D01*
X120869000Y-97337397D01*
X120841062Y-97196942D01*
X120786259Y-97064636D01*
X120706698Y-96945564D01*
X120605436Y-96844302D01*
X120486364Y-96764741D01*
X120354058Y-96709938D01*
X120213603Y-96682000D01*
X120070397Y-96682000D01*
X119929942Y-96709938D01*
X119797636Y-96764741D01*
X119678564Y-96844302D01*
X119577302Y-96945564D01*
X119497741Y-97064636D01*
X119442938Y-97196942D01*
X119415000Y-97337397D01*
X104909537Y-97337397D01*
X104958698Y-97288236D01*
X105038259Y-97169164D01*
X105093062Y-97036858D01*
X105121000Y-96896403D01*
X105121000Y-96753197D01*
X105093062Y-96612742D01*
X105038259Y-96480436D01*
X104958698Y-96361364D01*
X104857436Y-96260102D01*
X104738364Y-96180541D01*
X104606058Y-96125738D01*
X104465603Y-96097800D01*
X104322397Y-96097800D01*
X104181942Y-96125738D01*
X104049636Y-96180541D01*
X103930564Y-96260102D01*
X103829302Y-96361364D01*
X103749741Y-96480436D01*
X103694938Y-96612742D01*
X103667000Y-96753197D01*
X103531044Y-96753197D01*
X103518262Y-96688942D01*
X103463459Y-96556636D01*
X103383898Y-96437564D01*
X103282636Y-96336302D01*
X103163564Y-96256741D01*
X103031258Y-96201938D01*
X102890803Y-96174000D01*
X102747597Y-96174000D01*
X102607142Y-96201938D01*
X102474836Y-96256741D01*
X102355764Y-96336302D01*
X102254502Y-96437564D01*
X102174941Y-96556636D01*
X102120138Y-96688942D01*
X102092200Y-96829397D01*
X101127000Y-96829397D01*
X101127000Y-94813603D01*
X101154938Y-94954058D01*
X101209741Y-95086364D01*
X101289302Y-95205436D01*
X101390564Y-95306698D01*
X101509636Y-95386259D01*
X101641942Y-95441062D01*
X101782397Y-95469000D01*
X101925603Y-95469000D01*
X102066058Y-95441062D01*
X102198364Y-95386259D01*
X102317436Y-95306698D01*
X102418698Y-95205436D01*
X102498259Y-95086364D01*
X102512742Y-95051397D01*
X107731000Y-95051397D01*
X107731000Y-95194603D01*
X107758938Y-95335058D01*
X107813741Y-95467364D01*
X107893302Y-95586436D01*
X107994564Y-95687698D01*
X108113636Y-95767259D01*
X108245942Y-95822062D01*
X108386397Y-95850000D01*
X108529603Y-95850000D01*
X108670058Y-95822062D01*
X108802364Y-95767259D01*
X108921436Y-95687698D01*
X109022698Y-95586436D01*
X109102259Y-95467364D01*
X109157062Y-95335058D01*
X109185000Y-95194603D01*
X109185000Y-95051397D01*
X109157062Y-94910942D01*
X109102259Y-94778636D01*
X109022698Y-94659564D01*
X108921436Y-94558302D01*
X108802364Y-94478741D01*
X108670058Y-94423938D01*
X108529603Y-94396000D01*
X108386397Y-94396000D01*
X108245942Y-94423938D01*
X108113636Y-94478741D01*
X107994564Y-94558302D01*
X107893302Y-94659564D01*
X107813741Y-94778636D01*
X107758938Y-94910942D01*
X107731000Y-95051397D01*
X102512742Y-95051397D01*
X102553062Y-94954058D01*
X102581000Y-94813603D01*
X102581000Y-94670397D01*
X102553062Y-94529942D01*
X102498259Y-94397636D01*
X102418698Y-94278564D01*
X102317436Y-94177302D01*
X102198364Y-94097741D01*
X102066058Y-94042938D01*
X101925603Y-94015000D01*
X101782397Y-94015000D01*
X101641942Y-94042938D01*
X101509636Y-94097741D01*
X101390564Y-94177302D01*
X101289302Y-94278564D01*
X101209741Y-94397636D01*
X101154938Y-94529942D01*
X101127000Y-94670397D01*
X101127000Y-92554055D01*
X103082935Y-92554055D01*
X103082935Y-92697261D01*
X103110873Y-92837716D01*
X103165676Y-92970022D01*
X103245237Y-93089094D01*
X103346499Y-93190356D01*
X103465571Y-93269917D01*
X103597877Y-93324720D01*
X103738332Y-93352658D01*
X103794000Y-93352658D01*
X103794000Y-93416603D01*
X103821938Y-93557058D01*
X103876741Y-93689364D01*
X103956302Y-93808436D01*
X104057564Y-93909698D01*
X104176636Y-93989259D01*
X104308942Y-94044062D01*
X104449397Y-94072000D01*
X104592603Y-94072000D01*
X104733058Y-94044062D01*
X104865364Y-93989259D01*
X104984436Y-93909698D01*
X105085698Y-93808436D01*
X105165259Y-93689364D01*
X105220062Y-93557058D01*
X105248000Y-93416603D01*
X105248000Y-93273397D01*
X105220062Y-93132942D01*
X105165259Y-93000636D01*
X105085698Y-92881564D01*
X104984436Y-92780302D01*
X104924116Y-92739997D01*
X107705600Y-92739997D01*
X107705600Y-92883203D01*
X107733538Y-93023658D01*
X107788341Y-93155964D01*
X107867902Y-93275036D01*
X107969164Y-93376298D01*
X108088236Y-93455859D01*
X108220542Y-93510662D01*
X108360997Y-93538600D01*
X108504203Y-93538600D01*
X108644658Y-93510662D01*
X108776964Y-93455859D01*
X108896036Y-93376298D01*
X108997298Y-93275036D01*
X109076859Y-93155964D01*
X109131662Y-93023658D01*
X109159600Y-92883203D01*
X109159600Y-92739997D01*
X109131662Y-92599542D01*
X109076859Y-92467236D01*
X108997298Y-92348164D01*
X108896036Y-92246902D01*
X108776964Y-92167341D01*
X108644658Y-92112538D01*
X108504203Y-92084600D01*
X108360997Y-92084600D01*
X108220542Y-92112538D01*
X108088236Y-92167341D01*
X107969164Y-92246902D01*
X107867902Y-92348164D01*
X107788341Y-92467236D01*
X107733538Y-92599542D01*
X107705600Y-92739997D01*
X104924116Y-92739997D01*
X104865364Y-92700741D01*
X104733058Y-92645938D01*
X104592603Y-92618000D01*
X104536935Y-92618000D01*
X104536935Y-92554055D01*
X104508997Y-92413600D01*
X104454194Y-92281294D01*
X104374633Y-92162222D01*
X104273371Y-92060960D01*
X104154299Y-91981399D01*
X104021993Y-91926596D01*
X103881538Y-91898658D01*
X103738332Y-91898658D01*
X103597877Y-91926596D01*
X103465571Y-91981399D01*
X103346499Y-92060960D01*
X103245237Y-92162222D01*
X103165676Y-92281294D01*
X103110873Y-92413600D01*
X103082935Y-92554055D01*
X101127000Y-92554055D01*
X101127000Y-91114397D01*
X106461000Y-91114397D01*
X106461000Y-91257603D01*
X106488938Y-91398058D01*
X106543741Y-91530364D01*
X106623302Y-91649436D01*
X106724564Y-91750698D01*
X106843636Y-91830259D01*
X106975942Y-91885062D01*
X107116397Y-91913000D01*
X107259603Y-91913000D01*
X107400058Y-91885062D01*
X107532364Y-91830259D01*
X107651436Y-91750698D01*
X107752698Y-91649436D01*
X107772674Y-91619540D01*
X107788341Y-91657364D01*
X107867902Y-91776436D01*
X107969164Y-91877698D01*
X108088236Y-91957259D01*
X108220542Y-92012062D01*
X108360997Y-92040000D01*
X108504203Y-92040000D01*
X108644658Y-92012062D01*
X108776964Y-91957259D01*
X108896036Y-91877698D01*
X108997298Y-91776436D01*
X109076859Y-91657364D01*
X109131662Y-91525058D01*
X109159600Y-91384603D01*
X109159600Y-91241397D01*
X109131662Y-91100942D01*
X109076859Y-90968636D01*
X108997298Y-90849564D01*
X108896036Y-90748302D01*
X108776964Y-90668741D01*
X108644658Y-90613938D01*
X108504203Y-90586000D01*
X108360997Y-90586000D01*
X108220542Y-90613938D01*
X108088236Y-90668741D01*
X107969164Y-90748302D01*
X107867902Y-90849564D01*
X107847926Y-90879460D01*
X107832259Y-90841636D01*
X107752698Y-90722564D01*
X107651436Y-90621302D01*
X107532364Y-90541741D01*
X107400058Y-90486938D01*
X107259603Y-90459000D01*
X107116397Y-90459000D01*
X106975942Y-90486938D01*
X106843636Y-90541741D01*
X106724564Y-90621302D01*
X106623302Y-90722564D01*
X106543741Y-90841636D01*
X106488938Y-90973942D01*
X106461000Y-91114397D01*
X101127000Y-91114397D01*
X101127000Y-89717397D01*
X103921000Y-89717397D01*
X103921000Y-89860603D01*
X103948938Y-90001058D01*
X104003741Y-90133364D01*
X104083302Y-90252436D01*
X104184564Y-90353698D01*
X104303636Y-90433259D01*
X104435942Y-90488062D01*
X104576397Y-90516000D01*
X104719603Y-90516000D01*
X104860058Y-90488062D01*
X104992364Y-90433259D01*
X105111436Y-90353698D01*
X105212698Y-90252436D01*
X105292259Y-90133364D01*
X105347062Y-90001058D01*
X105375000Y-89860603D01*
X105375000Y-89717397D01*
X105347062Y-89576942D01*
X105300031Y-89463397D01*
X107858000Y-89463397D01*
X107858000Y-89606603D01*
X107885938Y-89747058D01*
X107940741Y-89879364D01*
X108020302Y-89998436D01*
X108121564Y-90099698D01*
X108240636Y-90179259D01*
X108372942Y-90234062D01*
X108513397Y-90262000D01*
X108656603Y-90262000D01*
X108797058Y-90234062D01*
X108929364Y-90179259D01*
X109048436Y-90099698D01*
X109149698Y-89998436D01*
X109229259Y-89879364D01*
X109284062Y-89747058D01*
X109312000Y-89606603D01*
X109312000Y-89463397D01*
X109284062Y-89322942D01*
X109229259Y-89190636D01*
X109149698Y-89071564D01*
X109048436Y-88970302D01*
X108929364Y-88890741D01*
X108797058Y-88835938D01*
X108656603Y-88808000D01*
X108513397Y-88808000D01*
X108372942Y-88835938D01*
X108240636Y-88890741D01*
X108121564Y-88970302D01*
X108020302Y-89071564D01*
X107940741Y-89190636D01*
X107885938Y-89322942D01*
X107858000Y-89463397D01*
X105300031Y-89463397D01*
X105292259Y-89444636D01*
X105212698Y-89325564D01*
X105111436Y-89224302D01*
X104992364Y-89144741D01*
X104860058Y-89089938D01*
X104719603Y-89062000D01*
X104576397Y-89062000D01*
X104435942Y-89089938D01*
X104303636Y-89144741D01*
X104184564Y-89224302D01*
X104083302Y-89325564D01*
X104003741Y-89444636D01*
X103948938Y-89576942D01*
X103921000Y-89717397D01*
X101127000Y-89717397D01*
X101127000Y-85399397D01*
X105826000Y-85399397D01*
X105826000Y-85542603D01*
X105853938Y-85683058D01*
X105908741Y-85815364D01*
X105988302Y-85934436D01*
X106089564Y-86035698D01*
X106208636Y-86115259D01*
X106340942Y-86170062D01*
X106481397Y-86198000D01*
X106624603Y-86198000D01*
X106765058Y-86170062D01*
X106897364Y-86115259D01*
X107016436Y-86035698D01*
X107117698Y-85934436D01*
X107197259Y-85815364D01*
X107252062Y-85683058D01*
X107257961Y-85653397D01*
X110906000Y-85653397D01*
X110906000Y-85796603D01*
X110933938Y-85937058D01*
X110988741Y-86069364D01*
X111068302Y-86188436D01*
X111169564Y-86289698D01*
X111288636Y-86369259D01*
X111420942Y-86424062D01*
X111561397Y-86452000D01*
X111704603Y-86452000D01*
X111845058Y-86424062D01*
X111977364Y-86369259D01*
X112096436Y-86289698D01*
X112197698Y-86188436D01*
X112277259Y-86069364D01*
X112291736Y-86034413D01*
X122335984Y-86034413D01*
X122335984Y-86177619D01*
X122363922Y-86318074D01*
X122418725Y-86450380D01*
X122498286Y-86569452D01*
X122599548Y-86670714D01*
X122718620Y-86750275D01*
X122850926Y-86805078D01*
X122991381Y-86833016D01*
X123134587Y-86833016D01*
X123275042Y-86805078D01*
X123407348Y-86750275D01*
X123526420Y-86670714D01*
X123627682Y-86569452D01*
X123707243Y-86450380D01*
X123762046Y-86318074D01*
X123789984Y-86177619D01*
X123789984Y-86034413D01*
X123762046Y-85893958D01*
X123707243Y-85761652D01*
X123627682Y-85642580D01*
X123526420Y-85541318D01*
X123407348Y-85461757D01*
X123275042Y-85406954D01*
X123134587Y-85379016D01*
X122991381Y-85379016D01*
X122850926Y-85406954D01*
X122718620Y-85461757D01*
X122599548Y-85541318D01*
X122498286Y-85642580D01*
X122418725Y-85761652D01*
X122363922Y-85893958D01*
X122335984Y-86034413D01*
X112291736Y-86034413D01*
X112332062Y-85937058D01*
X112360000Y-85796603D01*
X112360000Y-85653397D01*
X112332062Y-85512942D01*
X112277259Y-85380636D01*
X112197698Y-85261564D01*
X112096436Y-85160302D01*
X111977364Y-85080741D01*
X111845058Y-85025938D01*
X111704603Y-84998000D01*
X111561397Y-84998000D01*
X111420942Y-85025938D01*
X111288636Y-85080741D01*
X111169564Y-85160302D01*
X111068302Y-85261564D01*
X110988741Y-85380636D01*
X110933938Y-85512942D01*
X110906000Y-85653397D01*
X107257961Y-85653397D01*
X107280000Y-85542603D01*
X107280000Y-85399397D01*
X107252062Y-85258942D01*
X107197259Y-85126636D01*
X107117698Y-85007564D01*
X107016436Y-84906302D01*
X106897364Y-84826741D01*
X106765058Y-84771938D01*
X106624603Y-84744000D01*
X106481397Y-84744000D01*
X106340942Y-84771938D01*
X106208636Y-84826741D01*
X106089564Y-84906302D01*
X105988302Y-85007564D01*
X105908741Y-85126636D01*
X105853938Y-85258942D01*
X105826000Y-85399397D01*
X101127000Y-85399397D01*
X101127000Y-84129397D01*
X126781000Y-84129397D01*
X126781000Y-84272603D01*
X126808938Y-84413058D01*
X126863741Y-84545364D01*
X126943302Y-84664436D01*
X127044564Y-84765698D01*
X127163636Y-84845259D01*
X127295942Y-84900062D01*
X127436397Y-84928000D01*
X127579603Y-84928000D01*
X127720058Y-84900062D01*
X127852364Y-84845259D01*
X127971436Y-84765698D01*
X128072698Y-84664436D01*
X128152259Y-84545364D01*
X128207062Y-84413058D01*
X128235000Y-84272603D01*
X128235000Y-84129397D01*
X128207062Y-83988942D01*
X128152259Y-83856636D01*
X128072698Y-83737564D01*
X127971436Y-83636302D01*
X127852364Y-83556741D01*
X127720058Y-83501938D01*
X127579603Y-83474000D01*
X127436397Y-83474000D01*
X127295942Y-83501938D01*
X127163636Y-83556741D01*
X127044564Y-83636302D01*
X126943302Y-83737564D01*
X126863741Y-83856636D01*
X126808938Y-83988942D01*
X126781000Y-84129397D01*
X101127000Y-84129397D01*
X101127000Y-79652621D01*
X101473000Y-79652621D01*
X101473000Y-80347379D01*
X101608540Y-81028788D01*
X101874413Y-81670661D01*
X102260400Y-82248332D01*
X102751668Y-82739600D01*
X103329339Y-83125587D01*
X103971212Y-83391460D01*
X104652621Y-83527000D01*
X105347379Y-83527000D01*
X106028788Y-83391460D01*
X106670661Y-83125587D01*
X107248332Y-82739600D01*
X107739600Y-82248332D01*
X108010168Y-81843397D01*
X110906000Y-81843397D01*
X110906000Y-81986603D01*
X110933938Y-82127058D01*
X110988741Y-82259364D01*
X111068302Y-82378436D01*
X111169564Y-82479698D01*
X111274779Y-82550000D01*
X111169564Y-82620302D01*
X111068302Y-82721564D01*
X110988741Y-82840636D01*
X110933938Y-82972942D01*
X110906000Y-83113397D01*
X110906000Y-83256603D01*
X110933938Y-83397058D01*
X110988741Y-83529364D01*
X111068302Y-83648436D01*
X111169564Y-83749698D01*
X111288636Y-83829259D01*
X111420942Y-83884062D01*
X111561397Y-83912000D01*
X111704603Y-83912000D01*
X111845058Y-83884062D01*
X111977364Y-83829259D01*
X112096436Y-83749698D01*
X112197698Y-83648436D01*
X112277259Y-83529364D01*
X112332062Y-83397058D01*
X112360000Y-83256603D01*
X112360000Y-83113397D01*
X112332062Y-82972942D01*
X112277259Y-82840636D01*
X112197698Y-82721564D01*
X112096436Y-82620302D01*
X111991221Y-82550000D01*
X112096436Y-82479698D01*
X112197698Y-82378436D01*
X112277259Y-82259364D01*
X112332062Y-82127058D01*
X112360000Y-81986603D01*
X112360000Y-81843397D01*
X124749000Y-81843397D01*
X124749000Y-81986603D01*
X124776938Y-82127058D01*
X124831741Y-82259364D01*
X124911302Y-82378436D01*
X125012564Y-82479698D01*
X125117779Y-82550000D01*
X125012564Y-82620302D01*
X124911302Y-82721564D01*
X124831741Y-82840636D01*
X124776938Y-82972942D01*
X124749000Y-83113397D01*
X124749000Y-83256603D01*
X124776938Y-83397058D01*
X124831741Y-83529364D01*
X124911302Y-83648436D01*
X125012564Y-83749698D01*
X125131636Y-83829259D01*
X125263942Y-83884062D01*
X125404397Y-83912000D01*
X125547603Y-83912000D01*
X125688058Y-83884062D01*
X125820364Y-83829259D01*
X125939436Y-83749698D01*
X126040698Y-83648436D01*
X126120259Y-83529364D01*
X126175062Y-83397058D01*
X126203000Y-83256603D01*
X126203000Y-83113397D01*
X126175062Y-82972942D01*
X126120259Y-82840636D01*
X126040698Y-82721564D01*
X125939436Y-82620302D01*
X125834221Y-82550000D01*
X125939436Y-82479698D01*
X126040698Y-82378436D01*
X126120259Y-82259364D01*
X126175062Y-82127058D01*
X126203000Y-81986603D01*
X126203000Y-81843397D01*
X126175062Y-81702942D01*
X126120259Y-81570636D01*
X126040698Y-81451564D01*
X125939436Y-81350302D01*
X125820364Y-81270741D01*
X125688058Y-81215938D01*
X125547603Y-81188000D01*
X125404397Y-81188000D01*
X125263942Y-81215938D01*
X125131636Y-81270741D01*
X125012564Y-81350302D01*
X124911302Y-81451564D01*
X124831741Y-81570636D01*
X124776938Y-81702942D01*
X124749000Y-81843397D01*
X112360000Y-81843397D01*
X112332062Y-81702942D01*
X112277259Y-81570636D01*
X112197698Y-81451564D01*
X112096436Y-81350302D01*
X111977364Y-81270741D01*
X111845058Y-81215938D01*
X111704603Y-81188000D01*
X111561397Y-81188000D01*
X111420942Y-81215938D01*
X111288636Y-81270741D01*
X111169564Y-81350302D01*
X111068302Y-81451564D01*
X110988741Y-81570636D01*
X110933938Y-81702942D01*
X110906000Y-81843397D01*
X108010168Y-81843397D01*
X108125587Y-81670661D01*
X108391460Y-81028788D01*
X108527000Y-80347379D01*
X108527000Y-79652621D01*
X108391460Y-78971212D01*
X108125587Y-78329339D01*
X107739600Y-77751668D01*
X107248332Y-77260400D01*
X106670661Y-76874413D01*
X106028788Y-76608540D01*
X105347379Y-76473000D01*
X104652621Y-76473000D01*
X103971212Y-76608540D01*
X103329339Y-76874413D01*
X102751668Y-77260400D01*
X102260400Y-77751668D01*
X101874413Y-78329339D01*
X101608540Y-78971212D01*
X101473000Y-79652621D01*
X101127000Y-79652621D01*
X101127000Y-79003560D01*
X101145263Y-78678354D01*
X101199228Y-78360734D01*
X101288409Y-78051182D01*
X101411700Y-77753532D01*
X101567529Y-77471579D01*
X101753951Y-77208844D01*
X101968624Y-76968624D01*
X102208844Y-76753951D01*
X102471579Y-76567529D01*
X102753532Y-76411700D01*
X103051182Y-76288409D01*
X103360734Y-76199228D01*
X103678354Y-76145263D01*
X104003560Y-76127000D01*
X109855000Y-76127000D01*
X109855000Y-80772000D01*
%TO.N,+3.3VP*%
G36*
X129711564Y-77780698D02*
G01*
X129830636Y-77860259D01*
X129962942Y-77915062D01*
X130103397Y-77943000D01*
X130246603Y-77943000D01*
X130387058Y-77915062D01*
X130519364Y-77860259D01*
X130638436Y-77780698D01*
X130695134Y-77724000D01*
X137922000Y-77724000D01*
X137922000Y-80518000D01*
X131699000Y-80518000D01*
X131674224Y-80520440D01*
X131650399Y-80527667D01*
X131628443Y-80539403D01*
X131609197Y-80555197D01*
X131593403Y-80574443D01*
X131581667Y-80596399D01*
X131574440Y-80620224D01*
X131572000Y-80645000D01*
X131572000Y-92859779D01*
X131501698Y-92754564D01*
X131400436Y-92653302D01*
X131281364Y-92573741D01*
X131149058Y-92518938D01*
X131008603Y-92491000D01*
X130865397Y-92491000D01*
X130724942Y-92518938D01*
X130592636Y-92573741D01*
X130473564Y-92653302D01*
X130372302Y-92754564D01*
X130292741Y-92873636D01*
X130237938Y-93005942D01*
X130210000Y-93146397D01*
X130210000Y-93289603D01*
X130237938Y-93430058D01*
X130292741Y-93562364D01*
X130372302Y-93681436D01*
X130473564Y-93782698D01*
X130592636Y-93862259D01*
X130724942Y-93917062D01*
X130865397Y-93945000D01*
X131008603Y-93945000D01*
X131149058Y-93917062D01*
X131281364Y-93862259D01*
X131400436Y-93782698D01*
X131501698Y-93681436D01*
X131572000Y-93576221D01*
X131572000Y-99314000D01*
X131574440Y-99338776D01*
X131581667Y-99362601D01*
X131593403Y-99384557D01*
X131609197Y-99403803D01*
X131628443Y-99419597D01*
X131650399Y-99431333D01*
X131674224Y-99438560D01*
X131699000Y-99441000D01*
X138176000Y-99441000D01*
X138176000Y-109093000D01*
X129199630Y-109093000D01*
X129266834Y-109048096D01*
X129368096Y-108946834D01*
X129447657Y-108827762D01*
X129502460Y-108695456D01*
X129530398Y-108555001D01*
X129530398Y-108411795D01*
X129502460Y-108271340D01*
X129447657Y-108139034D01*
X129368096Y-108019962D01*
X129266834Y-107918700D01*
X129147762Y-107839139D01*
X129015456Y-107784336D01*
X128905000Y-107762365D01*
X128905000Y-107370397D01*
X129811038Y-107370397D01*
X129811038Y-107513603D01*
X129838976Y-107654058D01*
X129893779Y-107786364D01*
X129973340Y-107905436D01*
X130074602Y-108006698D01*
X130193674Y-108086259D01*
X130325980Y-108141062D01*
X130466435Y-108169000D01*
X130609641Y-108169000D01*
X130750096Y-108141062D01*
X130882402Y-108086259D01*
X131001474Y-108006698D01*
X131102736Y-107905436D01*
X131182297Y-107786364D01*
X131237100Y-107654058D01*
X131265038Y-107513603D01*
X131265038Y-107370397D01*
X131237100Y-107229942D01*
X131182297Y-107097636D01*
X131102736Y-106978564D01*
X131001474Y-106877302D01*
X130882402Y-106797741D01*
X130750096Y-106742938D01*
X130609641Y-106715000D01*
X130466435Y-106715000D01*
X130325980Y-106742938D01*
X130193674Y-106797741D01*
X130074602Y-106877302D01*
X129973340Y-106978564D01*
X129893779Y-107097636D01*
X129838976Y-107229942D01*
X129811038Y-107370397D01*
X128905000Y-107370397D01*
X128905000Y-106680000D01*
X129032000Y-106680000D01*
X129056776Y-106677560D01*
X129080601Y-106670333D01*
X129102557Y-106658597D01*
X129121803Y-106642803D01*
X129137597Y-106623557D01*
X129149333Y-106601601D01*
X129156560Y-106577776D01*
X129159000Y-106553000D01*
X129159000Y-106120095D01*
X129521000Y-106120095D01*
X129521000Y-106223905D01*
X129541252Y-106325720D01*
X129580979Y-106421628D01*
X129638652Y-106507943D01*
X129712057Y-106581348D01*
X129798372Y-106639021D01*
X129894280Y-106678748D01*
X129996095Y-106699000D01*
X130099905Y-106699000D01*
X130201720Y-106678748D01*
X130297628Y-106639021D01*
X130383943Y-106581348D01*
X130457348Y-106507943D01*
X130515021Y-106421628D01*
X130554748Y-106325720D01*
X130575000Y-106223905D01*
X130575000Y-106120095D01*
X130554748Y-106018280D01*
X130515021Y-105922372D01*
X130457348Y-105836057D01*
X130383943Y-105762652D01*
X130297628Y-105704979D01*
X130201720Y-105665252D01*
X130099905Y-105645000D01*
X129996095Y-105645000D01*
X129894280Y-105665252D01*
X129798372Y-105704979D01*
X129712057Y-105762652D01*
X129638652Y-105836057D01*
X129580979Y-105922372D01*
X129541252Y-106018280D01*
X129521000Y-106120095D01*
X129159000Y-106120095D01*
X129159000Y-104088095D01*
X131680000Y-104088095D01*
X131680000Y-104191905D01*
X131700252Y-104293720D01*
X131739979Y-104389628D01*
X131742900Y-104394000D01*
X131739979Y-104398372D01*
X131700252Y-104494280D01*
X131680000Y-104596095D01*
X131680000Y-104699905D01*
X131700252Y-104801720D01*
X131739979Y-104897628D01*
X131742900Y-104902000D01*
X131739979Y-104906372D01*
X131700252Y-105002280D01*
X131680000Y-105104095D01*
X131680000Y-105207905D01*
X131700252Y-105309720D01*
X131739979Y-105405628D01*
X131742900Y-105410000D01*
X131739979Y-105414372D01*
X131700252Y-105510280D01*
X131680000Y-105612095D01*
X131680000Y-105715905D01*
X131700252Y-105817720D01*
X131739979Y-105913628D01*
X131742900Y-105918000D01*
X131739979Y-105922372D01*
X131700252Y-106018280D01*
X131680000Y-106120095D01*
X131680000Y-106223905D01*
X131700252Y-106325720D01*
X131739979Y-106421628D01*
X131797652Y-106507943D01*
X131871057Y-106581348D01*
X131957372Y-106639021D01*
X132053280Y-106678748D01*
X132155095Y-106699000D01*
X132258905Y-106699000D01*
X132360720Y-106678748D01*
X132456628Y-106639021D01*
X132542943Y-106581348D01*
X132616348Y-106507943D01*
X132674021Y-106421628D01*
X132713748Y-106325720D01*
X132734000Y-106223905D01*
X132734000Y-106120095D01*
X132713748Y-106018280D01*
X132674021Y-105922372D01*
X132671100Y-105918000D01*
X132674021Y-105913628D01*
X132713748Y-105817720D01*
X132734000Y-105715905D01*
X132734000Y-105612095D01*
X132713748Y-105510280D01*
X132674021Y-105414372D01*
X132671100Y-105410000D01*
X132674021Y-105405628D01*
X132713748Y-105309720D01*
X132734000Y-105207905D01*
X132734000Y-105104095D01*
X132713748Y-105002280D01*
X132674021Y-104906372D01*
X132671100Y-104902000D01*
X132674021Y-104897628D01*
X132713748Y-104801720D01*
X132734000Y-104699905D01*
X132734000Y-104596095D01*
X132713748Y-104494280D01*
X132674021Y-104398372D01*
X132671100Y-104394000D01*
X132674021Y-104389628D01*
X132713748Y-104293720D01*
X132734000Y-104191905D01*
X132734000Y-104088095D01*
X132713748Y-103986280D01*
X132674021Y-103890372D01*
X132616348Y-103804057D01*
X132542943Y-103730652D01*
X132456628Y-103672979D01*
X132360720Y-103633252D01*
X132258905Y-103613000D01*
X132155095Y-103613000D01*
X132053280Y-103633252D01*
X131957372Y-103672979D01*
X131871057Y-103730652D01*
X131797652Y-103804057D01*
X131739979Y-103890372D01*
X131700252Y-103986280D01*
X131680000Y-104088095D01*
X129159000Y-104088095D01*
X129159000Y-102290397D01*
X133385000Y-102290397D01*
X133385000Y-102433603D01*
X133412938Y-102574058D01*
X133467741Y-102706364D01*
X133547302Y-102825436D01*
X133648564Y-102926698D01*
X133658744Y-102933500D01*
X133648564Y-102940302D01*
X133547302Y-103041564D01*
X133467741Y-103160636D01*
X133412938Y-103292942D01*
X133385000Y-103433397D01*
X133385000Y-103576603D01*
X133412938Y-103717058D01*
X133467741Y-103849364D01*
X133547302Y-103968436D01*
X133648564Y-104069698D01*
X133767636Y-104149259D01*
X133899942Y-104204062D01*
X134040397Y-104232000D01*
X134183603Y-104232000D01*
X134324058Y-104204062D01*
X134456364Y-104149259D01*
X134575436Y-104069698D01*
X134676698Y-103968436D01*
X134756259Y-103849364D01*
X134811062Y-103717058D01*
X134839000Y-103576603D01*
X134839000Y-103433397D01*
X134811062Y-103292942D01*
X134756259Y-103160636D01*
X134676698Y-103041564D01*
X134575436Y-102940302D01*
X134565256Y-102933500D01*
X134575436Y-102926698D01*
X134676698Y-102825436D01*
X134756259Y-102706364D01*
X134811062Y-102574058D01*
X134839000Y-102433603D01*
X134839000Y-102290397D01*
X134811062Y-102149942D01*
X134756259Y-102017636D01*
X134676698Y-101898564D01*
X134575436Y-101797302D01*
X134456364Y-101717741D01*
X134324058Y-101662938D01*
X134183603Y-101635000D01*
X134040397Y-101635000D01*
X133899942Y-101662938D01*
X133767636Y-101717741D01*
X133648564Y-101797302D01*
X133547302Y-101898564D01*
X133467741Y-102017636D01*
X133412938Y-102149942D01*
X133385000Y-102290397D01*
X129159000Y-102290397D01*
X129159000Y-101810726D01*
X129257860Y-101791062D01*
X129390166Y-101736259D01*
X129509238Y-101656698D01*
X129610500Y-101555436D01*
X129690061Y-101436364D01*
X129744864Y-101304058D01*
X129772802Y-101163603D01*
X129772802Y-101020397D01*
X129744864Y-100879942D01*
X129690061Y-100747636D01*
X129610500Y-100628564D01*
X129509238Y-100527302D01*
X129390166Y-100447741D01*
X129257860Y-100392938D01*
X129159000Y-100373274D01*
X129159000Y-78947981D01*
X129244058Y-78931062D01*
X129376364Y-78876259D01*
X129495436Y-78796698D01*
X129596698Y-78695436D01*
X129614764Y-78668397D01*
X131099000Y-78668397D01*
X131099000Y-78811603D01*
X131126938Y-78952058D01*
X131181741Y-79084364D01*
X131261302Y-79203436D01*
X131362564Y-79304698D01*
X131481636Y-79384259D01*
X131613942Y-79439062D01*
X131754397Y-79467000D01*
X131897603Y-79467000D01*
X132038058Y-79439062D01*
X132170364Y-79384259D01*
X132289436Y-79304698D01*
X132390698Y-79203436D01*
X132470259Y-79084364D01*
X132525062Y-78952058D01*
X132553000Y-78811603D01*
X132553000Y-78668397D01*
X132525062Y-78527942D01*
X132470259Y-78395636D01*
X132390698Y-78276564D01*
X132289436Y-78175302D01*
X132170364Y-78095741D01*
X132038058Y-78040938D01*
X131897603Y-78013000D01*
X131754397Y-78013000D01*
X131613942Y-78040938D01*
X131481636Y-78095741D01*
X131362564Y-78175302D01*
X131261302Y-78276564D01*
X131181741Y-78395636D01*
X131126938Y-78527942D01*
X131099000Y-78668397D01*
X129614764Y-78668397D01*
X129676259Y-78576364D01*
X129731062Y-78444058D01*
X129759000Y-78303603D01*
X129759000Y-78160397D01*
X129731062Y-78019942D01*
X129676259Y-77887636D01*
X129596698Y-77768564D01*
X129552134Y-77724000D01*
X129654866Y-77724000D01*
X129711564Y-77780698D01*
G37*
X129711564Y-77780698D02*
X129830636Y-77860259D01*
X129962942Y-77915062D01*
X130103397Y-77943000D01*
X130246603Y-77943000D01*
X130387058Y-77915062D01*
X130519364Y-77860259D01*
X130638436Y-77780698D01*
X130695134Y-77724000D01*
X137922000Y-77724000D01*
X137922000Y-80518000D01*
X131699000Y-80518000D01*
X131674224Y-80520440D01*
X131650399Y-80527667D01*
X131628443Y-80539403D01*
X131609197Y-80555197D01*
X131593403Y-80574443D01*
X131581667Y-80596399D01*
X131574440Y-80620224D01*
X131572000Y-80645000D01*
X131572000Y-92859779D01*
X131501698Y-92754564D01*
X131400436Y-92653302D01*
X131281364Y-92573741D01*
X131149058Y-92518938D01*
X131008603Y-92491000D01*
X130865397Y-92491000D01*
X130724942Y-92518938D01*
X130592636Y-92573741D01*
X130473564Y-92653302D01*
X130372302Y-92754564D01*
X130292741Y-92873636D01*
X130237938Y-93005942D01*
X130210000Y-93146397D01*
X130210000Y-93289603D01*
X130237938Y-93430058D01*
X130292741Y-93562364D01*
X130372302Y-93681436D01*
X130473564Y-93782698D01*
X130592636Y-93862259D01*
X130724942Y-93917062D01*
X130865397Y-93945000D01*
X131008603Y-93945000D01*
X131149058Y-93917062D01*
X131281364Y-93862259D01*
X131400436Y-93782698D01*
X131501698Y-93681436D01*
X131572000Y-93576221D01*
X131572000Y-99314000D01*
X131574440Y-99338776D01*
X131581667Y-99362601D01*
X131593403Y-99384557D01*
X131609197Y-99403803D01*
X131628443Y-99419597D01*
X131650399Y-99431333D01*
X131674224Y-99438560D01*
X131699000Y-99441000D01*
X138176000Y-99441000D01*
X138176000Y-109093000D01*
X129199630Y-109093000D01*
X129266834Y-109048096D01*
X129368096Y-108946834D01*
X129447657Y-108827762D01*
X129502460Y-108695456D01*
X129530398Y-108555001D01*
X129530398Y-108411795D01*
X129502460Y-108271340D01*
X129447657Y-108139034D01*
X129368096Y-108019962D01*
X129266834Y-107918700D01*
X129147762Y-107839139D01*
X129015456Y-107784336D01*
X128905000Y-107762365D01*
X128905000Y-107370397D01*
X129811038Y-107370397D01*
X129811038Y-107513603D01*
X129838976Y-107654058D01*
X129893779Y-107786364D01*
X129973340Y-107905436D01*
X130074602Y-108006698D01*
X130193674Y-108086259D01*
X130325980Y-108141062D01*
X130466435Y-108169000D01*
X130609641Y-108169000D01*
X130750096Y-108141062D01*
X130882402Y-108086259D01*
X131001474Y-108006698D01*
X131102736Y-107905436D01*
X131182297Y-107786364D01*
X131237100Y-107654058D01*
X131265038Y-107513603D01*
X131265038Y-107370397D01*
X131237100Y-107229942D01*
X131182297Y-107097636D01*
X131102736Y-106978564D01*
X131001474Y-106877302D01*
X130882402Y-106797741D01*
X130750096Y-106742938D01*
X130609641Y-106715000D01*
X130466435Y-106715000D01*
X130325980Y-106742938D01*
X130193674Y-106797741D01*
X130074602Y-106877302D01*
X129973340Y-106978564D01*
X129893779Y-107097636D01*
X129838976Y-107229942D01*
X129811038Y-107370397D01*
X128905000Y-107370397D01*
X128905000Y-106680000D01*
X129032000Y-106680000D01*
X129056776Y-106677560D01*
X129080601Y-106670333D01*
X129102557Y-106658597D01*
X129121803Y-106642803D01*
X129137597Y-106623557D01*
X129149333Y-106601601D01*
X129156560Y-106577776D01*
X129159000Y-106553000D01*
X129159000Y-106120095D01*
X129521000Y-106120095D01*
X129521000Y-106223905D01*
X129541252Y-106325720D01*
X129580979Y-106421628D01*
X129638652Y-106507943D01*
X129712057Y-106581348D01*
X129798372Y-106639021D01*
X129894280Y-106678748D01*
X129996095Y-106699000D01*
X130099905Y-106699000D01*
X130201720Y-106678748D01*
X130297628Y-106639021D01*
X130383943Y-106581348D01*
X130457348Y-106507943D01*
X130515021Y-106421628D01*
X130554748Y-106325720D01*
X130575000Y-106223905D01*
X130575000Y-106120095D01*
X130554748Y-106018280D01*
X130515021Y-105922372D01*
X130457348Y-105836057D01*
X130383943Y-105762652D01*
X130297628Y-105704979D01*
X130201720Y-105665252D01*
X130099905Y-105645000D01*
X129996095Y-105645000D01*
X129894280Y-105665252D01*
X129798372Y-105704979D01*
X129712057Y-105762652D01*
X129638652Y-105836057D01*
X129580979Y-105922372D01*
X129541252Y-106018280D01*
X129521000Y-106120095D01*
X129159000Y-106120095D01*
X129159000Y-104088095D01*
X131680000Y-104088095D01*
X131680000Y-104191905D01*
X131700252Y-104293720D01*
X131739979Y-104389628D01*
X131742900Y-104394000D01*
X131739979Y-104398372D01*
X131700252Y-104494280D01*
X131680000Y-104596095D01*
X131680000Y-104699905D01*
X131700252Y-104801720D01*
X131739979Y-104897628D01*
X131742900Y-104902000D01*
X131739979Y-104906372D01*
X131700252Y-105002280D01*
X131680000Y-105104095D01*
X131680000Y-105207905D01*
X131700252Y-105309720D01*
X131739979Y-105405628D01*
X131742900Y-105410000D01*
X131739979Y-105414372D01*
X131700252Y-105510280D01*
X131680000Y-105612095D01*
X131680000Y-105715905D01*
X131700252Y-105817720D01*
X131739979Y-105913628D01*
X131742900Y-105918000D01*
X131739979Y-105922372D01*
X131700252Y-106018280D01*
X131680000Y-106120095D01*
X131680000Y-106223905D01*
X131700252Y-106325720D01*
X131739979Y-106421628D01*
X131797652Y-106507943D01*
X131871057Y-106581348D01*
X131957372Y-106639021D01*
X132053280Y-106678748D01*
X132155095Y-106699000D01*
X132258905Y-106699000D01*
X132360720Y-106678748D01*
X132456628Y-106639021D01*
X132542943Y-106581348D01*
X132616348Y-106507943D01*
X132674021Y-106421628D01*
X132713748Y-106325720D01*
X132734000Y-106223905D01*
X132734000Y-106120095D01*
X132713748Y-106018280D01*
X132674021Y-105922372D01*
X132671100Y-105918000D01*
X132674021Y-105913628D01*
X132713748Y-105817720D01*
X132734000Y-105715905D01*
X132734000Y-105612095D01*
X132713748Y-105510280D01*
X132674021Y-105414372D01*
X132671100Y-105410000D01*
X132674021Y-105405628D01*
X132713748Y-105309720D01*
X132734000Y-105207905D01*
X132734000Y-105104095D01*
X132713748Y-105002280D01*
X132674021Y-104906372D01*
X132671100Y-104902000D01*
X132674021Y-104897628D01*
X132713748Y-104801720D01*
X132734000Y-104699905D01*
X132734000Y-104596095D01*
X132713748Y-104494280D01*
X132674021Y-104398372D01*
X132671100Y-104394000D01*
X132674021Y-104389628D01*
X132713748Y-104293720D01*
X132734000Y-104191905D01*
X132734000Y-104088095D01*
X132713748Y-103986280D01*
X132674021Y-103890372D01*
X132616348Y-103804057D01*
X132542943Y-103730652D01*
X132456628Y-103672979D01*
X132360720Y-103633252D01*
X132258905Y-103613000D01*
X132155095Y-103613000D01*
X132053280Y-103633252D01*
X131957372Y-103672979D01*
X131871057Y-103730652D01*
X131797652Y-103804057D01*
X131739979Y-103890372D01*
X131700252Y-103986280D01*
X131680000Y-104088095D01*
X129159000Y-104088095D01*
X129159000Y-102290397D01*
X133385000Y-102290397D01*
X133385000Y-102433603D01*
X133412938Y-102574058D01*
X133467741Y-102706364D01*
X133547302Y-102825436D01*
X133648564Y-102926698D01*
X133658744Y-102933500D01*
X133648564Y-102940302D01*
X133547302Y-103041564D01*
X133467741Y-103160636D01*
X133412938Y-103292942D01*
X133385000Y-103433397D01*
X133385000Y-103576603D01*
X133412938Y-103717058D01*
X133467741Y-103849364D01*
X133547302Y-103968436D01*
X133648564Y-104069698D01*
X133767636Y-104149259D01*
X133899942Y-104204062D01*
X134040397Y-104232000D01*
X134183603Y-104232000D01*
X134324058Y-104204062D01*
X134456364Y-104149259D01*
X134575436Y-104069698D01*
X134676698Y-103968436D01*
X134756259Y-103849364D01*
X134811062Y-103717058D01*
X134839000Y-103576603D01*
X134839000Y-103433397D01*
X134811062Y-103292942D01*
X134756259Y-103160636D01*
X134676698Y-103041564D01*
X134575436Y-102940302D01*
X134565256Y-102933500D01*
X134575436Y-102926698D01*
X134676698Y-102825436D01*
X134756259Y-102706364D01*
X134811062Y-102574058D01*
X134839000Y-102433603D01*
X134839000Y-102290397D01*
X134811062Y-102149942D01*
X134756259Y-102017636D01*
X134676698Y-101898564D01*
X134575436Y-101797302D01*
X134456364Y-101717741D01*
X134324058Y-101662938D01*
X134183603Y-101635000D01*
X134040397Y-101635000D01*
X133899942Y-101662938D01*
X133767636Y-101717741D01*
X133648564Y-101797302D01*
X133547302Y-101898564D01*
X133467741Y-102017636D01*
X133412938Y-102149942D01*
X133385000Y-102290397D01*
X129159000Y-102290397D01*
X129159000Y-101810726D01*
X129257860Y-101791062D01*
X129390166Y-101736259D01*
X129509238Y-101656698D01*
X129610500Y-101555436D01*
X129690061Y-101436364D01*
X129744864Y-101304058D01*
X129772802Y-101163603D01*
X129772802Y-101020397D01*
X129744864Y-100879942D01*
X129690061Y-100747636D01*
X129610500Y-100628564D01*
X129509238Y-100527302D01*
X129390166Y-100447741D01*
X129257860Y-100392938D01*
X129159000Y-100373274D01*
X129159000Y-78947981D01*
X129244058Y-78931062D01*
X129376364Y-78876259D01*
X129495436Y-78796698D01*
X129596698Y-78695436D01*
X129614764Y-78668397D01*
X131099000Y-78668397D01*
X131099000Y-78811603D01*
X131126938Y-78952058D01*
X131181741Y-79084364D01*
X131261302Y-79203436D01*
X131362564Y-79304698D01*
X131481636Y-79384259D01*
X131613942Y-79439062D01*
X131754397Y-79467000D01*
X131897603Y-79467000D01*
X132038058Y-79439062D01*
X132170364Y-79384259D01*
X132289436Y-79304698D01*
X132390698Y-79203436D01*
X132470259Y-79084364D01*
X132525062Y-78952058D01*
X132553000Y-78811603D01*
X132553000Y-78668397D01*
X132525062Y-78527942D01*
X132470259Y-78395636D01*
X132390698Y-78276564D01*
X132289436Y-78175302D01*
X132170364Y-78095741D01*
X132038058Y-78040938D01*
X131897603Y-78013000D01*
X131754397Y-78013000D01*
X131613942Y-78040938D01*
X131481636Y-78095741D01*
X131362564Y-78175302D01*
X131261302Y-78276564D01*
X131181741Y-78395636D01*
X131126938Y-78527942D01*
X131099000Y-78668397D01*
X129614764Y-78668397D01*
X129676259Y-78576364D01*
X129731062Y-78444058D01*
X129759000Y-78303603D01*
X129759000Y-78160397D01*
X129731062Y-78019942D01*
X129676259Y-77887636D01*
X129596698Y-77768564D01*
X129552134Y-77724000D01*
X129654866Y-77724000D01*
X129711564Y-77780698D01*
%TO.N,VBUS*%
G36*
X128143000Y-108177997D02*
G01*
X128104336Y-108271340D01*
X128076398Y-108411795D01*
X128076398Y-108555001D01*
X128104336Y-108695456D01*
X128143000Y-108788799D01*
X128143000Y-109829004D01*
X128104338Y-109922342D01*
X128076400Y-110062797D01*
X128076400Y-110206003D01*
X128104338Y-110346458D01*
X128143000Y-110439796D01*
X128143000Y-110886220D01*
X128060564Y-110941302D01*
X127959302Y-111042564D01*
X127879741Y-111161636D01*
X127824938Y-111293942D01*
X127797000Y-111434397D01*
X127797000Y-111577603D01*
X127824938Y-111718058D01*
X127879741Y-111850364D01*
X127959302Y-111969436D01*
X128060564Y-112070698D01*
X128143000Y-112125780D01*
X128143000Y-114046000D01*
X128145440Y-114070776D01*
X128152667Y-114094601D01*
X128164403Y-114116557D01*
X128180197Y-114135803D01*
X128199443Y-114151597D01*
X128221399Y-114163333D01*
X128245224Y-114170560D01*
X128270000Y-114173000D01*
X135382000Y-114173000D01*
X135382000Y-117729000D01*
X131210000Y-117729000D01*
X131210000Y-117677095D01*
X131189748Y-117575280D01*
X131150021Y-117479372D01*
X131104671Y-117411500D01*
X131150021Y-117343628D01*
X131189748Y-117247720D01*
X131210000Y-117145905D01*
X131210000Y-117042095D01*
X131189748Y-116940280D01*
X131150021Y-116844372D01*
X131092348Y-116758057D01*
X131018943Y-116684652D01*
X130932628Y-116626979D01*
X130836720Y-116587252D01*
X130734905Y-116567000D01*
X130631095Y-116567000D01*
X130529280Y-116587252D01*
X130433372Y-116626979D01*
X130365500Y-116672329D01*
X130297628Y-116626979D01*
X130201720Y-116587252D01*
X130099905Y-116567000D01*
X129996095Y-116567000D01*
X129894280Y-116587252D01*
X129798372Y-116626979D01*
X129730500Y-116672329D01*
X129662628Y-116626979D01*
X129566720Y-116587252D01*
X129464905Y-116567000D01*
X129361095Y-116567000D01*
X129259280Y-116587252D01*
X129163372Y-116626979D01*
X129077057Y-116684652D01*
X129003652Y-116758057D01*
X128945979Y-116844372D01*
X128906252Y-116940280D01*
X128886000Y-117042095D01*
X128886000Y-117145905D01*
X128906252Y-117247720D01*
X128945979Y-117343628D01*
X128991329Y-117411500D01*
X128945979Y-117479372D01*
X128906252Y-117575280D01*
X128904164Y-117585778D01*
X128885286Y-117321830D01*
X128882708Y-117303894D01*
X128824932Y-117038303D01*
X128819827Y-117020917D01*
X128724842Y-116766252D01*
X128717314Y-116749769D01*
X128587053Y-116511214D01*
X128577257Y-116495971D01*
X128414372Y-116278382D01*
X128402506Y-116264687D01*
X128210313Y-116072494D01*
X128196618Y-116060628D01*
X127979029Y-115897743D01*
X127963786Y-115887947D01*
X127725231Y-115757686D01*
X127708748Y-115750158D01*
X127454083Y-115655173D01*
X127436697Y-115650068D01*
X127171106Y-115592292D01*
X127153170Y-115589714D01*
X126882060Y-115570324D01*
X126873000Y-115570000D01*
X125476000Y-115570000D01*
X125476000Y-114863397D01*
X131226000Y-114863397D01*
X131226000Y-115006603D01*
X131253938Y-115147058D01*
X131308741Y-115279364D01*
X131388302Y-115398436D01*
X131489564Y-115499698D01*
X131608636Y-115579259D01*
X131740942Y-115634062D01*
X131881397Y-115662000D01*
X132024603Y-115662000D01*
X132165058Y-115634062D01*
X132297364Y-115579259D01*
X132416436Y-115499698D01*
X132517698Y-115398436D01*
X132597259Y-115279364D01*
X132652062Y-115147058D01*
X132680000Y-115006603D01*
X132680000Y-114863397D01*
X132652062Y-114722942D01*
X132597259Y-114590636D01*
X132517698Y-114471564D01*
X132416436Y-114370302D01*
X132297364Y-114290741D01*
X132165058Y-114235938D01*
X132024603Y-114208000D01*
X131881397Y-114208000D01*
X131740942Y-114235938D01*
X131608636Y-114290741D01*
X131489564Y-114370302D01*
X131388302Y-114471564D01*
X131308741Y-114590636D01*
X131253938Y-114722942D01*
X131226000Y-114863397D01*
X125476000Y-114863397D01*
X125476000Y-107188000D01*
X128143000Y-107188000D01*
X128143000Y-108177997D01*
G37*
X128143000Y-108177997D02*
X128104336Y-108271340D01*
X128076398Y-108411795D01*
X128076398Y-108555001D01*
X128104336Y-108695456D01*
X128143000Y-108788799D01*
X128143000Y-109829004D01*
X128104338Y-109922342D01*
X128076400Y-110062797D01*
X128076400Y-110206003D01*
X128104338Y-110346458D01*
X128143000Y-110439796D01*
X128143000Y-110886220D01*
X128060564Y-110941302D01*
X127959302Y-111042564D01*
X127879741Y-111161636D01*
X127824938Y-111293942D01*
X127797000Y-111434397D01*
X127797000Y-111577603D01*
X127824938Y-111718058D01*
X127879741Y-111850364D01*
X127959302Y-111969436D01*
X128060564Y-112070698D01*
X128143000Y-112125780D01*
X128143000Y-114046000D01*
X128145440Y-114070776D01*
X128152667Y-114094601D01*
X128164403Y-114116557D01*
X128180197Y-114135803D01*
X128199443Y-114151597D01*
X128221399Y-114163333D01*
X128245224Y-114170560D01*
X128270000Y-114173000D01*
X135382000Y-114173000D01*
X135382000Y-117729000D01*
X131210000Y-117729000D01*
X131210000Y-117677095D01*
X131189748Y-117575280D01*
X131150021Y-117479372D01*
X131104671Y-117411500D01*
X131150021Y-117343628D01*
X131189748Y-117247720D01*
X131210000Y-117145905D01*
X131210000Y-117042095D01*
X131189748Y-116940280D01*
X131150021Y-116844372D01*
X131092348Y-116758057D01*
X131018943Y-116684652D01*
X130932628Y-116626979D01*
X130836720Y-116587252D01*
X130734905Y-116567000D01*
X130631095Y-116567000D01*
X130529280Y-116587252D01*
X130433372Y-116626979D01*
X130365500Y-116672329D01*
X130297628Y-116626979D01*
X130201720Y-116587252D01*
X130099905Y-116567000D01*
X129996095Y-116567000D01*
X129894280Y-116587252D01*
X129798372Y-116626979D01*
X129730500Y-116672329D01*
X129662628Y-116626979D01*
X129566720Y-116587252D01*
X129464905Y-116567000D01*
X129361095Y-116567000D01*
X129259280Y-116587252D01*
X129163372Y-116626979D01*
X129077057Y-116684652D01*
X129003652Y-116758057D01*
X128945979Y-116844372D01*
X128906252Y-116940280D01*
X128886000Y-117042095D01*
X128886000Y-117145905D01*
X128906252Y-117247720D01*
X128945979Y-117343628D01*
X128991329Y-117411500D01*
X128945979Y-117479372D01*
X128906252Y-117575280D01*
X128904164Y-117585778D01*
X128885286Y-117321830D01*
X128882708Y-117303894D01*
X128824932Y-117038303D01*
X128819827Y-117020917D01*
X128724842Y-116766252D01*
X128717314Y-116749769D01*
X128587053Y-116511214D01*
X128577257Y-116495971D01*
X128414372Y-116278382D01*
X128402506Y-116264687D01*
X128210313Y-116072494D01*
X128196618Y-116060628D01*
X127979029Y-115897743D01*
X127963786Y-115887947D01*
X127725231Y-115757686D01*
X127708748Y-115750158D01*
X127454083Y-115655173D01*
X127436697Y-115650068D01*
X127171106Y-115592292D01*
X127153170Y-115589714D01*
X126882060Y-115570324D01*
X126873000Y-115570000D01*
X125476000Y-115570000D01*
X125476000Y-114863397D01*
X131226000Y-114863397D01*
X131226000Y-115006603D01*
X131253938Y-115147058D01*
X131308741Y-115279364D01*
X131388302Y-115398436D01*
X131489564Y-115499698D01*
X131608636Y-115579259D01*
X131740942Y-115634062D01*
X131881397Y-115662000D01*
X132024603Y-115662000D01*
X132165058Y-115634062D01*
X132297364Y-115579259D01*
X132416436Y-115499698D01*
X132517698Y-115398436D01*
X132597259Y-115279364D01*
X132652062Y-115147058D01*
X132680000Y-115006603D01*
X132680000Y-114863397D01*
X132652062Y-114722942D01*
X132597259Y-114590636D01*
X132517698Y-114471564D01*
X132416436Y-114370302D01*
X132297364Y-114290741D01*
X132165058Y-114235938D01*
X132024603Y-114208000D01*
X131881397Y-114208000D01*
X131740942Y-114235938D01*
X131608636Y-114290741D01*
X131489564Y-114370302D01*
X131388302Y-114471564D01*
X131308741Y-114590636D01*
X131253938Y-114722942D01*
X131226000Y-114863397D01*
X125476000Y-114863397D01*
X125476000Y-107188000D01*
X128143000Y-107188000D01*
X128143000Y-108177997D01*
%TD*%
M02*
