%TF.GenerationSoftware,KiCad,Pcbnew,(5.1.6)-1*%
%TF.CreationDate,2021-05-23T01:52:29+08:00*%
%TF.ProjectId,HKIA_Tracker,484b4941-5f54-4726-9163-6b65722e6b69,rev?*%
%TF.SameCoordinates,Original*%
%TF.FileFunction,Paste,Bot*%
%TF.FilePolarity,Positive*%
%FSLAX46Y46*%
G04 Gerber Fmt 4.6, Leading zero omitted, Abs format (unit mm)*
G04 Created by KiCad (PCBNEW (5.1.6)-1) date 2021-05-23 01:52:29*
%MOMM*%
%LPD*%
G01*
G04 APERTURE LIST*
%ADD10R,1.000000X2.500000*%
%ADD11R,1.800000X1.000000*%
%ADD12R,0.550000X1.500000*%
G04 APERTURE END LIST*
D10*
%TO.C,U3*%
X140621900Y-82176300D03*
X138621900Y-82176300D03*
X136621900Y-82176300D03*
X134621900Y-82176300D03*
X132621900Y-82176300D03*
X130621900Y-82176300D03*
X128621900Y-82176300D03*
X126621900Y-82176300D03*
D11*
X125121900Y-84776300D03*
X125121900Y-86776300D03*
X125121900Y-88776300D03*
X125121900Y-90776300D03*
X125121900Y-92776300D03*
X125121900Y-94776300D03*
D10*
X126621900Y-97376300D03*
X128621900Y-97376300D03*
X130621900Y-97376300D03*
X132621900Y-97376300D03*
X134621900Y-97376300D03*
X136621900Y-97376300D03*
X138621900Y-97376300D03*
X140621900Y-97376300D03*
%TD*%
D12*
%TO.C,SW5*%
X131305900Y-77393800D03*
X134555900Y-77393800D03*
%TD*%
%TO.C,SW4*%
X143509400Y-100444300D03*
X140259400Y-100444300D03*
%TD*%
%TO.C,R24*%
G36*
G01*
X127632750Y-79496400D02*
X128145250Y-79496400D01*
G75*
G02*
X128364000Y-79715150I0J-218750D01*
G01*
X128364000Y-80152650D01*
G75*
G02*
X128145250Y-80371400I-218750J0D01*
G01*
X127632750Y-80371400D01*
G75*
G02*
X127414000Y-80152650I0J218750D01*
G01*
X127414000Y-79715150D01*
G75*
G02*
X127632750Y-79496400I218750J0D01*
G01*
G37*
G36*
G01*
X127632750Y-77921400D02*
X128145250Y-77921400D01*
G75*
G02*
X128364000Y-78140150I0J-218750D01*
G01*
X128364000Y-78577650D01*
G75*
G02*
X128145250Y-78796400I-218750J0D01*
G01*
X127632750Y-78796400D01*
G75*
G02*
X127414000Y-78577650I0J218750D01*
G01*
X127414000Y-78140150D01*
G75*
G02*
X127632750Y-77921400I218750J0D01*
G01*
G37*
%TD*%
%TO.C,R23*%
G36*
G01*
X130613900Y-79872550D02*
X130613900Y-79360050D01*
G75*
G02*
X130832650Y-79141300I218750J0D01*
G01*
X131270150Y-79141300D01*
G75*
G02*
X131488900Y-79360050I0J-218750D01*
G01*
X131488900Y-79872550D01*
G75*
G02*
X131270150Y-80091300I-218750J0D01*
G01*
X130832650Y-80091300D01*
G75*
G02*
X130613900Y-79872550I0J218750D01*
G01*
G37*
G36*
G01*
X129038900Y-79872550D02*
X129038900Y-79360050D01*
G75*
G02*
X129257650Y-79141300I218750J0D01*
G01*
X129695150Y-79141300D01*
G75*
G02*
X129913900Y-79360050I0J-218750D01*
G01*
X129913900Y-79872550D01*
G75*
G02*
X129695150Y-80091300I-218750J0D01*
G01*
X129257650Y-80091300D01*
G75*
G02*
X129038900Y-79872550I0J218750D01*
G01*
G37*
%TD*%
%TO.C,R22*%
G36*
G01*
X133215900Y-79360050D02*
X133215900Y-79872550D01*
G75*
G02*
X132997150Y-80091300I-218750J0D01*
G01*
X132559650Y-80091300D01*
G75*
G02*
X132340900Y-79872550I0J218750D01*
G01*
X132340900Y-79360050D01*
G75*
G02*
X132559650Y-79141300I218750J0D01*
G01*
X132997150Y-79141300D01*
G75*
G02*
X133215900Y-79360050I0J-218750D01*
G01*
G37*
G36*
G01*
X134790900Y-79360050D02*
X134790900Y-79872550D01*
G75*
G02*
X134572150Y-80091300I-218750J0D01*
G01*
X134134650Y-80091300D01*
G75*
G02*
X133915900Y-79872550I0J218750D01*
G01*
X133915900Y-79360050D01*
G75*
G02*
X134134650Y-79141300I218750J0D01*
G01*
X134572150Y-79141300D01*
G75*
G02*
X134790900Y-79360050I0J-218750D01*
G01*
G37*
%TD*%
%TO.C,R21*%
G36*
G01*
X134358900Y-99680050D02*
X134358900Y-100192550D01*
G75*
G02*
X134140150Y-100411300I-218750J0D01*
G01*
X133702650Y-100411300D01*
G75*
G02*
X133483900Y-100192550I0J218750D01*
G01*
X133483900Y-99680050D01*
G75*
G02*
X133702650Y-99461300I218750J0D01*
G01*
X134140150Y-99461300D01*
G75*
G02*
X134358900Y-99680050I0J-218750D01*
G01*
G37*
G36*
G01*
X135933900Y-99680050D02*
X135933900Y-100192550D01*
G75*
G02*
X135715150Y-100411300I-218750J0D01*
G01*
X135277650Y-100411300D01*
G75*
G02*
X135058900Y-100192550I0J218750D01*
G01*
X135058900Y-99680050D01*
G75*
G02*
X135277650Y-99461300I218750J0D01*
G01*
X135715150Y-99461300D01*
G75*
G02*
X135933900Y-99680050I0J-218750D01*
G01*
G37*
%TD*%
%TO.C,R20*%
G36*
G01*
X137597400Y-99680050D02*
X137597400Y-100192550D01*
G75*
G02*
X137378650Y-100411300I-218750J0D01*
G01*
X136941150Y-100411300D01*
G75*
G02*
X136722400Y-100192550I0J218750D01*
G01*
X136722400Y-99680050D01*
G75*
G02*
X136941150Y-99461300I218750J0D01*
G01*
X137378650Y-99461300D01*
G75*
G02*
X137597400Y-99680050I0J-218750D01*
G01*
G37*
G36*
G01*
X139172400Y-99680050D02*
X139172400Y-100192550D01*
G75*
G02*
X138953650Y-100411300I-218750J0D01*
G01*
X138516150Y-100411300D01*
G75*
G02*
X138297400Y-100192550I0J218750D01*
G01*
X138297400Y-99680050D01*
G75*
G02*
X138516150Y-99461300I218750J0D01*
G01*
X138953650Y-99461300D01*
G75*
G02*
X139172400Y-99680050I0J-218750D01*
G01*
G37*
%TD*%
%TO.C,C24*%
G36*
G01*
X125214900Y-99553050D02*
X125214900Y-100065550D01*
G75*
G02*
X124996150Y-100284300I-218750J0D01*
G01*
X124558650Y-100284300D01*
G75*
G02*
X124339900Y-100065550I0J218750D01*
G01*
X124339900Y-99553050D01*
G75*
G02*
X124558650Y-99334300I218750J0D01*
G01*
X124996150Y-99334300D01*
G75*
G02*
X125214900Y-99553050I0J-218750D01*
G01*
G37*
G36*
G01*
X126789900Y-99553050D02*
X126789900Y-100065550D01*
G75*
G02*
X126571150Y-100284300I-218750J0D01*
G01*
X126133650Y-100284300D01*
G75*
G02*
X125914900Y-100065550I0J218750D01*
G01*
X125914900Y-99553050D01*
G75*
G02*
X126133650Y-99334300I218750J0D01*
G01*
X126571150Y-99334300D01*
G75*
G02*
X126789900Y-99553050I0J-218750D01*
G01*
G37*
%TD*%
%TO.C,C20*%
G36*
G01*
X124987900Y-101258050D02*
X124987900Y-102170550D01*
G75*
G02*
X124744150Y-102414300I-243750J0D01*
G01*
X124256650Y-102414300D01*
G75*
G02*
X124012900Y-102170550I0J243750D01*
G01*
X124012900Y-101258050D01*
G75*
G02*
X124256650Y-101014300I243750J0D01*
G01*
X124744150Y-101014300D01*
G75*
G02*
X124987900Y-101258050I0J-243750D01*
G01*
G37*
G36*
G01*
X126862900Y-101258050D02*
X126862900Y-102170550D01*
G75*
G02*
X126619150Y-102414300I-243750J0D01*
G01*
X126131650Y-102414300D01*
G75*
G02*
X125887900Y-102170550I0J243750D01*
G01*
X125887900Y-101258050D01*
G75*
G02*
X126131650Y-101014300I243750J0D01*
G01*
X126619150Y-101014300D01*
G75*
G02*
X126862900Y-101258050I0J-243750D01*
G01*
G37*
%TD*%
%TO.C,C17*%
G36*
G01*
X127775650Y-101275300D02*
X128688150Y-101275300D01*
G75*
G02*
X128931900Y-101519050I0J-243750D01*
G01*
X128931900Y-102006550D01*
G75*
G02*
X128688150Y-102250300I-243750J0D01*
G01*
X127775650Y-102250300D01*
G75*
G02*
X127531900Y-102006550I0J243750D01*
G01*
X127531900Y-101519050D01*
G75*
G02*
X127775650Y-101275300I243750J0D01*
G01*
G37*
G36*
G01*
X127775650Y-99400300D02*
X128688150Y-99400300D01*
G75*
G02*
X128931900Y-99644050I0J-243750D01*
G01*
X128931900Y-100131550D01*
G75*
G02*
X128688150Y-100375300I-243750J0D01*
G01*
X127775650Y-100375300D01*
G75*
G02*
X127531900Y-100131550I0J243750D01*
G01*
X127531900Y-99644050D01*
G75*
G02*
X127775650Y-99400300I243750J0D01*
G01*
G37*
%TD*%
M02*
