M48
; DRILL file {KiCad (5.1.6)-1} date 05/23/21 01:53:10
; FORMAT={-:-/ absolute / inch / decimal}
; #@! TF.CreationDate,2021-05-23T01:53:10+08:00
; #@! TF.GenerationSoftware,Kicad,Pcbnew,(5.1.6)-1
FMAT,2
INCH
T1C0.0079
T2C0.0157
T3C0.0394
T4C0.1260
%
G90
G05
T1
X4.165Y-4.755
X4.165Y-4.79
X4.165Y-4.825
X4.21Y-4.755
X4.21Y-4.79
X4.21Y-4.825
X4.315Y-4.755
X4.315Y-4.79
X4.315Y-4.825
X4.36Y-4.755
X4.36Y-4.79
X4.36Y-4.825
X4.92Y-4.58
X4.92Y-4.71
X4.92Y-4.775
X5.095Y-4.61
X5.095Y-4.635
X5.095Y-4.66
X5.12Y-4.18
X5.12Y-4.61
X5.12Y-4.635
X5.12Y-4.66
X5.145Y-4.61
X5.145Y-4.635
X5.145Y-4.66
X5.205Y-4.1
X5.205Y-4.12
X5.205Y-4.14
X5.205Y-4.16
X5.205Y-4.18
X5.265Y-4.5
X5.265Y-4.52
X5.265Y-4.54
X5.265Y-4.56
X5.285Y-4.56
X5.295Y-3.745
X5.305Y-4.56
X5.315Y-4.58
X5.315Y-4.6
X5.315Y-4.62
X5.325Y-4.5
X5.325Y-4.52
X5.325Y-4.54
X5.325Y-4.56
X5.3434Y-3.8513
T2
X4.0Y-3.605
X4.0Y-3.82
X4.01Y-3.73
X4.048Y-3.815
X4.087Y-3.6467
X4.11Y-3.812
X4.115Y-3.675
X4.12Y-3.535
X4.165Y-3.805
X4.195Y-3.365
X4.22Y-3.59
X4.235Y-4.14
X4.26Y-4.19
X4.269Y-3.595
X4.269Y-3.654
X4.27Y-3.745
X4.275Y-3.525
X4.29Y-4.055
X4.355Y-4.08
X4.355Y-4.12
X4.355Y-4.16
X4.395Y-3.225
X4.395Y-3.275
X4.395Y-3.375
X4.405Y-4.26
X4.415Y-4.585
X4.415Y-4.63
X4.42Y-4.475
X4.42Y-4.53
X4.465Y-4.675
X4.54Y-4.275
X4.555Y-4.475
X4.555Y-4.53
X4.555Y-4.67
X4.555Y-4.71
X4.555Y-4.75
X4.555Y-4.79
X4.61Y-4.275
X4.6224Y-4.2377
X4.63Y-4.16
X4.66Y-4.275
X4.685Y-4.305
X4.69Y-4.58
X4.69Y-4.645
X4.69Y-4.68
X4.705Y-4.525
X4.71Y-4.61
X4.73Y-3.835
X4.74Y-4.525
X4.775Y-4.525
X4.845Y-3.39
X4.865Y-3.98
X4.865Y-4.02
X4.91Y-3.89
X4.94Y-3.225
X4.94Y-3.275
X4.96Y-4.24
X4.96Y-4.28
X4.96Y-4.32
X4.96Y-4.36
X5.02Y-3.315
X5.025Y-4.28
X5.025Y-4.32
X5.025Y-4.36
X5.04Y-4.815
X5.05Y-4.735
X5.06Y-4.39
X5.071Y-4.271
X5.071Y-4.336
X5.08Y-3.08
X5.0805Y-3.98
X5.125Y-3.04
X5.125Y-3.09
X5.125Y-3.935
X5.125Y-3.975
X5.125Y-4.39
X5.1393Y-4.23
X5.155Y-3.67
X5.155Y-4.815
X5.19Y-3.1
X5.19Y-4.39
X5.195Y-4.525
X5.215Y-3.47
X5.215Y-3.56
X5.23Y-3.935
X5.26Y-3.485
X5.26Y-3.535
X5.26Y-3.585
X5.26Y-3.685
X5.28Y-4.03
X5.28Y-4.075
X5.34Y-4.38
X5.345Y-3.145
X5.355Y-4.805
X5.37Y-4.485
X5.37Y-4.7
X5.38Y-4.38
X5.385Y-4.13
X5.385Y-4.165
X5.385Y-4.2
X5.385Y-4.235
X5.39Y-4.565
X5.39Y-4.61
X5.42Y-4.38
X5.425Y-3.96
X5.43Y-4.5
X5.445Y-4.71
X5.445Y-4.745
X5.445Y-4.78
X5.46Y-4.38
X5.47Y-4.5
X5.48Y-4.765
X5.51Y-4.5
X5.51Y-4.62
X5.51Y-4.66
X5.52Y-4.145
X5.52Y-4.19
X5.535Y-4.8
X5.55Y-4.5
X5.55Y-4.54
X5.55Y-4.58
X5.55Y-4.62
X5.55Y-4.66
X5.56Y-4.145
X5.56Y-4.19
X5.59Y-4.5
X5.59Y-4.54
X5.59Y-4.58
X5.59Y-4.62
X5.6Y-4.145
X5.6Y-4.19
X5.64Y-4.145
X5.64Y-4.19
X5.65Y-4.005
T3
X5.3985Y-3.0895
X5.4985Y-3.0895
X5.5985Y-3.0895
X5.6985Y-3.0895
X4.78Y-4.22
X4.88Y-4.22
X4.036Y-4.577
X4.036Y-4.677
X4.036Y-4.777
T4
X5.7087Y-4.7244
X4.1339Y-3.1496
T0
M30
