%TF.GenerationSoftware,KiCad,Pcbnew,(5.1.6)-1*%
%TF.CreationDate,2021-05-23T02:10:16+08:00*%
%TF.ProjectId,HKIA_Tracker,484b4941-5f54-4726-9163-6b65722e6b69,rev?*%
%TF.SameCoordinates,Original*%
%TF.FileFunction,Paste,Top*%
%TF.FilePolarity,Positive*%
%FSLAX46Y46*%
G04 Gerber Fmt 4.6, Leading zero omitted, Abs format (unit mm)*
G04 Created by KiCad (PCBNEW (5.1.6)-1) date 2021-05-23 02:10:16*
%MOMM*%
%LPD*%
G01*
G04 APERTURE LIST*
%ADD10R,1.500000X2.000000*%
%ADD11R,3.800000X2.000000*%
%ADD12R,0.300000X0.450000*%
%ADD13R,0.450000X0.300000*%
%ADD14R,1.060000X0.650000*%
%ADD15R,1.800000X0.700000*%
%ADD16R,0.700000X1.800000*%
%ADD17R,1.500000X0.550000*%
%ADD18R,2.400000X0.740000*%
%ADD19R,1.800000X2.500000*%
G04 APERTURE END LIST*
D10*
%TO.C,D7*%
X117997000Y-117246000D03*
X113397000Y-117246000D03*
X115697000Y-117246000D03*
D11*
X115697000Y-123546000D03*
%TD*%
D12*
%TO.C,U5*%
X104439500Y-91828500D03*
X103939500Y-91828500D03*
X103439500Y-91828500D03*
X104939500Y-91828500D03*
D13*
X105464500Y-93853500D03*
X105464500Y-92853500D03*
X105464500Y-93353500D03*
X105464500Y-92353500D03*
D12*
X104939500Y-94378500D03*
X104439500Y-94378500D03*
X103939500Y-94378500D03*
X103439500Y-94378500D03*
D13*
X102914500Y-92853500D03*
X102914500Y-93353500D03*
X102914500Y-93853500D03*
X102914500Y-92353500D03*
%TD*%
D14*
%TO.C,U4*%
X133421300Y-104739400D03*
X133421300Y-106639400D03*
X131221300Y-106639400D03*
X131221300Y-105689400D03*
X131221300Y-104739400D03*
%TD*%
%TO.C,U2*%
G36*
G01*
X128673000Y-116103000D02*
X128673000Y-115353000D01*
G75*
G02*
X128735500Y-115290500I62500J0D01*
G01*
X128860500Y-115290500D01*
G75*
G02*
X128923000Y-115353000I0J-62500D01*
G01*
X128923000Y-116103000D01*
G75*
G02*
X128860500Y-116165500I-62500J0D01*
G01*
X128735500Y-116165500D01*
G75*
G02*
X128673000Y-116103000I0J62500D01*
G01*
G37*
G36*
G01*
X129173000Y-116103000D02*
X129173000Y-115353000D01*
G75*
G02*
X129235500Y-115290500I62500J0D01*
G01*
X129360500Y-115290500D01*
G75*
G02*
X129423000Y-115353000I0J-62500D01*
G01*
X129423000Y-116103000D01*
G75*
G02*
X129360500Y-116165500I-62500J0D01*
G01*
X129235500Y-116165500D01*
G75*
G02*
X129173000Y-116103000I0J62500D01*
G01*
G37*
G36*
G01*
X129673000Y-116103000D02*
X129673000Y-115353000D01*
G75*
G02*
X129735500Y-115290500I62500J0D01*
G01*
X129860500Y-115290500D01*
G75*
G02*
X129923000Y-115353000I0J-62500D01*
G01*
X129923000Y-116103000D01*
G75*
G02*
X129860500Y-116165500I-62500J0D01*
G01*
X129735500Y-116165500D01*
G75*
G02*
X129673000Y-116103000I0J62500D01*
G01*
G37*
G36*
G01*
X130173000Y-116103000D02*
X130173000Y-115353000D01*
G75*
G02*
X130235500Y-115290500I62500J0D01*
G01*
X130360500Y-115290500D01*
G75*
G02*
X130423000Y-115353000I0J-62500D01*
G01*
X130423000Y-116103000D01*
G75*
G02*
X130360500Y-116165500I-62500J0D01*
G01*
X130235500Y-116165500D01*
G75*
G02*
X130173000Y-116103000I0J62500D01*
G01*
G37*
G36*
G01*
X130673000Y-116103000D02*
X130673000Y-115353000D01*
G75*
G02*
X130735500Y-115290500I62500J0D01*
G01*
X130860500Y-115290500D01*
G75*
G02*
X130923000Y-115353000I0J-62500D01*
G01*
X130923000Y-116103000D01*
G75*
G02*
X130860500Y-116165500I-62500J0D01*
G01*
X130735500Y-116165500D01*
G75*
G02*
X130673000Y-116103000I0J62500D01*
G01*
G37*
G36*
G01*
X131173000Y-116103000D02*
X131173000Y-115353000D01*
G75*
G02*
X131235500Y-115290500I62500J0D01*
G01*
X131360500Y-115290500D01*
G75*
G02*
X131423000Y-115353000I0J-62500D01*
G01*
X131423000Y-116103000D01*
G75*
G02*
X131360500Y-116165500I-62500J0D01*
G01*
X131235500Y-116165500D01*
G75*
G02*
X131173000Y-116103000I0J62500D01*
G01*
G37*
G36*
G01*
X131548000Y-116478000D02*
X131548000Y-116353000D01*
G75*
G02*
X131610500Y-116290500I62500J0D01*
G01*
X132360500Y-116290500D01*
G75*
G02*
X132423000Y-116353000I0J-62500D01*
G01*
X132423000Y-116478000D01*
G75*
G02*
X132360500Y-116540500I-62500J0D01*
G01*
X131610500Y-116540500D01*
G75*
G02*
X131548000Y-116478000I0J62500D01*
G01*
G37*
G36*
G01*
X131548000Y-116978000D02*
X131548000Y-116853000D01*
G75*
G02*
X131610500Y-116790500I62500J0D01*
G01*
X132360500Y-116790500D01*
G75*
G02*
X132423000Y-116853000I0J-62500D01*
G01*
X132423000Y-116978000D01*
G75*
G02*
X132360500Y-117040500I-62500J0D01*
G01*
X131610500Y-117040500D01*
G75*
G02*
X131548000Y-116978000I0J62500D01*
G01*
G37*
G36*
G01*
X131548000Y-117478000D02*
X131548000Y-117353000D01*
G75*
G02*
X131610500Y-117290500I62500J0D01*
G01*
X132360500Y-117290500D01*
G75*
G02*
X132423000Y-117353000I0J-62500D01*
G01*
X132423000Y-117478000D01*
G75*
G02*
X132360500Y-117540500I-62500J0D01*
G01*
X131610500Y-117540500D01*
G75*
G02*
X131548000Y-117478000I0J62500D01*
G01*
G37*
G36*
G01*
X131548000Y-117978000D02*
X131548000Y-117853000D01*
G75*
G02*
X131610500Y-117790500I62500J0D01*
G01*
X132360500Y-117790500D01*
G75*
G02*
X132423000Y-117853000I0J-62500D01*
G01*
X132423000Y-117978000D01*
G75*
G02*
X132360500Y-118040500I-62500J0D01*
G01*
X131610500Y-118040500D01*
G75*
G02*
X131548000Y-117978000I0J62500D01*
G01*
G37*
G36*
G01*
X131548000Y-118478000D02*
X131548000Y-118353000D01*
G75*
G02*
X131610500Y-118290500I62500J0D01*
G01*
X132360500Y-118290500D01*
G75*
G02*
X132423000Y-118353000I0J-62500D01*
G01*
X132423000Y-118478000D01*
G75*
G02*
X132360500Y-118540500I-62500J0D01*
G01*
X131610500Y-118540500D01*
G75*
G02*
X131548000Y-118478000I0J62500D01*
G01*
G37*
G36*
G01*
X131548000Y-118978000D02*
X131548000Y-118853000D01*
G75*
G02*
X131610500Y-118790500I62500J0D01*
G01*
X132360500Y-118790500D01*
G75*
G02*
X132423000Y-118853000I0J-62500D01*
G01*
X132423000Y-118978000D01*
G75*
G02*
X132360500Y-119040500I-62500J0D01*
G01*
X131610500Y-119040500D01*
G75*
G02*
X131548000Y-118978000I0J62500D01*
G01*
G37*
G36*
G01*
X131173000Y-119978000D02*
X131173000Y-119228000D01*
G75*
G02*
X131235500Y-119165500I62500J0D01*
G01*
X131360500Y-119165500D01*
G75*
G02*
X131423000Y-119228000I0J-62500D01*
G01*
X131423000Y-119978000D01*
G75*
G02*
X131360500Y-120040500I-62500J0D01*
G01*
X131235500Y-120040500D01*
G75*
G02*
X131173000Y-119978000I0J62500D01*
G01*
G37*
G36*
G01*
X130673000Y-119978000D02*
X130673000Y-119228000D01*
G75*
G02*
X130735500Y-119165500I62500J0D01*
G01*
X130860500Y-119165500D01*
G75*
G02*
X130923000Y-119228000I0J-62500D01*
G01*
X130923000Y-119978000D01*
G75*
G02*
X130860500Y-120040500I-62500J0D01*
G01*
X130735500Y-120040500D01*
G75*
G02*
X130673000Y-119978000I0J62500D01*
G01*
G37*
G36*
G01*
X130173000Y-119978000D02*
X130173000Y-119228000D01*
G75*
G02*
X130235500Y-119165500I62500J0D01*
G01*
X130360500Y-119165500D01*
G75*
G02*
X130423000Y-119228000I0J-62500D01*
G01*
X130423000Y-119978000D01*
G75*
G02*
X130360500Y-120040500I-62500J0D01*
G01*
X130235500Y-120040500D01*
G75*
G02*
X130173000Y-119978000I0J62500D01*
G01*
G37*
G36*
G01*
X129673000Y-119978000D02*
X129673000Y-119228000D01*
G75*
G02*
X129735500Y-119165500I62500J0D01*
G01*
X129860500Y-119165500D01*
G75*
G02*
X129923000Y-119228000I0J-62500D01*
G01*
X129923000Y-119978000D01*
G75*
G02*
X129860500Y-120040500I-62500J0D01*
G01*
X129735500Y-120040500D01*
G75*
G02*
X129673000Y-119978000I0J62500D01*
G01*
G37*
G36*
G01*
X129173000Y-119978000D02*
X129173000Y-119228000D01*
G75*
G02*
X129235500Y-119165500I62500J0D01*
G01*
X129360500Y-119165500D01*
G75*
G02*
X129423000Y-119228000I0J-62500D01*
G01*
X129423000Y-119978000D01*
G75*
G02*
X129360500Y-120040500I-62500J0D01*
G01*
X129235500Y-120040500D01*
G75*
G02*
X129173000Y-119978000I0J62500D01*
G01*
G37*
G36*
G01*
X128673000Y-119978000D02*
X128673000Y-119228000D01*
G75*
G02*
X128735500Y-119165500I62500J0D01*
G01*
X128860500Y-119165500D01*
G75*
G02*
X128923000Y-119228000I0J-62500D01*
G01*
X128923000Y-119978000D01*
G75*
G02*
X128860500Y-120040500I-62500J0D01*
G01*
X128735500Y-120040500D01*
G75*
G02*
X128673000Y-119978000I0J62500D01*
G01*
G37*
G36*
G01*
X127673000Y-118978000D02*
X127673000Y-118853000D01*
G75*
G02*
X127735500Y-118790500I62500J0D01*
G01*
X128485500Y-118790500D01*
G75*
G02*
X128548000Y-118853000I0J-62500D01*
G01*
X128548000Y-118978000D01*
G75*
G02*
X128485500Y-119040500I-62500J0D01*
G01*
X127735500Y-119040500D01*
G75*
G02*
X127673000Y-118978000I0J62500D01*
G01*
G37*
G36*
G01*
X127673000Y-118478000D02*
X127673000Y-118353000D01*
G75*
G02*
X127735500Y-118290500I62500J0D01*
G01*
X128485500Y-118290500D01*
G75*
G02*
X128548000Y-118353000I0J-62500D01*
G01*
X128548000Y-118478000D01*
G75*
G02*
X128485500Y-118540500I-62500J0D01*
G01*
X127735500Y-118540500D01*
G75*
G02*
X127673000Y-118478000I0J62500D01*
G01*
G37*
G36*
G01*
X127673000Y-117978000D02*
X127673000Y-117853000D01*
G75*
G02*
X127735500Y-117790500I62500J0D01*
G01*
X128485500Y-117790500D01*
G75*
G02*
X128548000Y-117853000I0J-62500D01*
G01*
X128548000Y-117978000D01*
G75*
G02*
X128485500Y-118040500I-62500J0D01*
G01*
X127735500Y-118040500D01*
G75*
G02*
X127673000Y-117978000I0J62500D01*
G01*
G37*
G36*
G01*
X127673000Y-117478000D02*
X127673000Y-117353000D01*
G75*
G02*
X127735500Y-117290500I62500J0D01*
G01*
X128485500Y-117290500D01*
G75*
G02*
X128548000Y-117353000I0J-62500D01*
G01*
X128548000Y-117478000D01*
G75*
G02*
X128485500Y-117540500I-62500J0D01*
G01*
X127735500Y-117540500D01*
G75*
G02*
X127673000Y-117478000I0J62500D01*
G01*
G37*
G36*
G01*
X127673000Y-116978000D02*
X127673000Y-116853000D01*
G75*
G02*
X127735500Y-116790500I62500J0D01*
G01*
X128485500Y-116790500D01*
G75*
G02*
X128548000Y-116853000I0J-62500D01*
G01*
X128548000Y-116978000D01*
G75*
G02*
X128485500Y-117040500I-62500J0D01*
G01*
X127735500Y-117040500D01*
G75*
G02*
X127673000Y-116978000I0J62500D01*
G01*
G37*
G36*
G01*
X127673000Y-116478000D02*
X127673000Y-116353000D01*
G75*
G02*
X127735500Y-116290500I62500J0D01*
G01*
X128485500Y-116290500D01*
G75*
G02*
X128548000Y-116353000I0J-62500D01*
G01*
X128548000Y-116478000D01*
G75*
G02*
X128485500Y-116540500I-62500J0D01*
G01*
X127735500Y-116540500D01*
G75*
G02*
X127673000Y-116478000I0J62500D01*
G01*
G37*
G36*
G01*
X130158000Y-118473000D02*
X130158000Y-118008000D01*
G75*
G02*
X130390500Y-117775500I232500J0D01*
G01*
X130855500Y-117775500D01*
G75*
G02*
X131088000Y-118008000I0J-232500D01*
G01*
X131088000Y-118473000D01*
G75*
G02*
X130855500Y-118705500I-232500J0D01*
G01*
X130390500Y-118705500D01*
G75*
G02*
X130158000Y-118473000I0J232500D01*
G01*
G37*
G36*
G01*
X130158000Y-117323000D02*
X130158000Y-116858000D01*
G75*
G02*
X130390500Y-116625500I232500J0D01*
G01*
X130855500Y-116625500D01*
G75*
G02*
X131088000Y-116858000I0J-232500D01*
G01*
X131088000Y-117323000D01*
G75*
G02*
X130855500Y-117555500I-232500J0D01*
G01*
X130390500Y-117555500D01*
G75*
G02*
X130158000Y-117323000I0J232500D01*
G01*
G37*
G36*
G01*
X129008000Y-118473000D02*
X129008000Y-118008000D01*
G75*
G02*
X129240500Y-117775500I232500J0D01*
G01*
X129705500Y-117775500D01*
G75*
G02*
X129938000Y-118008000I0J-232500D01*
G01*
X129938000Y-118473000D01*
G75*
G02*
X129705500Y-118705500I-232500J0D01*
G01*
X129240500Y-118705500D01*
G75*
G02*
X129008000Y-118473000I0J232500D01*
G01*
G37*
G36*
G01*
X129008000Y-117323000D02*
X129008000Y-116858000D01*
G75*
G02*
X129240500Y-116625500I232500J0D01*
G01*
X129705500Y-116625500D01*
G75*
G02*
X129938000Y-116858000I0J-232500D01*
G01*
X129938000Y-117323000D01*
G75*
G02*
X129705500Y-117555500I-232500J0D01*
G01*
X129240500Y-117555500D01*
G75*
G02*
X129008000Y-117323000I0J232500D01*
G01*
G37*
%TD*%
D15*
%TO.C,U1*%
X127545800Y-81942000D03*
X127545800Y-83212000D03*
X127545800Y-85752000D03*
X127545800Y-87022000D03*
X127545800Y-88292000D03*
X127545800Y-89562000D03*
X127545800Y-90832000D03*
X127545800Y-92102000D03*
X127545800Y-93372000D03*
X127545800Y-94642000D03*
X127545800Y-95912000D03*
X127545800Y-97182000D03*
X127545800Y-98452000D03*
X127545800Y-99722000D03*
X127545800Y-100992000D03*
X127545800Y-102262000D03*
D16*
X125780800Y-104012000D03*
X124510800Y-104012000D03*
X123240800Y-104012000D03*
X121970800Y-104012000D03*
X120700800Y-104012000D03*
X119430800Y-104012000D03*
X118160800Y-104012000D03*
X116890800Y-104012000D03*
X115620800Y-104012000D03*
X114350800Y-104012000D03*
X113080800Y-104012000D03*
X111810800Y-104012000D03*
D15*
X110045800Y-102262000D03*
X110045800Y-100992000D03*
X110045800Y-99722000D03*
X110045800Y-98452000D03*
X110045800Y-97182000D03*
X110045800Y-95912000D03*
X110045800Y-94642000D03*
X110045800Y-93372000D03*
X110045800Y-92102000D03*
X110045800Y-90832000D03*
X110045800Y-89562000D03*
X110045800Y-88292000D03*
X110045800Y-87022000D03*
X110045800Y-85752000D03*
X110045800Y-83212000D03*
X110045800Y-81942000D03*
%TD*%
D17*
%TO.C,SW3*%
X130987800Y-88112000D03*
X130987800Y-84862000D03*
%TD*%
%TO.C,SW2*%
X130987800Y-80480500D03*
X130987800Y-83730500D03*
%TD*%
%TO.C,SW1*%
X130987800Y-94081000D03*
X130987800Y-90831000D03*
%TD*%
%TO.C,R29*%
G36*
G01*
X130431250Y-112743500D02*
X129918750Y-112743500D01*
G75*
G02*
X129700000Y-112524750I0J218750D01*
G01*
X129700000Y-112087250D01*
G75*
G02*
X129918750Y-111868500I218750J0D01*
G01*
X130431250Y-111868500D01*
G75*
G02*
X130650000Y-112087250I0J-218750D01*
G01*
X130650000Y-112524750D01*
G75*
G02*
X130431250Y-112743500I-218750J0D01*
G01*
G37*
G36*
G01*
X130431250Y-114318500D02*
X129918750Y-114318500D01*
G75*
G02*
X129700000Y-114099750I0J218750D01*
G01*
X129700000Y-113662250D01*
G75*
G02*
X129918750Y-113443500I218750J0D01*
G01*
X130431250Y-113443500D01*
G75*
G02*
X130650000Y-113662250I0J-218750D01*
G01*
X130650000Y-114099750D01*
G75*
G02*
X130431250Y-114318500I-218750J0D01*
G01*
G37*
%TD*%
%TO.C,R28*%
G36*
G01*
X130193300Y-108227150D02*
X130193300Y-108739650D01*
G75*
G02*
X129974550Y-108958400I-218750J0D01*
G01*
X129537050Y-108958400D01*
G75*
G02*
X129318300Y-108739650I0J218750D01*
G01*
X129318300Y-108227150D01*
G75*
G02*
X129537050Y-108008400I218750J0D01*
G01*
X129974550Y-108008400D01*
G75*
G02*
X130193300Y-108227150I0J-218750D01*
G01*
G37*
G36*
G01*
X131768300Y-108227150D02*
X131768300Y-108739650D01*
G75*
G02*
X131549550Y-108958400I-218750J0D01*
G01*
X131112050Y-108958400D01*
G75*
G02*
X130893300Y-108739650I0J218750D01*
G01*
X130893300Y-108227150D01*
G75*
G02*
X131112050Y-108008400I218750J0D01*
G01*
X131549550Y-108008400D01*
G75*
G02*
X131768300Y-108227150I0J-218750D01*
G01*
G37*
%TD*%
%TO.C,R27*%
G36*
G01*
X133368300Y-108227150D02*
X133368300Y-108739650D01*
G75*
G02*
X133149550Y-108958400I-218750J0D01*
G01*
X132712050Y-108958400D01*
G75*
G02*
X132493300Y-108739650I0J218750D01*
G01*
X132493300Y-108227150D01*
G75*
G02*
X132712050Y-108008400I218750J0D01*
G01*
X133149550Y-108008400D01*
G75*
G02*
X133368300Y-108227150I0J-218750D01*
G01*
G37*
G36*
G01*
X134943300Y-108227150D02*
X134943300Y-108739650D01*
G75*
G02*
X134724550Y-108958400I-218750J0D01*
G01*
X134287050Y-108958400D01*
G75*
G02*
X134068300Y-108739650I0J218750D01*
G01*
X134068300Y-108227150D01*
G75*
G02*
X134287050Y-108008400I218750J0D01*
G01*
X134724550Y-108008400D01*
G75*
G02*
X134943300Y-108227150I0J-218750D01*
G01*
G37*
%TD*%
%TO.C,R26*%
G36*
G01*
X104806000Y-95565250D02*
X104806000Y-96077750D01*
G75*
G02*
X104587250Y-96296500I-218750J0D01*
G01*
X104149750Y-96296500D01*
G75*
G02*
X103931000Y-96077750I0J218750D01*
G01*
X103931000Y-95565250D01*
G75*
G02*
X104149750Y-95346500I218750J0D01*
G01*
X104587250Y-95346500D01*
G75*
G02*
X104806000Y-95565250I0J-218750D01*
G01*
G37*
G36*
G01*
X106381000Y-95565250D02*
X106381000Y-96077750D01*
G75*
G02*
X106162250Y-96296500I-218750J0D01*
G01*
X105724750Y-96296500D01*
G75*
G02*
X105506000Y-96077750I0J218750D01*
G01*
X105506000Y-95565250D01*
G75*
G02*
X105724750Y-95346500I218750J0D01*
G01*
X106162250Y-95346500D01*
G75*
G02*
X106381000Y-95565250I0J-218750D01*
G01*
G37*
%TD*%
%TO.C,R25*%
G36*
G01*
X102394500Y-96077750D02*
X102394500Y-95565250D01*
G75*
G02*
X102613250Y-95346500I218750J0D01*
G01*
X103050750Y-95346500D01*
G75*
G02*
X103269500Y-95565250I0J-218750D01*
G01*
X103269500Y-96077750D01*
G75*
G02*
X103050750Y-96296500I-218750J0D01*
G01*
X102613250Y-96296500D01*
G75*
G02*
X102394500Y-96077750I0J218750D01*
G01*
G37*
G36*
G01*
X100819500Y-96077750D02*
X100819500Y-95565250D01*
G75*
G02*
X101038250Y-95346500I218750J0D01*
G01*
X101475750Y-95346500D01*
G75*
G02*
X101694500Y-95565250I0J-218750D01*
G01*
X101694500Y-96077750D01*
G75*
G02*
X101475750Y-96296500I-218750J0D01*
G01*
X101038250Y-96296500D01*
G75*
G02*
X100819500Y-96077750I0J218750D01*
G01*
G37*
%TD*%
%TO.C,R19*%
G36*
G01*
X121316000Y-117790250D02*
X121316000Y-118302750D01*
G75*
G02*
X121097250Y-118521500I-218750J0D01*
G01*
X120659750Y-118521500D01*
G75*
G02*
X120441000Y-118302750I0J218750D01*
G01*
X120441000Y-117790250D01*
G75*
G02*
X120659750Y-117571500I218750J0D01*
G01*
X121097250Y-117571500D01*
G75*
G02*
X121316000Y-117790250I0J-218750D01*
G01*
G37*
G36*
G01*
X122891000Y-117790250D02*
X122891000Y-118302750D01*
G75*
G02*
X122672250Y-118521500I-218750J0D01*
G01*
X122234750Y-118521500D01*
G75*
G02*
X122016000Y-118302750I0J218750D01*
G01*
X122016000Y-117790250D01*
G75*
G02*
X122234750Y-117571500I218750J0D01*
G01*
X122672250Y-117571500D01*
G75*
G02*
X122891000Y-117790250I0J-218750D01*
G01*
G37*
%TD*%
%TO.C,R18*%
G36*
G01*
X122016000Y-119953750D02*
X122016000Y-119441250D01*
G75*
G02*
X122234750Y-119222500I218750J0D01*
G01*
X122672250Y-119222500D01*
G75*
G02*
X122891000Y-119441250I0J-218750D01*
G01*
X122891000Y-119953750D01*
G75*
G02*
X122672250Y-120172500I-218750J0D01*
G01*
X122234750Y-120172500D01*
G75*
G02*
X122016000Y-119953750I0J218750D01*
G01*
G37*
G36*
G01*
X120441000Y-119953750D02*
X120441000Y-119441250D01*
G75*
G02*
X120659750Y-119222500I218750J0D01*
G01*
X121097250Y-119222500D01*
G75*
G02*
X121316000Y-119441250I0J-218750D01*
G01*
X121316000Y-119953750D01*
G75*
G02*
X121097250Y-120172500I-218750J0D01*
G01*
X120659750Y-120172500D01*
G75*
G02*
X120441000Y-119953750I0J218750D01*
G01*
G37*
%TD*%
%TO.C,R17*%
G36*
G01*
X125191000Y-118315450D02*
X125191000Y-117802950D01*
G75*
G02*
X125409750Y-117584200I218750J0D01*
G01*
X125847250Y-117584200D01*
G75*
G02*
X126066000Y-117802950I0J-218750D01*
G01*
X126066000Y-118315450D01*
G75*
G02*
X125847250Y-118534200I-218750J0D01*
G01*
X125409750Y-118534200D01*
G75*
G02*
X125191000Y-118315450I0J218750D01*
G01*
G37*
G36*
G01*
X123616000Y-118315450D02*
X123616000Y-117802950D01*
G75*
G02*
X123834750Y-117584200I218750J0D01*
G01*
X124272250Y-117584200D01*
G75*
G02*
X124491000Y-117802950I0J-218750D01*
G01*
X124491000Y-118315450D01*
G75*
G02*
X124272250Y-118534200I-218750J0D01*
G01*
X123834750Y-118534200D01*
G75*
G02*
X123616000Y-118315450I0J218750D01*
G01*
G37*
%TD*%
%TO.C,R16*%
G36*
G01*
X122016000Y-116651750D02*
X122016000Y-116139250D01*
G75*
G02*
X122234750Y-115920500I218750J0D01*
G01*
X122672250Y-115920500D01*
G75*
G02*
X122891000Y-116139250I0J-218750D01*
G01*
X122891000Y-116651750D01*
G75*
G02*
X122672250Y-116870500I-218750J0D01*
G01*
X122234750Y-116870500D01*
G75*
G02*
X122016000Y-116651750I0J218750D01*
G01*
G37*
G36*
G01*
X120441000Y-116651750D02*
X120441000Y-116139250D01*
G75*
G02*
X120659750Y-115920500I218750J0D01*
G01*
X121097250Y-115920500D01*
G75*
G02*
X121316000Y-116139250I0J-218750D01*
G01*
X121316000Y-116651750D01*
G75*
G02*
X121097250Y-116870500I-218750J0D01*
G01*
X120659750Y-116870500D01*
G75*
G02*
X120441000Y-116651750I0J218750D01*
G01*
G37*
%TD*%
%TO.C,R15*%
G36*
G01*
X128780250Y-112743500D02*
X128267750Y-112743500D01*
G75*
G02*
X128049000Y-112524750I0J218750D01*
G01*
X128049000Y-112087250D01*
G75*
G02*
X128267750Y-111868500I218750J0D01*
G01*
X128780250Y-111868500D01*
G75*
G02*
X128999000Y-112087250I0J-218750D01*
G01*
X128999000Y-112524750D01*
G75*
G02*
X128780250Y-112743500I-218750J0D01*
G01*
G37*
G36*
G01*
X128780250Y-114318500D02*
X128267750Y-114318500D01*
G75*
G02*
X128049000Y-114099750I0J218750D01*
G01*
X128049000Y-113662250D01*
G75*
G02*
X128267750Y-113443500I218750J0D01*
G01*
X128780250Y-113443500D01*
G75*
G02*
X128999000Y-113662250I0J-218750D01*
G01*
X128999000Y-114099750D01*
G75*
G02*
X128780250Y-114318500I-218750J0D01*
G01*
G37*
%TD*%
%TO.C,R14*%
G36*
G01*
X132082250Y-112743500D02*
X131569750Y-112743500D01*
G75*
G02*
X131351000Y-112524750I0J218750D01*
G01*
X131351000Y-112087250D01*
G75*
G02*
X131569750Y-111868500I218750J0D01*
G01*
X132082250Y-111868500D01*
G75*
G02*
X132301000Y-112087250I0J-218750D01*
G01*
X132301000Y-112524750D01*
G75*
G02*
X132082250Y-112743500I-218750J0D01*
G01*
G37*
G36*
G01*
X132082250Y-114318500D02*
X131569750Y-114318500D01*
G75*
G02*
X131351000Y-114099750I0J218750D01*
G01*
X131351000Y-113662250D01*
G75*
G02*
X131569750Y-113443500I218750J0D01*
G01*
X132082250Y-113443500D01*
G75*
G02*
X132301000Y-113662250I0J-218750D01*
G01*
X132301000Y-114099750D01*
G75*
G02*
X132082250Y-114318500I-218750J0D01*
G01*
G37*
%TD*%
%TO.C,R13*%
G36*
G01*
X125478250Y-112743500D02*
X124965750Y-112743500D01*
G75*
G02*
X124747000Y-112524750I0J218750D01*
G01*
X124747000Y-112087250D01*
G75*
G02*
X124965750Y-111868500I218750J0D01*
G01*
X125478250Y-111868500D01*
G75*
G02*
X125697000Y-112087250I0J-218750D01*
G01*
X125697000Y-112524750D01*
G75*
G02*
X125478250Y-112743500I-218750J0D01*
G01*
G37*
G36*
G01*
X125478250Y-114318500D02*
X124965750Y-114318500D01*
G75*
G02*
X124747000Y-114099750I0J218750D01*
G01*
X124747000Y-113662250D01*
G75*
G02*
X124965750Y-113443500I218750J0D01*
G01*
X125478250Y-113443500D01*
G75*
G02*
X125697000Y-113662250I0J-218750D01*
G01*
X125697000Y-114099750D01*
G75*
G02*
X125478250Y-114318500I-218750J0D01*
G01*
G37*
%TD*%
%TO.C,R12*%
G36*
G01*
X127129250Y-112743500D02*
X126616750Y-112743500D01*
G75*
G02*
X126398000Y-112524750I0J218750D01*
G01*
X126398000Y-112087250D01*
G75*
G02*
X126616750Y-111868500I218750J0D01*
G01*
X127129250Y-111868500D01*
G75*
G02*
X127348000Y-112087250I0J-218750D01*
G01*
X127348000Y-112524750D01*
G75*
G02*
X127129250Y-112743500I-218750J0D01*
G01*
G37*
G36*
G01*
X127129250Y-114318500D02*
X126616750Y-114318500D01*
G75*
G02*
X126398000Y-114099750I0J218750D01*
G01*
X126398000Y-113662250D01*
G75*
G02*
X126616750Y-113443500I218750J0D01*
G01*
X127129250Y-113443500D01*
G75*
G02*
X127348000Y-113662250I0J-218750D01*
G01*
X127348000Y-114099750D01*
G75*
G02*
X127129250Y-114318500I-218750J0D01*
G01*
G37*
%TD*%
%TO.C,R11*%
G36*
G01*
X122016000Y-121604750D02*
X122016000Y-121092250D01*
G75*
G02*
X122234750Y-120873500I218750J0D01*
G01*
X122672250Y-120873500D01*
G75*
G02*
X122891000Y-121092250I0J-218750D01*
G01*
X122891000Y-121604750D01*
G75*
G02*
X122672250Y-121823500I-218750J0D01*
G01*
X122234750Y-121823500D01*
G75*
G02*
X122016000Y-121604750I0J218750D01*
G01*
G37*
G36*
G01*
X120441000Y-121604750D02*
X120441000Y-121092250D01*
G75*
G02*
X120659750Y-120873500I218750J0D01*
G01*
X121097250Y-120873500D01*
G75*
G02*
X121316000Y-121092250I0J-218750D01*
G01*
X121316000Y-121604750D01*
G75*
G02*
X121097250Y-121823500I-218750J0D01*
G01*
X120659750Y-121823500D01*
G75*
G02*
X120441000Y-121604750I0J218750D01*
G01*
G37*
%TD*%
%TO.C,R10*%
G36*
G01*
X125191000Y-119953750D02*
X125191000Y-119441250D01*
G75*
G02*
X125409750Y-119222500I218750J0D01*
G01*
X125847250Y-119222500D01*
G75*
G02*
X126066000Y-119441250I0J-218750D01*
G01*
X126066000Y-119953750D01*
G75*
G02*
X125847250Y-120172500I-218750J0D01*
G01*
X125409750Y-120172500D01*
G75*
G02*
X125191000Y-119953750I0J218750D01*
G01*
G37*
G36*
G01*
X123616000Y-119953750D02*
X123616000Y-119441250D01*
G75*
G02*
X123834750Y-119222500I218750J0D01*
G01*
X124272250Y-119222500D01*
G75*
G02*
X124491000Y-119441250I0J-218750D01*
G01*
X124491000Y-119953750D01*
G75*
G02*
X124272250Y-120172500I-218750J0D01*
G01*
X123834750Y-120172500D01*
G75*
G02*
X123616000Y-119953750I0J218750D01*
G01*
G37*
%TD*%
%TO.C,R9*%
G36*
G01*
X125191000Y-116651750D02*
X125191000Y-116139250D01*
G75*
G02*
X125409750Y-115920500I218750J0D01*
G01*
X125847250Y-115920500D01*
G75*
G02*
X126066000Y-116139250I0J-218750D01*
G01*
X126066000Y-116651750D01*
G75*
G02*
X125847250Y-116870500I-218750J0D01*
G01*
X125409750Y-116870500D01*
G75*
G02*
X125191000Y-116651750I0J218750D01*
G01*
G37*
G36*
G01*
X123616000Y-116651750D02*
X123616000Y-116139250D01*
G75*
G02*
X123834750Y-115920500I218750J0D01*
G01*
X124272250Y-115920500D01*
G75*
G02*
X124491000Y-116139250I0J-218750D01*
G01*
X124491000Y-116651750D01*
G75*
G02*
X124272250Y-116870500I-218750J0D01*
G01*
X123834750Y-116870500D01*
G75*
G02*
X123616000Y-116651750I0J218750D01*
G01*
G37*
%TD*%
%TO.C,R8*%
G36*
G01*
X130866400Y-95374750D02*
X130866400Y-95887250D01*
G75*
G02*
X130647650Y-96106000I-218750J0D01*
G01*
X130210150Y-96106000D01*
G75*
G02*
X129991400Y-95887250I0J218750D01*
G01*
X129991400Y-95374750D01*
G75*
G02*
X130210150Y-95156000I218750J0D01*
G01*
X130647650Y-95156000D01*
G75*
G02*
X130866400Y-95374750I0J-218750D01*
G01*
G37*
G36*
G01*
X132441400Y-95374750D02*
X132441400Y-95887250D01*
G75*
G02*
X132222650Y-96106000I-218750J0D01*
G01*
X131785150Y-96106000D01*
G75*
G02*
X131566400Y-95887250I0J218750D01*
G01*
X131566400Y-95374750D01*
G75*
G02*
X131785150Y-95156000I218750J0D01*
G01*
X132222650Y-95156000D01*
G75*
G02*
X132441400Y-95374750I0J-218750D01*
G01*
G37*
%TD*%
%TO.C,R7*%
G36*
G01*
X130866400Y-97025750D02*
X130866400Y-97538250D01*
G75*
G02*
X130647650Y-97757000I-218750J0D01*
G01*
X130210150Y-97757000D01*
G75*
G02*
X129991400Y-97538250I0J218750D01*
G01*
X129991400Y-97025750D01*
G75*
G02*
X130210150Y-96807000I218750J0D01*
G01*
X130647650Y-96807000D01*
G75*
G02*
X130866400Y-97025750I0J-218750D01*
G01*
G37*
G36*
G01*
X132441400Y-97025750D02*
X132441400Y-97538250D01*
G75*
G02*
X132222650Y-97757000I-218750J0D01*
G01*
X131785150Y-97757000D01*
G75*
G02*
X131566400Y-97538250I0J218750D01*
G01*
X131566400Y-97025750D01*
G75*
G02*
X131785150Y-96807000I218750J0D01*
G01*
X132222650Y-96807000D01*
G75*
G02*
X132441400Y-97025750I0J-218750D01*
G01*
G37*
%TD*%
%TO.C,R6*%
G36*
G01*
X114297750Y-107284000D02*
X114810250Y-107284000D01*
G75*
G02*
X115029000Y-107502750I0J-218750D01*
G01*
X115029000Y-107940250D01*
G75*
G02*
X114810250Y-108159000I-218750J0D01*
G01*
X114297750Y-108159000D01*
G75*
G02*
X114079000Y-107940250I0J218750D01*
G01*
X114079000Y-107502750D01*
G75*
G02*
X114297750Y-107284000I218750J0D01*
G01*
G37*
G36*
G01*
X114297750Y-105709000D02*
X114810250Y-105709000D01*
G75*
G02*
X115029000Y-105927750I0J-218750D01*
G01*
X115029000Y-106365250D01*
G75*
G02*
X114810250Y-106584000I-218750J0D01*
G01*
X114297750Y-106584000D01*
G75*
G02*
X114079000Y-106365250I0J218750D01*
G01*
X114079000Y-105927750D01*
G75*
G02*
X114297750Y-105709000I218750J0D01*
G01*
G37*
%TD*%
%TO.C,R5*%
G36*
G01*
X115948750Y-107284000D02*
X116461250Y-107284000D01*
G75*
G02*
X116680000Y-107502750I0J-218750D01*
G01*
X116680000Y-107940250D01*
G75*
G02*
X116461250Y-108159000I-218750J0D01*
G01*
X115948750Y-108159000D01*
G75*
G02*
X115730000Y-107940250I0J218750D01*
G01*
X115730000Y-107502750D01*
G75*
G02*
X115948750Y-107284000I218750J0D01*
G01*
G37*
G36*
G01*
X115948750Y-105709000D02*
X116461250Y-105709000D01*
G75*
G02*
X116680000Y-105927750I0J-218750D01*
G01*
X116680000Y-106365250D01*
G75*
G02*
X116461250Y-106584000I-218750J0D01*
G01*
X115948750Y-106584000D01*
G75*
G02*
X115730000Y-106365250I0J218750D01*
G01*
X115730000Y-105927750D01*
G75*
G02*
X115948750Y-105709000I218750J0D01*
G01*
G37*
%TD*%
%TO.C,R4*%
G36*
G01*
X125191000Y-121604750D02*
X125191000Y-121092250D01*
G75*
G02*
X125409750Y-120873500I218750J0D01*
G01*
X125847250Y-120873500D01*
G75*
G02*
X126066000Y-121092250I0J-218750D01*
G01*
X126066000Y-121604750D01*
G75*
G02*
X125847250Y-121823500I-218750J0D01*
G01*
X125409750Y-121823500D01*
G75*
G02*
X125191000Y-121604750I0J218750D01*
G01*
G37*
G36*
G01*
X123616000Y-121604750D02*
X123616000Y-121092250D01*
G75*
G02*
X123834750Y-120873500I218750J0D01*
G01*
X124272250Y-120873500D01*
G75*
G02*
X124491000Y-121092250I0J-218750D01*
G01*
X124491000Y-121604750D01*
G75*
G02*
X124272250Y-121823500I-218750J0D01*
G01*
X123834750Y-121823500D01*
G75*
G02*
X123616000Y-121604750I0J218750D01*
G01*
G37*
%TD*%
%TO.C,R3*%
G36*
G01*
X130045750Y-122460500D02*
X130558250Y-122460500D01*
G75*
G02*
X130777000Y-122679250I0J-218750D01*
G01*
X130777000Y-123116750D01*
G75*
G02*
X130558250Y-123335500I-218750J0D01*
G01*
X130045750Y-123335500D01*
G75*
G02*
X129827000Y-123116750I0J218750D01*
G01*
X129827000Y-122679250D01*
G75*
G02*
X130045750Y-122460500I218750J0D01*
G01*
G37*
G36*
G01*
X130045750Y-120885500D02*
X130558250Y-120885500D01*
G75*
G02*
X130777000Y-121104250I0J-218750D01*
G01*
X130777000Y-121541750D01*
G75*
G02*
X130558250Y-121760500I-218750J0D01*
G01*
X130045750Y-121760500D01*
G75*
G02*
X129827000Y-121541750I0J218750D01*
G01*
X129827000Y-121104250D01*
G75*
G02*
X130045750Y-120885500I218750J0D01*
G01*
G37*
%TD*%
%TO.C,R2*%
G36*
G01*
X132209250Y-121760500D02*
X131696750Y-121760500D01*
G75*
G02*
X131478000Y-121541750I0J218750D01*
G01*
X131478000Y-121104250D01*
G75*
G02*
X131696750Y-120885500I218750J0D01*
G01*
X132209250Y-120885500D01*
G75*
G02*
X132428000Y-121104250I0J-218750D01*
G01*
X132428000Y-121541750D01*
G75*
G02*
X132209250Y-121760500I-218750J0D01*
G01*
G37*
G36*
G01*
X132209250Y-123335500D02*
X131696750Y-123335500D01*
G75*
G02*
X131478000Y-123116750I0J218750D01*
G01*
X131478000Y-122679250D01*
G75*
G02*
X131696750Y-122460500I218750J0D01*
G01*
X132209250Y-122460500D01*
G75*
G02*
X132428000Y-122679250I0J-218750D01*
G01*
X132428000Y-123116750D01*
G75*
G02*
X132209250Y-123335500I-218750J0D01*
G01*
G37*
%TD*%
%TO.C,R1*%
G36*
G01*
X131591800Y-89727750D02*
X131591800Y-89215250D01*
G75*
G02*
X131810550Y-88996500I218750J0D01*
G01*
X132248050Y-88996500D01*
G75*
G02*
X132466800Y-89215250I0J-218750D01*
G01*
X132466800Y-89727750D01*
G75*
G02*
X132248050Y-89946500I-218750J0D01*
G01*
X131810550Y-89946500D01*
G75*
G02*
X131591800Y-89727750I0J218750D01*
G01*
G37*
G36*
G01*
X130016800Y-89727750D02*
X130016800Y-89215250D01*
G75*
G02*
X130235550Y-88996500I218750J0D01*
G01*
X130673050Y-88996500D01*
G75*
G02*
X130891800Y-89215250I0J-218750D01*
G01*
X130891800Y-89727750D01*
G75*
G02*
X130673050Y-89946500I-218750J0D01*
G01*
X130235550Y-89946500D01*
G75*
G02*
X130016800Y-89727750I0J218750D01*
G01*
G37*
%TD*%
%TO.C,L3*%
G36*
G01*
X137541300Y-106764400D02*
X137541300Y-104614400D01*
G75*
G02*
X137791300Y-104364400I250000J0D01*
G01*
X138541300Y-104364400D01*
G75*
G02*
X138791300Y-104614400I0J-250000D01*
G01*
X138791300Y-106764400D01*
G75*
G02*
X138541300Y-107014400I-250000J0D01*
G01*
X137791300Y-107014400D01*
G75*
G02*
X137541300Y-106764400I0J250000D01*
G01*
G37*
G36*
G01*
X134741300Y-106764400D02*
X134741300Y-104614400D01*
G75*
G02*
X134991300Y-104364400I250000J0D01*
G01*
X135741300Y-104364400D01*
G75*
G02*
X135991300Y-104614400I0J-250000D01*
G01*
X135991300Y-106764400D01*
G75*
G02*
X135741300Y-107014400I-250000J0D01*
G01*
X134991300Y-107014400D01*
G75*
G02*
X134741300Y-106764400I0J250000D01*
G01*
G37*
%TD*%
%TO.C,L2*%
G36*
G01*
X135644200Y-121437100D02*
X133494200Y-121437100D01*
G75*
G02*
X133244200Y-121187100I0J250000D01*
G01*
X133244200Y-120437100D01*
G75*
G02*
X133494200Y-120187100I250000J0D01*
G01*
X135644200Y-120187100D01*
G75*
G02*
X135894200Y-120437100I0J-250000D01*
G01*
X135894200Y-121187100D01*
G75*
G02*
X135644200Y-121437100I-250000J0D01*
G01*
G37*
G36*
G01*
X135644200Y-124237100D02*
X133494200Y-124237100D01*
G75*
G02*
X133244200Y-123987100I0J250000D01*
G01*
X133244200Y-123237100D01*
G75*
G02*
X133494200Y-122987100I250000J0D01*
G01*
X135644200Y-122987100D01*
G75*
G02*
X135894200Y-123237100I0J-250000D01*
G01*
X135894200Y-123987100D01*
G75*
G02*
X135644200Y-124237100I-250000J0D01*
G01*
G37*
%TD*%
%TO.C,L1*%
G36*
G01*
X105719300Y-100152500D02*
X107869300Y-100152500D01*
G75*
G02*
X108119300Y-100402500I0J-250000D01*
G01*
X108119300Y-101152500D01*
G75*
G02*
X107869300Y-101402500I-250000J0D01*
G01*
X105719300Y-101402500D01*
G75*
G02*
X105469300Y-101152500I0J250000D01*
G01*
X105469300Y-100402500D01*
G75*
G02*
X105719300Y-100152500I250000J0D01*
G01*
G37*
G36*
G01*
X105719300Y-97352500D02*
X107869300Y-97352500D01*
G75*
G02*
X108119300Y-97602500I0J-250000D01*
G01*
X108119300Y-98352500D01*
G75*
G02*
X107869300Y-98602500I-250000J0D01*
G01*
X105719300Y-98602500D01*
G75*
G02*
X105469300Y-98352500I0J250000D01*
G01*
X105469300Y-97602500D01*
G75*
G02*
X105719300Y-97352500I250000J0D01*
G01*
G37*
%TD*%
%TO.C,J4*%
G36*
G01*
X148748501Y-106137400D02*
X145849499Y-106137400D01*
G75*
G02*
X145599000Y-105886901I0J250499D01*
G01*
X145599000Y-104887899D01*
G75*
G02*
X145849499Y-104637400I250499J0D01*
G01*
X148748501Y-104637400D01*
G75*
G02*
X148999000Y-104887899I0J-250499D01*
G01*
X148999000Y-105886901D01*
G75*
G02*
X148748501Y-106137400I-250499J0D01*
G01*
G37*
G36*
G01*
X148748501Y-112837400D02*
X145849499Y-112837400D01*
G75*
G02*
X145599000Y-112586901I0J250499D01*
G01*
X145599000Y-111587899D01*
G75*
G02*
X145849499Y-111337400I250499J0D01*
G01*
X148748501Y-111337400D01*
G75*
G02*
X148999000Y-111587899I0J-250499D01*
G01*
X148999000Y-112586901D01*
G75*
G02*
X148748501Y-112837400I-250499J0D01*
G01*
G37*
G36*
G01*
X143049000Y-108237400D02*
X140049000Y-108237400D01*
G75*
G02*
X139799000Y-107987400I0J250000D01*
G01*
X139799000Y-107487400D01*
G75*
G02*
X140049000Y-107237400I250000J0D01*
G01*
X143049000Y-107237400D01*
G75*
G02*
X143299000Y-107487400I0J-250000D01*
G01*
X143299000Y-107987400D01*
G75*
G02*
X143049000Y-108237400I-250000J0D01*
G01*
G37*
G36*
G01*
X143049000Y-110237400D02*
X140049000Y-110237400D01*
G75*
G02*
X139799000Y-109987400I0J250000D01*
G01*
X139799000Y-109487400D01*
G75*
G02*
X140049000Y-109237400I250000J0D01*
G01*
X143049000Y-109237400D01*
G75*
G02*
X143299000Y-109487400I0J-250000D01*
G01*
X143299000Y-109987400D01*
G75*
G02*
X143049000Y-110237400I-250000J0D01*
G01*
G37*
%TD*%
D18*
%TO.C,J2*%
X139237000Y-93599000D03*
X135337000Y-93599000D03*
X139237000Y-92329000D03*
X135337000Y-92329000D03*
X139237000Y-91059000D03*
X135337000Y-91059000D03*
X139237000Y-89789000D03*
X135337000Y-89789000D03*
X139237000Y-88519000D03*
X135337000Y-88519000D03*
%TD*%
%TO.C,F1*%
G36*
G01*
X121402000Y-111490000D02*
X120152000Y-111490000D01*
G75*
G02*
X119902000Y-111240000I0J250000D01*
G01*
X119902000Y-110490000D01*
G75*
G02*
X120152000Y-110240000I250000J0D01*
G01*
X121402000Y-110240000D01*
G75*
G02*
X121652000Y-110490000I0J-250000D01*
G01*
X121652000Y-111240000D01*
G75*
G02*
X121402000Y-111490000I-250000J0D01*
G01*
G37*
G36*
G01*
X121402000Y-114290000D02*
X120152000Y-114290000D01*
G75*
G02*
X119902000Y-114040000I0J250000D01*
G01*
X119902000Y-113290000D01*
G75*
G02*
X120152000Y-113040000I250000J0D01*
G01*
X121402000Y-113040000D01*
G75*
G02*
X121652000Y-113290000I0J-250000D01*
G01*
X121652000Y-114040000D01*
G75*
G02*
X121402000Y-114290000I-250000J0D01*
G01*
G37*
%TD*%
%TO.C,D9*%
G36*
G01*
X134741400Y-95887250D02*
X134741400Y-95374750D01*
G75*
G02*
X134960150Y-95156000I218750J0D01*
G01*
X135397650Y-95156000D01*
G75*
G02*
X135616400Y-95374750I0J-218750D01*
G01*
X135616400Y-95887250D01*
G75*
G02*
X135397650Y-96106000I-218750J0D01*
G01*
X134960150Y-96106000D01*
G75*
G02*
X134741400Y-95887250I0J218750D01*
G01*
G37*
G36*
G01*
X133166400Y-95887250D02*
X133166400Y-95374750D01*
G75*
G02*
X133385150Y-95156000I218750J0D01*
G01*
X133822650Y-95156000D01*
G75*
G02*
X134041400Y-95374750I0J-218750D01*
G01*
X134041400Y-95887250D01*
G75*
G02*
X133822650Y-96106000I-218750J0D01*
G01*
X133385150Y-96106000D01*
G75*
G02*
X133166400Y-95887250I0J218750D01*
G01*
G37*
%TD*%
%TO.C,D8*%
G36*
G01*
X134741400Y-97538250D02*
X134741400Y-97025750D01*
G75*
G02*
X134960150Y-96807000I218750J0D01*
G01*
X135397650Y-96807000D01*
G75*
G02*
X135616400Y-97025750I0J-218750D01*
G01*
X135616400Y-97538250D01*
G75*
G02*
X135397650Y-97757000I-218750J0D01*
G01*
X134960150Y-97757000D01*
G75*
G02*
X134741400Y-97538250I0J218750D01*
G01*
G37*
G36*
G01*
X133166400Y-97538250D02*
X133166400Y-97025750D01*
G75*
G02*
X133385150Y-96807000I218750J0D01*
G01*
X133822650Y-96807000D01*
G75*
G02*
X134041400Y-97025750I0J-218750D01*
G01*
X134041400Y-97538250D01*
G75*
G02*
X133822650Y-97757000I-218750J0D01*
G01*
X133385150Y-97757000D01*
G75*
G02*
X133166400Y-97538250I0J218750D01*
G01*
G37*
%TD*%
D19*
%TO.C,D6*%
X117602000Y-110395000D03*
X117602000Y-114395000D03*
%TD*%
%TO.C,D5*%
X113919000Y-114395000D03*
X113919000Y-110395000D03*
%TD*%
%TO.C,D4*%
X110172500Y-121646700D03*
X110172500Y-117646700D03*
%TD*%
%TO.C,D3*%
X110172500Y-114407700D03*
X110172500Y-110407700D03*
%TD*%
%TO.C,D2*%
X106362500Y-121646700D03*
X106362500Y-117646700D03*
%TD*%
%TO.C,D1*%
X106362500Y-114407700D03*
X106362500Y-110407700D03*
%TD*%
%TO.C,C25*%
G36*
G01*
X138034050Y-109595400D02*
X138546550Y-109595400D01*
G75*
G02*
X138765300Y-109814150I0J-218750D01*
G01*
X138765300Y-110251650D01*
G75*
G02*
X138546550Y-110470400I-218750J0D01*
G01*
X138034050Y-110470400D01*
G75*
G02*
X137815300Y-110251650I0J218750D01*
G01*
X137815300Y-109814150D01*
G75*
G02*
X138034050Y-109595400I218750J0D01*
G01*
G37*
G36*
G01*
X138034050Y-108020400D02*
X138546550Y-108020400D01*
G75*
G02*
X138765300Y-108239150I0J-218750D01*
G01*
X138765300Y-108676650D01*
G75*
G02*
X138546550Y-108895400I-218750J0D01*
G01*
X138034050Y-108895400D01*
G75*
G02*
X137815300Y-108676650I0J218750D01*
G01*
X137815300Y-108239150D01*
G75*
G02*
X138034050Y-108020400I218750J0D01*
G01*
G37*
%TD*%
%TO.C,C23*%
G36*
G01*
X101026250Y-93479000D02*
X101538750Y-93479000D01*
G75*
G02*
X101757500Y-93697750I0J-218750D01*
G01*
X101757500Y-94135250D01*
G75*
G02*
X101538750Y-94354000I-218750J0D01*
G01*
X101026250Y-94354000D01*
G75*
G02*
X100807500Y-94135250I0J218750D01*
G01*
X100807500Y-93697750D01*
G75*
G02*
X101026250Y-93479000I218750J0D01*
G01*
G37*
G36*
G01*
X101026250Y-91904000D02*
X101538750Y-91904000D01*
G75*
G02*
X101757500Y-92122750I0J-218750D01*
G01*
X101757500Y-92560250D01*
G75*
G02*
X101538750Y-92779000I-218750J0D01*
G01*
X101026250Y-92779000D01*
G75*
G02*
X100807500Y-92560250I0J218750D01*
G01*
X100807500Y-92122750D01*
G75*
G02*
X101026250Y-91904000I218750J0D01*
G01*
G37*
%TD*%
%TO.C,C22*%
G36*
G01*
X135929050Y-109822400D02*
X136841550Y-109822400D01*
G75*
G02*
X137085300Y-110066150I0J-243750D01*
G01*
X137085300Y-110553650D01*
G75*
G02*
X136841550Y-110797400I-243750J0D01*
G01*
X135929050Y-110797400D01*
G75*
G02*
X135685300Y-110553650I0J243750D01*
G01*
X135685300Y-110066150D01*
G75*
G02*
X135929050Y-109822400I243750J0D01*
G01*
G37*
G36*
G01*
X135929050Y-107947400D02*
X136841550Y-107947400D01*
G75*
G02*
X137085300Y-108191150I0J-243750D01*
G01*
X137085300Y-108678650D01*
G75*
G02*
X136841550Y-108922400I-243750J0D01*
G01*
X135929050Y-108922400D01*
G75*
G02*
X135685300Y-108678650I0J243750D01*
G01*
X135685300Y-108191150D01*
G75*
G02*
X135929050Y-107947400I243750J0D01*
G01*
G37*
%TD*%
%TO.C,C21*%
G36*
G01*
X104794800Y-90616750D02*
X104794800Y-90104250D01*
G75*
G02*
X105013550Y-89885500I218750J0D01*
G01*
X105451050Y-89885500D01*
G75*
G02*
X105669800Y-90104250I0J-218750D01*
G01*
X105669800Y-90616750D01*
G75*
G02*
X105451050Y-90835500I-218750J0D01*
G01*
X105013550Y-90835500D01*
G75*
G02*
X104794800Y-90616750I0J218750D01*
G01*
G37*
G36*
G01*
X103219800Y-90616750D02*
X103219800Y-90104250D01*
G75*
G02*
X103438550Y-89885500I218750J0D01*
G01*
X103876050Y-89885500D01*
G75*
G02*
X104094800Y-90104250I0J-218750D01*
G01*
X104094800Y-90616750D01*
G75*
G02*
X103876050Y-90835500I-218750J0D01*
G01*
X103438550Y-90835500D01*
G75*
G02*
X103219800Y-90616750I0J218750D01*
G01*
G37*
%TD*%
%TO.C,C19*%
G36*
G01*
X130193300Y-109878150D02*
X130193300Y-110390650D01*
G75*
G02*
X129974550Y-110609400I-218750J0D01*
G01*
X129537050Y-110609400D01*
G75*
G02*
X129318300Y-110390650I0J218750D01*
G01*
X129318300Y-109878150D01*
G75*
G02*
X129537050Y-109659400I218750J0D01*
G01*
X129974550Y-109659400D01*
G75*
G02*
X130193300Y-109878150I0J-218750D01*
G01*
G37*
G36*
G01*
X131768300Y-109878150D02*
X131768300Y-110390650D01*
G75*
G02*
X131549550Y-110609400I-218750J0D01*
G01*
X131112050Y-110609400D01*
G75*
G02*
X130893300Y-110390650I0J218750D01*
G01*
X130893300Y-109878150D01*
G75*
G02*
X131112050Y-109659400I218750J0D01*
G01*
X131549550Y-109659400D01*
G75*
G02*
X131768300Y-109878150I0J-218750D01*
G01*
G37*
%TD*%
%TO.C,C18*%
G36*
G01*
X133368300Y-109878150D02*
X133368300Y-110390650D01*
G75*
G02*
X133149550Y-110609400I-218750J0D01*
G01*
X132712050Y-110609400D01*
G75*
G02*
X132493300Y-110390650I0J218750D01*
G01*
X132493300Y-109878150D01*
G75*
G02*
X132712050Y-109659400I218750J0D01*
G01*
X133149550Y-109659400D01*
G75*
G02*
X133368300Y-109878150I0J-218750D01*
G01*
G37*
G36*
G01*
X134943300Y-109878150D02*
X134943300Y-110390650D01*
G75*
G02*
X134724550Y-110609400I-218750J0D01*
G01*
X134287050Y-110609400D01*
G75*
G02*
X134068300Y-110390650I0J218750D01*
G01*
X134068300Y-109878150D01*
G75*
G02*
X134287050Y-109659400I218750J0D01*
G01*
X134724550Y-109659400D01*
G75*
G02*
X134943300Y-109878150I0J-218750D01*
G01*
G37*
%TD*%
%TO.C,C16*%
G36*
G01*
X104094800Y-88465950D02*
X104094800Y-88978450D01*
G75*
G02*
X103876050Y-89197200I-218750J0D01*
G01*
X103438550Y-89197200D01*
G75*
G02*
X103219800Y-88978450I0J218750D01*
G01*
X103219800Y-88465950D01*
G75*
G02*
X103438550Y-88247200I218750J0D01*
G01*
X103876050Y-88247200D01*
G75*
G02*
X104094800Y-88465950I0J-218750D01*
G01*
G37*
G36*
G01*
X105669800Y-88465950D02*
X105669800Y-88978450D01*
G75*
G02*
X105451050Y-89197200I-218750J0D01*
G01*
X105013550Y-89197200D01*
G75*
G02*
X104794800Y-88978450I0J218750D01*
G01*
X104794800Y-88465950D01*
G75*
G02*
X105013550Y-88247200I218750J0D01*
G01*
X105451050Y-88247200D01*
G75*
G02*
X105669800Y-88465950I0J-218750D01*
G01*
G37*
%TD*%
%TO.C,C15*%
G36*
G01*
X129271050Y-105912400D02*
X129783550Y-105912400D01*
G75*
G02*
X130002300Y-106131150I0J-218750D01*
G01*
X130002300Y-106568650D01*
G75*
G02*
X129783550Y-106787400I-218750J0D01*
G01*
X129271050Y-106787400D01*
G75*
G02*
X129052300Y-106568650I0J218750D01*
G01*
X129052300Y-106131150D01*
G75*
G02*
X129271050Y-105912400I218750J0D01*
G01*
G37*
G36*
G01*
X129271050Y-104337400D02*
X129783550Y-104337400D01*
G75*
G02*
X130002300Y-104556150I0J-218750D01*
G01*
X130002300Y-104993650D01*
G75*
G02*
X129783550Y-105212400I-218750J0D01*
G01*
X129271050Y-105212400D01*
G75*
G02*
X129052300Y-104993650I0J218750D01*
G01*
X129052300Y-104556150D01*
G75*
G02*
X129271050Y-104337400I218750J0D01*
G01*
G37*
%TD*%
%TO.C,C14*%
G36*
G01*
X132530000Y-103199250D02*
X132530000Y-102286750D01*
G75*
G02*
X132773750Y-102043000I243750J0D01*
G01*
X133261250Y-102043000D01*
G75*
G02*
X133505000Y-102286750I0J-243750D01*
G01*
X133505000Y-103199250D01*
G75*
G02*
X133261250Y-103443000I-243750J0D01*
G01*
X132773750Y-103443000D01*
G75*
G02*
X132530000Y-103199250I0J243750D01*
G01*
G37*
G36*
G01*
X130655000Y-103199250D02*
X130655000Y-102286750D01*
G75*
G02*
X130898750Y-102043000I243750J0D01*
G01*
X131386250Y-102043000D01*
G75*
G02*
X131630000Y-102286750I0J-243750D01*
G01*
X131630000Y-103199250D01*
G75*
G02*
X131386250Y-103443000I-243750J0D01*
G01*
X130898750Y-103443000D01*
G75*
G02*
X130655000Y-103199250I0J243750D01*
G01*
G37*
%TD*%
%TO.C,C13*%
G36*
G01*
X136805350Y-119715700D02*
X137717850Y-119715700D01*
G75*
G02*
X137961600Y-119959450I0J-243750D01*
G01*
X137961600Y-120446950D01*
G75*
G02*
X137717850Y-120690700I-243750J0D01*
G01*
X136805350Y-120690700D01*
G75*
G02*
X136561600Y-120446950I0J243750D01*
G01*
X136561600Y-119959450D01*
G75*
G02*
X136805350Y-119715700I243750J0D01*
G01*
G37*
G36*
G01*
X136805350Y-117840700D02*
X137717850Y-117840700D01*
G75*
G02*
X137961600Y-118084450I0J-243750D01*
G01*
X137961600Y-118571950D01*
G75*
G02*
X137717850Y-118815700I-243750J0D01*
G01*
X136805350Y-118815700D01*
G75*
G02*
X136561600Y-118571950I0J243750D01*
G01*
X136561600Y-118084450D01*
G75*
G02*
X136805350Y-117840700I243750J0D01*
G01*
G37*
%TD*%
%TO.C,C12*%
G36*
G01*
X135781200Y-115403950D02*
X135781200Y-114491450D01*
G75*
G02*
X136024950Y-114247700I243750J0D01*
G01*
X136512450Y-114247700D01*
G75*
G02*
X136756200Y-114491450I0J-243750D01*
G01*
X136756200Y-115403950D01*
G75*
G02*
X136512450Y-115647700I-243750J0D01*
G01*
X136024950Y-115647700D01*
G75*
G02*
X135781200Y-115403950I0J243750D01*
G01*
G37*
G36*
G01*
X133906200Y-115403950D02*
X133906200Y-114491450D01*
G75*
G02*
X134149950Y-114247700I243750J0D01*
G01*
X134637450Y-114247700D01*
G75*
G02*
X134881200Y-114491450I0J-243750D01*
G01*
X134881200Y-115403950D01*
G75*
G02*
X134637450Y-115647700I-243750J0D01*
G01*
X134149950Y-115647700D01*
G75*
G02*
X133906200Y-115403950I0J243750D01*
G01*
G37*
%TD*%
%TO.C,C11*%
G36*
G01*
X134817600Y-119318750D02*
X134817600Y-118806250D01*
G75*
G02*
X135036350Y-118587500I218750J0D01*
G01*
X135473850Y-118587500D01*
G75*
G02*
X135692600Y-118806250I0J-218750D01*
G01*
X135692600Y-119318750D01*
G75*
G02*
X135473850Y-119537500I-218750J0D01*
G01*
X135036350Y-119537500D01*
G75*
G02*
X134817600Y-119318750I0J218750D01*
G01*
G37*
G36*
G01*
X133242600Y-119318750D02*
X133242600Y-118806250D01*
G75*
G02*
X133461350Y-118587500I218750J0D01*
G01*
X133898850Y-118587500D01*
G75*
G02*
X134117600Y-118806250I0J-218750D01*
G01*
X134117600Y-119318750D01*
G75*
G02*
X133898850Y-119537500I-218750J0D01*
G01*
X133461350Y-119537500D01*
G75*
G02*
X133242600Y-119318750I0J218750D01*
G01*
G37*
%TD*%
%TO.C,C10*%
G36*
G01*
X135478000Y-116981950D02*
X135478000Y-116469450D01*
G75*
G02*
X135696750Y-116250700I218750J0D01*
G01*
X136134250Y-116250700D01*
G75*
G02*
X136353000Y-116469450I0J-218750D01*
G01*
X136353000Y-116981950D01*
G75*
G02*
X136134250Y-117200700I-218750J0D01*
G01*
X135696750Y-117200700D01*
G75*
G02*
X135478000Y-116981950I0J218750D01*
G01*
G37*
G36*
G01*
X133903000Y-116981950D02*
X133903000Y-116469450D01*
G75*
G02*
X134121750Y-116250700I218750J0D01*
G01*
X134559250Y-116250700D01*
G75*
G02*
X134778000Y-116469450I0J-218750D01*
G01*
X134778000Y-116981950D01*
G75*
G02*
X134559250Y-117200700I-218750J0D01*
G01*
X134121750Y-117200700D01*
G75*
G02*
X133903000Y-116981950I0J218750D01*
G01*
G37*
%TD*%
%TO.C,C9*%
G36*
G01*
X128394750Y-122460500D02*
X128907250Y-122460500D01*
G75*
G02*
X129126000Y-122679250I0J-218750D01*
G01*
X129126000Y-123116750D01*
G75*
G02*
X128907250Y-123335500I-218750J0D01*
G01*
X128394750Y-123335500D01*
G75*
G02*
X128176000Y-123116750I0J218750D01*
G01*
X128176000Y-122679250D01*
G75*
G02*
X128394750Y-122460500I218750J0D01*
G01*
G37*
G36*
G01*
X128394750Y-120885500D02*
X128907250Y-120885500D01*
G75*
G02*
X129126000Y-121104250I0J-218750D01*
G01*
X129126000Y-121541750D01*
G75*
G02*
X128907250Y-121760500I-218750J0D01*
G01*
X128394750Y-121760500D01*
G75*
G02*
X128176000Y-121541750I0J218750D01*
G01*
X128176000Y-121104250D01*
G75*
G02*
X128394750Y-120885500I218750J0D01*
G01*
G37*
%TD*%
%TO.C,C8*%
G36*
G01*
X137717850Y-122371700D02*
X136805350Y-122371700D01*
G75*
G02*
X136561600Y-122127950I0J243750D01*
G01*
X136561600Y-121640450D01*
G75*
G02*
X136805350Y-121396700I243750J0D01*
G01*
X137717850Y-121396700D01*
G75*
G02*
X137961600Y-121640450I0J-243750D01*
G01*
X137961600Y-122127950D01*
G75*
G02*
X137717850Y-122371700I-243750J0D01*
G01*
G37*
G36*
G01*
X137717850Y-124246700D02*
X136805350Y-124246700D01*
G75*
G02*
X136561600Y-124002950I0J243750D01*
G01*
X136561600Y-123515450D01*
G75*
G02*
X136805350Y-123271700I243750J0D01*
G01*
X137717850Y-123271700D01*
G75*
G02*
X137961600Y-123515450I0J-243750D01*
G01*
X137961600Y-124002950D01*
G75*
G02*
X137717850Y-124246700I-243750J0D01*
G01*
G37*
%TD*%
%TO.C,C7*%
G36*
G01*
X139775250Y-122371700D02*
X138862750Y-122371700D01*
G75*
G02*
X138619000Y-122127950I0J243750D01*
G01*
X138619000Y-121640450D01*
G75*
G02*
X138862750Y-121396700I243750J0D01*
G01*
X139775250Y-121396700D01*
G75*
G02*
X140019000Y-121640450I0J-243750D01*
G01*
X140019000Y-122127950D01*
G75*
G02*
X139775250Y-122371700I-243750J0D01*
G01*
G37*
G36*
G01*
X139775250Y-124246700D02*
X138862750Y-124246700D01*
G75*
G02*
X138619000Y-124002950I0J243750D01*
G01*
X138619000Y-123515450D01*
G75*
G02*
X138862750Y-123271700I243750J0D01*
G01*
X139775250Y-123271700D01*
G75*
G02*
X140019000Y-123515450I0J-243750D01*
G01*
X140019000Y-124002950D01*
G75*
G02*
X139775250Y-124246700I-243750J0D01*
G01*
G37*
%TD*%
%TO.C,C6*%
G36*
G01*
X112646750Y-107284000D02*
X113159250Y-107284000D01*
G75*
G02*
X113378000Y-107502750I0J-218750D01*
G01*
X113378000Y-107940250D01*
G75*
G02*
X113159250Y-108159000I-218750J0D01*
G01*
X112646750Y-108159000D01*
G75*
G02*
X112428000Y-107940250I0J218750D01*
G01*
X112428000Y-107502750D01*
G75*
G02*
X112646750Y-107284000I218750J0D01*
G01*
G37*
G36*
G01*
X112646750Y-105709000D02*
X113159250Y-105709000D01*
G75*
G02*
X113378000Y-105927750I0J-218750D01*
G01*
X113378000Y-106365250D01*
G75*
G02*
X113159250Y-106584000I-218750J0D01*
G01*
X112646750Y-106584000D01*
G75*
G02*
X112428000Y-106365250I0J218750D01*
G01*
X112428000Y-105927750D01*
G75*
G02*
X112646750Y-105709000I218750J0D01*
G01*
G37*
%TD*%
%TO.C,C5*%
G36*
G01*
X107363550Y-103728000D02*
X107876050Y-103728000D01*
G75*
G02*
X108094800Y-103946750I0J-218750D01*
G01*
X108094800Y-104384250D01*
G75*
G02*
X107876050Y-104603000I-218750J0D01*
G01*
X107363550Y-104603000D01*
G75*
G02*
X107144800Y-104384250I0J218750D01*
G01*
X107144800Y-103946750D01*
G75*
G02*
X107363550Y-103728000I218750J0D01*
G01*
G37*
G36*
G01*
X107363550Y-102153000D02*
X107876050Y-102153000D01*
G75*
G02*
X108094800Y-102371750I0J-218750D01*
G01*
X108094800Y-102809250D01*
G75*
G02*
X107876050Y-103028000I-218750J0D01*
G01*
X107363550Y-103028000D01*
G75*
G02*
X107144800Y-102809250I0J218750D01*
G01*
X107144800Y-102371750D01*
G75*
G02*
X107363550Y-102153000I218750J0D01*
G01*
G37*
%TD*%
%TO.C,C4*%
G36*
G01*
X107876050Y-85819500D02*
X107363550Y-85819500D01*
G75*
G02*
X107144800Y-85600750I0J218750D01*
G01*
X107144800Y-85163250D01*
G75*
G02*
X107363550Y-84944500I218750J0D01*
G01*
X107876050Y-84944500D01*
G75*
G02*
X108094800Y-85163250I0J-218750D01*
G01*
X108094800Y-85600750D01*
G75*
G02*
X107876050Y-85819500I-218750J0D01*
G01*
G37*
G36*
G01*
X107876050Y-87394500D02*
X107363550Y-87394500D01*
G75*
G02*
X107144800Y-87175750I0J218750D01*
G01*
X107144800Y-86738250D01*
G75*
G02*
X107363550Y-86519500I218750J0D01*
G01*
X107876050Y-86519500D01*
G75*
G02*
X108094800Y-86738250I0J-218750D01*
G01*
X108094800Y-87175750D01*
G75*
G02*
X107876050Y-87394500I-218750J0D01*
G01*
G37*
%TD*%
%TO.C,C3*%
G36*
G01*
X109786000Y-105969750D02*
X109786000Y-106882250D01*
G75*
G02*
X109542250Y-107126000I-243750J0D01*
G01*
X109054750Y-107126000D01*
G75*
G02*
X108811000Y-106882250I0J243750D01*
G01*
X108811000Y-105969750D01*
G75*
G02*
X109054750Y-105726000I243750J0D01*
G01*
X109542250Y-105726000D01*
G75*
G02*
X109786000Y-105969750I0J-243750D01*
G01*
G37*
G36*
G01*
X111661000Y-105969750D02*
X111661000Y-106882250D01*
G75*
G02*
X111417250Y-107126000I-243750J0D01*
G01*
X110929750Y-107126000D01*
G75*
G02*
X110686000Y-106882250I0J243750D01*
G01*
X110686000Y-105969750D01*
G75*
G02*
X110929750Y-105726000I243750J0D01*
G01*
X111417250Y-105726000D01*
G75*
G02*
X111661000Y-105969750I0J-243750D01*
G01*
G37*
%TD*%
%TO.C,C2*%
G36*
G01*
X107363550Y-89758000D02*
X107876050Y-89758000D01*
G75*
G02*
X108094800Y-89976750I0J-218750D01*
G01*
X108094800Y-90414250D01*
G75*
G02*
X107876050Y-90633000I-218750J0D01*
G01*
X107363550Y-90633000D01*
G75*
G02*
X107144800Y-90414250I0J218750D01*
G01*
X107144800Y-89976750D01*
G75*
G02*
X107363550Y-89758000I218750J0D01*
G01*
G37*
G36*
G01*
X107363550Y-88183000D02*
X107876050Y-88183000D01*
G75*
G02*
X108094800Y-88401750I0J-218750D01*
G01*
X108094800Y-88839250D01*
G75*
G02*
X107876050Y-89058000I-218750J0D01*
G01*
X107363550Y-89058000D01*
G75*
G02*
X107144800Y-88839250I0J218750D01*
G01*
X107144800Y-88401750D01*
G75*
G02*
X107363550Y-88183000I218750J0D01*
G01*
G37*
%TD*%
%TO.C,C1*%
G36*
G01*
X107363550Y-95727000D02*
X107876050Y-95727000D01*
G75*
G02*
X108094800Y-95945750I0J-218750D01*
G01*
X108094800Y-96383250D01*
G75*
G02*
X107876050Y-96602000I-218750J0D01*
G01*
X107363550Y-96602000D01*
G75*
G02*
X107144800Y-96383250I0J218750D01*
G01*
X107144800Y-95945750D01*
G75*
G02*
X107363550Y-95727000I218750J0D01*
G01*
G37*
G36*
G01*
X107363550Y-94152000D02*
X107876050Y-94152000D01*
G75*
G02*
X108094800Y-94370750I0J-218750D01*
G01*
X108094800Y-94808250D01*
G75*
G02*
X107876050Y-95027000I-218750J0D01*
G01*
X107363550Y-95027000D01*
G75*
G02*
X107144800Y-94808250I0J218750D01*
G01*
X107144800Y-94370750D01*
G75*
G02*
X107363550Y-94152000I218750J0D01*
G01*
G37*
%TD*%
M02*
