%TF.GenerationSoftware,KiCad,Pcbnew,(5.1.6)-1*%
%TF.CreationDate,2021-05-23T02:10:16+08:00*%
%TF.ProjectId,HKIA_Tracker,484b4941-5f54-4726-9163-6b65722e6b69,rev?*%
%TF.SameCoordinates,Original*%
%TF.FileFunction,Soldermask,Bot*%
%TF.FilePolarity,Negative*%
%FSLAX46Y46*%
G04 Gerber Fmt 4.6, Leading zero omitted, Abs format (unit mm)*
G04 Created by KiCad (PCBNEW (5.1.6)-1) date 2021-05-23 02:10:16*
%MOMM*%
%LPD*%
G01*
G04 APERTURE LIST*
%ADD10O,1.800000X1.800000*%
%ADD11R,1.800000X1.800000*%
%ADD12C,6.500000*%
%ADD13R,1.100000X2.600000*%
%ADD14R,1.900000X1.100000*%
%ADD15R,0.650000X1.600000*%
G04 APERTURE END LIST*
D10*
%TO.C,J5*%
X144741900Y-78473300D03*
X142201900Y-78473300D03*
X139661900Y-78473300D03*
D11*
X137121900Y-78473300D03*
%TD*%
D10*
%TO.C,J3*%
X123952000Y-107188000D03*
D11*
X121412000Y-107188000D03*
%TD*%
D12*
%TO.C,H2*%
X105000000Y-80000000D03*
%TD*%
%TO.C,H1*%
X145000000Y-120000000D03*
%TD*%
D10*
%TO.C,J1*%
X102514400Y-116255800D03*
X102514400Y-118795800D03*
D11*
X102514400Y-121335800D03*
%TD*%
D13*
%TO.C,U3*%
X140621900Y-82176300D03*
X138621900Y-82176300D03*
X136621900Y-82176300D03*
X134621900Y-82176300D03*
X132621900Y-82176300D03*
X130621900Y-82176300D03*
X128621900Y-82176300D03*
X126621900Y-82176300D03*
D14*
X125121900Y-84776300D03*
X125121900Y-86776300D03*
X125121900Y-88776300D03*
X125121900Y-90776300D03*
X125121900Y-92776300D03*
X125121900Y-94776300D03*
D13*
X126621900Y-97376300D03*
X128621900Y-97376300D03*
X130621900Y-97376300D03*
X132621900Y-97376300D03*
X134621900Y-97376300D03*
X136621900Y-97376300D03*
X138621900Y-97376300D03*
X140621900Y-97376300D03*
%TD*%
D15*
%TO.C,SW5*%
X131305900Y-77393800D03*
X134555900Y-77393800D03*
%TD*%
%TO.C,SW4*%
X143509400Y-100444300D03*
X140259400Y-100444300D03*
%TD*%
%TO.C,R24*%
G36*
G01*
X127607750Y-79446400D02*
X128170250Y-79446400D01*
G75*
G02*
X128414000Y-79690150I0J-243750D01*
G01*
X128414000Y-80177650D01*
G75*
G02*
X128170250Y-80421400I-243750J0D01*
G01*
X127607750Y-80421400D01*
G75*
G02*
X127364000Y-80177650I0J243750D01*
G01*
X127364000Y-79690150D01*
G75*
G02*
X127607750Y-79446400I243750J0D01*
G01*
G37*
G36*
G01*
X127607750Y-77871400D02*
X128170250Y-77871400D01*
G75*
G02*
X128414000Y-78115150I0J-243750D01*
G01*
X128414000Y-78602650D01*
G75*
G02*
X128170250Y-78846400I-243750J0D01*
G01*
X127607750Y-78846400D01*
G75*
G02*
X127364000Y-78602650I0J243750D01*
G01*
X127364000Y-78115150D01*
G75*
G02*
X127607750Y-77871400I243750J0D01*
G01*
G37*
%TD*%
%TO.C,R23*%
G36*
G01*
X130563900Y-79897550D02*
X130563900Y-79335050D01*
G75*
G02*
X130807650Y-79091300I243750J0D01*
G01*
X131295150Y-79091300D01*
G75*
G02*
X131538900Y-79335050I0J-243750D01*
G01*
X131538900Y-79897550D01*
G75*
G02*
X131295150Y-80141300I-243750J0D01*
G01*
X130807650Y-80141300D01*
G75*
G02*
X130563900Y-79897550I0J243750D01*
G01*
G37*
G36*
G01*
X128988900Y-79897550D02*
X128988900Y-79335050D01*
G75*
G02*
X129232650Y-79091300I243750J0D01*
G01*
X129720150Y-79091300D01*
G75*
G02*
X129963900Y-79335050I0J-243750D01*
G01*
X129963900Y-79897550D01*
G75*
G02*
X129720150Y-80141300I-243750J0D01*
G01*
X129232650Y-80141300D01*
G75*
G02*
X128988900Y-79897550I0J243750D01*
G01*
G37*
%TD*%
%TO.C,R22*%
G36*
G01*
X133265900Y-79335050D02*
X133265900Y-79897550D01*
G75*
G02*
X133022150Y-80141300I-243750J0D01*
G01*
X132534650Y-80141300D01*
G75*
G02*
X132290900Y-79897550I0J243750D01*
G01*
X132290900Y-79335050D01*
G75*
G02*
X132534650Y-79091300I243750J0D01*
G01*
X133022150Y-79091300D01*
G75*
G02*
X133265900Y-79335050I0J-243750D01*
G01*
G37*
G36*
G01*
X134840900Y-79335050D02*
X134840900Y-79897550D01*
G75*
G02*
X134597150Y-80141300I-243750J0D01*
G01*
X134109650Y-80141300D01*
G75*
G02*
X133865900Y-79897550I0J243750D01*
G01*
X133865900Y-79335050D01*
G75*
G02*
X134109650Y-79091300I243750J0D01*
G01*
X134597150Y-79091300D01*
G75*
G02*
X134840900Y-79335050I0J-243750D01*
G01*
G37*
%TD*%
%TO.C,R21*%
G36*
G01*
X134408900Y-99655050D02*
X134408900Y-100217550D01*
G75*
G02*
X134165150Y-100461300I-243750J0D01*
G01*
X133677650Y-100461300D01*
G75*
G02*
X133433900Y-100217550I0J243750D01*
G01*
X133433900Y-99655050D01*
G75*
G02*
X133677650Y-99411300I243750J0D01*
G01*
X134165150Y-99411300D01*
G75*
G02*
X134408900Y-99655050I0J-243750D01*
G01*
G37*
G36*
G01*
X135983900Y-99655050D02*
X135983900Y-100217550D01*
G75*
G02*
X135740150Y-100461300I-243750J0D01*
G01*
X135252650Y-100461300D01*
G75*
G02*
X135008900Y-100217550I0J243750D01*
G01*
X135008900Y-99655050D01*
G75*
G02*
X135252650Y-99411300I243750J0D01*
G01*
X135740150Y-99411300D01*
G75*
G02*
X135983900Y-99655050I0J-243750D01*
G01*
G37*
%TD*%
%TO.C,R20*%
G36*
G01*
X137647400Y-99655050D02*
X137647400Y-100217550D01*
G75*
G02*
X137403650Y-100461300I-243750J0D01*
G01*
X136916150Y-100461300D01*
G75*
G02*
X136672400Y-100217550I0J243750D01*
G01*
X136672400Y-99655050D01*
G75*
G02*
X136916150Y-99411300I243750J0D01*
G01*
X137403650Y-99411300D01*
G75*
G02*
X137647400Y-99655050I0J-243750D01*
G01*
G37*
G36*
G01*
X139222400Y-99655050D02*
X139222400Y-100217550D01*
G75*
G02*
X138978650Y-100461300I-243750J0D01*
G01*
X138491150Y-100461300D01*
G75*
G02*
X138247400Y-100217550I0J243750D01*
G01*
X138247400Y-99655050D01*
G75*
G02*
X138491150Y-99411300I243750J0D01*
G01*
X138978650Y-99411300D01*
G75*
G02*
X139222400Y-99655050I0J-243750D01*
G01*
G37*
%TD*%
%TO.C,C24*%
G36*
G01*
X125264900Y-99528050D02*
X125264900Y-100090550D01*
G75*
G02*
X125021150Y-100334300I-243750J0D01*
G01*
X124533650Y-100334300D01*
G75*
G02*
X124289900Y-100090550I0J243750D01*
G01*
X124289900Y-99528050D01*
G75*
G02*
X124533650Y-99284300I243750J0D01*
G01*
X125021150Y-99284300D01*
G75*
G02*
X125264900Y-99528050I0J-243750D01*
G01*
G37*
G36*
G01*
X126839900Y-99528050D02*
X126839900Y-100090550D01*
G75*
G02*
X126596150Y-100334300I-243750J0D01*
G01*
X126108650Y-100334300D01*
G75*
G02*
X125864900Y-100090550I0J243750D01*
G01*
X125864900Y-99528050D01*
G75*
G02*
X126108650Y-99284300I243750J0D01*
G01*
X126596150Y-99284300D01*
G75*
G02*
X126839900Y-99528050I0J-243750D01*
G01*
G37*
%TD*%
%TO.C,C20*%
G36*
G01*
X125037900Y-101233050D02*
X125037900Y-102195550D01*
G75*
G02*
X124769150Y-102464300I-268750J0D01*
G01*
X124231650Y-102464300D01*
G75*
G02*
X123962900Y-102195550I0J268750D01*
G01*
X123962900Y-101233050D01*
G75*
G02*
X124231650Y-100964300I268750J0D01*
G01*
X124769150Y-100964300D01*
G75*
G02*
X125037900Y-101233050I0J-268750D01*
G01*
G37*
G36*
G01*
X126912900Y-101233050D02*
X126912900Y-102195550D01*
G75*
G02*
X126644150Y-102464300I-268750J0D01*
G01*
X126106650Y-102464300D01*
G75*
G02*
X125837900Y-102195550I0J268750D01*
G01*
X125837900Y-101233050D01*
G75*
G02*
X126106650Y-100964300I268750J0D01*
G01*
X126644150Y-100964300D01*
G75*
G02*
X126912900Y-101233050I0J-268750D01*
G01*
G37*
%TD*%
%TO.C,C17*%
G36*
G01*
X127750650Y-101225300D02*
X128713150Y-101225300D01*
G75*
G02*
X128981900Y-101494050I0J-268750D01*
G01*
X128981900Y-102031550D01*
G75*
G02*
X128713150Y-102300300I-268750J0D01*
G01*
X127750650Y-102300300D01*
G75*
G02*
X127481900Y-102031550I0J268750D01*
G01*
X127481900Y-101494050D01*
G75*
G02*
X127750650Y-101225300I268750J0D01*
G01*
G37*
G36*
G01*
X127750650Y-99350300D02*
X128713150Y-99350300D01*
G75*
G02*
X128981900Y-99619050I0J-268750D01*
G01*
X128981900Y-100156550D01*
G75*
G02*
X128713150Y-100425300I-268750J0D01*
G01*
X127750650Y-100425300D01*
G75*
G02*
X127481900Y-100156550I0J268750D01*
G01*
X127481900Y-99619050D01*
G75*
G02*
X127750650Y-99350300I268750J0D01*
G01*
G37*
%TD*%
M02*
