%TF.GenerationSoftware,KiCad,Pcbnew,(5.1.6)-1*%
%TF.CreationDate,2021-05-23T02:10:16+08:00*%
%TF.ProjectId,HKIA_Tracker,484b4941-5f54-4726-9163-6b65722e6b69,rev?*%
%TF.SameCoordinates,Original*%
%TF.FileFunction,Legend,Bot*%
%TF.FilePolarity,Positive*%
%FSLAX46Y46*%
G04 Gerber Fmt 4.6, Leading zero omitted, Abs format (unit mm)*
G04 Created by KiCad (PCBNEW (5.1.6)-1) date 2021-05-23 02:10:16*
%MOMM*%
%LPD*%
G01*
G04 APERTURE LIST*
%ADD10C,0.150000*%
%ADD11C,0.120000*%
G04 APERTURE END LIST*
D10*
X130413000Y-77795380D02*
X130413000Y-76795380D01*
X129746333Y-76795380D02*
X129555857Y-76795380D01*
X129460619Y-76843000D01*
X129365380Y-76938238D01*
X129317761Y-77128714D01*
X129317761Y-77462047D01*
X129365380Y-77652523D01*
X129460619Y-77747761D01*
X129555857Y-77795380D01*
X129746333Y-77795380D01*
X129841571Y-77747761D01*
X129936809Y-77652523D01*
X129984428Y-77462047D01*
X129984428Y-77128714D01*
X129936809Y-76938238D01*
X129841571Y-76843000D01*
X129746333Y-76795380D01*
X128698714Y-76795380D02*
X128603476Y-76795380D01*
X128508238Y-76843000D01*
X128460619Y-76890619D01*
X128413000Y-76985857D01*
X128365380Y-77176333D01*
X128365380Y-77414428D01*
X128413000Y-77604904D01*
X128460619Y-77700142D01*
X128508238Y-77747761D01*
X128603476Y-77795380D01*
X128698714Y-77795380D01*
X128793952Y-77747761D01*
X128841571Y-77700142D01*
X128889190Y-77604904D01*
X128936809Y-77414428D01*
X128936809Y-77176333D01*
X128889190Y-76985857D01*
X128841571Y-76890619D01*
X128793952Y-76843000D01*
X128698714Y-76795380D01*
X142406619Y-102941380D02*
X142739952Y-102465190D01*
X142978047Y-102941380D02*
X142978047Y-101941380D01*
X142597095Y-101941380D01*
X142501857Y-101989000D01*
X142454238Y-102036619D01*
X142406619Y-102131857D01*
X142406619Y-102274714D01*
X142454238Y-102369952D01*
X142501857Y-102417571D01*
X142597095Y-102465190D01*
X142978047Y-102465190D01*
X142025666Y-102893761D02*
X141882809Y-102941380D01*
X141644714Y-102941380D01*
X141549476Y-102893761D01*
X141501857Y-102846142D01*
X141454238Y-102750904D01*
X141454238Y-102655666D01*
X141501857Y-102560428D01*
X141549476Y-102512809D01*
X141644714Y-102465190D01*
X141835190Y-102417571D01*
X141930428Y-102369952D01*
X141978047Y-102322333D01*
X142025666Y-102227095D01*
X142025666Y-102131857D01*
X141978047Y-102036619D01*
X141930428Y-101989000D01*
X141835190Y-101941380D01*
X141597095Y-101941380D01*
X141454238Y-101989000D01*
X141168523Y-101941380D02*
X140597095Y-101941380D01*
X140882809Y-102941380D02*
X140882809Y-101941380D01*
X137493333Y-75779380D02*
X137160000Y-76779380D01*
X136826666Y-75779380D01*
X139390476Y-76779380D02*
X139723809Y-76303190D01*
X139961904Y-76779380D02*
X139961904Y-75779380D01*
X139580952Y-75779380D01*
X139485714Y-75827000D01*
X139438095Y-75874619D01*
X139390476Y-75969857D01*
X139390476Y-76112714D01*
X139438095Y-76207952D01*
X139485714Y-76255571D01*
X139580952Y-76303190D01*
X139961904Y-76303190D01*
X141978095Y-75827000D02*
X142073333Y-75779380D01*
X142216190Y-75779380D01*
X142359047Y-75827000D01*
X142454285Y-75922238D01*
X142501904Y-76017476D01*
X142549523Y-76207952D01*
X142549523Y-76350809D01*
X142501904Y-76541285D01*
X142454285Y-76636523D01*
X142359047Y-76731761D01*
X142216190Y-76779380D01*
X142120952Y-76779380D01*
X141978095Y-76731761D01*
X141930476Y-76684142D01*
X141930476Y-76350809D01*
X142120952Y-76350809D01*
X145065714Y-75779380D02*
X144494285Y-75779380D01*
X144780000Y-76779380D02*
X144780000Y-75779380D01*
D11*
%TO.C,J5*%
X146071900Y-77143300D02*
X146071900Y-79803300D01*
X138391900Y-77143300D02*
X146071900Y-77143300D01*
X138391900Y-79803300D02*
X146071900Y-79803300D01*
X138391900Y-77143300D02*
X138391900Y-79803300D01*
X137121900Y-77143300D02*
X135791900Y-77143300D01*
X135791900Y-77143300D02*
X135791900Y-78473300D01*
%TO.C,U3*%
X149241900Y-97896300D02*
X149241900Y-81656300D01*
X149241900Y-81656300D02*
X141621900Y-81656300D01*
X125621900Y-81656300D02*
X125001900Y-81656300D01*
X125001900Y-81656300D02*
X125001900Y-83776300D01*
X125001900Y-95776300D02*
X125001900Y-97896300D01*
X125001900Y-97896300D02*
X125621900Y-97896300D01*
X141621900Y-97896300D02*
X149241900Y-97896300D01*
X141621900Y-97896300D02*
X141621900Y-98506300D01*
%TO.C,SW5*%
X134550900Y-76273800D02*
X131310900Y-76273800D01*
X131310900Y-76273800D02*
X131310900Y-76373800D01*
X134550900Y-76273800D02*
X134550900Y-76373800D01*
X134550900Y-78513800D02*
X131310900Y-78513800D01*
X131310900Y-78413800D02*
X131310900Y-78513800D01*
X134550900Y-78413800D02*
X134550900Y-78513800D01*
%TO.C,SW4*%
X140264400Y-101564300D02*
X143504400Y-101564300D01*
X143504400Y-101564300D02*
X143504400Y-101464300D01*
X140264400Y-101564300D02*
X140264400Y-101464300D01*
X140264400Y-99324300D02*
X143504400Y-99324300D01*
X143504400Y-99424300D02*
X143504400Y-99324300D01*
X140264400Y-99424300D02*
X140264400Y-99324300D01*
%TO.C,R24*%
X127379000Y-78983621D02*
X127379000Y-79309179D01*
X128399000Y-78983621D02*
X128399000Y-79309179D01*
%TO.C,R23*%
X130101121Y-80126300D02*
X130426679Y-80126300D01*
X130101121Y-79106300D02*
X130426679Y-79106300D01*
%TO.C,R22*%
X133728679Y-79106300D02*
X133403121Y-79106300D01*
X133728679Y-80126300D02*
X133403121Y-80126300D01*
%TO.C,R21*%
X134871679Y-99426300D02*
X134546121Y-99426300D01*
X134871679Y-100446300D02*
X134546121Y-100446300D01*
%TO.C,R20*%
X138110179Y-99426300D02*
X137784621Y-99426300D01*
X138110179Y-100446300D02*
X137784621Y-100446300D01*
%TO.C,C24*%
X125727679Y-99299300D02*
X125402121Y-99299300D01*
X125727679Y-100319300D02*
X125402121Y-100319300D01*
%TO.C,C20*%
X125696478Y-101004300D02*
X125179322Y-101004300D01*
X125696478Y-102424300D02*
X125179322Y-102424300D01*
%TO.C,C17*%
X127521900Y-100566722D02*
X127521900Y-101083878D01*
X128941900Y-100566722D02*
X128941900Y-101083878D01*
%TD*%
M02*
