%TF.GenerationSoftware,KiCad,Pcbnew,(5.1.6)-1*%
%TF.CreationDate,2021-05-23T01:52:29+08:00*%
%TF.ProjectId,HKIA_Tracker,484b4941-5f54-4726-9163-6b65722e6b69,rev?*%
%TF.SameCoordinates,Original*%
%TF.FileFunction,Copper,L4,Bot*%
%TF.FilePolarity,Positive*%
%FSLAX46Y46*%
G04 Gerber Fmt 4.6, Leading zero omitted, Abs format (unit mm)*
G04 Created by KiCad (PCBNEW (5.1.6)-1) date 2021-05-23 01:52:29*
%MOMM*%
%LPD*%
G01*
G04 APERTURE LIST*
%TA.AperFunction,ComponentPad*%
%ADD10O,1.700000X1.700000*%
%TD*%
%TA.AperFunction,ComponentPad*%
%ADD11R,1.700000X1.700000*%
%TD*%
%TA.AperFunction,ComponentPad*%
%ADD12C,6.400000*%
%TD*%
%TA.AperFunction,SMDPad,CuDef*%
%ADD13R,1.000000X2.500000*%
%TD*%
%TA.AperFunction,SMDPad,CuDef*%
%ADD14R,1.800000X1.000000*%
%TD*%
%TA.AperFunction,SMDPad,CuDef*%
%ADD15R,0.550000X1.500000*%
%TD*%
%TA.AperFunction,ViaPad*%
%ADD16C,0.400000*%
%TD*%
%TA.AperFunction,ViaPad*%
%ADD17C,0.800000*%
%TD*%
%TA.AperFunction,Conductor*%
%ADD18C,0.254000*%
%TD*%
%TA.AperFunction,Conductor*%
%ADD19C,0.635000*%
%TD*%
G04 APERTURE END LIST*
D10*
%TO.P,J5,4*%
%TO.N,/ESP_TX*%
X144741900Y-78473300D03*
%TO.P,J5,3*%
%TO.N,GND*%
X142201900Y-78473300D03*
%TO.P,J5,2*%
%TO.N,/ESP_RX*%
X139661900Y-78473300D03*
D11*
%TO.P,J5,1*%
%TO.N,+3.3VP*%
X137121900Y-78473300D03*
%TD*%
D10*
%TO.P,J3,2*%
%TO.N,Net-(J3-Pad2)*%
X123952000Y-107188000D03*
D11*
%TO.P,J3,1*%
%TO.N,Net-(J3-Pad1)*%
X121412000Y-107188000D03*
%TD*%
D12*
%TO.P,H2,1*%
%TO.N,N/C*%
X105000000Y-80000000D03*
%TD*%
%TO.P,H1,1*%
%TO.N,N/C*%
X145000000Y-120000000D03*
%TD*%
D10*
%TO.P,J1,3*%
%TO.N,Net-(D1-Pad2)*%
X102514400Y-116255800D03*
%TO.P,J1,2*%
%TO.N,Net-(D3-Pad2)*%
X102514400Y-118795800D03*
D11*
%TO.P,J1,1*%
%TO.N,Net-(D5-Pad2)*%
X102514400Y-121335800D03*
%TD*%
D13*
%TO.P,U3,22*%
%TO.N,/ESP_TX*%
X140621900Y-82176300D03*
%TO.P,U3,21*%
%TO.N,/ESP_RX*%
X138621900Y-82176300D03*
%TO.P,U3,20*%
%TO.N,Net-(U3-Pad20)*%
X136621900Y-82176300D03*
%TO.P,U3,19*%
%TO.N,Net-(U3-Pad19)*%
X134621900Y-82176300D03*
%TO.P,U3,18*%
%TO.N,/ESP_IO0*%
X132621900Y-82176300D03*
%TO.P,U3,17*%
%TO.N,/ESP_IO2*%
X130621900Y-82176300D03*
%TO.P,U3,16*%
%TO.N,/NRF_RX*%
X128621900Y-82176300D03*
%TO.P,U3,15*%
%TO.N,GND*%
X126621900Y-82176300D03*
D14*
%TO.P,U3,14*%
%TO.N,Net-(U3-Pad14)*%
X125121900Y-84776300D03*
%TO.P,U3,13*%
%TO.N,Net-(U3-Pad13)*%
X125121900Y-86776300D03*
%TO.P,U3,12*%
%TO.N,Net-(U3-Pad12)*%
X125121900Y-88776300D03*
%TO.P,U3,11*%
%TO.N,Net-(U3-Pad11)*%
X125121900Y-90776300D03*
%TO.P,U3,10*%
%TO.N,Net-(U3-Pad10)*%
X125121900Y-92776300D03*
%TO.P,U3,9*%
%TO.N,Net-(U3-Pad9)*%
X125121900Y-94776300D03*
D13*
%TO.P,U3,8*%
%TO.N,+3.3VP*%
X126621900Y-97376300D03*
%TO.P,U3,7*%
%TO.N,/NRF_TX*%
X128621900Y-97376300D03*
%TO.P,U3,6*%
%TO.N,Net-(U3-Pad6)*%
X130621900Y-97376300D03*
%TO.P,U3,5*%
%TO.N,Net-(U3-Pad5)*%
X132621900Y-97376300D03*
%TO.P,U3,4*%
%TO.N,Net-(U3-Pad4)*%
X134621900Y-97376300D03*
%TO.P,U3,3*%
%TO.N,Net-(R21-Pad1)*%
X136621900Y-97376300D03*
%TO.P,U3,2*%
%TO.N,Net-(U3-Pad2)*%
X138621900Y-97376300D03*
%TO.P,U3,1*%
%TO.N,Net-(R20-Pad1)*%
X140621900Y-97376300D03*
%TD*%
D15*
%TO.P,SW5,2*%
%TO.N,GND*%
X131305900Y-77393800D03*
%TO.P,SW5,1*%
%TO.N,/ESP_IO0*%
X134555900Y-77393800D03*
%TD*%
%TO.P,SW4,2*%
%TO.N,GND*%
X143509400Y-100444300D03*
%TO.P,SW4,1*%
%TO.N,Net-(R20-Pad1)*%
X140259400Y-100444300D03*
%TD*%
%TO.P,R24,2*%
%TO.N,/NRF_RX*%
%TA.AperFunction,SMDPad,CuDef*%
G36*
G01*
X127632750Y-79496400D02*
X128145250Y-79496400D01*
G75*
G02*
X128364000Y-79715150I0J-218750D01*
G01*
X128364000Y-80152650D01*
G75*
G02*
X128145250Y-80371400I-218750J0D01*
G01*
X127632750Y-80371400D01*
G75*
G02*
X127414000Y-80152650I0J218750D01*
G01*
X127414000Y-79715150D01*
G75*
G02*
X127632750Y-79496400I218750J0D01*
G01*
G37*
%TD.AperFunction*%
%TO.P,R24,1*%
%TO.N,GND*%
%TA.AperFunction,SMDPad,CuDef*%
G36*
G01*
X127632750Y-77921400D02*
X128145250Y-77921400D01*
G75*
G02*
X128364000Y-78140150I0J-218750D01*
G01*
X128364000Y-78577650D01*
G75*
G02*
X128145250Y-78796400I-218750J0D01*
G01*
X127632750Y-78796400D01*
G75*
G02*
X127414000Y-78577650I0J218750D01*
G01*
X127414000Y-78140150D01*
G75*
G02*
X127632750Y-77921400I218750J0D01*
G01*
G37*
%TD.AperFunction*%
%TD*%
%TO.P,R23,2*%
%TO.N,/ESP_IO2*%
%TA.AperFunction,SMDPad,CuDef*%
G36*
G01*
X130613900Y-79872550D02*
X130613900Y-79360050D01*
G75*
G02*
X130832650Y-79141300I218750J0D01*
G01*
X131270150Y-79141300D01*
G75*
G02*
X131488900Y-79360050I0J-218750D01*
G01*
X131488900Y-79872550D01*
G75*
G02*
X131270150Y-80091300I-218750J0D01*
G01*
X130832650Y-80091300D01*
G75*
G02*
X130613900Y-79872550I0J218750D01*
G01*
G37*
%TD.AperFunction*%
%TO.P,R23,1*%
%TO.N,+3.3VP*%
%TA.AperFunction,SMDPad,CuDef*%
G36*
G01*
X129038900Y-79872550D02*
X129038900Y-79360050D01*
G75*
G02*
X129257650Y-79141300I218750J0D01*
G01*
X129695150Y-79141300D01*
G75*
G02*
X129913900Y-79360050I0J-218750D01*
G01*
X129913900Y-79872550D01*
G75*
G02*
X129695150Y-80091300I-218750J0D01*
G01*
X129257650Y-80091300D01*
G75*
G02*
X129038900Y-79872550I0J218750D01*
G01*
G37*
%TD.AperFunction*%
%TD*%
%TO.P,R22,2*%
%TO.N,/ESP_IO0*%
%TA.AperFunction,SMDPad,CuDef*%
G36*
G01*
X133215900Y-79360050D02*
X133215900Y-79872550D01*
G75*
G02*
X132997150Y-80091300I-218750J0D01*
G01*
X132559650Y-80091300D01*
G75*
G02*
X132340900Y-79872550I0J218750D01*
G01*
X132340900Y-79360050D01*
G75*
G02*
X132559650Y-79141300I218750J0D01*
G01*
X132997150Y-79141300D01*
G75*
G02*
X133215900Y-79360050I0J-218750D01*
G01*
G37*
%TD.AperFunction*%
%TO.P,R22,1*%
%TO.N,+3.3VP*%
%TA.AperFunction,SMDPad,CuDef*%
G36*
G01*
X134790900Y-79360050D02*
X134790900Y-79872550D01*
G75*
G02*
X134572150Y-80091300I-218750J0D01*
G01*
X134134650Y-80091300D01*
G75*
G02*
X133915900Y-79872550I0J218750D01*
G01*
X133915900Y-79360050D01*
G75*
G02*
X134134650Y-79141300I218750J0D01*
G01*
X134572150Y-79141300D01*
G75*
G02*
X134790900Y-79360050I0J-218750D01*
G01*
G37*
%TD.AperFunction*%
%TD*%
%TO.P,R21,2*%
%TO.N,+3.3VP*%
%TA.AperFunction,SMDPad,CuDef*%
G36*
G01*
X134358900Y-99680050D02*
X134358900Y-100192550D01*
G75*
G02*
X134140150Y-100411300I-218750J0D01*
G01*
X133702650Y-100411300D01*
G75*
G02*
X133483900Y-100192550I0J218750D01*
G01*
X133483900Y-99680050D01*
G75*
G02*
X133702650Y-99461300I218750J0D01*
G01*
X134140150Y-99461300D01*
G75*
G02*
X134358900Y-99680050I0J-218750D01*
G01*
G37*
%TD.AperFunction*%
%TO.P,R21,1*%
%TO.N,Net-(R21-Pad1)*%
%TA.AperFunction,SMDPad,CuDef*%
G36*
G01*
X135933900Y-99680050D02*
X135933900Y-100192550D01*
G75*
G02*
X135715150Y-100411300I-218750J0D01*
G01*
X135277650Y-100411300D01*
G75*
G02*
X135058900Y-100192550I0J218750D01*
G01*
X135058900Y-99680050D01*
G75*
G02*
X135277650Y-99461300I218750J0D01*
G01*
X135715150Y-99461300D01*
G75*
G02*
X135933900Y-99680050I0J-218750D01*
G01*
G37*
%TD.AperFunction*%
%TD*%
%TO.P,R20,2*%
%TO.N,+3.3VP*%
%TA.AperFunction,SMDPad,CuDef*%
G36*
G01*
X137597400Y-99680050D02*
X137597400Y-100192550D01*
G75*
G02*
X137378650Y-100411300I-218750J0D01*
G01*
X136941150Y-100411300D01*
G75*
G02*
X136722400Y-100192550I0J218750D01*
G01*
X136722400Y-99680050D01*
G75*
G02*
X136941150Y-99461300I218750J0D01*
G01*
X137378650Y-99461300D01*
G75*
G02*
X137597400Y-99680050I0J-218750D01*
G01*
G37*
%TD.AperFunction*%
%TO.P,R20,1*%
%TO.N,Net-(R20-Pad1)*%
%TA.AperFunction,SMDPad,CuDef*%
G36*
G01*
X139172400Y-99680050D02*
X139172400Y-100192550D01*
G75*
G02*
X138953650Y-100411300I-218750J0D01*
G01*
X138516150Y-100411300D01*
G75*
G02*
X138297400Y-100192550I0J218750D01*
G01*
X138297400Y-99680050D01*
G75*
G02*
X138516150Y-99461300I218750J0D01*
G01*
X138953650Y-99461300D01*
G75*
G02*
X139172400Y-99680050I0J-218750D01*
G01*
G37*
%TD.AperFunction*%
%TD*%
%TO.P,C24,2*%
%TO.N,GND*%
%TA.AperFunction,SMDPad,CuDef*%
G36*
G01*
X125214900Y-99553050D02*
X125214900Y-100065550D01*
G75*
G02*
X124996150Y-100284300I-218750J0D01*
G01*
X124558650Y-100284300D01*
G75*
G02*
X124339900Y-100065550I0J218750D01*
G01*
X124339900Y-99553050D01*
G75*
G02*
X124558650Y-99334300I218750J0D01*
G01*
X124996150Y-99334300D01*
G75*
G02*
X125214900Y-99553050I0J-218750D01*
G01*
G37*
%TD.AperFunction*%
%TO.P,C24,1*%
%TO.N,+3.3VP*%
%TA.AperFunction,SMDPad,CuDef*%
G36*
G01*
X126789900Y-99553050D02*
X126789900Y-100065550D01*
G75*
G02*
X126571150Y-100284300I-218750J0D01*
G01*
X126133650Y-100284300D01*
G75*
G02*
X125914900Y-100065550I0J218750D01*
G01*
X125914900Y-99553050D01*
G75*
G02*
X126133650Y-99334300I218750J0D01*
G01*
X126571150Y-99334300D01*
G75*
G02*
X126789900Y-99553050I0J-218750D01*
G01*
G37*
%TD.AperFunction*%
%TD*%
%TO.P,C20,2*%
%TO.N,GND*%
%TA.AperFunction,SMDPad,CuDef*%
G36*
G01*
X124987900Y-101258050D02*
X124987900Y-102170550D01*
G75*
G02*
X124744150Y-102414300I-243750J0D01*
G01*
X124256650Y-102414300D01*
G75*
G02*
X124012900Y-102170550I0J243750D01*
G01*
X124012900Y-101258050D01*
G75*
G02*
X124256650Y-101014300I243750J0D01*
G01*
X124744150Y-101014300D01*
G75*
G02*
X124987900Y-101258050I0J-243750D01*
G01*
G37*
%TD.AperFunction*%
%TO.P,C20,1*%
%TO.N,+3.3VP*%
%TA.AperFunction,SMDPad,CuDef*%
G36*
G01*
X126862900Y-101258050D02*
X126862900Y-102170550D01*
G75*
G02*
X126619150Y-102414300I-243750J0D01*
G01*
X126131650Y-102414300D01*
G75*
G02*
X125887900Y-102170550I0J243750D01*
G01*
X125887900Y-101258050D01*
G75*
G02*
X126131650Y-101014300I243750J0D01*
G01*
X126619150Y-101014300D01*
G75*
G02*
X126862900Y-101258050I0J-243750D01*
G01*
G37*
%TD.AperFunction*%
%TD*%
%TO.P,C17,2*%
%TO.N,GND*%
%TA.AperFunction,SMDPad,CuDef*%
G36*
G01*
X127775650Y-101275300D02*
X128688150Y-101275300D01*
G75*
G02*
X128931900Y-101519050I0J-243750D01*
G01*
X128931900Y-102006550D01*
G75*
G02*
X128688150Y-102250300I-243750J0D01*
G01*
X127775650Y-102250300D01*
G75*
G02*
X127531900Y-102006550I0J243750D01*
G01*
X127531900Y-101519050D01*
G75*
G02*
X127775650Y-101275300I243750J0D01*
G01*
G37*
%TD.AperFunction*%
%TO.P,C17,1*%
%TO.N,+3.3VP*%
%TA.AperFunction,SMDPad,CuDef*%
G36*
G01*
X127775650Y-99400300D02*
X128688150Y-99400300D01*
G75*
G02*
X128931900Y-99644050I0J-243750D01*
G01*
X128931900Y-100131550D01*
G75*
G02*
X128688150Y-100375300I-243750J0D01*
G01*
X127775650Y-100375300D01*
G75*
G02*
X127531900Y-100131550I0J243750D01*
G01*
X127531900Y-99644050D01*
G75*
G02*
X127775650Y-99400300I243750J0D01*
G01*
G37*
%TD.AperFunction*%
%TD*%
D16*
%TO.N,GND*%
X110744000Y-121666000D03*
X109601000Y-121666000D03*
X109601000Y-122555000D03*
X110744000Y-122555000D03*
X110744000Y-120777000D03*
X109601000Y-120777000D03*
X105791000Y-121666000D03*
X106934000Y-121666000D03*
X106934000Y-120777000D03*
X106934000Y-122555000D03*
X105791000Y-122555000D03*
X105791000Y-120777000D03*
X129413000Y-117094000D03*
X130683000Y-117094000D03*
X130683000Y-118364000D03*
X129413000Y-118364000D03*
X130048000Y-118364000D03*
X130048000Y-117094000D03*
X130683000Y-117729000D03*
X129413000Y-117729000D03*
X130048000Y-117729000D03*
D17*
X101854000Y-94742000D03*
X108458000Y-95123000D03*
X107188000Y-91186000D03*
X104648000Y-89789000D03*
X103809935Y-92625658D03*
X106553000Y-85471000D03*
X111633000Y-85725000D03*
X111633000Y-83185000D03*
X111633000Y-81915000D03*
X125476000Y-81915000D03*
X127508000Y-84201000D03*
X125476000Y-83185000D03*
X129032000Y-78232000D03*
X130175000Y-77216000D03*
X131826000Y-78740000D03*
X132461000Y-88138000D03*
X133604000Y-89789000D03*
X133604000Y-91059000D03*
X133604000Y-93599000D03*
X130937000Y-93218000D03*
X124714000Y-98806000D03*
X123571000Y-101092000D03*
X123571000Y-102108000D03*
X129045802Y-101092000D03*
X134112000Y-102362000D03*
X134112000Y-103505000D03*
D16*
X132207000Y-104140000D03*
X132207000Y-104648000D03*
X132207000Y-105156000D03*
X132207000Y-105664000D03*
X132207000Y-106172000D03*
X130048000Y-106172000D03*
D17*
X128803400Y-110134400D03*
X128803398Y-108483398D03*
X128524000Y-111506000D03*
X130175000Y-111506000D03*
X131826000Y-111506000D03*
X135636000Y-111252000D03*
X136652000Y-111252000D03*
X137668000Y-111252000D03*
X138684000Y-111252000D03*
X140208000Y-106426000D03*
X141224000Y-106426000D03*
X142240000Y-106426000D03*
X143256000Y-106426000D03*
X143256000Y-105283000D03*
X142240000Y-105283000D03*
X141224000Y-105283000D03*
X140208000Y-105283000D03*
X107569000Y-105156000D03*
X108204000Y-106426000D03*
X108966000Y-102997000D03*
X111887000Y-108204000D03*
X115316000Y-108585000D03*
X118999000Y-109347000D03*
X118364000Y-108585000D03*
X117094000Y-108585000D03*
X112141000Y-116459000D03*
X112141000Y-117602000D03*
X113411000Y-118745000D03*
X119126000Y-116332000D03*
X119126000Y-117983000D03*
X119634000Y-117094000D03*
X143510000Y-101727000D03*
X136398000Y-119380000D03*
X138303000Y-119634000D03*
X136017000Y-122047000D03*
X139192000Y-121031000D03*
X138303000Y-120522986D03*
X138303000Y-121411994D03*
X140589000Y-121920000D03*
X136398000Y-113919000D03*
X136906000Y-115951000D03*
X136906000Y-117094000D03*
X128270000Y-120269000D03*
X128016000Y-122301000D03*
X130937000Y-122301000D03*
X119126000Y-118872000D03*
%TO.N,+3V3*%
X101600000Y-91567000D03*
X101600000Y-97028000D03*
X105791000Y-96647000D03*
X137922000Y-114300000D03*
X138938000Y-114300000D03*
X139954000Y-114300000D03*
X140970000Y-114300000D03*
X141986000Y-114300000D03*
X141986000Y-115316000D03*
X140970000Y-115316000D03*
X140970000Y-116332000D03*
X141986000Y-116332000D03*
X141986000Y-117348000D03*
X140970000Y-117348000D03*
X140970000Y-118364000D03*
X139954000Y-118364000D03*
X139954000Y-117348000D03*
X133604000Y-88519000D03*
X132461000Y-90424000D03*
X110617000Y-103632000D03*
X110617000Y-104648000D03*
X110617000Y-105664000D03*
D16*
X134493000Y-95123000D03*
X135721898Y-97821800D03*
D17*
%TO.N,Net-(C7-Pad1)*%
X115697000Y-118618000D03*
X115697000Y-119634000D03*
X115697000Y-120650000D03*
X115697000Y-121666000D03*
X121285000Y-114935000D03*
X119507000Y-114935000D03*
X120396000Y-114935000D03*
%TO.N,VBUS*%
X125984000Y-107696000D03*
X125984000Y-108712000D03*
X125984000Y-109728000D03*
X125984000Y-110744000D03*
X127635000Y-110744000D03*
X127635000Y-109728000D03*
X127635000Y-108712000D03*
D16*
X133731000Y-114300000D03*
X133731000Y-114808000D03*
X133731000Y-115316000D03*
X133731000Y-115824000D03*
X134239000Y-115824000D03*
X134747000Y-115824000D03*
X135255000Y-115824000D03*
X135255000Y-115316000D03*
X135255000Y-114808000D03*
X135255000Y-114300000D03*
X135001000Y-116332000D03*
X135001000Y-116840000D03*
X135001000Y-117348000D03*
D17*
%TO.N,+3.3VP*%
X135763000Y-79883000D03*
X130175000Y-99949000D03*
X130175000Y-100965000D03*
X132842000Y-99949000D03*
X137795000Y-100584000D03*
X136779000Y-104902000D03*
X136779000Y-105791000D03*
X136779000Y-106680000D03*
X136779000Y-107569000D03*
X130175000Y-78486000D03*
%TO.N,Net-(D5-Pad2)*%
X115697000Y-113665000D03*
X115697000Y-115062000D03*
X112268000Y-115062000D03*
X112268000Y-113665000D03*
%TO.N,+BATT*%
X117410228Y-107636315D03*
X131953000Y-114935000D03*
D16*
%TO.N,Net-(R10-Pad2)*%
X124968000Y-116332000D03*
X124968000Y-121285000D03*
X124968000Y-119634000D03*
D17*
%TO.N,/NRF_RX*%
X123062984Y-86106016D03*
%TO.N,/SDA*%
X102819200Y-96901000D03*
X108432600Y-91313000D03*
%TO.N,/SCL*%
X104394000Y-96824800D03*
X108432600Y-92811600D03*
%TO.N,/NRF_TX*%
X120142000Y-97409000D03*
%TO.N,/ESP_EN*%
X117602000Y-105664000D03*
X130538038Y-107442000D03*
%TO.N,/DRDY*%
X104521000Y-93345000D03*
X108585000Y-89535000D03*
%TD*%
D18*
%TO.N,GND*%
X126621900Y-82176300D02*
X126484700Y-82176300D01*
X126484700Y-82176300D02*
X125476000Y-83185000D01*
X127889000Y-78460500D02*
X128803500Y-78460500D01*
X128803500Y-78460500D02*
X129032000Y-78232000D01*
X131305900Y-77393800D02*
X130352800Y-77393800D01*
X130352800Y-77393800D02*
X130175000Y-77216000D01*
X124777400Y-99809300D02*
X124777400Y-98869400D01*
X124777400Y-98869400D02*
X124714000Y-98806000D01*
X124500400Y-101714300D02*
X124193300Y-101714300D01*
X124193300Y-101714300D02*
X123571000Y-101092000D01*
X124500400Y-101714300D02*
X123964700Y-101714300D01*
X123964700Y-101714300D02*
X123571000Y-102108000D01*
X128231900Y-101762800D02*
X128375002Y-101762800D01*
X128375002Y-101762800D02*
X129045802Y-101092000D01*
X143509400Y-100444300D02*
X143509400Y-101726400D01*
X143509400Y-101726400D02*
X143510000Y-101727000D01*
%TO.N,+3.3VP*%
X134353400Y-79616300D02*
X135496300Y-79616300D01*
X135496300Y-79616300D02*
X135763000Y-79883000D01*
X133921400Y-99936300D02*
X132854700Y-99936300D01*
X132854700Y-99936300D02*
X132842000Y-99949000D01*
X137159900Y-99936300D02*
X137159900Y-99948900D01*
X137159900Y-99948900D02*
X137795000Y-100584000D01*
X129476400Y-79184600D02*
X130175000Y-78486000D01*
X129476400Y-79616300D02*
X129476400Y-79184600D01*
%TO.N,/ESP_TX*%
X140621900Y-82176300D02*
X140621900Y-80789900D01*
X140621900Y-80789900D02*
X141376400Y-80035400D01*
X143179800Y-80035400D02*
X144741900Y-78473300D01*
X141376400Y-80035400D02*
X143179800Y-80035400D01*
%TO.N,/ESP_RX*%
X138621900Y-79513300D02*
X139661900Y-78473300D01*
X138621900Y-82176300D02*
X138621900Y-79513300D01*
%TO.N,+BATT*%
X125789962Y-114935000D02*
X131953000Y-114935000D01*
X117410228Y-107636315D02*
X118491277Y-107636315D01*
X118491277Y-107636315D02*
X125789962Y-114935000D01*
%TO.N,Net-(R10-Pad2)*%
X124968000Y-116332000D02*
X124968000Y-119634000D01*
X124968000Y-119634000D02*
X124968000Y-121285000D01*
D19*
%TO.N,Net-(R20-Pad1)*%
X139751400Y-99936300D02*
X140259400Y-100444300D01*
X138734900Y-99936300D02*
X139751400Y-99936300D01*
X140589000Y-97409200D02*
X140621900Y-97376300D01*
X140259400Y-100444300D02*
X140589000Y-100114700D01*
X140589000Y-100114700D02*
X140589000Y-97409200D01*
%TO.N,Net-(R21-Pad1)*%
X136621900Y-98810800D02*
X136621900Y-97376300D01*
X135496400Y-99936300D02*
X136621900Y-98810800D01*
%TO.N,/ESP_IO0*%
X132621900Y-79772800D02*
X132778400Y-79616300D01*
X132621900Y-82176300D02*
X132621900Y-79772800D01*
X132778400Y-79171300D02*
X134555900Y-77393800D01*
X132778400Y-79616300D02*
X132778400Y-79171300D01*
%TO.N,/ESP_IO2*%
X130621900Y-80045800D02*
X131051400Y-79616300D01*
X130621900Y-82176300D02*
X130621900Y-80045800D01*
D18*
%TO.N,/NRF_RX*%
X128621900Y-80768400D02*
X127889000Y-80035500D01*
X128621900Y-82176300D02*
X128621900Y-80768400D01*
X123462983Y-85706017D02*
X123062984Y-86106016D01*
X127078945Y-85706017D02*
X123462983Y-85706017D01*
X128621900Y-84163062D02*
X127078945Y-85706017D01*
X128621900Y-82176300D02*
X128621900Y-84163062D01*
%TO.N,/SDA*%
X102819200Y-96901000D02*
X108407200Y-91313000D01*
X108407200Y-91313000D02*
X108432600Y-91313000D01*
%TO.N,/SCL*%
X104394000Y-96824800D02*
X108407200Y-92811600D01*
X108407200Y-92811600D02*
X108432600Y-92811600D01*
%TO.N,/NRF_TX*%
X121920000Y-95631000D02*
X120142000Y-97409000D01*
X128621900Y-97376300D02*
X128621900Y-95872300D01*
X128380600Y-95631000D02*
X121920000Y-95631000D01*
X128621900Y-95872300D02*
X128380600Y-95631000D01*
%TO.N,/ESP_EN*%
X128760038Y-105664000D02*
X130538038Y-107442000D01*
X117602000Y-105664000D02*
X128760038Y-105664000D01*
%TO.N,/DRDY*%
X107763038Y-89535000D02*
X108585000Y-89535000D01*
X104521000Y-93345000D02*
X104521000Y-92777038D01*
X104521000Y-92777038D02*
X107763038Y-89535000D01*
%TD*%
%TO.N,Net-(C7-Pad1)*%
G36*
X121666000Y-115443000D02*
G01*
X119634000Y-115443000D01*
X119609224Y-115445440D01*
X119585399Y-115452667D01*
X119563443Y-115464403D01*
X119544197Y-115480197D01*
X119528403Y-115499443D01*
X119516667Y-115521399D01*
X119509440Y-115545224D01*
X119507000Y-115570000D01*
X119507000Y-115712220D01*
X119470364Y-115687741D01*
X119338058Y-115632938D01*
X119197603Y-115605000D01*
X119054397Y-115605000D01*
X118913942Y-115632938D01*
X118781636Y-115687741D01*
X118662564Y-115767302D01*
X118561302Y-115868564D01*
X118481741Y-115987636D01*
X118426938Y-116119942D01*
X118399000Y-116260397D01*
X118399000Y-116403603D01*
X118426938Y-116544058D01*
X118481741Y-116676364D01*
X118561302Y-116795436D01*
X118662564Y-116896698D01*
X118781636Y-116976259D01*
X118907000Y-117028187D01*
X118907000Y-117165603D01*
X118929906Y-117280762D01*
X118913942Y-117283938D01*
X118781636Y-117338741D01*
X118662564Y-117418302D01*
X118561302Y-117519564D01*
X118481741Y-117638636D01*
X118426938Y-117770942D01*
X118399000Y-117911397D01*
X118399000Y-118054603D01*
X118426938Y-118195058D01*
X118481741Y-118327364D01*
X118548649Y-118427500D01*
X118481741Y-118527636D01*
X118426938Y-118659942D01*
X118399000Y-118800397D01*
X118399000Y-118943603D01*
X118426938Y-119084058D01*
X118481741Y-119216364D01*
X118561302Y-119335436D01*
X118662564Y-119436698D01*
X118781636Y-119516259D01*
X118913942Y-119571062D01*
X119054397Y-119599000D01*
X119197603Y-119599000D01*
X119338058Y-119571062D01*
X119380000Y-119553689D01*
X119380000Y-119682000D01*
X119380200Y-119689121D01*
X119399063Y-120025014D01*
X119400657Y-120039166D01*
X119457010Y-120370836D01*
X119460180Y-120384721D01*
X119507000Y-120547236D01*
X119507000Y-122174000D01*
X114808000Y-122174000D01*
X114808000Y-116459000D01*
X117094000Y-116459000D01*
X117118776Y-116456560D01*
X117142601Y-116449333D01*
X117164557Y-116437597D01*
X117183803Y-116421803D01*
X117199597Y-116402557D01*
X117211333Y-116380601D01*
X117218560Y-116356776D01*
X117221000Y-116332000D01*
X117221000Y-113157000D01*
X121666000Y-113157000D01*
X121666000Y-115443000D01*
G37*
X121666000Y-115443000D02*
X119634000Y-115443000D01*
X119609224Y-115445440D01*
X119585399Y-115452667D01*
X119563443Y-115464403D01*
X119544197Y-115480197D01*
X119528403Y-115499443D01*
X119516667Y-115521399D01*
X119509440Y-115545224D01*
X119507000Y-115570000D01*
X119507000Y-115712220D01*
X119470364Y-115687741D01*
X119338058Y-115632938D01*
X119197603Y-115605000D01*
X119054397Y-115605000D01*
X118913942Y-115632938D01*
X118781636Y-115687741D01*
X118662564Y-115767302D01*
X118561302Y-115868564D01*
X118481741Y-115987636D01*
X118426938Y-116119942D01*
X118399000Y-116260397D01*
X118399000Y-116403603D01*
X118426938Y-116544058D01*
X118481741Y-116676364D01*
X118561302Y-116795436D01*
X118662564Y-116896698D01*
X118781636Y-116976259D01*
X118907000Y-117028187D01*
X118907000Y-117165603D01*
X118929906Y-117280762D01*
X118913942Y-117283938D01*
X118781636Y-117338741D01*
X118662564Y-117418302D01*
X118561302Y-117519564D01*
X118481741Y-117638636D01*
X118426938Y-117770942D01*
X118399000Y-117911397D01*
X118399000Y-118054603D01*
X118426938Y-118195058D01*
X118481741Y-118327364D01*
X118548649Y-118427500D01*
X118481741Y-118527636D01*
X118426938Y-118659942D01*
X118399000Y-118800397D01*
X118399000Y-118943603D01*
X118426938Y-119084058D01*
X118481741Y-119216364D01*
X118561302Y-119335436D01*
X118662564Y-119436698D01*
X118781636Y-119516259D01*
X118913942Y-119571062D01*
X119054397Y-119599000D01*
X119197603Y-119599000D01*
X119338058Y-119571062D01*
X119380000Y-119553689D01*
X119380000Y-119682000D01*
X119380200Y-119689121D01*
X119399063Y-120025014D01*
X119400657Y-120039166D01*
X119457010Y-120370836D01*
X119460180Y-120384721D01*
X119507000Y-120547236D01*
X119507000Y-122174000D01*
X114808000Y-122174000D01*
X114808000Y-116459000D01*
X117094000Y-116459000D01*
X117118776Y-116456560D01*
X117142601Y-116449333D01*
X117164557Y-116437597D01*
X117183803Y-116421803D01*
X117199597Y-116402557D01*
X117211333Y-116380601D01*
X117218560Y-116356776D01*
X117221000Y-116332000D01*
X117221000Y-113157000D01*
X121666000Y-113157000D01*
X121666000Y-115443000D01*
%TO.N,+3.3VP*%
G36*
X127508000Y-98933000D02*
G01*
X127510440Y-98957776D01*
X127517667Y-98981601D01*
X127529403Y-99003557D01*
X127545197Y-99022803D01*
X127564443Y-99038597D01*
X127586399Y-99050333D01*
X127610224Y-99057560D01*
X127635000Y-99060000D01*
X130683000Y-99060000D01*
X130683000Y-101854000D01*
X129260482Y-101854000D01*
X129260482Y-101789976D01*
X129390166Y-101736259D01*
X129509238Y-101656698D01*
X129610500Y-101555436D01*
X129690061Y-101436364D01*
X129744864Y-101304058D01*
X129772802Y-101163603D01*
X129772802Y-101020397D01*
X129744864Y-100879942D01*
X129690061Y-100747636D01*
X129610500Y-100628564D01*
X129509238Y-100527302D01*
X129390166Y-100447741D01*
X129257860Y-100392938D01*
X129117405Y-100365000D01*
X128974199Y-100365000D01*
X128833744Y-100392938D01*
X128701438Y-100447741D01*
X128582366Y-100527302D01*
X128481104Y-100628564D01*
X128401543Y-100747636D01*
X128346740Y-100879942D01*
X128333458Y-100946718D01*
X127775650Y-100946718D01*
X127663994Y-100957715D01*
X127556628Y-100990284D01*
X127457679Y-101043173D01*
X127370950Y-101114350D01*
X127299773Y-101201079D01*
X127246884Y-101300028D01*
X127214315Y-101407394D01*
X127203318Y-101519050D01*
X127203318Y-101854000D01*
X125857000Y-101854000D01*
X125857000Y-96139000D01*
X127508000Y-96139000D01*
X127508000Y-98933000D01*
G37*
X127508000Y-98933000D02*
X127510440Y-98957776D01*
X127517667Y-98981601D01*
X127529403Y-99003557D01*
X127545197Y-99022803D01*
X127564443Y-99038597D01*
X127586399Y-99050333D01*
X127610224Y-99057560D01*
X127635000Y-99060000D01*
X130683000Y-99060000D01*
X130683000Y-101854000D01*
X129260482Y-101854000D01*
X129260482Y-101789976D01*
X129390166Y-101736259D01*
X129509238Y-101656698D01*
X129610500Y-101555436D01*
X129690061Y-101436364D01*
X129744864Y-101304058D01*
X129772802Y-101163603D01*
X129772802Y-101020397D01*
X129744864Y-100879942D01*
X129690061Y-100747636D01*
X129610500Y-100628564D01*
X129509238Y-100527302D01*
X129390166Y-100447741D01*
X129257860Y-100392938D01*
X129117405Y-100365000D01*
X128974199Y-100365000D01*
X128833744Y-100392938D01*
X128701438Y-100447741D01*
X128582366Y-100527302D01*
X128481104Y-100628564D01*
X128401543Y-100747636D01*
X128346740Y-100879942D01*
X128333458Y-100946718D01*
X127775650Y-100946718D01*
X127663994Y-100957715D01*
X127556628Y-100990284D01*
X127457679Y-101043173D01*
X127370950Y-101114350D01*
X127299773Y-101201079D01*
X127246884Y-101300028D01*
X127214315Y-101407394D01*
X127203318Y-101519050D01*
X127203318Y-101854000D01*
X125857000Y-101854000D01*
X125857000Y-96139000D01*
X127508000Y-96139000D01*
X127508000Y-98933000D01*
%TO.N,Net-(D5-Pad2)*%
G36*
X116586000Y-115824000D02*
G01*
X114300000Y-115824000D01*
X114275224Y-115826440D01*
X114251399Y-115833667D01*
X114229443Y-115845403D01*
X114210197Y-115861197D01*
X114194403Y-115880443D01*
X114182667Y-115902399D01*
X114175440Y-115926224D01*
X114173000Y-115951000D01*
X114173000Y-123698000D01*
X101600000Y-123698000D01*
X101600000Y-120725095D01*
X105264000Y-120725095D01*
X105264000Y-120828905D01*
X105284252Y-120930720D01*
X105323979Y-121026628D01*
X105381652Y-121112943D01*
X105455057Y-121186348D01*
X105507666Y-121221500D01*
X105455057Y-121256652D01*
X105381652Y-121330057D01*
X105323979Y-121416372D01*
X105284252Y-121512280D01*
X105264000Y-121614095D01*
X105264000Y-121717905D01*
X105284252Y-121819720D01*
X105323979Y-121915628D01*
X105381652Y-122001943D01*
X105455057Y-122075348D01*
X105507666Y-122110500D01*
X105455057Y-122145652D01*
X105381652Y-122219057D01*
X105323979Y-122305372D01*
X105284252Y-122401280D01*
X105264000Y-122503095D01*
X105264000Y-122606905D01*
X105284252Y-122708720D01*
X105323979Y-122804628D01*
X105381652Y-122890943D01*
X105455057Y-122964348D01*
X105541372Y-123022021D01*
X105637280Y-123061748D01*
X105739095Y-123082000D01*
X105842905Y-123082000D01*
X105944720Y-123061748D01*
X106040628Y-123022021D01*
X106126943Y-122964348D01*
X106200348Y-122890943D01*
X106258021Y-122804628D01*
X106297748Y-122708720D01*
X106318000Y-122606905D01*
X106318000Y-122503095D01*
X106297748Y-122401280D01*
X106258021Y-122305372D01*
X106200348Y-122219057D01*
X106126943Y-122145652D01*
X106074334Y-122110500D01*
X106126943Y-122075348D01*
X106200348Y-122001943D01*
X106258021Y-121915628D01*
X106297748Y-121819720D01*
X106318000Y-121717905D01*
X106318000Y-121614095D01*
X106297748Y-121512280D01*
X106258021Y-121416372D01*
X106200348Y-121330057D01*
X106126943Y-121256652D01*
X106074334Y-121221500D01*
X106126943Y-121186348D01*
X106200348Y-121112943D01*
X106258021Y-121026628D01*
X106297748Y-120930720D01*
X106318000Y-120828905D01*
X106318000Y-120725095D01*
X106407000Y-120725095D01*
X106407000Y-120828905D01*
X106427252Y-120930720D01*
X106466979Y-121026628D01*
X106524652Y-121112943D01*
X106598057Y-121186348D01*
X106650666Y-121221500D01*
X106598057Y-121256652D01*
X106524652Y-121330057D01*
X106466979Y-121416372D01*
X106427252Y-121512280D01*
X106407000Y-121614095D01*
X106407000Y-121717905D01*
X106427252Y-121819720D01*
X106466979Y-121915628D01*
X106524652Y-122001943D01*
X106598057Y-122075348D01*
X106650666Y-122110500D01*
X106598057Y-122145652D01*
X106524652Y-122219057D01*
X106466979Y-122305372D01*
X106427252Y-122401280D01*
X106407000Y-122503095D01*
X106407000Y-122606905D01*
X106427252Y-122708720D01*
X106466979Y-122804628D01*
X106524652Y-122890943D01*
X106598057Y-122964348D01*
X106684372Y-123022021D01*
X106780280Y-123061748D01*
X106882095Y-123082000D01*
X106985905Y-123082000D01*
X107087720Y-123061748D01*
X107183628Y-123022021D01*
X107269943Y-122964348D01*
X107343348Y-122890943D01*
X107401021Y-122804628D01*
X107440748Y-122708720D01*
X107461000Y-122606905D01*
X107461000Y-122503095D01*
X107440748Y-122401280D01*
X107401021Y-122305372D01*
X107343348Y-122219057D01*
X107269943Y-122145652D01*
X107217334Y-122110500D01*
X107269943Y-122075348D01*
X107343348Y-122001943D01*
X107401021Y-121915628D01*
X107440748Y-121819720D01*
X107461000Y-121717905D01*
X107461000Y-121614095D01*
X107440748Y-121512280D01*
X107401021Y-121416372D01*
X107343348Y-121330057D01*
X107269943Y-121256652D01*
X107217334Y-121221500D01*
X107269943Y-121186348D01*
X107343348Y-121112943D01*
X107401021Y-121026628D01*
X107440748Y-120930720D01*
X107461000Y-120828905D01*
X107461000Y-120725095D01*
X109074000Y-120725095D01*
X109074000Y-120828905D01*
X109094252Y-120930720D01*
X109133979Y-121026628D01*
X109191652Y-121112943D01*
X109265057Y-121186348D01*
X109317666Y-121221500D01*
X109265057Y-121256652D01*
X109191652Y-121330057D01*
X109133979Y-121416372D01*
X109094252Y-121512280D01*
X109074000Y-121614095D01*
X109074000Y-121717905D01*
X109094252Y-121819720D01*
X109133979Y-121915628D01*
X109191652Y-122001943D01*
X109265057Y-122075348D01*
X109317666Y-122110500D01*
X109265057Y-122145652D01*
X109191652Y-122219057D01*
X109133979Y-122305372D01*
X109094252Y-122401280D01*
X109074000Y-122503095D01*
X109074000Y-122606905D01*
X109094252Y-122708720D01*
X109133979Y-122804628D01*
X109191652Y-122890943D01*
X109265057Y-122964348D01*
X109351372Y-123022021D01*
X109447280Y-123061748D01*
X109549095Y-123082000D01*
X109652905Y-123082000D01*
X109754720Y-123061748D01*
X109850628Y-123022021D01*
X109936943Y-122964348D01*
X110010348Y-122890943D01*
X110068021Y-122804628D01*
X110107748Y-122708720D01*
X110128000Y-122606905D01*
X110128000Y-122503095D01*
X110107748Y-122401280D01*
X110068021Y-122305372D01*
X110010348Y-122219057D01*
X109936943Y-122145652D01*
X109884334Y-122110500D01*
X109936943Y-122075348D01*
X110010348Y-122001943D01*
X110068021Y-121915628D01*
X110107748Y-121819720D01*
X110128000Y-121717905D01*
X110128000Y-121614095D01*
X110107748Y-121512280D01*
X110068021Y-121416372D01*
X110010348Y-121330057D01*
X109936943Y-121256652D01*
X109884334Y-121221500D01*
X109936943Y-121186348D01*
X110010348Y-121112943D01*
X110068021Y-121026628D01*
X110107748Y-120930720D01*
X110128000Y-120828905D01*
X110128000Y-120725095D01*
X110217000Y-120725095D01*
X110217000Y-120828905D01*
X110237252Y-120930720D01*
X110276979Y-121026628D01*
X110334652Y-121112943D01*
X110408057Y-121186348D01*
X110460666Y-121221500D01*
X110408057Y-121256652D01*
X110334652Y-121330057D01*
X110276979Y-121416372D01*
X110237252Y-121512280D01*
X110217000Y-121614095D01*
X110217000Y-121717905D01*
X110237252Y-121819720D01*
X110276979Y-121915628D01*
X110334652Y-122001943D01*
X110408057Y-122075348D01*
X110460666Y-122110500D01*
X110408057Y-122145652D01*
X110334652Y-122219057D01*
X110276979Y-122305372D01*
X110237252Y-122401280D01*
X110217000Y-122503095D01*
X110217000Y-122606905D01*
X110237252Y-122708720D01*
X110276979Y-122804628D01*
X110334652Y-122890943D01*
X110408057Y-122964348D01*
X110494372Y-123022021D01*
X110590280Y-123061748D01*
X110692095Y-123082000D01*
X110795905Y-123082000D01*
X110897720Y-123061748D01*
X110993628Y-123022021D01*
X111079943Y-122964348D01*
X111153348Y-122890943D01*
X111211021Y-122804628D01*
X111250748Y-122708720D01*
X111271000Y-122606905D01*
X111271000Y-122503095D01*
X111250748Y-122401280D01*
X111211021Y-122305372D01*
X111153348Y-122219057D01*
X111079943Y-122145652D01*
X111027334Y-122110500D01*
X111079943Y-122075348D01*
X111153348Y-122001943D01*
X111211021Y-121915628D01*
X111250748Y-121819720D01*
X111271000Y-121717905D01*
X111271000Y-121614095D01*
X111250748Y-121512280D01*
X111211021Y-121416372D01*
X111153348Y-121330057D01*
X111079943Y-121256652D01*
X111027334Y-121221500D01*
X111079943Y-121186348D01*
X111153348Y-121112943D01*
X111211021Y-121026628D01*
X111250748Y-120930720D01*
X111271000Y-120828905D01*
X111271000Y-120725095D01*
X111250748Y-120623280D01*
X111211021Y-120527372D01*
X111153348Y-120441057D01*
X111079943Y-120367652D01*
X110993628Y-120309979D01*
X110897720Y-120270252D01*
X110795905Y-120250000D01*
X110692095Y-120250000D01*
X110590280Y-120270252D01*
X110494372Y-120309979D01*
X110408057Y-120367652D01*
X110334652Y-120441057D01*
X110276979Y-120527372D01*
X110237252Y-120623280D01*
X110217000Y-120725095D01*
X110128000Y-120725095D01*
X110107748Y-120623280D01*
X110068021Y-120527372D01*
X110010348Y-120441057D01*
X109936943Y-120367652D01*
X109850628Y-120309979D01*
X109754720Y-120270252D01*
X109652905Y-120250000D01*
X109549095Y-120250000D01*
X109447280Y-120270252D01*
X109351372Y-120309979D01*
X109265057Y-120367652D01*
X109191652Y-120441057D01*
X109133979Y-120527372D01*
X109094252Y-120623280D01*
X109074000Y-120725095D01*
X107461000Y-120725095D01*
X107440748Y-120623280D01*
X107401021Y-120527372D01*
X107343348Y-120441057D01*
X107269943Y-120367652D01*
X107183628Y-120309979D01*
X107087720Y-120270252D01*
X106985905Y-120250000D01*
X106882095Y-120250000D01*
X106780280Y-120270252D01*
X106684372Y-120309979D01*
X106598057Y-120367652D01*
X106524652Y-120441057D01*
X106466979Y-120527372D01*
X106427252Y-120623280D01*
X106407000Y-120725095D01*
X106318000Y-120725095D01*
X106297748Y-120623280D01*
X106258021Y-120527372D01*
X106200348Y-120441057D01*
X106126943Y-120367652D01*
X106040628Y-120309979D01*
X105944720Y-120270252D01*
X105842905Y-120250000D01*
X105739095Y-120250000D01*
X105637280Y-120270252D01*
X105541372Y-120309979D01*
X105455057Y-120367652D01*
X105381652Y-120441057D01*
X105323979Y-120527372D01*
X105284252Y-120623280D01*
X105264000Y-120725095D01*
X101600000Y-120725095D01*
X101600000Y-119545849D01*
X101600164Y-119546094D01*
X101764106Y-119710036D01*
X101956881Y-119838844D01*
X102171082Y-119927569D01*
X102398476Y-119972800D01*
X102630324Y-119972800D01*
X102857718Y-119927569D01*
X103071919Y-119838844D01*
X103264694Y-119710036D01*
X103428636Y-119546094D01*
X103557444Y-119353319D01*
X103646169Y-119139118D01*
X103691400Y-118911724D01*
X103691400Y-118679876D01*
X103690112Y-118673397D01*
X112684000Y-118673397D01*
X112684000Y-118816603D01*
X112711938Y-118957058D01*
X112766741Y-119089364D01*
X112846302Y-119208436D01*
X112947564Y-119309698D01*
X113066636Y-119389259D01*
X113198942Y-119444062D01*
X113339397Y-119472000D01*
X113482603Y-119472000D01*
X113623058Y-119444062D01*
X113755364Y-119389259D01*
X113874436Y-119309698D01*
X113975698Y-119208436D01*
X114055259Y-119089364D01*
X114110062Y-118957058D01*
X114138000Y-118816603D01*
X114138000Y-118673397D01*
X114110062Y-118532942D01*
X114055259Y-118400636D01*
X113975698Y-118281564D01*
X113874436Y-118180302D01*
X113755364Y-118100741D01*
X113623058Y-118045938D01*
X113482603Y-118018000D01*
X113339397Y-118018000D01*
X113198942Y-118045938D01*
X113066636Y-118100741D01*
X112947564Y-118180302D01*
X112846302Y-118281564D01*
X112766741Y-118400636D01*
X112711938Y-118532942D01*
X112684000Y-118673397D01*
X103690112Y-118673397D01*
X103646169Y-118452482D01*
X103557444Y-118238281D01*
X103428636Y-118045506D01*
X103264694Y-117881564D01*
X103071919Y-117752756D01*
X102857718Y-117664031D01*
X102630324Y-117618800D01*
X102398476Y-117618800D01*
X102171082Y-117664031D01*
X101956881Y-117752756D01*
X101764106Y-117881564D01*
X101600164Y-118045506D01*
X101600000Y-118045751D01*
X101600000Y-117005849D01*
X101600164Y-117006094D01*
X101764106Y-117170036D01*
X101956881Y-117298844D01*
X102171082Y-117387569D01*
X102398476Y-117432800D01*
X102630324Y-117432800D01*
X102857718Y-117387569D01*
X103071919Y-117298844D01*
X103264694Y-117170036D01*
X103428636Y-117006094D01*
X103557444Y-116813319D01*
X103646169Y-116599118D01*
X103688282Y-116387397D01*
X111414000Y-116387397D01*
X111414000Y-116530603D01*
X111441938Y-116671058D01*
X111496741Y-116803364D01*
X111576302Y-116922436D01*
X111677564Y-117023698D01*
X111687744Y-117030500D01*
X111677564Y-117037302D01*
X111576302Y-117138564D01*
X111496741Y-117257636D01*
X111441938Y-117389942D01*
X111414000Y-117530397D01*
X111414000Y-117673603D01*
X111441938Y-117814058D01*
X111496741Y-117946364D01*
X111576302Y-118065436D01*
X111677564Y-118166698D01*
X111796636Y-118246259D01*
X111928942Y-118301062D01*
X112069397Y-118329000D01*
X112212603Y-118329000D01*
X112353058Y-118301062D01*
X112485364Y-118246259D01*
X112604436Y-118166698D01*
X112705698Y-118065436D01*
X112785259Y-117946364D01*
X112840062Y-117814058D01*
X112868000Y-117673603D01*
X112868000Y-117530397D01*
X112840062Y-117389942D01*
X112785259Y-117257636D01*
X112705698Y-117138564D01*
X112604436Y-117037302D01*
X112594256Y-117030500D01*
X112604436Y-117023698D01*
X112705698Y-116922436D01*
X112785259Y-116803364D01*
X112840062Y-116671058D01*
X112868000Y-116530603D01*
X112868000Y-116387397D01*
X112840062Y-116246942D01*
X112785259Y-116114636D01*
X112705698Y-115995564D01*
X112604436Y-115894302D01*
X112485364Y-115814741D01*
X112353058Y-115759938D01*
X112212603Y-115732000D01*
X112069397Y-115732000D01*
X111928942Y-115759938D01*
X111796636Y-115814741D01*
X111677564Y-115894302D01*
X111576302Y-115995564D01*
X111496741Y-116114636D01*
X111441938Y-116246942D01*
X111414000Y-116387397D01*
X103688282Y-116387397D01*
X103691400Y-116371724D01*
X103691400Y-116139876D01*
X103646169Y-115912482D01*
X103557444Y-115698281D01*
X103428636Y-115505506D01*
X103264694Y-115341564D01*
X103071919Y-115212756D01*
X102857718Y-115124031D01*
X102630324Y-115078800D01*
X102398476Y-115078800D01*
X102171082Y-115124031D01*
X101956881Y-115212756D01*
X101764106Y-115341564D01*
X101600164Y-115505506D01*
X101600000Y-115505751D01*
X101600000Y-113157000D01*
X116586000Y-113157000D01*
X116586000Y-115824000D01*
G37*
X116586000Y-115824000D02*
X114300000Y-115824000D01*
X114275224Y-115826440D01*
X114251399Y-115833667D01*
X114229443Y-115845403D01*
X114210197Y-115861197D01*
X114194403Y-115880443D01*
X114182667Y-115902399D01*
X114175440Y-115926224D01*
X114173000Y-115951000D01*
X114173000Y-123698000D01*
X101600000Y-123698000D01*
X101600000Y-120725095D01*
X105264000Y-120725095D01*
X105264000Y-120828905D01*
X105284252Y-120930720D01*
X105323979Y-121026628D01*
X105381652Y-121112943D01*
X105455057Y-121186348D01*
X105507666Y-121221500D01*
X105455057Y-121256652D01*
X105381652Y-121330057D01*
X105323979Y-121416372D01*
X105284252Y-121512280D01*
X105264000Y-121614095D01*
X105264000Y-121717905D01*
X105284252Y-121819720D01*
X105323979Y-121915628D01*
X105381652Y-122001943D01*
X105455057Y-122075348D01*
X105507666Y-122110500D01*
X105455057Y-122145652D01*
X105381652Y-122219057D01*
X105323979Y-122305372D01*
X105284252Y-122401280D01*
X105264000Y-122503095D01*
X105264000Y-122606905D01*
X105284252Y-122708720D01*
X105323979Y-122804628D01*
X105381652Y-122890943D01*
X105455057Y-122964348D01*
X105541372Y-123022021D01*
X105637280Y-123061748D01*
X105739095Y-123082000D01*
X105842905Y-123082000D01*
X105944720Y-123061748D01*
X106040628Y-123022021D01*
X106126943Y-122964348D01*
X106200348Y-122890943D01*
X106258021Y-122804628D01*
X106297748Y-122708720D01*
X106318000Y-122606905D01*
X106318000Y-122503095D01*
X106297748Y-122401280D01*
X106258021Y-122305372D01*
X106200348Y-122219057D01*
X106126943Y-122145652D01*
X106074334Y-122110500D01*
X106126943Y-122075348D01*
X106200348Y-122001943D01*
X106258021Y-121915628D01*
X106297748Y-121819720D01*
X106318000Y-121717905D01*
X106318000Y-121614095D01*
X106297748Y-121512280D01*
X106258021Y-121416372D01*
X106200348Y-121330057D01*
X106126943Y-121256652D01*
X106074334Y-121221500D01*
X106126943Y-121186348D01*
X106200348Y-121112943D01*
X106258021Y-121026628D01*
X106297748Y-120930720D01*
X106318000Y-120828905D01*
X106318000Y-120725095D01*
X106407000Y-120725095D01*
X106407000Y-120828905D01*
X106427252Y-120930720D01*
X106466979Y-121026628D01*
X106524652Y-121112943D01*
X106598057Y-121186348D01*
X106650666Y-121221500D01*
X106598057Y-121256652D01*
X106524652Y-121330057D01*
X106466979Y-121416372D01*
X106427252Y-121512280D01*
X106407000Y-121614095D01*
X106407000Y-121717905D01*
X106427252Y-121819720D01*
X106466979Y-121915628D01*
X106524652Y-122001943D01*
X106598057Y-122075348D01*
X106650666Y-122110500D01*
X106598057Y-122145652D01*
X106524652Y-122219057D01*
X106466979Y-122305372D01*
X106427252Y-122401280D01*
X106407000Y-122503095D01*
X106407000Y-122606905D01*
X106427252Y-122708720D01*
X106466979Y-122804628D01*
X106524652Y-122890943D01*
X106598057Y-122964348D01*
X106684372Y-123022021D01*
X106780280Y-123061748D01*
X106882095Y-123082000D01*
X106985905Y-123082000D01*
X107087720Y-123061748D01*
X107183628Y-123022021D01*
X107269943Y-122964348D01*
X107343348Y-122890943D01*
X107401021Y-122804628D01*
X107440748Y-122708720D01*
X107461000Y-122606905D01*
X107461000Y-122503095D01*
X107440748Y-122401280D01*
X107401021Y-122305372D01*
X107343348Y-122219057D01*
X107269943Y-122145652D01*
X107217334Y-122110500D01*
X107269943Y-122075348D01*
X107343348Y-122001943D01*
X107401021Y-121915628D01*
X107440748Y-121819720D01*
X107461000Y-121717905D01*
X107461000Y-121614095D01*
X107440748Y-121512280D01*
X107401021Y-121416372D01*
X107343348Y-121330057D01*
X107269943Y-121256652D01*
X107217334Y-121221500D01*
X107269943Y-121186348D01*
X107343348Y-121112943D01*
X107401021Y-121026628D01*
X107440748Y-120930720D01*
X107461000Y-120828905D01*
X107461000Y-120725095D01*
X109074000Y-120725095D01*
X109074000Y-120828905D01*
X109094252Y-120930720D01*
X109133979Y-121026628D01*
X109191652Y-121112943D01*
X109265057Y-121186348D01*
X109317666Y-121221500D01*
X109265057Y-121256652D01*
X109191652Y-121330057D01*
X109133979Y-121416372D01*
X109094252Y-121512280D01*
X109074000Y-121614095D01*
X109074000Y-121717905D01*
X109094252Y-121819720D01*
X109133979Y-121915628D01*
X109191652Y-122001943D01*
X109265057Y-122075348D01*
X109317666Y-122110500D01*
X109265057Y-122145652D01*
X109191652Y-122219057D01*
X109133979Y-122305372D01*
X109094252Y-122401280D01*
X109074000Y-122503095D01*
X109074000Y-122606905D01*
X109094252Y-122708720D01*
X109133979Y-122804628D01*
X109191652Y-122890943D01*
X109265057Y-122964348D01*
X109351372Y-123022021D01*
X109447280Y-123061748D01*
X109549095Y-123082000D01*
X109652905Y-123082000D01*
X109754720Y-123061748D01*
X109850628Y-123022021D01*
X109936943Y-122964348D01*
X110010348Y-122890943D01*
X110068021Y-122804628D01*
X110107748Y-122708720D01*
X110128000Y-122606905D01*
X110128000Y-122503095D01*
X110107748Y-122401280D01*
X110068021Y-122305372D01*
X110010348Y-122219057D01*
X109936943Y-122145652D01*
X109884334Y-122110500D01*
X109936943Y-122075348D01*
X110010348Y-122001943D01*
X110068021Y-121915628D01*
X110107748Y-121819720D01*
X110128000Y-121717905D01*
X110128000Y-121614095D01*
X110107748Y-121512280D01*
X110068021Y-121416372D01*
X110010348Y-121330057D01*
X109936943Y-121256652D01*
X109884334Y-121221500D01*
X109936943Y-121186348D01*
X110010348Y-121112943D01*
X110068021Y-121026628D01*
X110107748Y-120930720D01*
X110128000Y-120828905D01*
X110128000Y-120725095D01*
X110217000Y-120725095D01*
X110217000Y-120828905D01*
X110237252Y-120930720D01*
X110276979Y-121026628D01*
X110334652Y-121112943D01*
X110408057Y-121186348D01*
X110460666Y-121221500D01*
X110408057Y-121256652D01*
X110334652Y-121330057D01*
X110276979Y-121416372D01*
X110237252Y-121512280D01*
X110217000Y-121614095D01*
X110217000Y-121717905D01*
X110237252Y-121819720D01*
X110276979Y-121915628D01*
X110334652Y-122001943D01*
X110408057Y-122075348D01*
X110460666Y-122110500D01*
X110408057Y-122145652D01*
X110334652Y-122219057D01*
X110276979Y-122305372D01*
X110237252Y-122401280D01*
X110217000Y-122503095D01*
X110217000Y-122606905D01*
X110237252Y-122708720D01*
X110276979Y-122804628D01*
X110334652Y-122890943D01*
X110408057Y-122964348D01*
X110494372Y-123022021D01*
X110590280Y-123061748D01*
X110692095Y-123082000D01*
X110795905Y-123082000D01*
X110897720Y-123061748D01*
X110993628Y-123022021D01*
X111079943Y-122964348D01*
X111153348Y-122890943D01*
X111211021Y-122804628D01*
X111250748Y-122708720D01*
X111271000Y-122606905D01*
X111271000Y-122503095D01*
X111250748Y-122401280D01*
X111211021Y-122305372D01*
X111153348Y-122219057D01*
X111079943Y-122145652D01*
X111027334Y-122110500D01*
X111079943Y-122075348D01*
X111153348Y-122001943D01*
X111211021Y-121915628D01*
X111250748Y-121819720D01*
X111271000Y-121717905D01*
X111271000Y-121614095D01*
X111250748Y-121512280D01*
X111211021Y-121416372D01*
X111153348Y-121330057D01*
X111079943Y-121256652D01*
X111027334Y-121221500D01*
X111079943Y-121186348D01*
X111153348Y-121112943D01*
X111211021Y-121026628D01*
X111250748Y-120930720D01*
X111271000Y-120828905D01*
X111271000Y-120725095D01*
X111250748Y-120623280D01*
X111211021Y-120527372D01*
X111153348Y-120441057D01*
X111079943Y-120367652D01*
X110993628Y-120309979D01*
X110897720Y-120270252D01*
X110795905Y-120250000D01*
X110692095Y-120250000D01*
X110590280Y-120270252D01*
X110494372Y-120309979D01*
X110408057Y-120367652D01*
X110334652Y-120441057D01*
X110276979Y-120527372D01*
X110237252Y-120623280D01*
X110217000Y-120725095D01*
X110128000Y-120725095D01*
X110107748Y-120623280D01*
X110068021Y-120527372D01*
X110010348Y-120441057D01*
X109936943Y-120367652D01*
X109850628Y-120309979D01*
X109754720Y-120270252D01*
X109652905Y-120250000D01*
X109549095Y-120250000D01*
X109447280Y-120270252D01*
X109351372Y-120309979D01*
X109265057Y-120367652D01*
X109191652Y-120441057D01*
X109133979Y-120527372D01*
X109094252Y-120623280D01*
X109074000Y-120725095D01*
X107461000Y-120725095D01*
X107440748Y-120623280D01*
X107401021Y-120527372D01*
X107343348Y-120441057D01*
X107269943Y-120367652D01*
X107183628Y-120309979D01*
X107087720Y-120270252D01*
X106985905Y-120250000D01*
X106882095Y-120250000D01*
X106780280Y-120270252D01*
X106684372Y-120309979D01*
X106598057Y-120367652D01*
X106524652Y-120441057D01*
X106466979Y-120527372D01*
X106427252Y-120623280D01*
X106407000Y-120725095D01*
X106318000Y-120725095D01*
X106297748Y-120623280D01*
X106258021Y-120527372D01*
X106200348Y-120441057D01*
X106126943Y-120367652D01*
X106040628Y-120309979D01*
X105944720Y-120270252D01*
X105842905Y-120250000D01*
X105739095Y-120250000D01*
X105637280Y-120270252D01*
X105541372Y-120309979D01*
X105455057Y-120367652D01*
X105381652Y-120441057D01*
X105323979Y-120527372D01*
X105284252Y-120623280D01*
X105264000Y-120725095D01*
X101600000Y-120725095D01*
X101600000Y-119545849D01*
X101600164Y-119546094D01*
X101764106Y-119710036D01*
X101956881Y-119838844D01*
X102171082Y-119927569D01*
X102398476Y-119972800D01*
X102630324Y-119972800D01*
X102857718Y-119927569D01*
X103071919Y-119838844D01*
X103264694Y-119710036D01*
X103428636Y-119546094D01*
X103557444Y-119353319D01*
X103646169Y-119139118D01*
X103691400Y-118911724D01*
X103691400Y-118679876D01*
X103690112Y-118673397D01*
X112684000Y-118673397D01*
X112684000Y-118816603D01*
X112711938Y-118957058D01*
X112766741Y-119089364D01*
X112846302Y-119208436D01*
X112947564Y-119309698D01*
X113066636Y-119389259D01*
X113198942Y-119444062D01*
X113339397Y-119472000D01*
X113482603Y-119472000D01*
X113623058Y-119444062D01*
X113755364Y-119389259D01*
X113874436Y-119309698D01*
X113975698Y-119208436D01*
X114055259Y-119089364D01*
X114110062Y-118957058D01*
X114138000Y-118816603D01*
X114138000Y-118673397D01*
X114110062Y-118532942D01*
X114055259Y-118400636D01*
X113975698Y-118281564D01*
X113874436Y-118180302D01*
X113755364Y-118100741D01*
X113623058Y-118045938D01*
X113482603Y-118018000D01*
X113339397Y-118018000D01*
X113198942Y-118045938D01*
X113066636Y-118100741D01*
X112947564Y-118180302D01*
X112846302Y-118281564D01*
X112766741Y-118400636D01*
X112711938Y-118532942D01*
X112684000Y-118673397D01*
X103690112Y-118673397D01*
X103646169Y-118452482D01*
X103557444Y-118238281D01*
X103428636Y-118045506D01*
X103264694Y-117881564D01*
X103071919Y-117752756D01*
X102857718Y-117664031D01*
X102630324Y-117618800D01*
X102398476Y-117618800D01*
X102171082Y-117664031D01*
X101956881Y-117752756D01*
X101764106Y-117881564D01*
X101600164Y-118045506D01*
X101600000Y-118045751D01*
X101600000Y-117005849D01*
X101600164Y-117006094D01*
X101764106Y-117170036D01*
X101956881Y-117298844D01*
X102171082Y-117387569D01*
X102398476Y-117432800D01*
X102630324Y-117432800D01*
X102857718Y-117387569D01*
X103071919Y-117298844D01*
X103264694Y-117170036D01*
X103428636Y-117006094D01*
X103557444Y-116813319D01*
X103646169Y-116599118D01*
X103688282Y-116387397D01*
X111414000Y-116387397D01*
X111414000Y-116530603D01*
X111441938Y-116671058D01*
X111496741Y-116803364D01*
X111576302Y-116922436D01*
X111677564Y-117023698D01*
X111687744Y-117030500D01*
X111677564Y-117037302D01*
X111576302Y-117138564D01*
X111496741Y-117257636D01*
X111441938Y-117389942D01*
X111414000Y-117530397D01*
X111414000Y-117673603D01*
X111441938Y-117814058D01*
X111496741Y-117946364D01*
X111576302Y-118065436D01*
X111677564Y-118166698D01*
X111796636Y-118246259D01*
X111928942Y-118301062D01*
X112069397Y-118329000D01*
X112212603Y-118329000D01*
X112353058Y-118301062D01*
X112485364Y-118246259D01*
X112604436Y-118166698D01*
X112705698Y-118065436D01*
X112785259Y-117946364D01*
X112840062Y-117814058D01*
X112868000Y-117673603D01*
X112868000Y-117530397D01*
X112840062Y-117389942D01*
X112785259Y-117257636D01*
X112705698Y-117138564D01*
X112604436Y-117037302D01*
X112594256Y-117030500D01*
X112604436Y-117023698D01*
X112705698Y-116922436D01*
X112785259Y-116803364D01*
X112840062Y-116671058D01*
X112868000Y-116530603D01*
X112868000Y-116387397D01*
X112840062Y-116246942D01*
X112785259Y-116114636D01*
X112705698Y-115995564D01*
X112604436Y-115894302D01*
X112485364Y-115814741D01*
X112353058Y-115759938D01*
X112212603Y-115732000D01*
X112069397Y-115732000D01*
X111928942Y-115759938D01*
X111796636Y-115814741D01*
X111677564Y-115894302D01*
X111576302Y-115995564D01*
X111496741Y-116114636D01*
X111441938Y-116246942D01*
X111414000Y-116387397D01*
X103688282Y-116387397D01*
X103691400Y-116371724D01*
X103691400Y-116139876D01*
X103646169Y-115912482D01*
X103557444Y-115698281D01*
X103428636Y-115505506D01*
X103264694Y-115341564D01*
X103071919Y-115212756D01*
X102857718Y-115124031D01*
X102630324Y-115078800D01*
X102398476Y-115078800D01*
X102171082Y-115124031D01*
X101956881Y-115212756D01*
X101764106Y-115341564D01*
X101600164Y-115505506D01*
X101600000Y-115505751D01*
X101600000Y-113157000D01*
X116586000Y-113157000D01*
X116586000Y-115824000D01*
%TD*%
M02*
