%TF.GenerationSoftware,KiCad,Pcbnew,(5.1.6)-1*%
%TF.CreationDate,2021-05-23T02:10:16+08:00*%
%TF.ProjectId,HKIA_Tracker,484b4941-5f54-4726-9163-6b65722e6b69,rev?*%
%TF.SameCoordinates,Original*%
%TF.FileFunction,Copper,L2,Inr*%
%TF.FilePolarity,Positive*%
%FSLAX46Y46*%
G04 Gerber Fmt 4.6, Leading zero omitted, Abs format (unit mm)*
G04 Created by KiCad (PCBNEW (5.1.6)-1) date 2021-05-23 02:10:16*
%MOMM*%
%LPD*%
G01*
G04 APERTURE LIST*
%TA.AperFunction,ViaPad*%
%ADD10O,1.700000X1.700000*%
%TD*%
%TA.AperFunction,ViaPad*%
%ADD11R,1.700000X1.700000*%
%TD*%
%TA.AperFunction,ViaPad*%
%ADD12C,6.400000*%
%TD*%
%TA.AperFunction,ViaPad*%
%ADD13C,0.450000*%
%TD*%
%TA.AperFunction,ViaPad*%
%ADD14C,0.400000*%
%TD*%
%TA.AperFunction,ViaPad*%
%ADD15C,0.800000*%
%TD*%
%TA.AperFunction,Conductor*%
%ADD16C,0.254000*%
%TD*%
G04 APERTURE END LIST*
D10*
%TO.N,/ESP_TX*%
%TO.C,J5*%
X144741900Y-78473300D03*
%TO.N,GND*%
X142201900Y-78473300D03*
%TO.N,/ESP_RX*%
X139661900Y-78473300D03*
D11*
%TO.N,+3.3VP*%
X137121900Y-78473300D03*
%TD*%
D10*
%TO.N,Net-(J3-Pad2)*%
%TO.C,J3*%
X123952000Y-107188000D03*
D11*
%TO.N,Net-(J3-Pad1)*%
X121412000Y-107188000D03*
%TD*%
D12*
%TO.N,N/C*%
%TO.C,H2*%
X105000000Y-80000000D03*
%TD*%
%TO.N,N/C*%
%TO.C,H1*%
X145000000Y-120000000D03*
%TD*%
D10*
%TO.N,Net-(D1-Pad2)*%
%TO.C,J1*%
X102514400Y-116255800D03*
%TO.N,Net-(D3-Pad2)*%
X102514400Y-118795800D03*
D11*
%TO.N,Net-(D5-Pad2)*%
X102514400Y-121335800D03*
%TD*%
D13*
%TO.N,GND*%
X110744000Y-121666000D03*
X109601000Y-121666000D03*
X109601000Y-122555000D03*
X110744000Y-122555000D03*
X110744000Y-120777000D03*
X109601000Y-120777000D03*
X105791000Y-121666000D03*
X106934000Y-121666000D03*
X106934000Y-120777000D03*
X106934000Y-122555000D03*
X105791000Y-122555000D03*
X105791000Y-120777000D03*
D14*
X129413000Y-117094000D03*
X130683000Y-117094000D03*
X130683000Y-118364000D03*
X129413000Y-118364000D03*
X130048000Y-118364000D03*
X130048000Y-117094000D03*
X130683000Y-117729000D03*
X129413000Y-117729000D03*
X130048000Y-117729000D03*
D15*
X101854000Y-94742000D03*
X108458000Y-95123000D03*
X107188000Y-91186000D03*
X104648000Y-89789000D03*
X103809935Y-92625658D03*
X106553000Y-85471000D03*
X111633000Y-85725000D03*
X111633000Y-83185000D03*
X111633000Y-81915000D03*
X125476000Y-81915000D03*
X127508000Y-84201000D03*
X125476000Y-83185000D03*
X129032000Y-78232000D03*
X130175000Y-77216000D03*
X131826000Y-78740000D03*
X132461000Y-88138000D03*
X133604000Y-89789000D03*
X133604000Y-91059000D03*
X133604000Y-93599000D03*
X130937000Y-93218000D03*
X124714000Y-98806000D03*
X123571000Y-101092000D03*
X123571000Y-102108000D03*
X129045802Y-101092000D03*
X134112000Y-102362000D03*
X134112000Y-103505000D03*
D13*
X132207000Y-104140000D03*
X132207000Y-104648000D03*
X132207000Y-105156000D03*
X132207000Y-105664000D03*
X132207000Y-106172000D03*
D14*
X130048000Y-106172000D03*
D15*
X128803400Y-110134400D03*
X128803398Y-108483398D03*
X128524000Y-111506000D03*
X130175000Y-111506000D03*
X131826000Y-111506000D03*
X135636000Y-111252000D03*
X136652000Y-111252000D03*
X137668000Y-111252000D03*
X138684000Y-111252000D03*
X140208000Y-106426000D03*
X141224000Y-106426000D03*
X142240000Y-106426000D03*
X143256000Y-106426000D03*
X143256000Y-105283000D03*
X142240000Y-105283000D03*
X141224000Y-105283000D03*
X140208000Y-105283000D03*
X107569000Y-105156000D03*
X108204000Y-106426000D03*
X108966000Y-102997000D03*
X111887000Y-108204000D03*
X115316000Y-108585000D03*
X118999000Y-109347000D03*
X118364000Y-108585000D03*
X117094000Y-108585000D03*
X112141000Y-116459000D03*
X112141000Y-117602000D03*
X113411000Y-118745000D03*
X119126000Y-116332000D03*
X119126000Y-117983000D03*
X119634000Y-117094000D03*
X143510000Y-101727000D03*
X136398000Y-119380000D03*
X138303000Y-119634000D03*
X136017000Y-122047000D03*
X139192000Y-121031000D03*
X138303000Y-120522986D03*
X138303000Y-121411994D03*
X140589000Y-121920000D03*
X136398000Y-113919000D03*
X136906000Y-115951000D03*
X136906000Y-117094000D03*
X128270000Y-120269000D03*
X128016000Y-122301000D03*
X130937000Y-122301000D03*
X119126000Y-118872000D03*
%TO.N,+3V3*%
X101600000Y-91567000D03*
X101600000Y-97028000D03*
X105791000Y-96647000D03*
X137922000Y-114300000D03*
X138938000Y-114300000D03*
X139954000Y-114300000D03*
X140970000Y-114300000D03*
X141986000Y-114300000D03*
X141986000Y-115316000D03*
X140970000Y-115316000D03*
X140970000Y-116332000D03*
X141986000Y-116332000D03*
X141986000Y-117348000D03*
X140970000Y-117348000D03*
X140970000Y-118364000D03*
X139954000Y-118364000D03*
X139954000Y-117348000D03*
X133604000Y-88519000D03*
X132461000Y-90424000D03*
X110617000Y-103632000D03*
X110617000Y-104648000D03*
X110617000Y-105664000D03*
D13*
X134493000Y-95123000D03*
X135721898Y-97821800D03*
D15*
%TO.N,Net-(C7-Pad1)*%
X115697000Y-118618000D03*
X115697000Y-119634000D03*
X115697000Y-120650000D03*
X115697000Y-121666000D03*
X121285000Y-114935000D03*
X119507000Y-114935000D03*
X120396000Y-114935000D03*
%TO.N,VBUS*%
X125984000Y-107696000D03*
X125984000Y-108712000D03*
X125984000Y-109728000D03*
X125984000Y-110744000D03*
X127635000Y-110744000D03*
X127635000Y-109728000D03*
X127635000Y-108712000D03*
D13*
X133731000Y-114300000D03*
X133731000Y-114808000D03*
X133731000Y-115316000D03*
X133731000Y-115824000D03*
X134239000Y-115824000D03*
X134747000Y-115824000D03*
X135255000Y-115824000D03*
X135255000Y-115316000D03*
X135255000Y-114808000D03*
X135255000Y-114300000D03*
X135001000Y-116332000D03*
X135001000Y-116840000D03*
X135001000Y-117348000D03*
D15*
%TO.N,+3.3VP*%
X135763000Y-79883000D03*
X130175000Y-99949000D03*
X130175000Y-100965000D03*
X132842000Y-99949000D03*
X137795000Y-100584000D03*
X136779000Y-104902000D03*
X136779000Y-105791000D03*
X136779000Y-106680000D03*
X136779000Y-107569000D03*
X130175000Y-78486000D03*
%TO.N,Net-(D5-Pad2)*%
X115697000Y-113665000D03*
X115697000Y-115062000D03*
X112268000Y-115062000D03*
X112268000Y-113665000D03*
%TO.N,+BATT*%
X117410228Y-107636315D03*
X131953000Y-114935000D03*
D14*
%TO.N,Net-(R10-Pad2)*%
X124968000Y-116332000D03*
X124968000Y-121285000D03*
X124968000Y-119634000D03*
D15*
%TO.N,/NRF_RX*%
X123062984Y-86106016D03*
%TO.N,/SDA*%
X102819200Y-96901000D03*
X108432600Y-91313000D03*
%TO.N,/SCL*%
X104394000Y-96824800D03*
X108432600Y-92811600D03*
%TO.N,/NRF_TX*%
X120142000Y-97409000D03*
%TO.N,/ESP_EN*%
X117602000Y-105664000D03*
X130538038Y-107442000D03*
%TO.N,/DRDY*%
X104521000Y-93345000D03*
X108585000Y-89535000D03*
%TD*%
D16*
%TO.N,GND*%
G36*
X109855000Y-80772000D02*
G01*
X109857440Y-80796776D01*
X109864667Y-80820601D01*
X109876403Y-80842557D01*
X109892197Y-80861803D01*
X109911443Y-80877597D01*
X109933399Y-80889333D01*
X109957224Y-80896560D01*
X109982000Y-80899000D01*
X127635000Y-80899000D01*
X127659776Y-80896560D01*
X127683601Y-80889333D01*
X127705557Y-80877597D01*
X127724803Y-80861803D01*
X127740597Y-80842557D01*
X127752333Y-80820601D01*
X127759560Y-80796776D01*
X127762000Y-80772000D01*
X127762000Y-79811397D01*
X135036000Y-79811397D01*
X135036000Y-79954603D01*
X135063938Y-80095058D01*
X135118741Y-80227364D01*
X135198302Y-80346436D01*
X135299564Y-80447698D01*
X135418636Y-80527259D01*
X135550942Y-80582062D01*
X135691397Y-80610000D01*
X135834603Y-80610000D01*
X135975058Y-80582062D01*
X136107364Y-80527259D01*
X136226436Y-80447698D01*
X136327698Y-80346436D01*
X136407259Y-80227364D01*
X136462062Y-80095058D01*
X136490000Y-79954603D01*
X136490000Y-79811397D01*
X136462062Y-79670942D01*
X136454167Y-79651882D01*
X137971900Y-79651882D01*
X138036003Y-79645568D01*
X138097643Y-79626870D01*
X138154450Y-79596506D01*
X138204243Y-79555643D01*
X138245106Y-79505850D01*
X138275470Y-79449043D01*
X138294168Y-79387403D01*
X138300482Y-79323300D01*
X138300482Y-78357376D01*
X138484900Y-78357376D01*
X138484900Y-78589224D01*
X138530131Y-78816618D01*
X138618856Y-79030819D01*
X138747664Y-79223594D01*
X138911606Y-79387536D01*
X139104381Y-79516344D01*
X139318582Y-79605069D01*
X139545976Y-79650300D01*
X139777824Y-79650300D01*
X140005218Y-79605069D01*
X140219419Y-79516344D01*
X140412194Y-79387536D01*
X140576136Y-79223594D01*
X140704944Y-79030819D01*
X140793669Y-78816618D01*
X140838900Y-78589224D01*
X140838900Y-78357376D01*
X143564900Y-78357376D01*
X143564900Y-78589224D01*
X143610131Y-78816618D01*
X143698856Y-79030819D01*
X143827664Y-79223594D01*
X143991606Y-79387536D01*
X144184381Y-79516344D01*
X144398582Y-79605069D01*
X144625976Y-79650300D01*
X144857824Y-79650300D01*
X145085218Y-79605069D01*
X145299419Y-79516344D01*
X145492194Y-79387536D01*
X145656136Y-79223594D01*
X145784944Y-79030819D01*
X145873669Y-78816618D01*
X145918900Y-78589224D01*
X145918900Y-78357376D01*
X145873669Y-78129982D01*
X145784944Y-77915781D01*
X145656136Y-77723006D01*
X145492194Y-77559064D01*
X145299419Y-77430256D01*
X145085218Y-77341531D01*
X144857824Y-77296300D01*
X144625976Y-77296300D01*
X144398582Y-77341531D01*
X144184381Y-77430256D01*
X143991606Y-77559064D01*
X143827664Y-77723006D01*
X143698856Y-77915781D01*
X143610131Y-78129982D01*
X143564900Y-78357376D01*
X140838900Y-78357376D01*
X140793669Y-78129982D01*
X140704944Y-77915781D01*
X140576136Y-77723006D01*
X140412194Y-77559064D01*
X140219419Y-77430256D01*
X140005218Y-77341531D01*
X139777824Y-77296300D01*
X139545976Y-77296300D01*
X139318582Y-77341531D01*
X139104381Y-77430256D01*
X138911606Y-77559064D01*
X138747664Y-77723006D01*
X138618856Y-77915781D01*
X138530131Y-78129982D01*
X138484900Y-78357376D01*
X138300482Y-78357376D01*
X138300482Y-77623300D01*
X138294168Y-77559197D01*
X138275470Y-77497557D01*
X138245106Y-77440750D01*
X138204243Y-77390957D01*
X138154450Y-77350094D01*
X138097643Y-77319730D01*
X138036003Y-77301032D01*
X137971900Y-77294718D01*
X136271900Y-77294718D01*
X136207797Y-77301032D01*
X136146157Y-77319730D01*
X136089350Y-77350094D01*
X136039557Y-77390957D01*
X135998694Y-77440750D01*
X135968330Y-77497557D01*
X135949632Y-77559197D01*
X135943318Y-77623300D01*
X135943318Y-79177625D01*
X135834603Y-79156000D01*
X135691397Y-79156000D01*
X135550942Y-79183938D01*
X135418636Y-79238741D01*
X135299564Y-79318302D01*
X135198302Y-79419564D01*
X135118741Y-79538636D01*
X135063938Y-79670942D01*
X135036000Y-79811397D01*
X127762000Y-79811397D01*
X127762000Y-78414397D01*
X129448000Y-78414397D01*
X129448000Y-78557603D01*
X129475938Y-78698058D01*
X129530741Y-78830364D01*
X129610302Y-78949436D01*
X129711564Y-79050698D01*
X129830636Y-79130259D01*
X129962942Y-79185062D01*
X130103397Y-79213000D01*
X130246603Y-79213000D01*
X130387058Y-79185062D01*
X130519364Y-79130259D01*
X130638436Y-79050698D01*
X130739698Y-78949436D01*
X130819259Y-78830364D01*
X130874062Y-78698058D01*
X130902000Y-78557603D01*
X130902000Y-78414397D01*
X130874062Y-78273942D01*
X130819259Y-78141636D01*
X130739698Y-78022564D01*
X130638436Y-77921302D01*
X130519364Y-77841741D01*
X130387058Y-77786938D01*
X130246603Y-77759000D01*
X130103397Y-77759000D01*
X129962942Y-77786938D01*
X129830636Y-77841741D01*
X129711564Y-77921302D01*
X129610302Y-78022564D01*
X129530741Y-78141636D01*
X129475938Y-78273942D01*
X129448000Y-78414397D01*
X127762000Y-78414397D01*
X127762000Y-76127000D01*
X146995470Y-76127000D01*
X147266504Y-76146385D01*
X147527593Y-76203181D01*
X147777940Y-76296556D01*
X148012445Y-76424605D01*
X148226338Y-76584724D01*
X148415276Y-76773662D01*
X148575395Y-76987555D01*
X148703444Y-77222060D01*
X148796819Y-77472407D01*
X148853615Y-77733496D01*
X148873000Y-78004530D01*
X148873000Y-81407000D01*
X141859000Y-81407000D01*
X141834224Y-81409440D01*
X141810399Y-81416667D01*
X141788443Y-81428403D01*
X141769197Y-81444197D01*
X141753403Y-81463443D01*
X141741667Y-81485399D01*
X141734440Y-81509224D01*
X141732000Y-81534000D01*
X141732000Y-97917000D01*
X141734440Y-97941776D01*
X141741667Y-97965601D01*
X141753403Y-97987557D01*
X141769197Y-98006803D01*
X141788443Y-98022597D01*
X141810399Y-98034333D01*
X141834224Y-98041560D01*
X141859000Y-98044000D01*
X148873000Y-98044000D01*
X148873000Y-121995470D01*
X148853615Y-122266504D01*
X148796819Y-122527593D01*
X148703444Y-122777940D01*
X148575395Y-123012445D01*
X148415276Y-123226338D01*
X148226338Y-123415276D01*
X148012445Y-123575395D01*
X147777940Y-123703444D01*
X147527593Y-123796819D01*
X147266504Y-123853615D01*
X146995470Y-123873000D01*
X103004530Y-123873000D01*
X102733496Y-123853615D01*
X102472407Y-123796819D01*
X102222060Y-123703444D01*
X101987555Y-123575395D01*
X101773662Y-123415276D01*
X101584724Y-123226338D01*
X101424605Y-123012445D01*
X101296556Y-122777940D01*
X101203181Y-122527593D01*
X101146385Y-122266504D01*
X101127000Y-121995470D01*
X101127000Y-120485800D01*
X101335818Y-120485800D01*
X101335818Y-122185800D01*
X101342132Y-122249903D01*
X101360830Y-122311543D01*
X101391194Y-122368350D01*
X101432057Y-122418143D01*
X101481850Y-122459006D01*
X101538657Y-122489370D01*
X101600297Y-122508068D01*
X101664400Y-122514382D01*
X103364400Y-122514382D01*
X103428503Y-122508068D01*
X103490143Y-122489370D01*
X103546950Y-122459006D01*
X103596743Y-122418143D01*
X103637606Y-122368350D01*
X103667970Y-122311543D01*
X103686668Y-122249903D01*
X103692982Y-122185800D01*
X103692982Y-120485800D01*
X103686668Y-120421697D01*
X103667970Y-120360057D01*
X103637606Y-120303250D01*
X103596743Y-120253457D01*
X103546950Y-120212594D01*
X103490143Y-120182230D01*
X103428503Y-120163532D01*
X103364400Y-120157218D01*
X101664400Y-120157218D01*
X101600297Y-120163532D01*
X101538657Y-120182230D01*
X101481850Y-120212594D01*
X101432057Y-120253457D01*
X101391194Y-120303250D01*
X101360830Y-120360057D01*
X101342132Y-120421697D01*
X101335818Y-120485800D01*
X101127000Y-120485800D01*
X101127000Y-118679876D01*
X101337400Y-118679876D01*
X101337400Y-118911724D01*
X101382631Y-119139118D01*
X101471356Y-119353319D01*
X101600164Y-119546094D01*
X101764106Y-119710036D01*
X101956881Y-119838844D01*
X102171082Y-119927569D01*
X102398476Y-119972800D01*
X102630324Y-119972800D01*
X102857718Y-119927569D01*
X103071919Y-119838844D01*
X103264694Y-119710036D01*
X103428636Y-119546094D01*
X103557444Y-119353319D01*
X103646169Y-119139118D01*
X103691400Y-118911724D01*
X103691400Y-118679876D01*
X103664850Y-118546397D01*
X114970000Y-118546397D01*
X114970000Y-118689603D01*
X114997938Y-118830058D01*
X115052741Y-118962364D01*
X115132302Y-119081436D01*
X115176866Y-119126000D01*
X115132302Y-119170564D01*
X115052741Y-119289636D01*
X114997938Y-119421942D01*
X114970000Y-119562397D01*
X114970000Y-119705603D01*
X114997938Y-119846058D01*
X115052741Y-119978364D01*
X115132302Y-120097436D01*
X115176866Y-120142000D01*
X115132302Y-120186564D01*
X115052741Y-120305636D01*
X114997938Y-120437942D01*
X114970000Y-120578397D01*
X114970000Y-120721603D01*
X114997938Y-120862058D01*
X115052741Y-120994364D01*
X115132302Y-121113436D01*
X115176866Y-121158000D01*
X115132302Y-121202564D01*
X115052741Y-121321636D01*
X114997938Y-121453942D01*
X114970000Y-121594397D01*
X114970000Y-121737603D01*
X114997938Y-121878058D01*
X115052741Y-122010364D01*
X115132302Y-122129436D01*
X115233564Y-122230698D01*
X115352636Y-122310259D01*
X115484942Y-122365062D01*
X115625397Y-122393000D01*
X115768603Y-122393000D01*
X115909058Y-122365062D01*
X116041364Y-122310259D01*
X116160436Y-122230698D01*
X116261698Y-122129436D01*
X116341259Y-122010364D01*
X116396062Y-121878058D01*
X116424000Y-121737603D01*
X116424000Y-121594397D01*
X116396062Y-121453942D01*
X116341259Y-121321636D01*
X116261698Y-121202564D01*
X116217134Y-121158000D01*
X116261698Y-121113436D01*
X116341259Y-120994364D01*
X116396062Y-120862058D01*
X116424000Y-120721603D01*
X116424000Y-120578397D01*
X116396062Y-120437942D01*
X116341259Y-120305636D01*
X116261698Y-120186564D01*
X116217134Y-120142000D01*
X116261698Y-120097436D01*
X116341259Y-119978364D01*
X116396062Y-119846058D01*
X116424000Y-119705603D01*
X116424000Y-119562397D01*
X116396062Y-119421942D01*
X116341259Y-119289636D01*
X116261698Y-119170564D01*
X116217134Y-119126000D01*
X116261698Y-119081436D01*
X116341259Y-118962364D01*
X116396062Y-118830058D01*
X116422528Y-118697000D01*
X119380000Y-118697000D01*
X119380000Y-119682000D01*
X119380200Y-119689121D01*
X119399063Y-120025014D01*
X119400657Y-120039166D01*
X119457010Y-120370836D01*
X119460180Y-120384721D01*
X119553314Y-120707995D01*
X119558017Y-120721438D01*
X119686760Y-121032252D01*
X119692940Y-121045083D01*
X119855674Y-121339528D01*
X119863251Y-121351587D01*
X120057930Y-121625960D01*
X120066809Y-121637095D01*
X120290983Y-121887946D01*
X120301054Y-121898017D01*
X120551905Y-122122191D01*
X120563040Y-122131070D01*
X120837413Y-122325749D01*
X120849472Y-122333326D01*
X121143917Y-122496060D01*
X121156748Y-122502240D01*
X121467562Y-122630983D01*
X121481005Y-122635686D01*
X121804279Y-122728820D01*
X121818164Y-122731990D01*
X122149834Y-122788343D01*
X122163986Y-122789937D01*
X122499879Y-122808800D01*
X122507000Y-122809000D01*
X126047500Y-122809000D01*
X126057464Y-122808608D01*
X126305804Y-122789063D01*
X126325488Y-122785946D01*
X126567712Y-122727793D01*
X126586665Y-122721635D01*
X126816811Y-122626306D01*
X126834568Y-122617258D01*
X127046967Y-122487099D01*
X127063089Y-122475386D01*
X127252512Y-122313604D01*
X127266604Y-122299512D01*
X127428386Y-122110089D01*
X127440099Y-122093967D01*
X127570258Y-121881568D01*
X127579306Y-121863811D01*
X127674635Y-121633665D01*
X127680793Y-121614712D01*
X127738946Y-121372488D01*
X127742063Y-121352804D01*
X127761608Y-121104464D01*
X127762000Y-121094500D01*
X127762000Y-120086828D01*
X127778205Y-119963738D01*
X127822501Y-119856798D01*
X127892966Y-119764966D01*
X127984798Y-119694501D01*
X128091738Y-119650205D01*
X128370992Y-119613441D01*
X128403016Y-119604860D01*
X128540851Y-119547767D01*
X128569563Y-119531190D01*
X128687925Y-119440368D01*
X128711368Y-119416925D01*
X128802190Y-119298563D01*
X128818767Y-119269851D01*
X128875860Y-119132016D01*
X128884441Y-119099992D01*
X128903914Y-118952077D01*
X128905000Y-118935500D01*
X128905000Y-117602000D01*
X128904676Y-117592940D01*
X128885286Y-117321830D01*
X128882708Y-117303894D01*
X128824932Y-117038303D01*
X128819827Y-117020917D01*
X128724842Y-116766252D01*
X128717314Y-116749769D01*
X128587053Y-116511214D01*
X128577257Y-116495971D01*
X128414372Y-116278382D01*
X128402506Y-116264687D01*
X128210313Y-116072494D01*
X128196618Y-116060628D01*
X127979029Y-115897743D01*
X127963786Y-115887947D01*
X127725231Y-115757686D01*
X127708748Y-115750158D01*
X127454083Y-115655173D01*
X127436697Y-115650068D01*
X127171106Y-115592292D01*
X127153170Y-115589714D01*
X126882060Y-115570324D01*
X126873000Y-115570000D01*
X122507000Y-115570000D01*
X122499879Y-115570200D01*
X122163986Y-115589063D01*
X122149834Y-115590657D01*
X121818164Y-115647010D01*
X121804279Y-115650180D01*
X121481005Y-115743314D01*
X121467562Y-115748017D01*
X121156748Y-115876760D01*
X121143917Y-115882940D01*
X120849472Y-116045674D01*
X120837413Y-116053251D01*
X120563040Y-116247930D01*
X120551905Y-116256809D01*
X120301054Y-116480983D01*
X120290983Y-116491054D01*
X120066809Y-116741905D01*
X120057930Y-116753040D01*
X119863251Y-117027413D01*
X119855674Y-117039472D01*
X119692940Y-117333917D01*
X119686760Y-117346748D01*
X119558017Y-117657562D01*
X119553314Y-117671005D01*
X119460180Y-117994279D01*
X119457010Y-118008164D01*
X119400657Y-118339834D01*
X119399063Y-118353986D01*
X119380200Y-118689879D01*
X119380000Y-118697000D01*
X116422528Y-118697000D01*
X116424000Y-118689603D01*
X116424000Y-118546397D01*
X116396062Y-118405942D01*
X116341259Y-118273636D01*
X116261698Y-118154564D01*
X116160436Y-118053302D01*
X116041364Y-117973741D01*
X115909058Y-117918938D01*
X115768603Y-117891000D01*
X115625397Y-117891000D01*
X115484942Y-117918938D01*
X115352636Y-117973741D01*
X115233564Y-118053302D01*
X115132302Y-118154564D01*
X115052741Y-118273636D01*
X114997938Y-118405942D01*
X114970000Y-118546397D01*
X103664850Y-118546397D01*
X103646169Y-118452482D01*
X103557444Y-118238281D01*
X103428636Y-118045506D01*
X103264694Y-117881564D01*
X103071919Y-117752756D01*
X102857718Y-117664031D01*
X102630324Y-117618800D01*
X102398476Y-117618800D01*
X102171082Y-117664031D01*
X101956881Y-117752756D01*
X101764106Y-117881564D01*
X101600164Y-118045506D01*
X101471356Y-118238281D01*
X101382631Y-118452482D01*
X101337400Y-118679876D01*
X101127000Y-118679876D01*
X101127000Y-116139876D01*
X101337400Y-116139876D01*
X101337400Y-116371724D01*
X101382631Y-116599118D01*
X101471356Y-116813319D01*
X101600164Y-117006094D01*
X101764106Y-117170036D01*
X101956881Y-117298844D01*
X102171082Y-117387569D01*
X102398476Y-117432800D01*
X102630324Y-117432800D01*
X102857718Y-117387569D01*
X103071919Y-117298844D01*
X103264694Y-117170036D01*
X103428636Y-117006094D01*
X103557444Y-116813319D01*
X103646169Y-116599118D01*
X103691400Y-116371724D01*
X103691400Y-116139876D01*
X103646169Y-115912482D01*
X103557444Y-115698281D01*
X103428636Y-115505506D01*
X103264694Y-115341564D01*
X103071919Y-115212756D01*
X102857718Y-115124031D01*
X102630324Y-115078800D01*
X102398476Y-115078800D01*
X102171082Y-115124031D01*
X101956881Y-115212756D01*
X101764106Y-115341564D01*
X101600164Y-115505506D01*
X101471356Y-115698281D01*
X101382631Y-115912482D01*
X101337400Y-116139876D01*
X101127000Y-116139876D01*
X101127000Y-113593397D01*
X111541000Y-113593397D01*
X111541000Y-113736603D01*
X111568938Y-113877058D01*
X111623741Y-114009364D01*
X111703302Y-114128436D01*
X111804564Y-114229698D01*
X111923636Y-114309259D01*
X112054585Y-114363500D01*
X111923636Y-114417741D01*
X111804564Y-114497302D01*
X111703302Y-114598564D01*
X111623741Y-114717636D01*
X111568938Y-114849942D01*
X111541000Y-114990397D01*
X111541000Y-115133603D01*
X111568938Y-115274058D01*
X111623741Y-115406364D01*
X111703302Y-115525436D01*
X111804564Y-115626698D01*
X111923636Y-115706259D01*
X112055942Y-115761062D01*
X112196397Y-115789000D01*
X112339603Y-115789000D01*
X112480058Y-115761062D01*
X112612364Y-115706259D01*
X112731436Y-115626698D01*
X112832698Y-115525436D01*
X112912259Y-115406364D01*
X112967062Y-115274058D01*
X112995000Y-115133603D01*
X112995000Y-114990397D01*
X112967062Y-114849942D01*
X112912259Y-114717636D01*
X112832698Y-114598564D01*
X112731436Y-114497302D01*
X112612364Y-114417741D01*
X112481415Y-114363500D01*
X112612364Y-114309259D01*
X112731436Y-114229698D01*
X112832698Y-114128436D01*
X112912259Y-114009364D01*
X112967062Y-113877058D01*
X112995000Y-113736603D01*
X112995000Y-113593397D01*
X114970000Y-113593397D01*
X114970000Y-113736603D01*
X114997938Y-113877058D01*
X115052741Y-114009364D01*
X115132302Y-114128436D01*
X115233564Y-114229698D01*
X115352636Y-114309259D01*
X115483585Y-114363500D01*
X115352636Y-114417741D01*
X115233564Y-114497302D01*
X115132302Y-114598564D01*
X115052741Y-114717636D01*
X114997938Y-114849942D01*
X114970000Y-114990397D01*
X114970000Y-115133603D01*
X114997938Y-115274058D01*
X115052741Y-115406364D01*
X115132302Y-115525436D01*
X115233564Y-115626698D01*
X115352636Y-115706259D01*
X115484942Y-115761062D01*
X115625397Y-115789000D01*
X115768603Y-115789000D01*
X115909058Y-115761062D01*
X116041364Y-115706259D01*
X116160436Y-115626698D01*
X116261698Y-115525436D01*
X116341259Y-115406364D01*
X116396062Y-115274058D01*
X116424000Y-115133603D01*
X116424000Y-114990397D01*
X116398739Y-114863397D01*
X118780000Y-114863397D01*
X118780000Y-115006603D01*
X118807938Y-115147058D01*
X118862741Y-115279364D01*
X118942302Y-115398436D01*
X119043564Y-115499698D01*
X119162636Y-115579259D01*
X119294942Y-115634062D01*
X119435397Y-115662000D01*
X119578603Y-115662000D01*
X119719058Y-115634062D01*
X119851364Y-115579259D01*
X119951500Y-115512351D01*
X120051636Y-115579259D01*
X120183942Y-115634062D01*
X120324397Y-115662000D01*
X120467603Y-115662000D01*
X120608058Y-115634062D01*
X120740364Y-115579259D01*
X120840500Y-115512351D01*
X120940636Y-115579259D01*
X121072942Y-115634062D01*
X121213397Y-115662000D01*
X121356603Y-115662000D01*
X121497058Y-115634062D01*
X121629364Y-115579259D01*
X121748436Y-115499698D01*
X121849698Y-115398436D01*
X121929259Y-115279364D01*
X121984062Y-115147058D01*
X122012000Y-115006603D01*
X122012000Y-114863397D01*
X131226000Y-114863397D01*
X131226000Y-115006603D01*
X131253938Y-115147058D01*
X131308741Y-115279364D01*
X131388302Y-115398436D01*
X131489564Y-115499698D01*
X131608636Y-115579259D01*
X131740942Y-115634062D01*
X131881397Y-115662000D01*
X132024603Y-115662000D01*
X132165058Y-115634062D01*
X132297364Y-115579259D01*
X132416436Y-115499698D01*
X132517698Y-115398436D01*
X132597259Y-115279364D01*
X132652062Y-115147058D01*
X132680000Y-115006603D01*
X132680000Y-114863397D01*
X132652062Y-114722942D01*
X132597259Y-114590636D01*
X132517698Y-114471564D01*
X132416436Y-114370302D01*
X132297364Y-114290741D01*
X132188464Y-114245633D01*
X133179000Y-114245633D01*
X133179000Y-114354367D01*
X133200213Y-114461012D01*
X133238730Y-114554000D01*
X133200213Y-114646988D01*
X133179000Y-114753633D01*
X133179000Y-114862367D01*
X133200213Y-114969012D01*
X133238730Y-115062000D01*
X133200213Y-115154988D01*
X133179000Y-115261633D01*
X133179000Y-115370367D01*
X133200213Y-115477012D01*
X133238730Y-115570000D01*
X133200213Y-115662988D01*
X133179000Y-115769633D01*
X133179000Y-115878367D01*
X133200213Y-115985012D01*
X133241824Y-116085470D01*
X133302234Y-116175880D01*
X133379120Y-116252766D01*
X133469530Y-116313176D01*
X133569988Y-116354787D01*
X133676633Y-116376000D01*
X133785367Y-116376000D01*
X133892012Y-116354787D01*
X133985000Y-116316270D01*
X134077988Y-116354787D01*
X134184633Y-116376000D01*
X134293367Y-116376000D01*
X134400012Y-116354787D01*
X134449000Y-116334496D01*
X134449000Y-116386367D01*
X134470213Y-116493012D01*
X134508730Y-116586000D01*
X134470213Y-116678988D01*
X134449000Y-116785633D01*
X134449000Y-116894367D01*
X134470213Y-117001012D01*
X134508730Y-117094000D01*
X134470213Y-117186988D01*
X134449000Y-117293633D01*
X134449000Y-117402367D01*
X134470213Y-117509012D01*
X134511824Y-117609470D01*
X134572234Y-117699880D01*
X134649120Y-117776766D01*
X134739530Y-117837176D01*
X134839988Y-117878787D01*
X134946633Y-117900000D01*
X135055367Y-117900000D01*
X135162012Y-117878787D01*
X135262470Y-117837176D01*
X135352880Y-117776766D01*
X135429766Y-117699880D01*
X135490176Y-117609470D01*
X135531787Y-117509012D01*
X135553000Y-117402367D01*
X135553000Y-117293633D01*
X135531787Y-117186988D01*
X135493270Y-117094000D01*
X135531787Y-117001012D01*
X135553000Y-116894367D01*
X135553000Y-116785633D01*
X135531787Y-116678988D01*
X135493270Y-116586000D01*
X135531787Y-116493012D01*
X135553000Y-116386367D01*
X135553000Y-116288767D01*
X135606880Y-116252766D01*
X135683766Y-116175880D01*
X135744176Y-116085470D01*
X135785787Y-115985012D01*
X135807000Y-115878367D01*
X135807000Y-115769633D01*
X135785787Y-115662988D01*
X135747270Y-115570000D01*
X135785787Y-115477012D01*
X135807000Y-115370367D01*
X135807000Y-115261633D01*
X135785787Y-115154988D01*
X135747270Y-115062000D01*
X135785787Y-114969012D01*
X135807000Y-114862367D01*
X135807000Y-114753633D01*
X135785787Y-114646988D01*
X135747270Y-114554000D01*
X135785787Y-114461012D01*
X135807000Y-114354367D01*
X135807000Y-114245633D01*
X135803572Y-114228397D01*
X137195000Y-114228397D01*
X137195000Y-114371603D01*
X137222938Y-114512058D01*
X137277741Y-114644364D01*
X137357302Y-114763436D01*
X137458564Y-114864698D01*
X137577636Y-114944259D01*
X137709942Y-114999062D01*
X137850397Y-115027000D01*
X137993603Y-115027000D01*
X138134058Y-114999062D01*
X138266364Y-114944259D01*
X138385436Y-114864698D01*
X138430000Y-114820134D01*
X138474564Y-114864698D01*
X138593636Y-114944259D01*
X138725942Y-114999062D01*
X138866397Y-115027000D01*
X139009603Y-115027000D01*
X139150058Y-114999062D01*
X139282364Y-114944259D01*
X139401436Y-114864698D01*
X139446000Y-114820134D01*
X139490564Y-114864698D01*
X139609636Y-114944259D01*
X139741942Y-114999062D01*
X139882397Y-115027000D01*
X140025603Y-115027000D01*
X140166058Y-114999062D01*
X140298364Y-114944259D01*
X140380868Y-114889132D01*
X140325741Y-114971636D01*
X140270938Y-115103942D01*
X140243000Y-115244397D01*
X140243000Y-115387603D01*
X140270938Y-115528058D01*
X140325741Y-115660364D01*
X140405302Y-115779436D01*
X140449866Y-115824000D01*
X140405302Y-115868564D01*
X140325741Y-115987636D01*
X140270938Y-116119942D01*
X140243000Y-116260397D01*
X140243000Y-116403603D01*
X140270938Y-116544058D01*
X140325741Y-116676364D01*
X140380868Y-116758868D01*
X140298364Y-116703741D01*
X140166058Y-116648938D01*
X140025603Y-116621000D01*
X139882397Y-116621000D01*
X139741942Y-116648938D01*
X139609636Y-116703741D01*
X139490564Y-116783302D01*
X139389302Y-116884564D01*
X139309741Y-117003636D01*
X139254938Y-117135942D01*
X139227000Y-117276397D01*
X139227000Y-117419603D01*
X139254938Y-117560058D01*
X139309741Y-117692364D01*
X139389302Y-117811436D01*
X139433866Y-117856000D01*
X139389302Y-117900564D01*
X139309741Y-118019636D01*
X139254938Y-118151942D01*
X139227000Y-118292397D01*
X139227000Y-118435603D01*
X139254938Y-118576058D01*
X139309741Y-118708364D01*
X139389302Y-118827436D01*
X139490564Y-118928698D01*
X139609636Y-119008259D01*
X139741942Y-119063062D01*
X139882397Y-119091000D01*
X140025603Y-119091000D01*
X140166058Y-119063062D01*
X140298364Y-119008259D01*
X140417436Y-118928698D01*
X140462000Y-118884134D01*
X140506564Y-118928698D01*
X140625636Y-119008259D01*
X140757942Y-119063062D01*
X140898397Y-119091000D01*
X141041603Y-119091000D01*
X141182058Y-119063062D01*
X141314364Y-119008259D01*
X141433436Y-118928698D01*
X141534698Y-118827436D01*
X141614259Y-118708364D01*
X141669062Y-118576058D01*
X141697000Y-118435603D01*
X141697000Y-118292397D01*
X141669062Y-118151942D01*
X141614259Y-118019636D01*
X141559132Y-117937132D01*
X141641636Y-117992259D01*
X141773942Y-118047062D01*
X141914397Y-118075000D01*
X142044357Y-118075000D01*
X141874413Y-118329339D01*
X141608540Y-118971212D01*
X141473000Y-119652621D01*
X141473000Y-120347379D01*
X141608540Y-121028788D01*
X141874413Y-121670661D01*
X142260400Y-122248332D01*
X142751668Y-122739600D01*
X143329339Y-123125587D01*
X143971212Y-123391460D01*
X144652621Y-123527000D01*
X145347379Y-123527000D01*
X146028788Y-123391460D01*
X146670661Y-123125587D01*
X147248332Y-122739600D01*
X147739600Y-122248332D01*
X148125587Y-121670661D01*
X148391460Y-121028788D01*
X148527000Y-120347379D01*
X148527000Y-119652621D01*
X148391460Y-118971212D01*
X148125587Y-118329339D01*
X147739600Y-117751668D01*
X147248332Y-117260400D01*
X146670661Y-116874413D01*
X146028788Y-116608540D01*
X145347379Y-116473000D01*
X144652621Y-116473000D01*
X143971212Y-116608540D01*
X143329339Y-116874413D01*
X142751668Y-117260400D01*
X142713000Y-117299068D01*
X142713000Y-117276397D01*
X142685062Y-117135942D01*
X142630259Y-117003636D01*
X142550698Y-116884564D01*
X142506134Y-116840000D01*
X142550698Y-116795436D01*
X142630259Y-116676364D01*
X142685062Y-116544058D01*
X142713000Y-116403603D01*
X142713000Y-116260397D01*
X142685062Y-116119942D01*
X142630259Y-115987636D01*
X142550698Y-115868564D01*
X142506134Y-115824000D01*
X142550698Y-115779436D01*
X142630259Y-115660364D01*
X142685062Y-115528058D01*
X142713000Y-115387603D01*
X142713000Y-115244397D01*
X142685062Y-115103942D01*
X142630259Y-114971636D01*
X142550698Y-114852564D01*
X142506134Y-114808000D01*
X142550698Y-114763436D01*
X142630259Y-114644364D01*
X142685062Y-114512058D01*
X142713000Y-114371603D01*
X142713000Y-114228397D01*
X142685062Y-114087942D01*
X142630259Y-113955636D01*
X142550698Y-113836564D01*
X142449436Y-113735302D01*
X142330364Y-113655741D01*
X142198058Y-113600938D01*
X142057603Y-113573000D01*
X141914397Y-113573000D01*
X141773942Y-113600938D01*
X141641636Y-113655741D01*
X141522564Y-113735302D01*
X141478000Y-113779866D01*
X141433436Y-113735302D01*
X141314364Y-113655741D01*
X141182058Y-113600938D01*
X141041603Y-113573000D01*
X140898397Y-113573000D01*
X140757942Y-113600938D01*
X140625636Y-113655741D01*
X140506564Y-113735302D01*
X140462000Y-113779866D01*
X140417436Y-113735302D01*
X140298364Y-113655741D01*
X140166058Y-113600938D01*
X140025603Y-113573000D01*
X139882397Y-113573000D01*
X139741942Y-113600938D01*
X139609636Y-113655741D01*
X139490564Y-113735302D01*
X139446000Y-113779866D01*
X139401436Y-113735302D01*
X139282364Y-113655741D01*
X139150058Y-113600938D01*
X139009603Y-113573000D01*
X138866397Y-113573000D01*
X138725942Y-113600938D01*
X138593636Y-113655741D01*
X138474564Y-113735302D01*
X138430000Y-113779866D01*
X138385436Y-113735302D01*
X138266364Y-113655741D01*
X138134058Y-113600938D01*
X137993603Y-113573000D01*
X137850397Y-113573000D01*
X137709942Y-113600938D01*
X137577636Y-113655741D01*
X137458564Y-113735302D01*
X137357302Y-113836564D01*
X137277741Y-113955636D01*
X137222938Y-114087942D01*
X137195000Y-114228397D01*
X135803572Y-114228397D01*
X135785787Y-114138988D01*
X135744176Y-114038530D01*
X135683766Y-113948120D01*
X135606880Y-113871234D01*
X135516470Y-113810824D01*
X135416012Y-113769213D01*
X135309367Y-113748000D01*
X135200633Y-113748000D01*
X135093988Y-113769213D01*
X134993530Y-113810824D01*
X134903120Y-113871234D01*
X134826234Y-113948120D01*
X134765824Y-114038530D01*
X134724213Y-114138988D01*
X134703000Y-114245633D01*
X134703000Y-114354367D01*
X134724213Y-114461012D01*
X134762730Y-114554000D01*
X134724213Y-114646988D01*
X134703000Y-114753633D01*
X134703000Y-114862367D01*
X134724213Y-114969012D01*
X134762730Y-115062000D01*
X134724213Y-115154988D01*
X134703000Y-115261633D01*
X134703000Y-115272000D01*
X134692633Y-115272000D01*
X134585988Y-115293213D01*
X134493000Y-115331730D01*
X134400012Y-115293213D01*
X134293367Y-115272000D01*
X134283000Y-115272000D01*
X134283000Y-115261633D01*
X134261787Y-115154988D01*
X134223270Y-115062000D01*
X134261787Y-114969012D01*
X134283000Y-114862367D01*
X134283000Y-114753633D01*
X134261787Y-114646988D01*
X134223270Y-114554000D01*
X134261787Y-114461012D01*
X134283000Y-114354367D01*
X134283000Y-114245633D01*
X134261787Y-114138988D01*
X134220176Y-114038530D01*
X134159766Y-113948120D01*
X134082880Y-113871234D01*
X133992470Y-113810824D01*
X133892012Y-113769213D01*
X133785367Y-113748000D01*
X133676633Y-113748000D01*
X133569988Y-113769213D01*
X133469530Y-113810824D01*
X133379120Y-113871234D01*
X133302234Y-113948120D01*
X133241824Y-114038530D01*
X133200213Y-114138988D01*
X133179000Y-114245633D01*
X132188464Y-114245633D01*
X132165058Y-114235938D01*
X132024603Y-114208000D01*
X131881397Y-114208000D01*
X131740942Y-114235938D01*
X131608636Y-114290741D01*
X131489564Y-114370302D01*
X131388302Y-114471564D01*
X131308741Y-114590636D01*
X131253938Y-114722942D01*
X131226000Y-114863397D01*
X122012000Y-114863397D01*
X121984062Y-114722942D01*
X121929259Y-114590636D01*
X121849698Y-114471564D01*
X121748436Y-114370302D01*
X121629364Y-114290741D01*
X121497058Y-114235938D01*
X121356603Y-114208000D01*
X121213397Y-114208000D01*
X121072942Y-114235938D01*
X120940636Y-114290741D01*
X120840500Y-114357649D01*
X120740364Y-114290741D01*
X120608058Y-114235938D01*
X120467603Y-114208000D01*
X120324397Y-114208000D01*
X120183942Y-114235938D01*
X120051636Y-114290741D01*
X119951500Y-114357649D01*
X119851364Y-114290741D01*
X119719058Y-114235938D01*
X119578603Y-114208000D01*
X119435397Y-114208000D01*
X119294942Y-114235938D01*
X119162636Y-114290741D01*
X119043564Y-114370302D01*
X118942302Y-114471564D01*
X118862741Y-114590636D01*
X118807938Y-114722942D01*
X118780000Y-114863397D01*
X116398739Y-114863397D01*
X116396062Y-114849942D01*
X116341259Y-114717636D01*
X116261698Y-114598564D01*
X116160436Y-114497302D01*
X116041364Y-114417741D01*
X115910415Y-114363500D01*
X116041364Y-114309259D01*
X116160436Y-114229698D01*
X116261698Y-114128436D01*
X116341259Y-114009364D01*
X116396062Y-113877058D01*
X116424000Y-113736603D01*
X116424000Y-113593397D01*
X116396062Y-113452942D01*
X116341259Y-113320636D01*
X116261698Y-113201564D01*
X116160436Y-113100302D01*
X116041364Y-113020741D01*
X115909058Y-112965938D01*
X115768603Y-112938000D01*
X115625397Y-112938000D01*
X115484942Y-112965938D01*
X115352636Y-113020741D01*
X115233564Y-113100302D01*
X115132302Y-113201564D01*
X115052741Y-113320636D01*
X114997938Y-113452942D01*
X114970000Y-113593397D01*
X112995000Y-113593397D01*
X112967062Y-113452942D01*
X112912259Y-113320636D01*
X112832698Y-113201564D01*
X112731436Y-113100302D01*
X112612364Y-113020741D01*
X112480058Y-112965938D01*
X112339603Y-112938000D01*
X112196397Y-112938000D01*
X112055942Y-112965938D01*
X111923636Y-113020741D01*
X111804564Y-113100302D01*
X111703302Y-113201564D01*
X111623741Y-113320636D01*
X111568938Y-113452942D01*
X111541000Y-113593397D01*
X101127000Y-113593397D01*
X101127000Y-107564712D01*
X116683228Y-107564712D01*
X116683228Y-107707918D01*
X116711166Y-107848373D01*
X116765969Y-107980679D01*
X116845530Y-108099751D01*
X116946792Y-108201013D01*
X117065864Y-108280574D01*
X117198170Y-108335377D01*
X117338625Y-108363315D01*
X117481831Y-108363315D01*
X117622286Y-108335377D01*
X117754592Y-108280574D01*
X117873664Y-108201013D01*
X117974926Y-108099751D01*
X118054487Y-107980679D01*
X118109290Y-107848373D01*
X118137228Y-107707918D01*
X118137228Y-107564712D01*
X118109290Y-107424257D01*
X118054487Y-107291951D01*
X117974926Y-107172879D01*
X117873664Y-107071617D01*
X117754592Y-106992056D01*
X117622286Y-106937253D01*
X117481831Y-106909315D01*
X117338625Y-106909315D01*
X117198170Y-106937253D01*
X117065864Y-106992056D01*
X116946792Y-107071617D01*
X116845530Y-107172879D01*
X116765969Y-107291951D01*
X116711166Y-107424257D01*
X116683228Y-107564712D01*
X101127000Y-107564712D01*
X101127000Y-103560397D01*
X109890000Y-103560397D01*
X109890000Y-103703603D01*
X109917938Y-103844058D01*
X109972741Y-103976364D01*
X110052302Y-104095436D01*
X110096866Y-104140000D01*
X110052302Y-104184564D01*
X109972741Y-104303636D01*
X109917938Y-104435942D01*
X109890000Y-104576397D01*
X109890000Y-104719603D01*
X109917938Y-104860058D01*
X109972741Y-104992364D01*
X110052302Y-105111436D01*
X110096866Y-105156000D01*
X110052302Y-105200564D01*
X109972741Y-105319636D01*
X109917938Y-105451942D01*
X109890000Y-105592397D01*
X109890000Y-105735603D01*
X109917938Y-105876058D01*
X109972741Y-106008364D01*
X110052302Y-106127436D01*
X110153564Y-106228698D01*
X110272636Y-106308259D01*
X110404942Y-106363062D01*
X110545397Y-106391000D01*
X110688603Y-106391000D01*
X110829058Y-106363062D01*
X110961364Y-106308259D01*
X111080436Y-106228698D01*
X111181698Y-106127436D01*
X111261259Y-106008364D01*
X111316062Y-105876058D01*
X111344000Y-105735603D01*
X111344000Y-105592397D01*
X116875000Y-105592397D01*
X116875000Y-105735603D01*
X116902938Y-105876058D01*
X116957741Y-106008364D01*
X117037302Y-106127436D01*
X117138564Y-106228698D01*
X117257636Y-106308259D01*
X117389942Y-106363062D01*
X117530397Y-106391000D01*
X117673603Y-106391000D01*
X117814058Y-106363062D01*
X117874562Y-106338000D01*
X120233418Y-106338000D01*
X120233418Y-108038000D01*
X120239732Y-108102103D01*
X120258430Y-108163743D01*
X120288794Y-108220550D01*
X120329657Y-108270343D01*
X120379450Y-108311206D01*
X120436257Y-108341570D01*
X120497897Y-108360268D01*
X120562000Y-108366582D01*
X122262000Y-108366582D01*
X122326103Y-108360268D01*
X122387743Y-108341570D01*
X122444550Y-108311206D01*
X122494343Y-108270343D01*
X122535206Y-108220550D01*
X122565570Y-108163743D01*
X122584268Y-108102103D01*
X122590582Y-108038000D01*
X122590582Y-107072076D01*
X122775000Y-107072076D01*
X122775000Y-107303924D01*
X122820231Y-107531318D01*
X122908956Y-107745519D01*
X123037764Y-107938294D01*
X123201706Y-108102236D01*
X123394481Y-108231044D01*
X123608682Y-108319769D01*
X123836076Y-108365000D01*
X124067924Y-108365000D01*
X124295318Y-108319769D01*
X124509519Y-108231044D01*
X124702294Y-108102236D01*
X124866236Y-107938294D01*
X124995044Y-107745519D01*
X125045214Y-107624397D01*
X125257000Y-107624397D01*
X125257000Y-107767603D01*
X125284938Y-107908058D01*
X125339741Y-108040364D01*
X125419302Y-108159436D01*
X125463866Y-108204000D01*
X125419302Y-108248564D01*
X125339741Y-108367636D01*
X125284938Y-108499942D01*
X125257000Y-108640397D01*
X125257000Y-108783603D01*
X125284938Y-108924058D01*
X125339741Y-109056364D01*
X125419302Y-109175436D01*
X125463866Y-109220000D01*
X125419302Y-109264564D01*
X125339741Y-109383636D01*
X125284938Y-109515942D01*
X125257000Y-109656397D01*
X125257000Y-109799603D01*
X125284938Y-109940058D01*
X125339741Y-110072364D01*
X125419302Y-110191436D01*
X125463866Y-110236000D01*
X125419302Y-110280564D01*
X125339741Y-110399636D01*
X125284938Y-110531942D01*
X125257000Y-110672397D01*
X125257000Y-110815603D01*
X125284938Y-110956058D01*
X125339741Y-111088364D01*
X125419302Y-111207436D01*
X125520564Y-111308698D01*
X125639636Y-111388259D01*
X125771942Y-111443062D01*
X125912397Y-111471000D01*
X126055603Y-111471000D01*
X126196058Y-111443062D01*
X126328364Y-111388259D01*
X126447436Y-111308698D01*
X126548698Y-111207436D01*
X126628259Y-111088364D01*
X126683062Y-110956058D01*
X126711000Y-110815603D01*
X126711000Y-110672397D01*
X126683062Y-110531942D01*
X126628259Y-110399636D01*
X126548698Y-110280564D01*
X126504134Y-110236000D01*
X126548698Y-110191436D01*
X126628259Y-110072364D01*
X126683062Y-109940058D01*
X126711000Y-109799603D01*
X126711000Y-109656397D01*
X126683062Y-109515942D01*
X126628259Y-109383636D01*
X126548698Y-109264564D01*
X126504134Y-109220000D01*
X126548698Y-109175436D01*
X126628259Y-109056364D01*
X126683062Y-108924058D01*
X126711000Y-108783603D01*
X126711000Y-108640397D01*
X126908000Y-108640397D01*
X126908000Y-108783603D01*
X126935938Y-108924058D01*
X126990741Y-109056364D01*
X127070302Y-109175436D01*
X127114866Y-109220000D01*
X127070302Y-109264564D01*
X126990741Y-109383636D01*
X126935938Y-109515942D01*
X126908000Y-109656397D01*
X126908000Y-109799603D01*
X126935938Y-109940058D01*
X126990741Y-110072364D01*
X127070302Y-110191436D01*
X127114866Y-110236000D01*
X127070302Y-110280564D01*
X126990741Y-110399636D01*
X126935938Y-110531942D01*
X126908000Y-110672397D01*
X126908000Y-110815603D01*
X126935938Y-110956058D01*
X126990741Y-111088364D01*
X127070302Y-111207436D01*
X127171564Y-111308698D01*
X127290636Y-111388259D01*
X127422942Y-111443062D01*
X127563397Y-111471000D01*
X127706603Y-111471000D01*
X127847058Y-111443062D01*
X127979364Y-111388259D01*
X128098436Y-111308698D01*
X128199698Y-111207436D01*
X128279259Y-111088364D01*
X128334062Y-110956058D01*
X128362000Y-110815603D01*
X128362000Y-110672397D01*
X128334062Y-110531942D01*
X128279259Y-110399636D01*
X128199698Y-110280564D01*
X128155134Y-110236000D01*
X128199698Y-110191436D01*
X128279259Y-110072364D01*
X128334062Y-109940058D01*
X128362000Y-109799603D01*
X128362000Y-109656397D01*
X128334062Y-109515942D01*
X128279259Y-109383636D01*
X128199698Y-109264564D01*
X128155134Y-109220000D01*
X128199698Y-109175436D01*
X128279259Y-109056364D01*
X128334062Y-108924058D01*
X128362000Y-108783603D01*
X128362000Y-108640397D01*
X128334062Y-108499942D01*
X128279259Y-108367636D01*
X128199698Y-108248564D01*
X128098436Y-108147302D01*
X127979364Y-108067741D01*
X127847058Y-108012938D01*
X127706603Y-107985000D01*
X127563397Y-107985000D01*
X127422942Y-108012938D01*
X127290636Y-108067741D01*
X127171564Y-108147302D01*
X127070302Y-108248564D01*
X126990741Y-108367636D01*
X126935938Y-108499942D01*
X126908000Y-108640397D01*
X126711000Y-108640397D01*
X126683062Y-108499942D01*
X126628259Y-108367636D01*
X126548698Y-108248564D01*
X126504134Y-108204000D01*
X126548698Y-108159436D01*
X126628259Y-108040364D01*
X126683062Y-107908058D01*
X126711000Y-107767603D01*
X126711000Y-107624397D01*
X126683062Y-107483942D01*
X126636031Y-107370397D01*
X129811038Y-107370397D01*
X129811038Y-107513603D01*
X129838976Y-107654058D01*
X129893779Y-107786364D01*
X129973340Y-107905436D01*
X130074602Y-108006698D01*
X130193674Y-108086259D01*
X130325980Y-108141062D01*
X130466435Y-108169000D01*
X130609641Y-108169000D01*
X130750096Y-108141062D01*
X130882402Y-108086259D01*
X131001474Y-108006698D01*
X131102736Y-107905436D01*
X131182297Y-107786364D01*
X131237100Y-107654058D01*
X131265038Y-107513603D01*
X131265038Y-107370397D01*
X131237100Y-107229942D01*
X131182297Y-107097636D01*
X131102736Y-106978564D01*
X131001474Y-106877302D01*
X130882402Y-106797741D01*
X130750096Y-106742938D01*
X130609641Y-106715000D01*
X130466435Y-106715000D01*
X130325980Y-106742938D01*
X130193674Y-106797741D01*
X130074602Y-106877302D01*
X129973340Y-106978564D01*
X129893779Y-107097636D01*
X129838976Y-107229942D01*
X129811038Y-107370397D01*
X126636031Y-107370397D01*
X126628259Y-107351636D01*
X126548698Y-107232564D01*
X126447436Y-107131302D01*
X126328364Y-107051741D01*
X126196058Y-106996938D01*
X126055603Y-106969000D01*
X125912397Y-106969000D01*
X125771942Y-106996938D01*
X125639636Y-107051741D01*
X125520564Y-107131302D01*
X125419302Y-107232564D01*
X125339741Y-107351636D01*
X125284938Y-107483942D01*
X125257000Y-107624397D01*
X125045214Y-107624397D01*
X125083769Y-107531318D01*
X125129000Y-107303924D01*
X125129000Y-107072076D01*
X125083769Y-106844682D01*
X124995044Y-106630481D01*
X124866236Y-106437706D01*
X124702294Y-106273764D01*
X124509519Y-106144956D01*
X124295318Y-106056231D01*
X124067924Y-106011000D01*
X123836076Y-106011000D01*
X123608682Y-106056231D01*
X123394481Y-106144956D01*
X123201706Y-106273764D01*
X123037764Y-106437706D01*
X122908956Y-106630481D01*
X122820231Y-106844682D01*
X122775000Y-107072076D01*
X122590582Y-107072076D01*
X122590582Y-106338000D01*
X122584268Y-106273897D01*
X122565570Y-106212257D01*
X122535206Y-106155450D01*
X122494343Y-106105657D01*
X122444550Y-106064794D01*
X122387743Y-106034430D01*
X122326103Y-106015732D01*
X122262000Y-106009418D01*
X120562000Y-106009418D01*
X120497897Y-106015732D01*
X120436257Y-106034430D01*
X120379450Y-106064794D01*
X120329657Y-106105657D01*
X120288794Y-106155450D01*
X120258430Y-106212257D01*
X120239732Y-106273897D01*
X120233418Y-106338000D01*
X117874562Y-106338000D01*
X117946364Y-106308259D01*
X118065436Y-106228698D01*
X118166698Y-106127436D01*
X118246259Y-106008364D01*
X118301062Y-105876058D01*
X118329000Y-105735603D01*
X118329000Y-105592397D01*
X118301062Y-105451942D01*
X118246259Y-105319636D01*
X118166698Y-105200564D01*
X118065436Y-105099302D01*
X117946364Y-105019741D01*
X117814058Y-104964938D01*
X117673603Y-104937000D01*
X117530397Y-104937000D01*
X117389942Y-104964938D01*
X117257636Y-105019741D01*
X117138564Y-105099302D01*
X117037302Y-105200564D01*
X116957741Y-105319636D01*
X116902938Y-105451942D01*
X116875000Y-105592397D01*
X111344000Y-105592397D01*
X111316062Y-105451942D01*
X111261259Y-105319636D01*
X111181698Y-105200564D01*
X111137134Y-105156000D01*
X111181698Y-105111436D01*
X111261259Y-104992364D01*
X111316062Y-104860058D01*
X111321961Y-104830397D01*
X136052000Y-104830397D01*
X136052000Y-104973603D01*
X136079938Y-105114058D01*
X136134741Y-105246364D01*
X136201649Y-105346500D01*
X136134741Y-105446636D01*
X136079938Y-105578942D01*
X136052000Y-105719397D01*
X136052000Y-105862603D01*
X136079938Y-106003058D01*
X136134741Y-106135364D01*
X136201649Y-106235500D01*
X136134741Y-106335636D01*
X136079938Y-106467942D01*
X136052000Y-106608397D01*
X136052000Y-106751603D01*
X136079938Y-106892058D01*
X136134741Y-107024364D01*
X136201649Y-107124500D01*
X136134741Y-107224636D01*
X136079938Y-107356942D01*
X136052000Y-107497397D01*
X136052000Y-107640603D01*
X136079938Y-107781058D01*
X136134741Y-107913364D01*
X136214302Y-108032436D01*
X136315564Y-108133698D01*
X136434636Y-108213259D01*
X136566942Y-108268062D01*
X136707397Y-108296000D01*
X136850603Y-108296000D01*
X136991058Y-108268062D01*
X137123364Y-108213259D01*
X137242436Y-108133698D01*
X137343698Y-108032436D01*
X137423259Y-107913364D01*
X137478062Y-107781058D01*
X137506000Y-107640603D01*
X137506000Y-107497397D01*
X137478062Y-107356942D01*
X137423259Y-107224636D01*
X137356351Y-107124500D01*
X137423259Y-107024364D01*
X137478062Y-106892058D01*
X137506000Y-106751603D01*
X137506000Y-106608397D01*
X137478062Y-106467942D01*
X137423259Y-106335636D01*
X137356351Y-106235500D01*
X137423259Y-106135364D01*
X137478062Y-106003058D01*
X137506000Y-105862603D01*
X137506000Y-105719397D01*
X137478062Y-105578942D01*
X137423259Y-105446636D01*
X137356351Y-105346500D01*
X137423259Y-105246364D01*
X137478062Y-105114058D01*
X137506000Y-104973603D01*
X137506000Y-104830397D01*
X137478062Y-104689942D01*
X137423259Y-104557636D01*
X137343698Y-104438564D01*
X137242436Y-104337302D01*
X137123364Y-104257741D01*
X136991058Y-104202938D01*
X136850603Y-104175000D01*
X136707397Y-104175000D01*
X136566942Y-104202938D01*
X136434636Y-104257741D01*
X136315564Y-104337302D01*
X136214302Y-104438564D01*
X136134741Y-104557636D01*
X136079938Y-104689942D01*
X136052000Y-104830397D01*
X111321961Y-104830397D01*
X111344000Y-104719603D01*
X111344000Y-104576397D01*
X111316062Y-104435942D01*
X111261259Y-104303636D01*
X111181698Y-104184564D01*
X111137134Y-104140000D01*
X111181698Y-104095436D01*
X111261259Y-103976364D01*
X111316062Y-103844058D01*
X111344000Y-103703603D01*
X111344000Y-103560397D01*
X111316062Y-103419942D01*
X111261259Y-103287636D01*
X111181698Y-103168564D01*
X111080436Y-103067302D01*
X110961364Y-102987741D01*
X110829058Y-102932938D01*
X110688603Y-102905000D01*
X110545397Y-102905000D01*
X110404942Y-102932938D01*
X110272636Y-102987741D01*
X110153564Y-103067302D01*
X110052302Y-103168564D01*
X109972741Y-103287636D01*
X109917938Y-103419942D01*
X109890000Y-103560397D01*
X101127000Y-103560397D01*
X101127000Y-99877397D01*
X129448000Y-99877397D01*
X129448000Y-100020603D01*
X129475938Y-100161058D01*
X129530741Y-100293364D01*
X129610302Y-100412436D01*
X129654866Y-100457000D01*
X129610302Y-100501564D01*
X129530741Y-100620636D01*
X129475938Y-100752942D01*
X129448000Y-100893397D01*
X129448000Y-101036603D01*
X129475938Y-101177058D01*
X129530741Y-101309364D01*
X129610302Y-101428436D01*
X129711564Y-101529698D01*
X129830636Y-101609259D01*
X129962942Y-101664062D01*
X130103397Y-101692000D01*
X130246603Y-101692000D01*
X130387058Y-101664062D01*
X130519364Y-101609259D01*
X130638436Y-101529698D01*
X130739698Y-101428436D01*
X130819259Y-101309364D01*
X130874062Y-101177058D01*
X130902000Y-101036603D01*
X130902000Y-100893397D01*
X130874062Y-100752942D01*
X130819259Y-100620636D01*
X130739698Y-100501564D01*
X130695134Y-100457000D01*
X130739698Y-100412436D01*
X130819259Y-100293364D01*
X130874062Y-100161058D01*
X130902000Y-100020603D01*
X130902000Y-99877397D01*
X132115000Y-99877397D01*
X132115000Y-100020603D01*
X132142938Y-100161058D01*
X132197741Y-100293364D01*
X132277302Y-100412436D01*
X132378564Y-100513698D01*
X132497636Y-100593259D01*
X132629942Y-100648062D01*
X132770397Y-100676000D01*
X132913603Y-100676000D01*
X133054058Y-100648062D01*
X133186364Y-100593259D01*
X133305436Y-100513698D01*
X133306737Y-100512397D01*
X137068000Y-100512397D01*
X137068000Y-100655603D01*
X137095938Y-100796058D01*
X137150741Y-100928364D01*
X137230302Y-101047436D01*
X137331564Y-101148698D01*
X137450636Y-101228259D01*
X137582942Y-101283062D01*
X137723397Y-101311000D01*
X137866603Y-101311000D01*
X138007058Y-101283062D01*
X138139364Y-101228259D01*
X138258436Y-101148698D01*
X138359698Y-101047436D01*
X138439259Y-100928364D01*
X138494062Y-100796058D01*
X138522000Y-100655603D01*
X138522000Y-100512397D01*
X138494062Y-100371942D01*
X138439259Y-100239636D01*
X138359698Y-100120564D01*
X138258436Y-100019302D01*
X138139364Y-99939741D01*
X138007058Y-99884938D01*
X137866603Y-99857000D01*
X137723397Y-99857000D01*
X137582942Y-99884938D01*
X137450636Y-99939741D01*
X137331564Y-100019302D01*
X137230302Y-100120564D01*
X137150741Y-100239636D01*
X137095938Y-100371942D01*
X137068000Y-100512397D01*
X133306737Y-100512397D01*
X133406698Y-100412436D01*
X133486259Y-100293364D01*
X133541062Y-100161058D01*
X133569000Y-100020603D01*
X133569000Y-99877397D01*
X133541062Y-99736942D01*
X133486259Y-99604636D01*
X133406698Y-99485564D01*
X133305436Y-99384302D01*
X133186364Y-99304741D01*
X133054058Y-99249938D01*
X132913603Y-99222000D01*
X132770397Y-99222000D01*
X132629942Y-99249938D01*
X132497636Y-99304741D01*
X132378564Y-99384302D01*
X132277302Y-99485564D01*
X132197741Y-99604636D01*
X132142938Y-99736942D01*
X132115000Y-99877397D01*
X130902000Y-99877397D01*
X130874062Y-99736942D01*
X130819259Y-99604636D01*
X130739698Y-99485564D01*
X130638436Y-99384302D01*
X130519364Y-99304741D01*
X130387058Y-99249938D01*
X130246603Y-99222000D01*
X130103397Y-99222000D01*
X129962942Y-99249938D01*
X129830636Y-99304741D01*
X129711564Y-99384302D01*
X129610302Y-99485564D01*
X129530741Y-99604636D01*
X129475938Y-99736942D01*
X129448000Y-99877397D01*
X101127000Y-99877397D01*
X101127000Y-97583134D01*
X101136564Y-97592698D01*
X101255636Y-97672259D01*
X101387942Y-97727062D01*
X101528397Y-97755000D01*
X101671603Y-97755000D01*
X101812058Y-97727062D01*
X101944364Y-97672259D01*
X102063436Y-97592698D01*
X102164698Y-97491436D01*
X102244259Y-97372364D01*
X102250206Y-97358007D01*
X102254502Y-97364436D01*
X102355764Y-97465698D01*
X102474836Y-97545259D01*
X102607142Y-97600062D01*
X102747597Y-97628000D01*
X102890803Y-97628000D01*
X103031258Y-97600062D01*
X103163564Y-97545259D01*
X103282636Y-97465698D01*
X103383898Y-97364436D01*
X103463459Y-97245364D01*
X103518262Y-97113058D01*
X103546200Y-96972603D01*
X103546200Y-96829397D01*
X103531044Y-96753197D01*
X103667000Y-96753197D01*
X103667000Y-96896403D01*
X103694938Y-97036858D01*
X103749741Y-97169164D01*
X103829302Y-97288236D01*
X103930564Y-97389498D01*
X104049636Y-97469059D01*
X104181942Y-97523862D01*
X104322397Y-97551800D01*
X104465603Y-97551800D01*
X104606058Y-97523862D01*
X104738364Y-97469059D01*
X104857436Y-97389498D01*
X104958698Y-97288236D01*
X105038259Y-97169164D01*
X105093062Y-97036858D01*
X105116590Y-96918573D01*
X105146741Y-96991364D01*
X105226302Y-97110436D01*
X105327564Y-97211698D01*
X105446636Y-97291259D01*
X105578942Y-97346062D01*
X105719397Y-97374000D01*
X105862603Y-97374000D01*
X106003058Y-97346062D01*
X106023977Y-97337397D01*
X119415000Y-97337397D01*
X119415000Y-97480603D01*
X119442938Y-97621058D01*
X119497741Y-97753364D01*
X119577302Y-97872436D01*
X119678564Y-97973698D01*
X119797636Y-98053259D01*
X119929942Y-98108062D01*
X120070397Y-98136000D01*
X120213603Y-98136000D01*
X120354058Y-98108062D01*
X120486364Y-98053259D01*
X120605436Y-97973698D01*
X120706698Y-97872436D01*
X120776858Y-97767433D01*
X135169898Y-97767433D01*
X135169898Y-97876167D01*
X135191111Y-97982812D01*
X135232722Y-98083270D01*
X135293132Y-98173680D01*
X135370018Y-98250566D01*
X135460428Y-98310976D01*
X135560886Y-98352587D01*
X135667531Y-98373800D01*
X135776265Y-98373800D01*
X135882910Y-98352587D01*
X135983368Y-98310976D01*
X136073778Y-98250566D01*
X136150664Y-98173680D01*
X136211074Y-98083270D01*
X136252685Y-97982812D01*
X136273898Y-97876167D01*
X136273898Y-97767433D01*
X136252685Y-97660788D01*
X136211074Y-97560330D01*
X136150664Y-97469920D01*
X136073778Y-97393034D01*
X135983368Y-97332624D01*
X135882910Y-97291013D01*
X135776265Y-97269800D01*
X135667531Y-97269800D01*
X135560886Y-97291013D01*
X135460428Y-97332624D01*
X135370018Y-97393034D01*
X135293132Y-97469920D01*
X135232722Y-97560330D01*
X135191111Y-97660788D01*
X135169898Y-97767433D01*
X120776858Y-97767433D01*
X120786259Y-97753364D01*
X120841062Y-97621058D01*
X120869000Y-97480603D01*
X120869000Y-97337397D01*
X120841062Y-97196942D01*
X120786259Y-97064636D01*
X120706698Y-96945564D01*
X120605436Y-96844302D01*
X120486364Y-96764741D01*
X120354058Y-96709938D01*
X120213603Y-96682000D01*
X120070397Y-96682000D01*
X119929942Y-96709938D01*
X119797636Y-96764741D01*
X119678564Y-96844302D01*
X119577302Y-96945564D01*
X119497741Y-97064636D01*
X119442938Y-97196942D01*
X119415000Y-97337397D01*
X106023977Y-97337397D01*
X106135364Y-97291259D01*
X106254436Y-97211698D01*
X106355698Y-97110436D01*
X106435259Y-96991364D01*
X106490062Y-96859058D01*
X106518000Y-96718603D01*
X106518000Y-96575397D01*
X106490062Y-96434942D01*
X106435259Y-96302636D01*
X106355698Y-96183564D01*
X106254436Y-96082302D01*
X106135364Y-96002741D01*
X106003058Y-95947938D01*
X105862603Y-95920000D01*
X105719397Y-95920000D01*
X105578942Y-95947938D01*
X105446636Y-96002741D01*
X105327564Y-96082302D01*
X105226302Y-96183564D01*
X105146741Y-96302636D01*
X105091938Y-96434942D01*
X105068410Y-96553227D01*
X105038259Y-96480436D01*
X104958698Y-96361364D01*
X104857436Y-96260102D01*
X104738364Y-96180541D01*
X104606058Y-96125738D01*
X104465603Y-96097800D01*
X104322397Y-96097800D01*
X104181942Y-96125738D01*
X104049636Y-96180541D01*
X103930564Y-96260102D01*
X103829302Y-96361364D01*
X103749741Y-96480436D01*
X103694938Y-96612742D01*
X103667000Y-96753197D01*
X103531044Y-96753197D01*
X103518262Y-96688942D01*
X103463459Y-96556636D01*
X103383898Y-96437564D01*
X103282636Y-96336302D01*
X103163564Y-96256741D01*
X103031258Y-96201938D01*
X102890803Y-96174000D01*
X102747597Y-96174000D01*
X102607142Y-96201938D01*
X102474836Y-96256741D01*
X102355764Y-96336302D01*
X102254502Y-96437564D01*
X102174941Y-96556636D01*
X102168994Y-96570993D01*
X102164698Y-96564564D01*
X102063436Y-96463302D01*
X101944364Y-96383741D01*
X101812058Y-96328938D01*
X101671603Y-96301000D01*
X101528397Y-96301000D01*
X101387942Y-96328938D01*
X101255636Y-96383741D01*
X101136564Y-96463302D01*
X101127000Y-96472866D01*
X101127000Y-95068633D01*
X133941000Y-95068633D01*
X133941000Y-95177367D01*
X133962213Y-95284012D01*
X134003824Y-95384470D01*
X134064234Y-95474880D01*
X134141120Y-95551766D01*
X134231530Y-95612176D01*
X134331988Y-95653787D01*
X134438633Y-95675000D01*
X134547367Y-95675000D01*
X134654012Y-95653787D01*
X134754470Y-95612176D01*
X134844880Y-95551766D01*
X134921766Y-95474880D01*
X134982176Y-95384470D01*
X135023787Y-95284012D01*
X135045000Y-95177367D01*
X135045000Y-95068633D01*
X135023787Y-94961988D01*
X134982176Y-94861530D01*
X134921766Y-94771120D01*
X134844880Y-94694234D01*
X134754470Y-94633824D01*
X134654012Y-94592213D01*
X134547367Y-94571000D01*
X134438633Y-94571000D01*
X134331988Y-94592213D01*
X134231530Y-94633824D01*
X134141120Y-94694234D01*
X134064234Y-94771120D01*
X134003824Y-94861530D01*
X133962213Y-94961988D01*
X133941000Y-95068633D01*
X101127000Y-95068633D01*
X101127000Y-93273397D01*
X103794000Y-93273397D01*
X103794000Y-93416603D01*
X103821938Y-93557058D01*
X103876741Y-93689364D01*
X103956302Y-93808436D01*
X104057564Y-93909698D01*
X104176636Y-93989259D01*
X104308942Y-94044062D01*
X104449397Y-94072000D01*
X104592603Y-94072000D01*
X104733058Y-94044062D01*
X104865364Y-93989259D01*
X104984436Y-93909698D01*
X105085698Y-93808436D01*
X105165259Y-93689364D01*
X105220062Y-93557058D01*
X105248000Y-93416603D01*
X105248000Y-93273397D01*
X105220062Y-93132942D01*
X105165259Y-93000636D01*
X105085698Y-92881564D01*
X104984436Y-92780302D01*
X104924116Y-92739997D01*
X107705600Y-92739997D01*
X107705600Y-92883203D01*
X107733538Y-93023658D01*
X107788341Y-93155964D01*
X107867902Y-93275036D01*
X107969164Y-93376298D01*
X108088236Y-93455859D01*
X108220542Y-93510662D01*
X108360997Y-93538600D01*
X108504203Y-93538600D01*
X108644658Y-93510662D01*
X108776964Y-93455859D01*
X108896036Y-93376298D01*
X108997298Y-93275036D01*
X109076859Y-93155964D01*
X109131662Y-93023658D01*
X109159600Y-92883203D01*
X109159600Y-92739997D01*
X109131662Y-92599542D01*
X109076859Y-92467236D01*
X108997298Y-92348164D01*
X108896036Y-92246902D01*
X108776964Y-92167341D01*
X108644658Y-92112538D01*
X108504203Y-92084600D01*
X108360997Y-92084600D01*
X108220542Y-92112538D01*
X108088236Y-92167341D01*
X107969164Y-92246902D01*
X107867902Y-92348164D01*
X107788341Y-92467236D01*
X107733538Y-92599542D01*
X107705600Y-92739997D01*
X104924116Y-92739997D01*
X104865364Y-92700741D01*
X104733058Y-92645938D01*
X104592603Y-92618000D01*
X104449397Y-92618000D01*
X104308942Y-92645938D01*
X104176636Y-92700741D01*
X104057564Y-92780302D01*
X103956302Y-92881564D01*
X103876741Y-93000636D01*
X103821938Y-93132942D01*
X103794000Y-93273397D01*
X101127000Y-93273397D01*
X101127000Y-92122134D01*
X101136564Y-92131698D01*
X101255636Y-92211259D01*
X101387942Y-92266062D01*
X101528397Y-92294000D01*
X101671603Y-92294000D01*
X101812058Y-92266062D01*
X101944364Y-92211259D01*
X102063436Y-92131698D01*
X102164698Y-92030436D01*
X102244259Y-91911364D01*
X102299062Y-91779058D01*
X102327000Y-91638603D01*
X102327000Y-91495397D01*
X102299062Y-91354942D01*
X102252031Y-91241397D01*
X107705600Y-91241397D01*
X107705600Y-91384603D01*
X107733538Y-91525058D01*
X107788341Y-91657364D01*
X107867902Y-91776436D01*
X107969164Y-91877698D01*
X108088236Y-91957259D01*
X108220542Y-92012062D01*
X108360997Y-92040000D01*
X108504203Y-92040000D01*
X108644658Y-92012062D01*
X108776964Y-91957259D01*
X108896036Y-91877698D01*
X108997298Y-91776436D01*
X109076859Y-91657364D01*
X109131662Y-91525058D01*
X109159600Y-91384603D01*
X109159600Y-91241397D01*
X109131662Y-91100942D01*
X109076859Y-90968636D01*
X108997298Y-90849564D01*
X108896036Y-90748302D01*
X108776964Y-90668741D01*
X108644658Y-90613938D01*
X108504203Y-90586000D01*
X108360997Y-90586000D01*
X108220542Y-90613938D01*
X108088236Y-90668741D01*
X107969164Y-90748302D01*
X107867902Y-90849564D01*
X107788341Y-90968636D01*
X107733538Y-91100942D01*
X107705600Y-91241397D01*
X102252031Y-91241397D01*
X102244259Y-91222636D01*
X102164698Y-91103564D01*
X102063436Y-91002302D01*
X101944364Y-90922741D01*
X101812058Y-90867938D01*
X101671603Y-90840000D01*
X101528397Y-90840000D01*
X101387942Y-90867938D01*
X101255636Y-90922741D01*
X101136564Y-91002302D01*
X101127000Y-91011866D01*
X101127000Y-90352397D01*
X131734000Y-90352397D01*
X131734000Y-90495603D01*
X131761938Y-90636058D01*
X131816741Y-90768364D01*
X131896302Y-90887436D01*
X131997564Y-90988698D01*
X132116636Y-91068259D01*
X132248942Y-91123062D01*
X132389397Y-91151000D01*
X132532603Y-91151000D01*
X132673058Y-91123062D01*
X132805364Y-91068259D01*
X132924436Y-90988698D01*
X133025698Y-90887436D01*
X133105259Y-90768364D01*
X133160062Y-90636058D01*
X133188000Y-90495603D01*
X133188000Y-90352397D01*
X133160062Y-90211942D01*
X133105259Y-90079636D01*
X133025698Y-89960564D01*
X132924436Y-89859302D01*
X132805364Y-89779741D01*
X132673058Y-89724938D01*
X132532603Y-89697000D01*
X132389397Y-89697000D01*
X132248942Y-89724938D01*
X132116636Y-89779741D01*
X131997564Y-89859302D01*
X131896302Y-89960564D01*
X131816741Y-90079636D01*
X131761938Y-90211942D01*
X131734000Y-90352397D01*
X101127000Y-90352397D01*
X101127000Y-89463397D01*
X107858000Y-89463397D01*
X107858000Y-89606603D01*
X107885938Y-89747058D01*
X107940741Y-89879364D01*
X108020302Y-89998436D01*
X108121564Y-90099698D01*
X108240636Y-90179259D01*
X108372942Y-90234062D01*
X108513397Y-90262000D01*
X108656603Y-90262000D01*
X108797058Y-90234062D01*
X108929364Y-90179259D01*
X109048436Y-90099698D01*
X109149698Y-89998436D01*
X109229259Y-89879364D01*
X109284062Y-89747058D01*
X109312000Y-89606603D01*
X109312000Y-89463397D01*
X109284062Y-89322942D01*
X109229259Y-89190636D01*
X109149698Y-89071564D01*
X109048436Y-88970302D01*
X108929364Y-88890741D01*
X108797058Y-88835938D01*
X108656603Y-88808000D01*
X108513397Y-88808000D01*
X108372942Y-88835938D01*
X108240636Y-88890741D01*
X108121564Y-88970302D01*
X108020302Y-89071564D01*
X107940741Y-89190636D01*
X107885938Y-89322942D01*
X107858000Y-89463397D01*
X101127000Y-89463397D01*
X101127000Y-88447397D01*
X132877000Y-88447397D01*
X132877000Y-88590603D01*
X132904938Y-88731058D01*
X132959741Y-88863364D01*
X133039302Y-88982436D01*
X133140564Y-89083698D01*
X133259636Y-89163259D01*
X133391942Y-89218062D01*
X133532397Y-89246000D01*
X133675603Y-89246000D01*
X133816058Y-89218062D01*
X133948364Y-89163259D01*
X134067436Y-89083698D01*
X134168698Y-88982436D01*
X134248259Y-88863364D01*
X134303062Y-88731058D01*
X134331000Y-88590603D01*
X134331000Y-88447397D01*
X134303062Y-88306942D01*
X134248259Y-88174636D01*
X134168698Y-88055564D01*
X134067436Y-87954302D01*
X133948364Y-87874741D01*
X133816058Y-87819938D01*
X133675603Y-87792000D01*
X133532397Y-87792000D01*
X133391942Y-87819938D01*
X133259636Y-87874741D01*
X133140564Y-87954302D01*
X133039302Y-88055564D01*
X132959741Y-88174636D01*
X132904938Y-88306942D01*
X132877000Y-88447397D01*
X101127000Y-88447397D01*
X101127000Y-86034413D01*
X122335984Y-86034413D01*
X122335984Y-86177619D01*
X122363922Y-86318074D01*
X122418725Y-86450380D01*
X122498286Y-86569452D01*
X122599548Y-86670714D01*
X122718620Y-86750275D01*
X122850926Y-86805078D01*
X122991381Y-86833016D01*
X123134587Y-86833016D01*
X123275042Y-86805078D01*
X123407348Y-86750275D01*
X123526420Y-86670714D01*
X123627682Y-86569452D01*
X123707243Y-86450380D01*
X123762046Y-86318074D01*
X123789984Y-86177619D01*
X123789984Y-86034413D01*
X123762046Y-85893958D01*
X123707243Y-85761652D01*
X123627682Y-85642580D01*
X123526420Y-85541318D01*
X123407348Y-85461757D01*
X123275042Y-85406954D01*
X123134587Y-85379016D01*
X122991381Y-85379016D01*
X122850926Y-85406954D01*
X122718620Y-85461757D01*
X122599548Y-85541318D01*
X122498286Y-85642580D01*
X122418725Y-85761652D01*
X122363922Y-85893958D01*
X122335984Y-86034413D01*
X101127000Y-86034413D01*
X101127000Y-79652621D01*
X101473000Y-79652621D01*
X101473000Y-80347379D01*
X101608540Y-81028788D01*
X101874413Y-81670661D01*
X102260400Y-82248332D01*
X102751668Y-82739600D01*
X103329339Y-83125587D01*
X103971212Y-83391460D01*
X104652621Y-83527000D01*
X105347379Y-83527000D01*
X106028788Y-83391460D01*
X106670661Y-83125587D01*
X107248332Y-82739600D01*
X107739600Y-82248332D01*
X108125587Y-81670661D01*
X108391460Y-81028788D01*
X108527000Y-80347379D01*
X108527000Y-79652621D01*
X108391460Y-78971212D01*
X108125587Y-78329339D01*
X107739600Y-77751668D01*
X107248332Y-77260400D01*
X106670661Y-76874413D01*
X106028788Y-76608540D01*
X105347379Y-76473000D01*
X104652621Y-76473000D01*
X103971212Y-76608540D01*
X103329339Y-76874413D01*
X102751668Y-77260400D01*
X102260400Y-77751668D01*
X101874413Y-78329339D01*
X101608540Y-78971212D01*
X101473000Y-79652621D01*
X101127000Y-79652621D01*
X101127000Y-78004530D01*
X101146385Y-77733496D01*
X101203181Y-77472407D01*
X101296556Y-77222060D01*
X101424605Y-76987555D01*
X101584724Y-76773662D01*
X101773662Y-76584724D01*
X101987555Y-76424605D01*
X102222060Y-76296556D01*
X102472407Y-76203181D01*
X102733496Y-76146385D01*
X103004530Y-76127000D01*
X109855000Y-76127000D01*
X109855000Y-80772000D01*
G37*
X109855000Y-80772000D02*
X109857440Y-80796776D01*
X109864667Y-80820601D01*
X109876403Y-80842557D01*
X109892197Y-80861803D01*
X109911443Y-80877597D01*
X109933399Y-80889333D01*
X109957224Y-80896560D01*
X109982000Y-80899000D01*
X127635000Y-80899000D01*
X127659776Y-80896560D01*
X127683601Y-80889333D01*
X127705557Y-80877597D01*
X127724803Y-80861803D01*
X127740597Y-80842557D01*
X127752333Y-80820601D01*
X127759560Y-80796776D01*
X127762000Y-80772000D01*
X127762000Y-79811397D01*
X135036000Y-79811397D01*
X135036000Y-79954603D01*
X135063938Y-80095058D01*
X135118741Y-80227364D01*
X135198302Y-80346436D01*
X135299564Y-80447698D01*
X135418636Y-80527259D01*
X135550942Y-80582062D01*
X135691397Y-80610000D01*
X135834603Y-80610000D01*
X135975058Y-80582062D01*
X136107364Y-80527259D01*
X136226436Y-80447698D01*
X136327698Y-80346436D01*
X136407259Y-80227364D01*
X136462062Y-80095058D01*
X136490000Y-79954603D01*
X136490000Y-79811397D01*
X136462062Y-79670942D01*
X136454167Y-79651882D01*
X137971900Y-79651882D01*
X138036003Y-79645568D01*
X138097643Y-79626870D01*
X138154450Y-79596506D01*
X138204243Y-79555643D01*
X138245106Y-79505850D01*
X138275470Y-79449043D01*
X138294168Y-79387403D01*
X138300482Y-79323300D01*
X138300482Y-78357376D01*
X138484900Y-78357376D01*
X138484900Y-78589224D01*
X138530131Y-78816618D01*
X138618856Y-79030819D01*
X138747664Y-79223594D01*
X138911606Y-79387536D01*
X139104381Y-79516344D01*
X139318582Y-79605069D01*
X139545976Y-79650300D01*
X139777824Y-79650300D01*
X140005218Y-79605069D01*
X140219419Y-79516344D01*
X140412194Y-79387536D01*
X140576136Y-79223594D01*
X140704944Y-79030819D01*
X140793669Y-78816618D01*
X140838900Y-78589224D01*
X140838900Y-78357376D01*
X143564900Y-78357376D01*
X143564900Y-78589224D01*
X143610131Y-78816618D01*
X143698856Y-79030819D01*
X143827664Y-79223594D01*
X143991606Y-79387536D01*
X144184381Y-79516344D01*
X144398582Y-79605069D01*
X144625976Y-79650300D01*
X144857824Y-79650300D01*
X145085218Y-79605069D01*
X145299419Y-79516344D01*
X145492194Y-79387536D01*
X145656136Y-79223594D01*
X145784944Y-79030819D01*
X145873669Y-78816618D01*
X145918900Y-78589224D01*
X145918900Y-78357376D01*
X145873669Y-78129982D01*
X145784944Y-77915781D01*
X145656136Y-77723006D01*
X145492194Y-77559064D01*
X145299419Y-77430256D01*
X145085218Y-77341531D01*
X144857824Y-77296300D01*
X144625976Y-77296300D01*
X144398582Y-77341531D01*
X144184381Y-77430256D01*
X143991606Y-77559064D01*
X143827664Y-77723006D01*
X143698856Y-77915781D01*
X143610131Y-78129982D01*
X143564900Y-78357376D01*
X140838900Y-78357376D01*
X140793669Y-78129982D01*
X140704944Y-77915781D01*
X140576136Y-77723006D01*
X140412194Y-77559064D01*
X140219419Y-77430256D01*
X140005218Y-77341531D01*
X139777824Y-77296300D01*
X139545976Y-77296300D01*
X139318582Y-77341531D01*
X139104381Y-77430256D01*
X138911606Y-77559064D01*
X138747664Y-77723006D01*
X138618856Y-77915781D01*
X138530131Y-78129982D01*
X138484900Y-78357376D01*
X138300482Y-78357376D01*
X138300482Y-77623300D01*
X138294168Y-77559197D01*
X138275470Y-77497557D01*
X138245106Y-77440750D01*
X138204243Y-77390957D01*
X138154450Y-77350094D01*
X138097643Y-77319730D01*
X138036003Y-77301032D01*
X137971900Y-77294718D01*
X136271900Y-77294718D01*
X136207797Y-77301032D01*
X136146157Y-77319730D01*
X136089350Y-77350094D01*
X136039557Y-77390957D01*
X135998694Y-77440750D01*
X135968330Y-77497557D01*
X135949632Y-77559197D01*
X135943318Y-77623300D01*
X135943318Y-79177625D01*
X135834603Y-79156000D01*
X135691397Y-79156000D01*
X135550942Y-79183938D01*
X135418636Y-79238741D01*
X135299564Y-79318302D01*
X135198302Y-79419564D01*
X135118741Y-79538636D01*
X135063938Y-79670942D01*
X135036000Y-79811397D01*
X127762000Y-79811397D01*
X127762000Y-78414397D01*
X129448000Y-78414397D01*
X129448000Y-78557603D01*
X129475938Y-78698058D01*
X129530741Y-78830364D01*
X129610302Y-78949436D01*
X129711564Y-79050698D01*
X129830636Y-79130259D01*
X129962942Y-79185062D01*
X130103397Y-79213000D01*
X130246603Y-79213000D01*
X130387058Y-79185062D01*
X130519364Y-79130259D01*
X130638436Y-79050698D01*
X130739698Y-78949436D01*
X130819259Y-78830364D01*
X130874062Y-78698058D01*
X130902000Y-78557603D01*
X130902000Y-78414397D01*
X130874062Y-78273942D01*
X130819259Y-78141636D01*
X130739698Y-78022564D01*
X130638436Y-77921302D01*
X130519364Y-77841741D01*
X130387058Y-77786938D01*
X130246603Y-77759000D01*
X130103397Y-77759000D01*
X129962942Y-77786938D01*
X129830636Y-77841741D01*
X129711564Y-77921302D01*
X129610302Y-78022564D01*
X129530741Y-78141636D01*
X129475938Y-78273942D01*
X129448000Y-78414397D01*
X127762000Y-78414397D01*
X127762000Y-76127000D01*
X146995470Y-76127000D01*
X147266504Y-76146385D01*
X147527593Y-76203181D01*
X147777940Y-76296556D01*
X148012445Y-76424605D01*
X148226338Y-76584724D01*
X148415276Y-76773662D01*
X148575395Y-76987555D01*
X148703444Y-77222060D01*
X148796819Y-77472407D01*
X148853615Y-77733496D01*
X148873000Y-78004530D01*
X148873000Y-81407000D01*
X141859000Y-81407000D01*
X141834224Y-81409440D01*
X141810399Y-81416667D01*
X141788443Y-81428403D01*
X141769197Y-81444197D01*
X141753403Y-81463443D01*
X141741667Y-81485399D01*
X141734440Y-81509224D01*
X141732000Y-81534000D01*
X141732000Y-97917000D01*
X141734440Y-97941776D01*
X141741667Y-97965601D01*
X141753403Y-97987557D01*
X141769197Y-98006803D01*
X141788443Y-98022597D01*
X141810399Y-98034333D01*
X141834224Y-98041560D01*
X141859000Y-98044000D01*
X148873000Y-98044000D01*
X148873000Y-121995470D01*
X148853615Y-122266504D01*
X148796819Y-122527593D01*
X148703444Y-122777940D01*
X148575395Y-123012445D01*
X148415276Y-123226338D01*
X148226338Y-123415276D01*
X148012445Y-123575395D01*
X147777940Y-123703444D01*
X147527593Y-123796819D01*
X147266504Y-123853615D01*
X146995470Y-123873000D01*
X103004530Y-123873000D01*
X102733496Y-123853615D01*
X102472407Y-123796819D01*
X102222060Y-123703444D01*
X101987555Y-123575395D01*
X101773662Y-123415276D01*
X101584724Y-123226338D01*
X101424605Y-123012445D01*
X101296556Y-122777940D01*
X101203181Y-122527593D01*
X101146385Y-122266504D01*
X101127000Y-121995470D01*
X101127000Y-120485800D01*
X101335818Y-120485800D01*
X101335818Y-122185800D01*
X101342132Y-122249903D01*
X101360830Y-122311543D01*
X101391194Y-122368350D01*
X101432057Y-122418143D01*
X101481850Y-122459006D01*
X101538657Y-122489370D01*
X101600297Y-122508068D01*
X101664400Y-122514382D01*
X103364400Y-122514382D01*
X103428503Y-122508068D01*
X103490143Y-122489370D01*
X103546950Y-122459006D01*
X103596743Y-122418143D01*
X103637606Y-122368350D01*
X103667970Y-122311543D01*
X103686668Y-122249903D01*
X103692982Y-122185800D01*
X103692982Y-120485800D01*
X103686668Y-120421697D01*
X103667970Y-120360057D01*
X103637606Y-120303250D01*
X103596743Y-120253457D01*
X103546950Y-120212594D01*
X103490143Y-120182230D01*
X103428503Y-120163532D01*
X103364400Y-120157218D01*
X101664400Y-120157218D01*
X101600297Y-120163532D01*
X101538657Y-120182230D01*
X101481850Y-120212594D01*
X101432057Y-120253457D01*
X101391194Y-120303250D01*
X101360830Y-120360057D01*
X101342132Y-120421697D01*
X101335818Y-120485800D01*
X101127000Y-120485800D01*
X101127000Y-118679876D01*
X101337400Y-118679876D01*
X101337400Y-118911724D01*
X101382631Y-119139118D01*
X101471356Y-119353319D01*
X101600164Y-119546094D01*
X101764106Y-119710036D01*
X101956881Y-119838844D01*
X102171082Y-119927569D01*
X102398476Y-119972800D01*
X102630324Y-119972800D01*
X102857718Y-119927569D01*
X103071919Y-119838844D01*
X103264694Y-119710036D01*
X103428636Y-119546094D01*
X103557444Y-119353319D01*
X103646169Y-119139118D01*
X103691400Y-118911724D01*
X103691400Y-118679876D01*
X103664850Y-118546397D01*
X114970000Y-118546397D01*
X114970000Y-118689603D01*
X114997938Y-118830058D01*
X115052741Y-118962364D01*
X115132302Y-119081436D01*
X115176866Y-119126000D01*
X115132302Y-119170564D01*
X115052741Y-119289636D01*
X114997938Y-119421942D01*
X114970000Y-119562397D01*
X114970000Y-119705603D01*
X114997938Y-119846058D01*
X115052741Y-119978364D01*
X115132302Y-120097436D01*
X115176866Y-120142000D01*
X115132302Y-120186564D01*
X115052741Y-120305636D01*
X114997938Y-120437942D01*
X114970000Y-120578397D01*
X114970000Y-120721603D01*
X114997938Y-120862058D01*
X115052741Y-120994364D01*
X115132302Y-121113436D01*
X115176866Y-121158000D01*
X115132302Y-121202564D01*
X115052741Y-121321636D01*
X114997938Y-121453942D01*
X114970000Y-121594397D01*
X114970000Y-121737603D01*
X114997938Y-121878058D01*
X115052741Y-122010364D01*
X115132302Y-122129436D01*
X115233564Y-122230698D01*
X115352636Y-122310259D01*
X115484942Y-122365062D01*
X115625397Y-122393000D01*
X115768603Y-122393000D01*
X115909058Y-122365062D01*
X116041364Y-122310259D01*
X116160436Y-122230698D01*
X116261698Y-122129436D01*
X116341259Y-122010364D01*
X116396062Y-121878058D01*
X116424000Y-121737603D01*
X116424000Y-121594397D01*
X116396062Y-121453942D01*
X116341259Y-121321636D01*
X116261698Y-121202564D01*
X116217134Y-121158000D01*
X116261698Y-121113436D01*
X116341259Y-120994364D01*
X116396062Y-120862058D01*
X116424000Y-120721603D01*
X116424000Y-120578397D01*
X116396062Y-120437942D01*
X116341259Y-120305636D01*
X116261698Y-120186564D01*
X116217134Y-120142000D01*
X116261698Y-120097436D01*
X116341259Y-119978364D01*
X116396062Y-119846058D01*
X116424000Y-119705603D01*
X116424000Y-119562397D01*
X116396062Y-119421942D01*
X116341259Y-119289636D01*
X116261698Y-119170564D01*
X116217134Y-119126000D01*
X116261698Y-119081436D01*
X116341259Y-118962364D01*
X116396062Y-118830058D01*
X116422528Y-118697000D01*
X119380000Y-118697000D01*
X119380000Y-119682000D01*
X119380200Y-119689121D01*
X119399063Y-120025014D01*
X119400657Y-120039166D01*
X119457010Y-120370836D01*
X119460180Y-120384721D01*
X119553314Y-120707995D01*
X119558017Y-120721438D01*
X119686760Y-121032252D01*
X119692940Y-121045083D01*
X119855674Y-121339528D01*
X119863251Y-121351587D01*
X120057930Y-121625960D01*
X120066809Y-121637095D01*
X120290983Y-121887946D01*
X120301054Y-121898017D01*
X120551905Y-122122191D01*
X120563040Y-122131070D01*
X120837413Y-122325749D01*
X120849472Y-122333326D01*
X121143917Y-122496060D01*
X121156748Y-122502240D01*
X121467562Y-122630983D01*
X121481005Y-122635686D01*
X121804279Y-122728820D01*
X121818164Y-122731990D01*
X122149834Y-122788343D01*
X122163986Y-122789937D01*
X122499879Y-122808800D01*
X122507000Y-122809000D01*
X126047500Y-122809000D01*
X126057464Y-122808608D01*
X126305804Y-122789063D01*
X126325488Y-122785946D01*
X126567712Y-122727793D01*
X126586665Y-122721635D01*
X126816811Y-122626306D01*
X126834568Y-122617258D01*
X127046967Y-122487099D01*
X127063089Y-122475386D01*
X127252512Y-122313604D01*
X127266604Y-122299512D01*
X127428386Y-122110089D01*
X127440099Y-122093967D01*
X127570258Y-121881568D01*
X127579306Y-121863811D01*
X127674635Y-121633665D01*
X127680793Y-121614712D01*
X127738946Y-121372488D01*
X127742063Y-121352804D01*
X127761608Y-121104464D01*
X127762000Y-121094500D01*
X127762000Y-120086828D01*
X127778205Y-119963738D01*
X127822501Y-119856798D01*
X127892966Y-119764966D01*
X127984798Y-119694501D01*
X128091738Y-119650205D01*
X128370992Y-119613441D01*
X128403016Y-119604860D01*
X128540851Y-119547767D01*
X128569563Y-119531190D01*
X128687925Y-119440368D01*
X128711368Y-119416925D01*
X128802190Y-119298563D01*
X128818767Y-119269851D01*
X128875860Y-119132016D01*
X128884441Y-119099992D01*
X128903914Y-118952077D01*
X128905000Y-118935500D01*
X128905000Y-117602000D01*
X128904676Y-117592940D01*
X128885286Y-117321830D01*
X128882708Y-117303894D01*
X128824932Y-117038303D01*
X128819827Y-117020917D01*
X128724842Y-116766252D01*
X128717314Y-116749769D01*
X128587053Y-116511214D01*
X128577257Y-116495971D01*
X128414372Y-116278382D01*
X128402506Y-116264687D01*
X128210313Y-116072494D01*
X128196618Y-116060628D01*
X127979029Y-115897743D01*
X127963786Y-115887947D01*
X127725231Y-115757686D01*
X127708748Y-115750158D01*
X127454083Y-115655173D01*
X127436697Y-115650068D01*
X127171106Y-115592292D01*
X127153170Y-115589714D01*
X126882060Y-115570324D01*
X126873000Y-115570000D01*
X122507000Y-115570000D01*
X122499879Y-115570200D01*
X122163986Y-115589063D01*
X122149834Y-115590657D01*
X121818164Y-115647010D01*
X121804279Y-115650180D01*
X121481005Y-115743314D01*
X121467562Y-115748017D01*
X121156748Y-115876760D01*
X121143917Y-115882940D01*
X120849472Y-116045674D01*
X120837413Y-116053251D01*
X120563040Y-116247930D01*
X120551905Y-116256809D01*
X120301054Y-116480983D01*
X120290983Y-116491054D01*
X120066809Y-116741905D01*
X120057930Y-116753040D01*
X119863251Y-117027413D01*
X119855674Y-117039472D01*
X119692940Y-117333917D01*
X119686760Y-117346748D01*
X119558017Y-117657562D01*
X119553314Y-117671005D01*
X119460180Y-117994279D01*
X119457010Y-118008164D01*
X119400657Y-118339834D01*
X119399063Y-118353986D01*
X119380200Y-118689879D01*
X119380000Y-118697000D01*
X116422528Y-118697000D01*
X116424000Y-118689603D01*
X116424000Y-118546397D01*
X116396062Y-118405942D01*
X116341259Y-118273636D01*
X116261698Y-118154564D01*
X116160436Y-118053302D01*
X116041364Y-117973741D01*
X115909058Y-117918938D01*
X115768603Y-117891000D01*
X115625397Y-117891000D01*
X115484942Y-117918938D01*
X115352636Y-117973741D01*
X115233564Y-118053302D01*
X115132302Y-118154564D01*
X115052741Y-118273636D01*
X114997938Y-118405942D01*
X114970000Y-118546397D01*
X103664850Y-118546397D01*
X103646169Y-118452482D01*
X103557444Y-118238281D01*
X103428636Y-118045506D01*
X103264694Y-117881564D01*
X103071919Y-117752756D01*
X102857718Y-117664031D01*
X102630324Y-117618800D01*
X102398476Y-117618800D01*
X102171082Y-117664031D01*
X101956881Y-117752756D01*
X101764106Y-117881564D01*
X101600164Y-118045506D01*
X101471356Y-118238281D01*
X101382631Y-118452482D01*
X101337400Y-118679876D01*
X101127000Y-118679876D01*
X101127000Y-116139876D01*
X101337400Y-116139876D01*
X101337400Y-116371724D01*
X101382631Y-116599118D01*
X101471356Y-116813319D01*
X101600164Y-117006094D01*
X101764106Y-117170036D01*
X101956881Y-117298844D01*
X102171082Y-117387569D01*
X102398476Y-117432800D01*
X102630324Y-117432800D01*
X102857718Y-117387569D01*
X103071919Y-117298844D01*
X103264694Y-117170036D01*
X103428636Y-117006094D01*
X103557444Y-116813319D01*
X103646169Y-116599118D01*
X103691400Y-116371724D01*
X103691400Y-116139876D01*
X103646169Y-115912482D01*
X103557444Y-115698281D01*
X103428636Y-115505506D01*
X103264694Y-115341564D01*
X103071919Y-115212756D01*
X102857718Y-115124031D01*
X102630324Y-115078800D01*
X102398476Y-115078800D01*
X102171082Y-115124031D01*
X101956881Y-115212756D01*
X101764106Y-115341564D01*
X101600164Y-115505506D01*
X101471356Y-115698281D01*
X101382631Y-115912482D01*
X101337400Y-116139876D01*
X101127000Y-116139876D01*
X101127000Y-113593397D01*
X111541000Y-113593397D01*
X111541000Y-113736603D01*
X111568938Y-113877058D01*
X111623741Y-114009364D01*
X111703302Y-114128436D01*
X111804564Y-114229698D01*
X111923636Y-114309259D01*
X112054585Y-114363500D01*
X111923636Y-114417741D01*
X111804564Y-114497302D01*
X111703302Y-114598564D01*
X111623741Y-114717636D01*
X111568938Y-114849942D01*
X111541000Y-114990397D01*
X111541000Y-115133603D01*
X111568938Y-115274058D01*
X111623741Y-115406364D01*
X111703302Y-115525436D01*
X111804564Y-115626698D01*
X111923636Y-115706259D01*
X112055942Y-115761062D01*
X112196397Y-115789000D01*
X112339603Y-115789000D01*
X112480058Y-115761062D01*
X112612364Y-115706259D01*
X112731436Y-115626698D01*
X112832698Y-115525436D01*
X112912259Y-115406364D01*
X112967062Y-115274058D01*
X112995000Y-115133603D01*
X112995000Y-114990397D01*
X112967062Y-114849942D01*
X112912259Y-114717636D01*
X112832698Y-114598564D01*
X112731436Y-114497302D01*
X112612364Y-114417741D01*
X112481415Y-114363500D01*
X112612364Y-114309259D01*
X112731436Y-114229698D01*
X112832698Y-114128436D01*
X112912259Y-114009364D01*
X112967062Y-113877058D01*
X112995000Y-113736603D01*
X112995000Y-113593397D01*
X114970000Y-113593397D01*
X114970000Y-113736603D01*
X114997938Y-113877058D01*
X115052741Y-114009364D01*
X115132302Y-114128436D01*
X115233564Y-114229698D01*
X115352636Y-114309259D01*
X115483585Y-114363500D01*
X115352636Y-114417741D01*
X115233564Y-114497302D01*
X115132302Y-114598564D01*
X115052741Y-114717636D01*
X114997938Y-114849942D01*
X114970000Y-114990397D01*
X114970000Y-115133603D01*
X114997938Y-115274058D01*
X115052741Y-115406364D01*
X115132302Y-115525436D01*
X115233564Y-115626698D01*
X115352636Y-115706259D01*
X115484942Y-115761062D01*
X115625397Y-115789000D01*
X115768603Y-115789000D01*
X115909058Y-115761062D01*
X116041364Y-115706259D01*
X116160436Y-115626698D01*
X116261698Y-115525436D01*
X116341259Y-115406364D01*
X116396062Y-115274058D01*
X116424000Y-115133603D01*
X116424000Y-114990397D01*
X116398739Y-114863397D01*
X118780000Y-114863397D01*
X118780000Y-115006603D01*
X118807938Y-115147058D01*
X118862741Y-115279364D01*
X118942302Y-115398436D01*
X119043564Y-115499698D01*
X119162636Y-115579259D01*
X119294942Y-115634062D01*
X119435397Y-115662000D01*
X119578603Y-115662000D01*
X119719058Y-115634062D01*
X119851364Y-115579259D01*
X119951500Y-115512351D01*
X120051636Y-115579259D01*
X120183942Y-115634062D01*
X120324397Y-115662000D01*
X120467603Y-115662000D01*
X120608058Y-115634062D01*
X120740364Y-115579259D01*
X120840500Y-115512351D01*
X120940636Y-115579259D01*
X121072942Y-115634062D01*
X121213397Y-115662000D01*
X121356603Y-115662000D01*
X121497058Y-115634062D01*
X121629364Y-115579259D01*
X121748436Y-115499698D01*
X121849698Y-115398436D01*
X121929259Y-115279364D01*
X121984062Y-115147058D01*
X122012000Y-115006603D01*
X122012000Y-114863397D01*
X131226000Y-114863397D01*
X131226000Y-115006603D01*
X131253938Y-115147058D01*
X131308741Y-115279364D01*
X131388302Y-115398436D01*
X131489564Y-115499698D01*
X131608636Y-115579259D01*
X131740942Y-115634062D01*
X131881397Y-115662000D01*
X132024603Y-115662000D01*
X132165058Y-115634062D01*
X132297364Y-115579259D01*
X132416436Y-115499698D01*
X132517698Y-115398436D01*
X132597259Y-115279364D01*
X132652062Y-115147058D01*
X132680000Y-115006603D01*
X132680000Y-114863397D01*
X132652062Y-114722942D01*
X132597259Y-114590636D01*
X132517698Y-114471564D01*
X132416436Y-114370302D01*
X132297364Y-114290741D01*
X132188464Y-114245633D01*
X133179000Y-114245633D01*
X133179000Y-114354367D01*
X133200213Y-114461012D01*
X133238730Y-114554000D01*
X133200213Y-114646988D01*
X133179000Y-114753633D01*
X133179000Y-114862367D01*
X133200213Y-114969012D01*
X133238730Y-115062000D01*
X133200213Y-115154988D01*
X133179000Y-115261633D01*
X133179000Y-115370367D01*
X133200213Y-115477012D01*
X133238730Y-115570000D01*
X133200213Y-115662988D01*
X133179000Y-115769633D01*
X133179000Y-115878367D01*
X133200213Y-115985012D01*
X133241824Y-116085470D01*
X133302234Y-116175880D01*
X133379120Y-116252766D01*
X133469530Y-116313176D01*
X133569988Y-116354787D01*
X133676633Y-116376000D01*
X133785367Y-116376000D01*
X133892012Y-116354787D01*
X133985000Y-116316270D01*
X134077988Y-116354787D01*
X134184633Y-116376000D01*
X134293367Y-116376000D01*
X134400012Y-116354787D01*
X134449000Y-116334496D01*
X134449000Y-116386367D01*
X134470213Y-116493012D01*
X134508730Y-116586000D01*
X134470213Y-116678988D01*
X134449000Y-116785633D01*
X134449000Y-116894367D01*
X134470213Y-117001012D01*
X134508730Y-117094000D01*
X134470213Y-117186988D01*
X134449000Y-117293633D01*
X134449000Y-117402367D01*
X134470213Y-117509012D01*
X134511824Y-117609470D01*
X134572234Y-117699880D01*
X134649120Y-117776766D01*
X134739530Y-117837176D01*
X134839988Y-117878787D01*
X134946633Y-117900000D01*
X135055367Y-117900000D01*
X135162012Y-117878787D01*
X135262470Y-117837176D01*
X135352880Y-117776766D01*
X135429766Y-117699880D01*
X135490176Y-117609470D01*
X135531787Y-117509012D01*
X135553000Y-117402367D01*
X135553000Y-117293633D01*
X135531787Y-117186988D01*
X135493270Y-117094000D01*
X135531787Y-117001012D01*
X135553000Y-116894367D01*
X135553000Y-116785633D01*
X135531787Y-116678988D01*
X135493270Y-116586000D01*
X135531787Y-116493012D01*
X135553000Y-116386367D01*
X135553000Y-116288767D01*
X135606880Y-116252766D01*
X135683766Y-116175880D01*
X135744176Y-116085470D01*
X135785787Y-115985012D01*
X135807000Y-115878367D01*
X135807000Y-115769633D01*
X135785787Y-115662988D01*
X135747270Y-115570000D01*
X135785787Y-115477012D01*
X135807000Y-115370367D01*
X135807000Y-115261633D01*
X135785787Y-115154988D01*
X135747270Y-115062000D01*
X135785787Y-114969012D01*
X135807000Y-114862367D01*
X135807000Y-114753633D01*
X135785787Y-114646988D01*
X135747270Y-114554000D01*
X135785787Y-114461012D01*
X135807000Y-114354367D01*
X135807000Y-114245633D01*
X135803572Y-114228397D01*
X137195000Y-114228397D01*
X137195000Y-114371603D01*
X137222938Y-114512058D01*
X137277741Y-114644364D01*
X137357302Y-114763436D01*
X137458564Y-114864698D01*
X137577636Y-114944259D01*
X137709942Y-114999062D01*
X137850397Y-115027000D01*
X137993603Y-115027000D01*
X138134058Y-114999062D01*
X138266364Y-114944259D01*
X138385436Y-114864698D01*
X138430000Y-114820134D01*
X138474564Y-114864698D01*
X138593636Y-114944259D01*
X138725942Y-114999062D01*
X138866397Y-115027000D01*
X139009603Y-115027000D01*
X139150058Y-114999062D01*
X139282364Y-114944259D01*
X139401436Y-114864698D01*
X139446000Y-114820134D01*
X139490564Y-114864698D01*
X139609636Y-114944259D01*
X139741942Y-114999062D01*
X139882397Y-115027000D01*
X140025603Y-115027000D01*
X140166058Y-114999062D01*
X140298364Y-114944259D01*
X140380868Y-114889132D01*
X140325741Y-114971636D01*
X140270938Y-115103942D01*
X140243000Y-115244397D01*
X140243000Y-115387603D01*
X140270938Y-115528058D01*
X140325741Y-115660364D01*
X140405302Y-115779436D01*
X140449866Y-115824000D01*
X140405302Y-115868564D01*
X140325741Y-115987636D01*
X140270938Y-116119942D01*
X140243000Y-116260397D01*
X140243000Y-116403603D01*
X140270938Y-116544058D01*
X140325741Y-116676364D01*
X140380868Y-116758868D01*
X140298364Y-116703741D01*
X140166058Y-116648938D01*
X140025603Y-116621000D01*
X139882397Y-116621000D01*
X139741942Y-116648938D01*
X139609636Y-116703741D01*
X139490564Y-116783302D01*
X139389302Y-116884564D01*
X139309741Y-117003636D01*
X139254938Y-117135942D01*
X139227000Y-117276397D01*
X139227000Y-117419603D01*
X139254938Y-117560058D01*
X139309741Y-117692364D01*
X139389302Y-117811436D01*
X139433866Y-117856000D01*
X139389302Y-117900564D01*
X139309741Y-118019636D01*
X139254938Y-118151942D01*
X139227000Y-118292397D01*
X139227000Y-118435603D01*
X139254938Y-118576058D01*
X139309741Y-118708364D01*
X139389302Y-118827436D01*
X139490564Y-118928698D01*
X139609636Y-119008259D01*
X139741942Y-119063062D01*
X139882397Y-119091000D01*
X140025603Y-119091000D01*
X140166058Y-119063062D01*
X140298364Y-119008259D01*
X140417436Y-118928698D01*
X140462000Y-118884134D01*
X140506564Y-118928698D01*
X140625636Y-119008259D01*
X140757942Y-119063062D01*
X140898397Y-119091000D01*
X141041603Y-119091000D01*
X141182058Y-119063062D01*
X141314364Y-119008259D01*
X141433436Y-118928698D01*
X141534698Y-118827436D01*
X141614259Y-118708364D01*
X141669062Y-118576058D01*
X141697000Y-118435603D01*
X141697000Y-118292397D01*
X141669062Y-118151942D01*
X141614259Y-118019636D01*
X141559132Y-117937132D01*
X141641636Y-117992259D01*
X141773942Y-118047062D01*
X141914397Y-118075000D01*
X142044357Y-118075000D01*
X141874413Y-118329339D01*
X141608540Y-118971212D01*
X141473000Y-119652621D01*
X141473000Y-120347379D01*
X141608540Y-121028788D01*
X141874413Y-121670661D01*
X142260400Y-122248332D01*
X142751668Y-122739600D01*
X143329339Y-123125587D01*
X143971212Y-123391460D01*
X144652621Y-123527000D01*
X145347379Y-123527000D01*
X146028788Y-123391460D01*
X146670661Y-123125587D01*
X147248332Y-122739600D01*
X147739600Y-122248332D01*
X148125587Y-121670661D01*
X148391460Y-121028788D01*
X148527000Y-120347379D01*
X148527000Y-119652621D01*
X148391460Y-118971212D01*
X148125587Y-118329339D01*
X147739600Y-117751668D01*
X147248332Y-117260400D01*
X146670661Y-116874413D01*
X146028788Y-116608540D01*
X145347379Y-116473000D01*
X144652621Y-116473000D01*
X143971212Y-116608540D01*
X143329339Y-116874413D01*
X142751668Y-117260400D01*
X142713000Y-117299068D01*
X142713000Y-117276397D01*
X142685062Y-117135942D01*
X142630259Y-117003636D01*
X142550698Y-116884564D01*
X142506134Y-116840000D01*
X142550698Y-116795436D01*
X142630259Y-116676364D01*
X142685062Y-116544058D01*
X142713000Y-116403603D01*
X142713000Y-116260397D01*
X142685062Y-116119942D01*
X142630259Y-115987636D01*
X142550698Y-115868564D01*
X142506134Y-115824000D01*
X142550698Y-115779436D01*
X142630259Y-115660364D01*
X142685062Y-115528058D01*
X142713000Y-115387603D01*
X142713000Y-115244397D01*
X142685062Y-115103942D01*
X142630259Y-114971636D01*
X142550698Y-114852564D01*
X142506134Y-114808000D01*
X142550698Y-114763436D01*
X142630259Y-114644364D01*
X142685062Y-114512058D01*
X142713000Y-114371603D01*
X142713000Y-114228397D01*
X142685062Y-114087942D01*
X142630259Y-113955636D01*
X142550698Y-113836564D01*
X142449436Y-113735302D01*
X142330364Y-113655741D01*
X142198058Y-113600938D01*
X142057603Y-113573000D01*
X141914397Y-113573000D01*
X141773942Y-113600938D01*
X141641636Y-113655741D01*
X141522564Y-113735302D01*
X141478000Y-113779866D01*
X141433436Y-113735302D01*
X141314364Y-113655741D01*
X141182058Y-113600938D01*
X141041603Y-113573000D01*
X140898397Y-113573000D01*
X140757942Y-113600938D01*
X140625636Y-113655741D01*
X140506564Y-113735302D01*
X140462000Y-113779866D01*
X140417436Y-113735302D01*
X140298364Y-113655741D01*
X140166058Y-113600938D01*
X140025603Y-113573000D01*
X139882397Y-113573000D01*
X139741942Y-113600938D01*
X139609636Y-113655741D01*
X139490564Y-113735302D01*
X139446000Y-113779866D01*
X139401436Y-113735302D01*
X139282364Y-113655741D01*
X139150058Y-113600938D01*
X139009603Y-113573000D01*
X138866397Y-113573000D01*
X138725942Y-113600938D01*
X138593636Y-113655741D01*
X138474564Y-113735302D01*
X138430000Y-113779866D01*
X138385436Y-113735302D01*
X138266364Y-113655741D01*
X138134058Y-113600938D01*
X137993603Y-113573000D01*
X137850397Y-113573000D01*
X137709942Y-113600938D01*
X137577636Y-113655741D01*
X137458564Y-113735302D01*
X137357302Y-113836564D01*
X137277741Y-113955636D01*
X137222938Y-114087942D01*
X137195000Y-114228397D01*
X135803572Y-114228397D01*
X135785787Y-114138988D01*
X135744176Y-114038530D01*
X135683766Y-113948120D01*
X135606880Y-113871234D01*
X135516470Y-113810824D01*
X135416012Y-113769213D01*
X135309367Y-113748000D01*
X135200633Y-113748000D01*
X135093988Y-113769213D01*
X134993530Y-113810824D01*
X134903120Y-113871234D01*
X134826234Y-113948120D01*
X134765824Y-114038530D01*
X134724213Y-114138988D01*
X134703000Y-114245633D01*
X134703000Y-114354367D01*
X134724213Y-114461012D01*
X134762730Y-114554000D01*
X134724213Y-114646988D01*
X134703000Y-114753633D01*
X134703000Y-114862367D01*
X134724213Y-114969012D01*
X134762730Y-115062000D01*
X134724213Y-115154988D01*
X134703000Y-115261633D01*
X134703000Y-115272000D01*
X134692633Y-115272000D01*
X134585988Y-115293213D01*
X134493000Y-115331730D01*
X134400012Y-115293213D01*
X134293367Y-115272000D01*
X134283000Y-115272000D01*
X134283000Y-115261633D01*
X134261787Y-115154988D01*
X134223270Y-115062000D01*
X134261787Y-114969012D01*
X134283000Y-114862367D01*
X134283000Y-114753633D01*
X134261787Y-114646988D01*
X134223270Y-114554000D01*
X134261787Y-114461012D01*
X134283000Y-114354367D01*
X134283000Y-114245633D01*
X134261787Y-114138988D01*
X134220176Y-114038530D01*
X134159766Y-113948120D01*
X134082880Y-113871234D01*
X133992470Y-113810824D01*
X133892012Y-113769213D01*
X133785367Y-113748000D01*
X133676633Y-113748000D01*
X133569988Y-113769213D01*
X133469530Y-113810824D01*
X133379120Y-113871234D01*
X133302234Y-113948120D01*
X133241824Y-114038530D01*
X133200213Y-114138988D01*
X133179000Y-114245633D01*
X132188464Y-114245633D01*
X132165058Y-114235938D01*
X132024603Y-114208000D01*
X131881397Y-114208000D01*
X131740942Y-114235938D01*
X131608636Y-114290741D01*
X131489564Y-114370302D01*
X131388302Y-114471564D01*
X131308741Y-114590636D01*
X131253938Y-114722942D01*
X131226000Y-114863397D01*
X122012000Y-114863397D01*
X121984062Y-114722942D01*
X121929259Y-114590636D01*
X121849698Y-114471564D01*
X121748436Y-114370302D01*
X121629364Y-114290741D01*
X121497058Y-114235938D01*
X121356603Y-114208000D01*
X121213397Y-114208000D01*
X121072942Y-114235938D01*
X120940636Y-114290741D01*
X120840500Y-114357649D01*
X120740364Y-114290741D01*
X120608058Y-114235938D01*
X120467603Y-114208000D01*
X120324397Y-114208000D01*
X120183942Y-114235938D01*
X120051636Y-114290741D01*
X119951500Y-114357649D01*
X119851364Y-114290741D01*
X119719058Y-114235938D01*
X119578603Y-114208000D01*
X119435397Y-114208000D01*
X119294942Y-114235938D01*
X119162636Y-114290741D01*
X119043564Y-114370302D01*
X118942302Y-114471564D01*
X118862741Y-114590636D01*
X118807938Y-114722942D01*
X118780000Y-114863397D01*
X116398739Y-114863397D01*
X116396062Y-114849942D01*
X116341259Y-114717636D01*
X116261698Y-114598564D01*
X116160436Y-114497302D01*
X116041364Y-114417741D01*
X115910415Y-114363500D01*
X116041364Y-114309259D01*
X116160436Y-114229698D01*
X116261698Y-114128436D01*
X116341259Y-114009364D01*
X116396062Y-113877058D01*
X116424000Y-113736603D01*
X116424000Y-113593397D01*
X116396062Y-113452942D01*
X116341259Y-113320636D01*
X116261698Y-113201564D01*
X116160436Y-113100302D01*
X116041364Y-113020741D01*
X115909058Y-112965938D01*
X115768603Y-112938000D01*
X115625397Y-112938000D01*
X115484942Y-112965938D01*
X115352636Y-113020741D01*
X115233564Y-113100302D01*
X115132302Y-113201564D01*
X115052741Y-113320636D01*
X114997938Y-113452942D01*
X114970000Y-113593397D01*
X112995000Y-113593397D01*
X112967062Y-113452942D01*
X112912259Y-113320636D01*
X112832698Y-113201564D01*
X112731436Y-113100302D01*
X112612364Y-113020741D01*
X112480058Y-112965938D01*
X112339603Y-112938000D01*
X112196397Y-112938000D01*
X112055942Y-112965938D01*
X111923636Y-113020741D01*
X111804564Y-113100302D01*
X111703302Y-113201564D01*
X111623741Y-113320636D01*
X111568938Y-113452942D01*
X111541000Y-113593397D01*
X101127000Y-113593397D01*
X101127000Y-107564712D01*
X116683228Y-107564712D01*
X116683228Y-107707918D01*
X116711166Y-107848373D01*
X116765969Y-107980679D01*
X116845530Y-108099751D01*
X116946792Y-108201013D01*
X117065864Y-108280574D01*
X117198170Y-108335377D01*
X117338625Y-108363315D01*
X117481831Y-108363315D01*
X117622286Y-108335377D01*
X117754592Y-108280574D01*
X117873664Y-108201013D01*
X117974926Y-108099751D01*
X118054487Y-107980679D01*
X118109290Y-107848373D01*
X118137228Y-107707918D01*
X118137228Y-107564712D01*
X118109290Y-107424257D01*
X118054487Y-107291951D01*
X117974926Y-107172879D01*
X117873664Y-107071617D01*
X117754592Y-106992056D01*
X117622286Y-106937253D01*
X117481831Y-106909315D01*
X117338625Y-106909315D01*
X117198170Y-106937253D01*
X117065864Y-106992056D01*
X116946792Y-107071617D01*
X116845530Y-107172879D01*
X116765969Y-107291951D01*
X116711166Y-107424257D01*
X116683228Y-107564712D01*
X101127000Y-107564712D01*
X101127000Y-103560397D01*
X109890000Y-103560397D01*
X109890000Y-103703603D01*
X109917938Y-103844058D01*
X109972741Y-103976364D01*
X110052302Y-104095436D01*
X110096866Y-104140000D01*
X110052302Y-104184564D01*
X109972741Y-104303636D01*
X109917938Y-104435942D01*
X109890000Y-104576397D01*
X109890000Y-104719603D01*
X109917938Y-104860058D01*
X109972741Y-104992364D01*
X110052302Y-105111436D01*
X110096866Y-105156000D01*
X110052302Y-105200564D01*
X109972741Y-105319636D01*
X109917938Y-105451942D01*
X109890000Y-105592397D01*
X109890000Y-105735603D01*
X109917938Y-105876058D01*
X109972741Y-106008364D01*
X110052302Y-106127436D01*
X110153564Y-106228698D01*
X110272636Y-106308259D01*
X110404942Y-106363062D01*
X110545397Y-106391000D01*
X110688603Y-106391000D01*
X110829058Y-106363062D01*
X110961364Y-106308259D01*
X111080436Y-106228698D01*
X111181698Y-106127436D01*
X111261259Y-106008364D01*
X111316062Y-105876058D01*
X111344000Y-105735603D01*
X111344000Y-105592397D01*
X116875000Y-105592397D01*
X116875000Y-105735603D01*
X116902938Y-105876058D01*
X116957741Y-106008364D01*
X117037302Y-106127436D01*
X117138564Y-106228698D01*
X117257636Y-106308259D01*
X117389942Y-106363062D01*
X117530397Y-106391000D01*
X117673603Y-106391000D01*
X117814058Y-106363062D01*
X117874562Y-106338000D01*
X120233418Y-106338000D01*
X120233418Y-108038000D01*
X120239732Y-108102103D01*
X120258430Y-108163743D01*
X120288794Y-108220550D01*
X120329657Y-108270343D01*
X120379450Y-108311206D01*
X120436257Y-108341570D01*
X120497897Y-108360268D01*
X120562000Y-108366582D01*
X122262000Y-108366582D01*
X122326103Y-108360268D01*
X122387743Y-108341570D01*
X122444550Y-108311206D01*
X122494343Y-108270343D01*
X122535206Y-108220550D01*
X122565570Y-108163743D01*
X122584268Y-108102103D01*
X122590582Y-108038000D01*
X122590582Y-107072076D01*
X122775000Y-107072076D01*
X122775000Y-107303924D01*
X122820231Y-107531318D01*
X122908956Y-107745519D01*
X123037764Y-107938294D01*
X123201706Y-108102236D01*
X123394481Y-108231044D01*
X123608682Y-108319769D01*
X123836076Y-108365000D01*
X124067924Y-108365000D01*
X124295318Y-108319769D01*
X124509519Y-108231044D01*
X124702294Y-108102236D01*
X124866236Y-107938294D01*
X124995044Y-107745519D01*
X125045214Y-107624397D01*
X125257000Y-107624397D01*
X125257000Y-107767603D01*
X125284938Y-107908058D01*
X125339741Y-108040364D01*
X125419302Y-108159436D01*
X125463866Y-108204000D01*
X125419302Y-108248564D01*
X125339741Y-108367636D01*
X125284938Y-108499942D01*
X125257000Y-108640397D01*
X125257000Y-108783603D01*
X125284938Y-108924058D01*
X125339741Y-109056364D01*
X125419302Y-109175436D01*
X125463866Y-109220000D01*
X125419302Y-109264564D01*
X125339741Y-109383636D01*
X125284938Y-109515942D01*
X125257000Y-109656397D01*
X125257000Y-109799603D01*
X125284938Y-109940058D01*
X125339741Y-110072364D01*
X125419302Y-110191436D01*
X125463866Y-110236000D01*
X125419302Y-110280564D01*
X125339741Y-110399636D01*
X125284938Y-110531942D01*
X125257000Y-110672397D01*
X125257000Y-110815603D01*
X125284938Y-110956058D01*
X125339741Y-111088364D01*
X125419302Y-111207436D01*
X125520564Y-111308698D01*
X125639636Y-111388259D01*
X125771942Y-111443062D01*
X125912397Y-111471000D01*
X126055603Y-111471000D01*
X126196058Y-111443062D01*
X126328364Y-111388259D01*
X126447436Y-111308698D01*
X126548698Y-111207436D01*
X126628259Y-111088364D01*
X126683062Y-110956058D01*
X126711000Y-110815603D01*
X126711000Y-110672397D01*
X126683062Y-110531942D01*
X126628259Y-110399636D01*
X126548698Y-110280564D01*
X126504134Y-110236000D01*
X126548698Y-110191436D01*
X126628259Y-110072364D01*
X126683062Y-109940058D01*
X126711000Y-109799603D01*
X126711000Y-109656397D01*
X126683062Y-109515942D01*
X126628259Y-109383636D01*
X126548698Y-109264564D01*
X126504134Y-109220000D01*
X126548698Y-109175436D01*
X126628259Y-109056364D01*
X126683062Y-108924058D01*
X126711000Y-108783603D01*
X126711000Y-108640397D01*
X126908000Y-108640397D01*
X126908000Y-108783603D01*
X126935938Y-108924058D01*
X126990741Y-109056364D01*
X127070302Y-109175436D01*
X127114866Y-109220000D01*
X127070302Y-109264564D01*
X126990741Y-109383636D01*
X126935938Y-109515942D01*
X126908000Y-109656397D01*
X126908000Y-109799603D01*
X126935938Y-109940058D01*
X126990741Y-110072364D01*
X127070302Y-110191436D01*
X127114866Y-110236000D01*
X127070302Y-110280564D01*
X126990741Y-110399636D01*
X126935938Y-110531942D01*
X126908000Y-110672397D01*
X126908000Y-110815603D01*
X126935938Y-110956058D01*
X126990741Y-111088364D01*
X127070302Y-111207436D01*
X127171564Y-111308698D01*
X127290636Y-111388259D01*
X127422942Y-111443062D01*
X127563397Y-111471000D01*
X127706603Y-111471000D01*
X127847058Y-111443062D01*
X127979364Y-111388259D01*
X128098436Y-111308698D01*
X128199698Y-111207436D01*
X128279259Y-111088364D01*
X128334062Y-110956058D01*
X128362000Y-110815603D01*
X128362000Y-110672397D01*
X128334062Y-110531942D01*
X128279259Y-110399636D01*
X128199698Y-110280564D01*
X128155134Y-110236000D01*
X128199698Y-110191436D01*
X128279259Y-110072364D01*
X128334062Y-109940058D01*
X128362000Y-109799603D01*
X128362000Y-109656397D01*
X128334062Y-109515942D01*
X128279259Y-109383636D01*
X128199698Y-109264564D01*
X128155134Y-109220000D01*
X128199698Y-109175436D01*
X128279259Y-109056364D01*
X128334062Y-108924058D01*
X128362000Y-108783603D01*
X128362000Y-108640397D01*
X128334062Y-108499942D01*
X128279259Y-108367636D01*
X128199698Y-108248564D01*
X128098436Y-108147302D01*
X127979364Y-108067741D01*
X127847058Y-108012938D01*
X127706603Y-107985000D01*
X127563397Y-107985000D01*
X127422942Y-108012938D01*
X127290636Y-108067741D01*
X127171564Y-108147302D01*
X127070302Y-108248564D01*
X126990741Y-108367636D01*
X126935938Y-108499942D01*
X126908000Y-108640397D01*
X126711000Y-108640397D01*
X126683062Y-108499942D01*
X126628259Y-108367636D01*
X126548698Y-108248564D01*
X126504134Y-108204000D01*
X126548698Y-108159436D01*
X126628259Y-108040364D01*
X126683062Y-107908058D01*
X126711000Y-107767603D01*
X126711000Y-107624397D01*
X126683062Y-107483942D01*
X126636031Y-107370397D01*
X129811038Y-107370397D01*
X129811038Y-107513603D01*
X129838976Y-107654058D01*
X129893779Y-107786364D01*
X129973340Y-107905436D01*
X130074602Y-108006698D01*
X130193674Y-108086259D01*
X130325980Y-108141062D01*
X130466435Y-108169000D01*
X130609641Y-108169000D01*
X130750096Y-108141062D01*
X130882402Y-108086259D01*
X131001474Y-108006698D01*
X131102736Y-107905436D01*
X131182297Y-107786364D01*
X131237100Y-107654058D01*
X131265038Y-107513603D01*
X131265038Y-107370397D01*
X131237100Y-107229942D01*
X131182297Y-107097636D01*
X131102736Y-106978564D01*
X131001474Y-106877302D01*
X130882402Y-106797741D01*
X130750096Y-106742938D01*
X130609641Y-106715000D01*
X130466435Y-106715000D01*
X130325980Y-106742938D01*
X130193674Y-106797741D01*
X130074602Y-106877302D01*
X129973340Y-106978564D01*
X129893779Y-107097636D01*
X129838976Y-107229942D01*
X129811038Y-107370397D01*
X126636031Y-107370397D01*
X126628259Y-107351636D01*
X126548698Y-107232564D01*
X126447436Y-107131302D01*
X126328364Y-107051741D01*
X126196058Y-106996938D01*
X126055603Y-106969000D01*
X125912397Y-106969000D01*
X125771942Y-106996938D01*
X125639636Y-107051741D01*
X125520564Y-107131302D01*
X125419302Y-107232564D01*
X125339741Y-107351636D01*
X125284938Y-107483942D01*
X125257000Y-107624397D01*
X125045214Y-107624397D01*
X125083769Y-107531318D01*
X125129000Y-107303924D01*
X125129000Y-107072076D01*
X125083769Y-106844682D01*
X124995044Y-106630481D01*
X124866236Y-106437706D01*
X124702294Y-106273764D01*
X124509519Y-106144956D01*
X124295318Y-106056231D01*
X124067924Y-106011000D01*
X123836076Y-106011000D01*
X123608682Y-106056231D01*
X123394481Y-106144956D01*
X123201706Y-106273764D01*
X123037764Y-106437706D01*
X122908956Y-106630481D01*
X122820231Y-106844682D01*
X122775000Y-107072076D01*
X122590582Y-107072076D01*
X122590582Y-106338000D01*
X122584268Y-106273897D01*
X122565570Y-106212257D01*
X122535206Y-106155450D01*
X122494343Y-106105657D01*
X122444550Y-106064794D01*
X122387743Y-106034430D01*
X122326103Y-106015732D01*
X122262000Y-106009418D01*
X120562000Y-106009418D01*
X120497897Y-106015732D01*
X120436257Y-106034430D01*
X120379450Y-106064794D01*
X120329657Y-106105657D01*
X120288794Y-106155450D01*
X120258430Y-106212257D01*
X120239732Y-106273897D01*
X120233418Y-106338000D01*
X117874562Y-106338000D01*
X117946364Y-106308259D01*
X118065436Y-106228698D01*
X118166698Y-106127436D01*
X118246259Y-106008364D01*
X118301062Y-105876058D01*
X118329000Y-105735603D01*
X118329000Y-105592397D01*
X118301062Y-105451942D01*
X118246259Y-105319636D01*
X118166698Y-105200564D01*
X118065436Y-105099302D01*
X117946364Y-105019741D01*
X117814058Y-104964938D01*
X117673603Y-104937000D01*
X117530397Y-104937000D01*
X117389942Y-104964938D01*
X117257636Y-105019741D01*
X117138564Y-105099302D01*
X117037302Y-105200564D01*
X116957741Y-105319636D01*
X116902938Y-105451942D01*
X116875000Y-105592397D01*
X111344000Y-105592397D01*
X111316062Y-105451942D01*
X111261259Y-105319636D01*
X111181698Y-105200564D01*
X111137134Y-105156000D01*
X111181698Y-105111436D01*
X111261259Y-104992364D01*
X111316062Y-104860058D01*
X111321961Y-104830397D01*
X136052000Y-104830397D01*
X136052000Y-104973603D01*
X136079938Y-105114058D01*
X136134741Y-105246364D01*
X136201649Y-105346500D01*
X136134741Y-105446636D01*
X136079938Y-105578942D01*
X136052000Y-105719397D01*
X136052000Y-105862603D01*
X136079938Y-106003058D01*
X136134741Y-106135364D01*
X136201649Y-106235500D01*
X136134741Y-106335636D01*
X136079938Y-106467942D01*
X136052000Y-106608397D01*
X136052000Y-106751603D01*
X136079938Y-106892058D01*
X136134741Y-107024364D01*
X136201649Y-107124500D01*
X136134741Y-107224636D01*
X136079938Y-107356942D01*
X136052000Y-107497397D01*
X136052000Y-107640603D01*
X136079938Y-107781058D01*
X136134741Y-107913364D01*
X136214302Y-108032436D01*
X136315564Y-108133698D01*
X136434636Y-108213259D01*
X136566942Y-108268062D01*
X136707397Y-108296000D01*
X136850603Y-108296000D01*
X136991058Y-108268062D01*
X137123364Y-108213259D01*
X137242436Y-108133698D01*
X137343698Y-108032436D01*
X137423259Y-107913364D01*
X137478062Y-107781058D01*
X137506000Y-107640603D01*
X137506000Y-107497397D01*
X137478062Y-107356942D01*
X137423259Y-107224636D01*
X137356351Y-107124500D01*
X137423259Y-107024364D01*
X137478062Y-106892058D01*
X137506000Y-106751603D01*
X137506000Y-106608397D01*
X137478062Y-106467942D01*
X137423259Y-106335636D01*
X137356351Y-106235500D01*
X137423259Y-106135364D01*
X137478062Y-106003058D01*
X137506000Y-105862603D01*
X137506000Y-105719397D01*
X137478062Y-105578942D01*
X137423259Y-105446636D01*
X137356351Y-105346500D01*
X137423259Y-105246364D01*
X137478062Y-105114058D01*
X137506000Y-104973603D01*
X137506000Y-104830397D01*
X137478062Y-104689942D01*
X137423259Y-104557636D01*
X137343698Y-104438564D01*
X137242436Y-104337302D01*
X137123364Y-104257741D01*
X136991058Y-104202938D01*
X136850603Y-104175000D01*
X136707397Y-104175000D01*
X136566942Y-104202938D01*
X136434636Y-104257741D01*
X136315564Y-104337302D01*
X136214302Y-104438564D01*
X136134741Y-104557636D01*
X136079938Y-104689942D01*
X136052000Y-104830397D01*
X111321961Y-104830397D01*
X111344000Y-104719603D01*
X111344000Y-104576397D01*
X111316062Y-104435942D01*
X111261259Y-104303636D01*
X111181698Y-104184564D01*
X111137134Y-104140000D01*
X111181698Y-104095436D01*
X111261259Y-103976364D01*
X111316062Y-103844058D01*
X111344000Y-103703603D01*
X111344000Y-103560397D01*
X111316062Y-103419942D01*
X111261259Y-103287636D01*
X111181698Y-103168564D01*
X111080436Y-103067302D01*
X110961364Y-102987741D01*
X110829058Y-102932938D01*
X110688603Y-102905000D01*
X110545397Y-102905000D01*
X110404942Y-102932938D01*
X110272636Y-102987741D01*
X110153564Y-103067302D01*
X110052302Y-103168564D01*
X109972741Y-103287636D01*
X109917938Y-103419942D01*
X109890000Y-103560397D01*
X101127000Y-103560397D01*
X101127000Y-99877397D01*
X129448000Y-99877397D01*
X129448000Y-100020603D01*
X129475938Y-100161058D01*
X129530741Y-100293364D01*
X129610302Y-100412436D01*
X129654866Y-100457000D01*
X129610302Y-100501564D01*
X129530741Y-100620636D01*
X129475938Y-100752942D01*
X129448000Y-100893397D01*
X129448000Y-101036603D01*
X129475938Y-101177058D01*
X129530741Y-101309364D01*
X129610302Y-101428436D01*
X129711564Y-101529698D01*
X129830636Y-101609259D01*
X129962942Y-101664062D01*
X130103397Y-101692000D01*
X130246603Y-101692000D01*
X130387058Y-101664062D01*
X130519364Y-101609259D01*
X130638436Y-101529698D01*
X130739698Y-101428436D01*
X130819259Y-101309364D01*
X130874062Y-101177058D01*
X130902000Y-101036603D01*
X130902000Y-100893397D01*
X130874062Y-100752942D01*
X130819259Y-100620636D01*
X130739698Y-100501564D01*
X130695134Y-100457000D01*
X130739698Y-100412436D01*
X130819259Y-100293364D01*
X130874062Y-100161058D01*
X130902000Y-100020603D01*
X130902000Y-99877397D01*
X132115000Y-99877397D01*
X132115000Y-100020603D01*
X132142938Y-100161058D01*
X132197741Y-100293364D01*
X132277302Y-100412436D01*
X132378564Y-100513698D01*
X132497636Y-100593259D01*
X132629942Y-100648062D01*
X132770397Y-100676000D01*
X132913603Y-100676000D01*
X133054058Y-100648062D01*
X133186364Y-100593259D01*
X133305436Y-100513698D01*
X133306737Y-100512397D01*
X137068000Y-100512397D01*
X137068000Y-100655603D01*
X137095938Y-100796058D01*
X137150741Y-100928364D01*
X137230302Y-101047436D01*
X137331564Y-101148698D01*
X137450636Y-101228259D01*
X137582942Y-101283062D01*
X137723397Y-101311000D01*
X137866603Y-101311000D01*
X138007058Y-101283062D01*
X138139364Y-101228259D01*
X138258436Y-101148698D01*
X138359698Y-101047436D01*
X138439259Y-100928364D01*
X138494062Y-100796058D01*
X138522000Y-100655603D01*
X138522000Y-100512397D01*
X138494062Y-100371942D01*
X138439259Y-100239636D01*
X138359698Y-100120564D01*
X138258436Y-100019302D01*
X138139364Y-99939741D01*
X138007058Y-99884938D01*
X137866603Y-99857000D01*
X137723397Y-99857000D01*
X137582942Y-99884938D01*
X137450636Y-99939741D01*
X137331564Y-100019302D01*
X137230302Y-100120564D01*
X137150741Y-100239636D01*
X137095938Y-100371942D01*
X137068000Y-100512397D01*
X133306737Y-100512397D01*
X133406698Y-100412436D01*
X133486259Y-100293364D01*
X133541062Y-100161058D01*
X133569000Y-100020603D01*
X133569000Y-99877397D01*
X133541062Y-99736942D01*
X133486259Y-99604636D01*
X133406698Y-99485564D01*
X133305436Y-99384302D01*
X133186364Y-99304741D01*
X133054058Y-99249938D01*
X132913603Y-99222000D01*
X132770397Y-99222000D01*
X132629942Y-99249938D01*
X132497636Y-99304741D01*
X132378564Y-99384302D01*
X132277302Y-99485564D01*
X132197741Y-99604636D01*
X132142938Y-99736942D01*
X132115000Y-99877397D01*
X130902000Y-99877397D01*
X130874062Y-99736942D01*
X130819259Y-99604636D01*
X130739698Y-99485564D01*
X130638436Y-99384302D01*
X130519364Y-99304741D01*
X130387058Y-99249938D01*
X130246603Y-99222000D01*
X130103397Y-99222000D01*
X129962942Y-99249938D01*
X129830636Y-99304741D01*
X129711564Y-99384302D01*
X129610302Y-99485564D01*
X129530741Y-99604636D01*
X129475938Y-99736942D01*
X129448000Y-99877397D01*
X101127000Y-99877397D01*
X101127000Y-97583134D01*
X101136564Y-97592698D01*
X101255636Y-97672259D01*
X101387942Y-97727062D01*
X101528397Y-97755000D01*
X101671603Y-97755000D01*
X101812058Y-97727062D01*
X101944364Y-97672259D01*
X102063436Y-97592698D01*
X102164698Y-97491436D01*
X102244259Y-97372364D01*
X102250206Y-97358007D01*
X102254502Y-97364436D01*
X102355764Y-97465698D01*
X102474836Y-97545259D01*
X102607142Y-97600062D01*
X102747597Y-97628000D01*
X102890803Y-97628000D01*
X103031258Y-97600062D01*
X103163564Y-97545259D01*
X103282636Y-97465698D01*
X103383898Y-97364436D01*
X103463459Y-97245364D01*
X103518262Y-97113058D01*
X103546200Y-96972603D01*
X103546200Y-96829397D01*
X103531044Y-96753197D01*
X103667000Y-96753197D01*
X103667000Y-96896403D01*
X103694938Y-97036858D01*
X103749741Y-97169164D01*
X103829302Y-97288236D01*
X103930564Y-97389498D01*
X104049636Y-97469059D01*
X104181942Y-97523862D01*
X104322397Y-97551800D01*
X104465603Y-97551800D01*
X104606058Y-97523862D01*
X104738364Y-97469059D01*
X104857436Y-97389498D01*
X104958698Y-97288236D01*
X105038259Y-97169164D01*
X105093062Y-97036858D01*
X105116590Y-96918573D01*
X105146741Y-96991364D01*
X105226302Y-97110436D01*
X105327564Y-97211698D01*
X105446636Y-97291259D01*
X105578942Y-97346062D01*
X105719397Y-97374000D01*
X105862603Y-97374000D01*
X106003058Y-97346062D01*
X106023977Y-97337397D01*
X119415000Y-97337397D01*
X119415000Y-97480603D01*
X119442938Y-97621058D01*
X119497741Y-97753364D01*
X119577302Y-97872436D01*
X119678564Y-97973698D01*
X119797636Y-98053259D01*
X119929942Y-98108062D01*
X120070397Y-98136000D01*
X120213603Y-98136000D01*
X120354058Y-98108062D01*
X120486364Y-98053259D01*
X120605436Y-97973698D01*
X120706698Y-97872436D01*
X120776858Y-97767433D01*
X135169898Y-97767433D01*
X135169898Y-97876167D01*
X135191111Y-97982812D01*
X135232722Y-98083270D01*
X135293132Y-98173680D01*
X135370018Y-98250566D01*
X135460428Y-98310976D01*
X135560886Y-98352587D01*
X135667531Y-98373800D01*
X135776265Y-98373800D01*
X135882910Y-98352587D01*
X135983368Y-98310976D01*
X136073778Y-98250566D01*
X136150664Y-98173680D01*
X136211074Y-98083270D01*
X136252685Y-97982812D01*
X136273898Y-97876167D01*
X136273898Y-97767433D01*
X136252685Y-97660788D01*
X136211074Y-97560330D01*
X136150664Y-97469920D01*
X136073778Y-97393034D01*
X135983368Y-97332624D01*
X135882910Y-97291013D01*
X135776265Y-97269800D01*
X135667531Y-97269800D01*
X135560886Y-97291013D01*
X135460428Y-97332624D01*
X135370018Y-97393034D01*
X135293132Y-97469920D01*
X135232722Y-97560330D01*
X135191111Y-97660788D01*
X135169898Y-97767433D01*
X120776858Y-97767433D01*
X120786259Y-97753364D01*
X120841062Y-97621058D01*
X120869000Y-97480603D01*
X120869000Y-97337397D01*
X120841062Y-97196942D01*
X120786259Y-97064636D01*
X120706698Y-96945564D01*
X120605436Y-96844302D01*
X120486364Y-96764741D01*
X120354058Y-96709938D01*
X120213603Y-96682000D01*
X120070397Y-96682000D01*
X119929942Y-96709938D01*
X119797636Y-96764741D01*
X119678564Y-96844302D01*
X119577302Y-96945564D01*
X119497741Y-97064636D01*
X119442938Y-97196942D01*
X119415000Y-97337397D01*
X106023977Y-97337397D01*
X106135364Y-97291259D01*
X106254436Y-97211698D01*
X106355698Y-97110436D01*
X106435259Y-96991364D01*
X106490062Y-96859058D01*
X106518000Y-96718603D01*
X106518000Y-96575397D01*
X106490062Y-96434942D01*
X106435259Y-96302636D01*
X106355698Y-96183564D01*
X106254436Y-96082302D01*
X106135364Y-96002741D01*
X106003058Y-95947938D01*
X105862603Y-95920000D01*
X105719397Y-95920000D01*
X105578942Y-95947938D01*
X105446636Y-96002741D01*
X105327564Y-96082302D01*
X105226302Y-96183564D01*
X105146741Y-96302636D01*
X105091938Y-96434942D01*
X105068410Y-96553227D01*
X105038259Y-96480436D01*
X104958698Y-96361364D01*
X104857436Y-96260102D01*
X104738364Y-96180541D01*
X104606058Y-96125738D01*
X104465603Y-96097800D01*
X104322397Y-96097800D01*
X104181942Y-96125738D01*
X104049636Y-96180541D01*
X103930564Y-96260102D01*
X103829302Y-96361364D01*
X103749741Y-96480436D01*
X103694938Y-96612742D01*
X103667000Y-96753197D01*
X103531044Y-96753197D01*
X103518262Y-96688942D01*
X103463459Y-96556636D01*
X103383898Y-96437564D01*
X103282636Y-96336302D01*
X103163564Y-96256741D01*
X103031258Y-96201938D01*
X102890803Y-96174000D01*
X102747597Y-96174000D01*
X102607142Y-96201938D01*
X102474836Y-96256741D01*
X102355764Y-96336302D01*
X102254502Y-96437564D01*
X102174941Y-96556636D01*
X102168994Y-96570993D01*
X102164698Y-96564564D01*
X102063436Y-96463302D01*
X101944364Y-96383741D01*
X101812058Y-96328938D01*
X101671603Y-96301000D01*
X101528397Y-96301000D01*
X101387942Y-96328938D01*
X101255636Y-96383741D01*
X101136564Y-96463302D01*
X101127000Y-96472866D01*
X101127000Y-95068633D01*
X133941000Y-95068633D01*
X133941000Y-95177367D01*
X133962213Y-95284012D01*
X134003824Y-95384470D01*
X134064234Y-95474880D01*
X134141120Y-95551766D01*
X134231530Y-95612176D01*
X134331988Y-95653787D01*
X134438633Y-95675000D01*
X134547367Y-95675000D01*
X134654012Y-95653787D01*
X134754470Y-95612176D01*
X134844880Y-95551766D01*
X134921766Y-95474880D01*
X134982176Y-95384470D01*
X135023787Y-95284012D01*
X135045000Y-95177367D01*
X135045000Y-95068633D01*
X135023787Y-94961988D01*
X134982176Y-94861530D01*
X134921766Y-94771120D01*
X134844880Y-94694234D01*
X134754470Y-94633824D01*
X134654012Y-94592213D01*
X134547367Y-94571000D01*
X134438633Y-94571000D01*
X134331988Y-94592213D01*
X134231530Y-94633824D01*
X134141120Y-94694234D01*
X134064234Y-94771120D01*
X134003824Y-94861530D01*
X133962213Y-94961988D01*
X133941000Y-95068633D01*
X101127000Y-95068633D01*
X101127000Y-93273397D01*
X103794000Y-93273397D01*
X103794000Y-93416603D01*
X103821938Y-93557058D01*
X103876741Y-93689364D01*
X103956302Y-93808436D01*
X104057564Y-93909698D01*
X104176636Y-93989259D01*
X104308942Y-94044062D01*
X104449397Y-94072000D01*
X104592603Y-94072000D01*
X104733058Y-94044062D01*
X104865364Y-93989259D01*
X104984436Y-93909698D01*
X105085698Y-93808436D01*
X105165259Y-93689364D01*
X105220062Y-93557058D01*
X105248000Y-93416603D01*
X105248000Y-93273397D01*
X105220062Y-93132942D01*
X105165259Y-93000636D01*
X105085698Y-92881564D01*
X104984436Y-92780302D01*
X104924116Y-92739997D01*
X107705600Y-92739997D01*
X107705600Y-92883203D01*
X107733538Y-93023658D01*
X107788341Y-93155964D01*
X107867902Y-93275036D01*
X107969164Y-93376298D01*
X108088236Y-93455859D01*
X108220542Y-93510662D01*
X108360997Y-93538600D01*
X108504203Y-93538600D01*
X108644658Y-93510662D01*
X108776964Y-93455859D01*
X108896036Y-93376298D01*
X108997298Y-93275036D01*
X109076859Y-93155964D01*
X109131662Y-93023658D01*
X109159600Y-92883203D01*
X109159600Y-92739997D01*
X109131662Y-92599542D01*
X109076859Y-92467236D01*
X108997298Y-92348164D01*
X108896036Y-92246902D01*
X108776964Y-92167341D01*
X108644658Y-92112538D01*
X108504203Y-92084600D01*
X108360997Y-92084600D01*
X108220542Y-92112538D01*
X108088236Y-92167341D01*
X107969164Y-92246902D01*
X107867902Y-92348164D01*
X107788341Y-92467236D01*
X107733538Y-92599542D01*
X107705600Y-92739997D01*
X104924116Y-92739997D01*
X104865364Y-92700741D01*
X104733058Y-92645938D01*
X104592603Y-92618000D01*
X104449397Y-92618000D01*
X104308942Y-92645938D01*
X104176636Y-92700741D01*
X104057564Y-92780302D01*
X103956302Y-92881564D01*
X103876741Y-93000636D01*
X103821938Y-93132942D01*
X103794000Y-93273397D01*
X101127000Y-93273397D01*
X101127000Y-92122134D01*
X101136564Y-92131698D01*
X101255636Y-92211259D01*
X101387942Y-92266062D01*
X101528397Y-92294000D01*
X101671603Y-92294000D01*
X101812058Y-92266062D01*
X101944364Y-92211259D01*
X102063436Y-92131698D01*
X102164698Y-92030436D01*
X102244259Y-91911364D01*
X102299062Y-91779058D01*
X102327000Y-91638603D01*
X102327000Y-91495397D01*
X102299062Y-91354942D01*
X102252031Y-91241397D01*
X107705600Y-91241397D01*
X107705600Y-91384603D01*
X107733538Y-91525058D01*
X107788341Y-91657364D01*
X107867902Y-91776436D01*
X107969164Y-91877698D01*
X108088236Y-91957259D01*
X108220542Y-92012062D01*
X108360997Y-92040000D01*
X108504203Y-92040000D01*
X108644658Y-92012062D01*
X108776964Y-91957259D01*
X108896036Y-91877698D01*
X108997298Y-91776436D01*
X109076859Y-91657364D01*
X109131662Y-91525058D01*
X109159600Y-91384603D01*
X109159600Y-91241397D01*
X109131662Y-91100942D01*
X109076859Y-90968636D01*
X108997298Y-90849564D01*
X108896036Y-90748302D01*
X108776964Y-90668741D01*
X108644658Y-90613938D01*
X108504203Y-90586000D01*
X108360997Y-90586000D01*
X108220542Y-90613938D01*
X108088236Y-90668741D01*
X107969164Y-90748302D01*
X107867902Y-90849564D01*
X107788341Y-90968636D01*
X107733538Y-91100942D01*
X107705600Y-91241397D01*
X102252031Y-91241397D01*
X102244259Y-91222636D01*
X102164698Y-91103564D01*
X102063436Y-91002302D01*
X101944364Y-90922741D01*
X101812058Y-90867938D01*
X101671603Y-90840000D01*
X101528397Y-90840000D01*
X101387942Y-90867938D01*
X101255636Y-90922741D01*
X101136564Y-91002302D01*
X101127000Y-91011866D01*
X101127000Y-90352397D01*
X131734000Y-90352397D01*
X131734000Y-90495603D01*
X131761938Y-90636058D01*
X131816741Y-90768364D01*
X131896302Y-90887436D01*
X131997564Y-90988698D01*
X132116636Y-91068259D01*
X132248942Y-91123062D01*
X132389397Y-91151000D01*
X132532603Y-91151000D01*
X132673058Y-91123062D01*
X132805364Y-91068259D01*
X132924436Y-90988698D01*
X133025698Y-90887436D01*
X133105259Y-90768364D01*
X133160062Y-90636058D01*
X133188000Y-90495603D01*
X133188000Y-90352397D01*
X133160062Y-90211942D01*
X133105259Y-90079636D01*
X133025698Y-89960564D01*
X132924436Y-89859302D01*
X132805364Y-89779741D01*
X132673058Y-89724938D01*
X132532603Y-89697000D01*
X132389397Y-89697000D01*
X132248942Y-89724938D01*
X132116636Y-89779741D01*
X131997564Y-89859302D01*
X131896302Y-89960564D01*
X131816741Y-90079636D01*
X131761938Y-90211942D01*
X131734000Y-90352397D01*
X101127000Y-90352397D01*
X101127000Y-89463397D01*
X107858000Y-89463397D01*
X107858000Y-89606603D01*
X107885938Y-89747058D01*
X107940741Y-89879364D01*
X108020302Y-89998436D01*
X108121564Y-90099698D01*
X108240636Y-90179259D01*
X108372942Y-90234062D01*
X108513397Y-90262000D01*
X108656603Y-90262000D01*
X108797058Y-90234062D01*
X108929364Y-90179259D01*
X109048436Y-90099698D01*
X109149698Y-89998436D01*
X109229259Y-89879364D01*
X109284062Y-89747058D01*
X109312000Y-89606603D01*
X109312000Y-89463397D01*
X109284062Y-89322942D01*
X109229259Y-89190636D01*
X109149698Y-89071564D01*
X109048436Y-88970302D01*
X108929364Y-88890741D01*
X108797058Y-88835938D01*
X108656603Y-88808000D01*
X108513397Y-88808000D01*
X108372942Y-88835938D01*
X108240636Y-88890741D01*
X108121564Y-88970302D01*
X108020302Y-89071564D01*
X107940741Y-89190636D01*
X107885938Y-89322942D01*
X107858000Y-89463397D01*
X101127000Y-89463397D01*
X101127000Y-88447397D01*
X132877000Y-88447397D01*
X132877000Y-88590603D01*
X132904938Y-88731058D01*
X132959741Y-88863364D01*
X133039302Y-88982436D01*
X133140564Y-89083698D01*
X133259636Y-89163259D01*
X133391942Y-89218062D01*
X133532397Y-89246000D01*
X133675603Y-89246000D01*
X133816058Y-89218062D01*
X133948364Y-89163259D01*
X134067436Y-89083698D01*
X134168698Y-88982436D01*
X134248259Y-88863364D01*
X134303062Y-88731058D01*
X134331000Y-88590603D01*
X134331000Y-88447397D01*
X134303062Y-88306942D01*
X134248259Y-88174636D01*
X134168698Y-88055564D01*
X134067436Y-87954302D01*
X133948364Y-87874741D01*
X133816058Y-87819938D01*
X133675603Y-87792000D01*
X133532397Y-87792000D01*
X133391942Y-87819938D01*
X133259636Y-87874741D01*
X133140564Y-87954302D01*
X133039302Y-88055564D01*
X132959741Y-88174636D01*
X132904938Y-88306942D01*
X132877000Y-88447397D01*
X101127000Y-88447397D01*
X101127000Y-86034413D01*
X122335984Y-86034413D01*
X122335984Y-86177619D01*
X122363922Y-86318074D01*
X122418725Y-86450380D01*
X122498286Y-86569452D01*
X122599548Y-86670714D01*
X122718620Y-86750275D01*
X122850926Y-86805078D01*
X122991381Y-86833016D01*
X123134587Y-86833016D01*
X123275042Y-86805078D01*
X123407348Y-86750275D01*
X123526420Y-86670714D01*
X123627682Y-86569452D01*
X123707243Y-86450380D01*
X123762046Y-86318074D01*
X123789984Y-86177619D01*
X123789984Y-86034413D01*
X123762046Y-85893958D01*
X123707243Y-85761652D01*
X123627682Y-85642580D01*
X123526420Y-85541318D01*
X123407348Y-85461757D01*
X123275042Y-85406954D01*
X123134587Y-85379016D01*
X122991381Y-85379016D01*
X122850926Y-85406954D01*
X122718620Y-85461757D01*
X122599548Y-85541318D01*
X122498286Y-85642580D01*
X122418725Y-85761652D01*
X122363922Y-85893958D01*
X122335984Y-86034413D01*
X101127000Y-86034413D01*
X101127000Y-79652621D01*
X101473000Y-79652621D01*
X101473000Y-80347379D01*
X101608540Y-81028788D01*
X101874413Y-81670661D01*
X102260400Y-82248332D01*
X102751668Y-82739600D01*
X103329339Y-83125587D01*
X103971212Y-83391460D01*
X104652621Y-83527000D01*
X105347379Y-83527000D01*
X106028788Y-83391460D01*
X106670661Y-83125587D01*
X107248332Y-82739600D01*
X107739600Y-82248332D01*
X108125587Y-81670661D01*
X108391460Y-81028788D01*
X108527000Y-80347379D01*
X108527000Y-79652621D01*
X108391460Y-78971212D01*
X108125587Y-78329339D01*
X107739600Y-77751668D01*
X107248332Y-77260400D01*
X106670661Y-76874413D01*
X106028788Y-76608540D01*
X105347379Y-76473000D01*
X104652621Y-76473000D01*
X103971212Y-76608540D01*
X103329339Y-76874413D01*
X102751668Y-77260400D01*
X102260400Y-77751668D01*
X101874413Y-78329339D01*
X101608540Y-78971212D01*
X101473000Y-79652621D01*
X101127000Y-79652621D01*
X101127000Y-78004530D01*
X101146385Y-77733496D01*
X101203181Y-77472407D01*
X101296556Y-77222060D01*
X101424605Y-76987555D01*
X101584724Y-76773662D01*
X101773662Y-76584724D01*
X101987555Y-76424605D01*
X102222060Y-76296556D01*
X102472407Y-76203181D01*
X102733496Y-76146385D01*
X103004530Y-76127000D01*
X109855000Y-76127000D01*
X109855000Y-80772000D01*
%TD*%
M02*
